%TF.GenerationSoftware,Altium Limited,Altium Designer,19.1.5 (86)*%
G04 Layer_Color=8388736*
%FSLAX26Y26*%
%MOIN*%
%TF.FileFunction,Other,Assembly_Top*%
%TF.Part,Single*%
G01*
G75*
%TA.AperFunction,NonConductor*%
%ADD47C,0.003937*%
D47*
X2369520Y1284121D02*
G03*
X2369520Y1284121I-19685J0D01*
G01*
X2940591Y1104843D02*
G03*
X2940591Y1104843I-15748J0D01*
G01*
X2349835Y1790788D02*
X2628224Y1512399D01*
X2071447D02*
X2349835Y1234011D01*
X2071447Y1512399D02*
X2349835Y1790788D01*
Y1234011D02*
X2628224Y1512399D01*
X2004780Y1613803D02*
X2074377Y1683400D01*
X1949102Y1669481D02*
X2018699Y1739078D01*
X2074377Y1683400D01*
X1949102Y1669481D02*
X2004780Y1613803D01*
X2072911Y1828400D02*
X2129981Y1885470D01*
X2143900Y1757411D02*
X2200970Y1814481D01*
X2129981Y1885470D02*
X2200970Y1814481D01*
X2072911Y1828400D02*
X2143900Y1757411D01*
X2893347Y1053661D02*
Y1136339D01*
X2976024Y1053661D02*
Y1136339D01*
X2893347D02*
X2976024D01*
X2893347Y1053661D02*
X2976024D01*
X2801732Y794961D02*
X2870630D01*
X2801732Y915039D02*
X2870630D01*
Y794961D02*
Y915039D01*
X2801732Y794961D02*
Y915039D01*
X1888661Y340394D02*
Y639606D01*
X1971339Y340394D02*
Y639606D01*
X1888661Y340394D02*
X1971339D01*
X1888661Y639606D02*
X1971339D01*
X2666890Y1869554D02*
Y1904988D01*
X2599960Y1869554D02*
Y1904988D01*
Y1869554D02*
X2666890D01*
X2599960Y1904988D02*
X2666890D01*
X2572283Y853465D02*
X2607716D01*
X2572283Y786535D02*
X2607716D01*
Y853465D01*
X2572283Y786535D02*
Y853465D01*
X2662417Y1387283D02*
Y1422716D01*
X2729347Y1387283D02*
Y1422716D01*
X2662417D02*
X2729347D01*
X2662417Y1387283D02*
X2729347D01*
X2284802Y1142284D02*
Y1177717D01*
X2217872Y1142284D02*
Y1177717D01*
Y1142284D02*
X2284802D01*
X2217872Y1177717D02*
X2284802D01*
X2405455Y1137283D02*
Y1172716D01*
X2472384Y1137283D02*
Y1172716D01*
X2405455D02*
X2472384D01*
X2405455Y1137283D02*
X2472384D01*
X2162284Y786535D02*
X2197717D01*
X2162284Y853465D02*
X2197717D01*
X2162284Y786535D02*
Y853465D01*
X2197717Y786535D02*
Y853465D01*
X2067284Y791535D02*
X2102717D01*
X2067284Y858465D02*
X2102717D01*
X2067284Y791535D02*
Y858465D01*
X2102717Y791535D02*
Y858465D01*
X2518809Y1271136D02*
X2543864Y1296190D01*
X2566135Y1223809D02*
X2591191Y1248864D01*
X2543864Y1296190D02*
X2591191Y1248864D01*
X2518809Y1271136D02*
X2566135Y1223809D01*
X2562283Y1109685D02*
X2597716D01*
X2562283Y1042756D02*
X2597716D01*
Y1109685D01*
X2562283Y1042756D02*
Y1109685D01*
X1906024Y1155630D02*
Y1191063D01*
X1972953Y1155630D02*
Y1191063D01*
X1906024D02*
X1972953D01*
X1906024Y1155630D02*
X1972953D01*
X1911535Y1040630D02*
Y1076063D01*
X1978465Y1040630D02*
Y1076063D01*
X1911535D02*
X1978465D01*
X1911535Y1040630D02*
X1978465D01*
X2599960Y1997283D02*
Y2032716D01*
X2666890Y1997283D02*
Y2032716D01*
X2599960D02*
X2666890D01*
X2599960Y1997283D02*
X2666890D01*
X2599960Y1932283D02*
Y1967716D01*
X2666890Y1932283D02*
Y1967716D01*
X2599960D02*
X2666890D01*
X2599960Y1932283D02*
X2666890D01*
X2811102Y369055D02*
Y450945D01*
X2748898Y369055D02*
Y450945D01*
X2811102D01*
X2748898Y369055D02*
X2811102D01*
X2033504Y1155630D02*
X2100433D01*
X2033504Y1191063D02*
X2100433D01*
Y1155630D02*
Y1191063D01*
X2033504Y1155630D02*
Y1191063D01*
X2038504Y1040630D02*
X2105433D01*
X2038504Y1076063D02*
X2105433D01*
Y1040630D02*
Y1076063D01*
X2038504Y1040630D02*
Y1076063D01*
X1948900Y1597778D02*
X1965604Y1614481D01*
X1918278Y1628400D02*
X1934981Y1645104D01*
X1918278Y1628400D02*
X1948900Y1597778D01*
X1934981Y1645104D02*
X1965604Y1614481D01*
X2827874Y1166653D02*
X2851496D01*
X2827874Y1123346D02*
X2851496D01*
Y1166653D01*
X2827874Y1123346D02*
Y1166653D01*
Y1038347D02*
X2851496D01*
X2827874Y1081654D02*
X2851496D01*
X2827874Y1038347D02*
Y1081654D01*
X2851496Y1038347D02*
Y1081654D01*
X2926653Y738189D02*
Y761811D01*
X2883346Y738189D02*
Y761811D01*
Y738189D02*
X2926653D01*
X2883346Y761811D02*
X2926653D01*
X3017874Y1078347D02*
X3041496D01*
X3017874Y1121654D02*
X3041496D01*
X3017874Y1078347D02*
Y1121654D01*
X3041496Y1078347D02*
Y1121654D01*
X2953189Y853346D02*
X2976811D01*
X2953189Y896654D02*
X2976811D01*
X2953189Y853346D02*
Y896654D01*
X2976811Y853346D02*
Y896654D01*
X2693543Y856654D02*
X2717165D01*
X2693543Y813346D02*
X2717165D01*
Y856654D01*
X2693543Y813346D02*
Y856654D01*
X2893661Y385591D02*
X2976339D01*
X2893661Y334409D02*
X2976339D01*
X2893661D02*
Y385591D01*
X2976339Y334409D02*
Y385591D01*
X2893661Y465591D02*
X2976339D01*
X2893661Y414409D02*
X2976339D01*
X2893661D02*
Y465591D01*
X2976339Y414409D02*
Y465591D01*
X2503189Y813346D02*
X2526811D01*
X2503189Y856654D02*
X2526811D01*
X2503189Y813346D02*
Y856654D01*
X2526811Y813346D02*
Y856654D01*
X2513829Y1062885D02*
X2537451D01*
X2513829Y1106192D02*
X2537451D01*
X2513829Y1062885D02*
Y1106192D01*
X2537451Y1062885D02*
Y1106192D01*
X2210750Y1932576D02*
X2235805Y1957631D01*
X2258076Y1885250D02*
X2283131Y1910305D01*
X2235805Y1957631D02*
X2283131Y1910305D01*
X2210750Y1932576D02*
X2258076Y1885250D01*
X2569066Y1797766D02*
X2594121Y1772711D01*
X2521740Y1750440D02*
X2546795Y1725385D01*
X2594121Y1772711D01*
X2521740Y1750440D02*
X2569066Y1797766D01*
X2666135Y1701191D02*
X2691191Y1676136D01*
X2618809Y1653864D02*
X2643864Y1628810D01*
X2691191Y1676136D01*
X2618809Y1653864D02*
X2666135Y1701191D01*
X2616136Y1273810D02*
X2641191Y1298864D01*
X2568809Y1321136D02*
X2593865Y1346191D01*
X2568809Y1321136D02*
X2616136Y1273810D01*
X2593865Y1346191D02*
X2641191Y1298864D01*
X2092234Y1265329D02*
X2117289Y1240274D01*
X2139561Y1312655D02*
X2164615Y1287600D01*
X2092234Y1265329D02*
X2139561Y1312655D01*
X2117289Y1240274D02*
X2164615Y1287600D01*
X2035750Y1767576D02*
X2060805Y1792631D01*
X2083076Y1720250D02*
X2108131Y1745305D01*
X2060805Y1792631D02*
X2108131Y1745305D01*
X2035750Y1767576D02*
X2083076Y1720250D01*
X2168662Y1892576D02*
X2193717Y1917631D01*
X2215988Y1845250D02*
X2241043Y1870305D01*
X2193717Y1917631D02*
X2241043Y1870305D01*
X2168662Y1892576D02*
X2215988Y1845250D01*
X2025750Y1880305D02*
X2050805Y1855250D01*
X2073076Y1927631D02*
X2098131Y1902576D01*
X2025750Y1880305D02*
X2073076Y1927631D01*
X2050805Y1855250D02*
X2098131Y1902576D01*
%TF.MD5,bf05bea8331371528e645149581c97af*%
M02*
