%TF.GenerationSoftware,Altium Limited,Altium Designer,19.1.5 (86)*%
G04 Layer_Color=255*
%FSLAX26Y26*%
%MOIN*%
%TF.FileFunction,Pads,Bot*%
%TF.Part,Single*%
G01*
G75*
%TA.AperFunction,SMDPad,CuDef*%
%ADD20R,0.033465X0.035433*%
%ADD21R,0.035433X0.033465*%
%ADD28R,0.025197X0.025197*%
%TA.AperFunction,ComponentPad*%
%ADD35R,0.059055X0.059055*%
%ADD36C,0.059055*%
%ADD37C,0.060000*%
%TA.AperFunction,SMDPad,CuDef*%
%ADD40R,0.050394X0.094488*%
%ADD41R,0.039370X0.015748*%
%ADD42R,0.039370X0.055118*%
%ADD43R,0.062992X0.011417*%
%ADD44R,0.021654X0.045276*%
D20*
X3094848Y2050000D02*
D03*
X3033824D02*
D03*
X2911024D02*
D03*
X2850000D02*
D03*
X2733110D02*
D03*
X2672087D02*
D03*
X2819488Y1273137D02*
D03*
X2880512D02*
D03*
X3140000Y1281220D02*
D03*
X3078976D02*
D03*
X3140512Y1220000D02*
D03*
X3079488D02*
D03*
D21*
X2065000Y1426024D02*
D03*
Y1365000D02*
D03*
X2135000Y1425512D02*
D03*
Y1364488D02*
D03*
X2200000Y1425512D02*
D03*
Y1364488D02*
D03*
X2615000Y459488D02*
D03*
Y520512D02*
D03*
X2540000Y459488D02*
D03*
Y520512D02*
D03*
X2470000Y459488D02*
D03*
Y520512D02*
D03*
D28*
X2390000Y2426890D02*
D03*
Y2463110D02*
D03*
D35*
X2739685Y1055000D02*
D03*
X3070000Y790000D02*
D03*
X2925000Y540000D02*
D03*
X2785000D02*
D03*
X1840000Y1305000D02*
D03*
X1975000Y795000D02*
D03*
X3200000Y390000D02*
D03*
X3090000Y1460000D02*
D03*
X2965000D02*
D03*
X2840000D02*
D03*
X3095000Y1643242D02*
D03*
D36*
X2739685Y1155000D02*
D03*
X3070000Y890000D02*
D03*
X2925000Y640000D02*
D03*
X2785000D02*
D03*
X1840000Y1405000D02*
D03*
Y1505000D02*
D03*
X1975000Y895000D02*
D03*
X3200000Y490000D02*
D03*
Y590000D02*
D03*
Y690000D02*
D03*
Y790000D02*
D03*
Y890000D02*
D03*
X3090000Y1360000D02*
D03*
X2965000D02*
D03*
X2840000D02*
D03*
X3095000Y1743242D02*
D03*
D37*
X2124213Y300000D02*
D03*
X2575000D02*
D03*
D40*
X2510000Y2470728D02*
D03*
D41*
X2457244Y2431358D02*
D03*
Y2470728D02*
D03*
Y2510098D02*
D03*
X2562756Y2431358D02*
D03*
Y2470728D02*
D03*
Y2510098D02*
D03*
D42*
X3039406Y1920000D02*
D03*
X3114209D02*
D03*
X3076808Y1833386D02*
D03*
X2845197Y1925000D02*
D03*
X2920000D02*
D03*
X2882599Y1838386D02*
D03*
X2665197Y1925000D02*
D03*
X2740000D02*
D03*
X2702599Y1838386D02*
D03*
D43*
X2150000Y1245000D02*
D03*
X2540000Y641220D02*
D03*
X2975000Y1236917D02*
D03*
D44*
X2121457Y1281220D02*
D03*
X2150000D02*
D03*
X2178543D02*
D03*
X2121457Y1208780D02*
D03*
X2150000D02*
D03*
X2178543D02*
D03*
X2568543Y605000D02*
D03*
X2540000D02*
D03*
X2511457D02*
D03*
X2568543Y677441D02*
D03*
X2540000D02*
D03*
X2511457D02*
D03*
X2946457Y1273137D02*
D03*
X2975000D02*
D03*
X3003543D02*
D03*
X2946457Y1200696D02*
D03*
X2975000D02*
D03*
X3003543D02*
D03*
%TF.MD5,cf8ddfabd6b13a01f332e2b844583569*%
M02*
