%TF.GenerationSoftware,Altium Limited,Altium Designer,19.1.5 (86)*%
G04 Layer_Color=16711935*
%FSLAX26Y26*%
%MOIN*%
%TF.FileFunction,Soldermask,Bot*%
%TF.Part,Single*%
G01*
G75*
%TA.AperFunction,SMDPad,CuDef*%
%ADD51R,0.058394X0.102488*%
%ADD52R,0.047370X0.023748*%
%ADD53R,0.043433X0.041465*%
%ADD54R,0.041465X0.043433*%
%ADD55R,0.047370X0.063118*%
%ADD56R,0.070992X0.019417*%
%ADD57R,0.029654X0.053276*%
%ADD58R,0.033197X0.033197*%
%TA.AperFunction,ComponentPad*%
%ADD59R,0.067055X0.067055*%
%ADD60C,0.067055*%
%ADD61C,0.068000*%
%TA.AperFunction,ViaPad*%
%ADD62C,0.028000*%
%ADD63C,0.114299*%
D51*
X2510000Y2470728D02*
D03*
D52*
X2457244Y2431358D02*
D03*
Y2470728D02*
D03*
Y2510098D02*
D03*
X2562756Y2431358D02*
D03*
Y2470728D02*
D03*
Y2510098D02*
D03*
D53*
X2065000Y1426024D02*
D03*
Y1365000D02*
D03*
X2135000Y1425512D02*
D03*
Y1364488D02*
D03*
X2200000Y1425512D02*
D03*
Y1364488D02*
D03*
X2615000Y459488D02*
D03*
Y520512D02*
D03*
X2540000Y459488D02*
D03*
Y520512D02*
D03*
X2470000Y459488D02*
D03*
Y520512D02*
D03*
D54*
X3094848Y2050000D02*
D03*
X3033824D02*
D03*
X2911024D02*
D03*
X2850000D02*
D03*
X2733110D02*
D03*
X2672087D02*
D03*
X2819488Y1273137D02*
D03*
X2880512D02*
D03*
X3140000Y1281220D02*
D03*
X3078976D02*
D03*
X3140512Y1220000D02*
D03*
X3079488D02*
D03*
D55*
X3039406Y1920000D02*
D03*
X3114209D02*
D03*
X3076808Y1833386D02*
D03*
X2845197Y1925000D02*
D03*
X2920000D02*
D03*
X2882599Y1838386D02*
D03*
X2665197Y1925000D02*
D03*
X2740000D02*
D03*
X2702599Y1838386D02*
D03*
D56*
X2150000Y1245000D02*
D03*
X2540000Y641220D02*
D03*
X2975000Y1236917D02*
D03*
D57*
X2121457Y1281220D02*
D03*
X2150000D02*
D03*
X2178543D02*
D03*
X2121457Y1208780D02*
D03*
X2150000D02*
D03*
X2178543D02*
D03*
X2568543Y605000D02*
D03*
X2540000D02*
D03*
X2511457D02*
D03*
X2568543Y677441D02*
D03*
X2540000D02*
D03*
X2511457D02*
D03*
X2946457Y1273137D02*
D03*
X2975000D02*
D03*
X3003543D02*
D03*
X2946457Y1200696D02*
D03*
X2975000D02*
D03*
X3003543D02*
D03*
D58*
X2390000Y2426890D02*
D03*
Y2463110D02*
D03*
D59*
X2739685Y1055000D02*
D03*
X3070000Y790000D02*
D03*
X2925000Y540000D02*
D03*
X2785000D02*
D03*
X1840000Y1305000D02*
D03*
X1975000Y795000D02*
D03*
X3200000Y390000D02*
D03*
X3090000Y1460000D02*
D03*
X2965000D02*
D03*
X2840000D02*
D03*
X3095000Y1643242D02*
D03*
D60*
X2739685Y1155000D02*
D03*
X3070000Y890000D02*
D03*
X2925000Y640000D02*
D03*
X2785000D02*
D03*
X1840000Y1405000D02*
D03*
Y1505000D02*
D03*
X1975000Y895000D02*
D03*
X3200000Y490000D02*
D03*
Y590000D02*
D03*
Y690000D02*
D03*
Y790000D02*
D03*
Y890000D02*
D03*
X3090000Y1360000D02*
D03*
X2965000D02*
D03*
X2840000D02*
D03*
X3095000Y1743242D02*
D03*
D61*
X2124213Y300000D02*
D03*
X2575000D02*
D03*
D62*
X2281849Y1847427D02*
D03*
X2244918Y1619493D02*
D03*
X2013397Y1817265D02*
D03*
X2342196Y1690000D02*
D03*
X2485000Y1395000D02*
D03*
X2399638Y1426024D02*
D03*
X2626575Y1385000D02*
D03*
X2469431Y1236917D02*
D03*
X2502042Y1249322D02*
D03*
X3020000Y1045709D02*
D03*
X1900000Y250000D02*
D03*
X3116505Y1110853D02*
D03*
X3043266Y1020000D02*
D03*
X2626575Y1113037D02*
D03*
X2886890Y1020000D02*
D03*
X2672474Y995000D02*
D03*
Y935000D02*
D03*
X2610000Y990000D02*
D03*
X2487109Y730000D02*
D03*
X2302509Y780000D02*
D03*
X2238058Y735281D02*
D03*
X2475000Y645000D02*
D03*
X2872582Y1172362D02*
D03*
X3240000Y1575000D02*
D03*
X3200000Y1525000D02*
D03*
X3155000D02*
D03*
Y1555000D02*
D03*
Y1585000D02*
D03*
X2672474Y1536446D02*
D03*
X2645000Y1485000D02*
D03*
X2558877Y1305000D02*
D03*
X3028445Y320000D02*
D03*
X2770000Y340000D02*
D03*
X2505000Y1555000D02*
D03*
X2276559Y1531886D02*
D03*
Y1559725D02*
D03*
X1982806Y1102649D02*
D03*
X1982339Y1131283D02*
D03*
X2325000Y1137424D02*
D03*
X2225006Y1196922D02*
D03*
X2527345Y1041890D02*
D03*
X2244918Y835000D02*
D03*
X2135476Y495000D02*
D03*
X1930000Y475000D02*
D03*
X2149396Y1055000D02*
D03*
X2628975Y2370000D02*
D03*
X2500000Y2280000D02*
D03*
X2360000Y2422196D02*
D03*
Y2463474D02*
D03*
X2375000Y1983899D02*
D03*
X2572417D02*
D03*
X2786099Y2015000D02*
D03*
X2469431Y1437234D02*
D03*
X3039406Y1187678D02*
D03*
X2975000Y1165000D02*
D03*
X2920000Y1204173D02*
D03*
X3125000Y1815827D02*
D03*
X2924472D02*
D03*
X2745000Y1813205D02*
D03*
X3140000Y2000000D02*
D03*
X2240000Y1440000D02*
D03*
X2448228Y2214188D02*
D03*
X2347196Y2215000D02*
D03*
X2396872Y2085362D02*
D03*
X2350000D02*
D03*
X2474537Y1189182D02*
D03*
X2620000Y1059331D02*
D03*
X2078425Y1225000D02*
D03*
X2066868Y1268425D02*
D03*
X2660635Y1255586D02*
D03*
X2603974Y2431358D02*
D03*
X2605000Y2472780D02*
D03*
X2515000Y2540000D02*
D03*
X2950000Y1970000D02*
D03*
X2238058Y1587564D02*
D03*
X2302509Y1642729D02*
D03*
X2408408Y1622028D02*
D03*
X2533425Y1517467D02*
D03*
X2438920Y1609146D02*
D03*
X2271874Y1409395D02*
D03*
X2172836Y890000D02*
D03*
X2964646Y829876D02*
D03*
X2955000Y750000D02*
D03*
X2707244Y890000D02*
D03*
X2626575Y873307D02*
D03*
X2515000Y789488D02*
D03*
X2438920Y795000D02*
D03*
X1906905Y1704864D02*
D03*
X2745000Y1990000D02*
D03*
X2188120Y1770556D02*
D03*
X2986486Y1731036D02*
D03*
X2893347Y1729359D02*
D03*
X2805000Y1730540D02*
D03*
X2720000Y1728441D02*
D03*
X2620000Y1820987D02*
D03*
X2135256Y1931441D02*
D03*
X2012908Y1936441D02*
D03*
X1876941Y1646441D02*
D03*
X2248499Y2001441D02*
D03*
X2163094Y1991441D02*
D03*
X1967190Y1558327D02*
D03*
X2321941Y1925454D02*
D03*
X2143900Y2061441D02*
D03*
X2068349Y1986441D02*
D03*
X1936941Y1868842D02*
D03*
X1886941Y1801441D02*
D03*
X1796941Y1731441D02*
D03*
D63*
X1795000Y2075000D02*
D03*
X3220000Y130000D02*
D03*
X1800000D02*
D03*
X3215000Y2065000D02*
D03*
%TF.MD5,2de35d657bfdc54d844dc79554599e35*%
M02*
