%TF.GenerationSoftware,Altium Limited,Altium Designer,19.1.5 (86)*%
G04 Layer_Color=32896*
%FSLAX26Y26*%
%MOIN*%
%TF.FileFunction,Legend,Bot*%
%TF.Part,Single*%
G01*
G75*
%TA.AperFunction,NonConductor*%
%ADD45C,0.007874*%
%ADD46C,0.009842*%
%ADD47C,0.003937*%
%ADD48C,0.005000*%
%ADD49R,0.008046X0.011811*%
%ADD50R,0.007874X0.007874*%
D45*
X2597677Y2537657D02*
G03*
X2597677Y2537657I-5000J0D01*
G01*
X2443071Y2403799D02*
X2472992D01*
X2547008D02*
X2576929D01*
X2443071Y2537657D02*
X2472992D01*
X2547008D02*
X2576929D01*
X2443071Y2403799D02*
Y2407736D01*
Y2533720D02*
Y2537657D01*
X2576929Y2403799D02*
Y2407736D01*
Y2533720D02*
Y2537657D01*
X3015784Y1847165D02*
Y1890472D01*
Y1847165D02*
X3041375D01*
X3137831D02*
Y1890472D01*
X3112241Y1847165D02*
X3137831D01*
X2821575Y1852165D02*
Y1895472D01*
Y1852165D02*
X2847165D01*
X2943622D02*
Y1895472D01*
X2918032Y1852165D02*
X2943622D01*
X2641575D02*
Y1895472D01*
Y1852165D02*
X2667165D01*
X2763622D02*
Y1895472D01*
X2738032Y1852165D02*
X2763622D01*
D46*
X3002989Y1920000D02*
G03*
X3002989Y1920000I-4921J0D01*
G01*
X2808780Y1925000D02*
G03*
X2808780Y1925000I-4921J0D01*
G01*
X2628780D02*
G03*
X2628780Y1925000I-4921J0D01*
G01*
D47*
X2210118Y1175906D02*
G03*
X2210118Y1175906I-5000J0D01*
G01*
X2489882Y710315D02*
G03*
X2489882Y710315I-5000J0D01*
G01*
X3035118Y1167822D02*
G03*
X3035118Y1167822I-5000J0D01*
G01*
D48*
X2515000Y2589992D02*
Y2569165D01*
X2510835Y2565000D01*
X2502504D01*
X2498339Y2569165D01*
Y2589992D01*
X2473347Y2565000D02*
X2490008D01*
X2473347Y2581661D01*
Y2585827D01*
X2477512Y2589992D01*
X2485843D01*
X2490008Y2585827D01*
X2041457Y1460000D02*
Y1484992D01*
X2028961D01*
X2024795Y1480827D01*
Y1472496D01*
X2028961Y1468331D01*
X2041457D01*
X2033126D02*
X2024795Y1460000D01*
X2016465D02*
X2008134D01*
X2012300D01*
Y1484992D01*
X2016465Y1480827D01*
X1983142Y1460000D02*
Y1484992D01*
X1995638Y1472496D01*
X1978977D01*
X3090000Y2085362D02*
Y2110354D01*
X3077504D01*
X3073339Y2106188D01*
Y2097858D01*
X3077504Y2093692D01*
X3090000D01*
X3081669D02*
X3073339Y2085362D01*
X3065008D02*
X3056677D01*
X3060843D01*
Y2110354D01*
X3065008Y2106188D01*
X3044182D02*
X3040016Y2110354D01*
X3031686D01*
X3027520Y2106188D01*
Y2102023D01*
X3031686Y2097858D01*
X3035851D01*
X3031686D01*
X3027520Y2093692D01*
Y2089527D01*
X3031686Y2085362D01*
X3040016D01*
X3044182Y2089527D01*
X2163315Y1460000D02*
Y1484992D01*
X2150819D01*
X2146654Y1480827D01*
Y1472496D01*
X2150819Y1468331D01*
X2163315D01*
X2154984D02*
X2146654Y1460000D01*
X2138323D02*
X2129992D01*
X2134158D01*
Y1484992D01*
X2138323Y1480827D01*
X2100835Y1460000D02*
X2117496D01*
X2100835Y1476661D01*
Y1480827D01*
X2105000Y1484992D01*
X2113331D01*
X2117496Y1480827D01*
X2285000Y1460000D02*
Y1484992D01*
X2272504D01*
X2268339Y1480827D01*
Y1472496D01*
X2272504Y1468331D01*
X2285000D01*
X2276669D02*
X2268339Y1460000D01*
X2260008D02*
X2251677D01*
X2255843D01*
Y1484992D01*
X2260008Y1480827D01*
X2239182Y1460000D02*
X2230851D01*
X2235016D01*
Y1484992D01*
X2239182Y1480827D01*
X2696000Y400000D02*
Y424992D01*
X2683504D01*
X2679339Y420827D01*
Y412496D01*
X2683504Y408331D01*
X2696000D01*
X2687669D02*
X2679339Y400000D01*
X2671008D02*
X2662677D01*
X2666843D01*
Y424992D01*
X2671008Y420827D01*
X2650182D02*
X2646016Y424992D01*
X2637686D01*
X2633520Y420827D01*
Y404165D01*
X2637686Y400000D01*
X2646016D01*
X2650182Y404165D01*
Y420827D01*
X2905354Y2085362D02*
Y2110354D01*
X2892858D01*
X2888693Y2106188D01*
Y2097858D01*
X2892858Y2093692D01*
X2905354D01*
X2897024D02*
X2888693Y2085362D01*
X2880363Y2089527D02*
X2876197Y2085362D01*
X2867867D01*
X2863701Y2089527D01*
Y2106188D01*
X2867867Y2110354D01*
X2876197D01*
X2880363Y2106188D01*
Y2102023D01*
X2876197Y2097858D01*
X2863701D01*
X2580000Y400000D02*
Y424992D01*
X2567504D01*
X2563339Y420827D01*
Y412496D01*
X2567504Y408331D01*
X2580000D01*
X2571669D02*
X2563339Y400000D01*
X2555008Y420827D02*
X2550843Y424992D01*
X2542512D01*
X2538347Y420827D01*
Y416661D01*
X2542512Y412496D01*
X2538347Y408331D01*
Y404165D01*
X2542512Y400000D01*
X2550843D01*
X2555008Y404165D01*
Y408331D01*
X2550843Y412496D01*
X2555008Y416661D01*
Y420827D01*
X2550843Y412496D02*
X2542512D01*
X2455000Y400000D02*
Y424992D01*
X2442504D01*
X2438339Y420827D01*
Y412496D01*
X2442504Y408331D01*
X2455000D01*
X2446669D02*
X2438339Y400000D01*
X2430008Y424992D02*
X2413347D01*
Y420827D01*
X2430008Y404165D01*
Y400000D01*
X2720000Y2085362D02*
Y2110354D01*
X2707504D01*
X2703339Y2106188D01*
Y2097858D01*
X2707504Y2093692D01*
X2720000D01*
X2711669D02*
X2703339Y2085362D01*
X2678347Y2110354D02*
X2686677Y2106188D01*
X2695008Y2097858D01*
Y2089527D01*
X2690843Y2085362D01*
X2682512D01*
X2678347Y2089527D01*
Y2093692D01*
X2682512Y2097858D01*
X2695008D01*
X2785000Y1260000D02*
Y1284992D01*
X2772504D01*
X2768339Y1280827D01*
Y1272496D01*
X2772504Y1268331D01*
X2785000D01*
X2776669D02*
X2768339Y1260000D01*
X2743347Y1284992D02*
X2760008D01*
Y1272496D01*
X2751677Y1276661D01*
X2747512D01*
X2743347Y1272496D01*
Y1264165D01*
X2747512Y1260000D01*
X2755843D01*
X2760008Y1264165D01*
X3220000Y1265000D02*
Y1289992D01*
X3207504D01*
X3203339Y1285827D01*
Y1277496D01*
X3207504Y1273331D01*
X3220000D01*
X3211669D02*
X3203339Y1265000D01*
X3182512D02*
Y1289992D01*
X3195008Y1277496D01*
X3178347D01*
X3220000Y1200000D02*
Y1224992D01*
X3207504D01*
X3203339Y1220827D01*
Y1212496D01*
X3207504Y1208331D01*
X3220000D01*
X3211669D02*
X3203339Y1200000D01*
X3195008Y1220827D02*
X3190843Y1224992D01*
X3182512D01*
X3178347Y1220827D01*
Y1216661D01*
X3182512Y1212496D01*
X3186677D01*
X3182512D01*
X3178347Y1208331D01*
Y1204165D01*
X3182512Y1200000D01*
X3190843D01*
X3195008Y1204165D01*
X3073339Y1979165D02*
Y1995827D01*
X3077504Y1999992D01*
X3085835D01*
X3090000Y1995827D01*
Y1979165D01*
X3085835Y1975000D01*
X3077504D01*
X3081669Y1983331D02*
X3073339Y1975000D01*
X3077504D02*
X3073339Y1979165D01*
X3065008Y1995827D02*
X3060843Y1999992D01*
X3052512D01*
X3048347Y1995827D01*
Y1991661D01*
X3052512Y1987496D01*
X3056677D01*
X3052512D01*
X3048347Y1983331D01*
Y1979165D01*
X3052512Y1975000D01*
X3060843D01*
X3065008Y1979165D01*
X2876685D02*
Y1995827D01*
X2880851Y1999992D01*
X2889181D01*
X2893347Y1995827D01*
Y1979165D01*
X2889181Y1975000D01*
X2880851D01*
X2885016Y1983331D02*
X2876685Y1975000D01*
X2880851D02*
X2876685Y1979165D01*
X2851693Y1975000D02*
X2868355D01*
X2851693Y1991661D01*
Y1995827D01*
X2855859Y1999992D01*
X2864189D01*
X2868355Y1995827D01*
X2697118Y1979165D02*
Y1995827D01*
X2701283Y1999992D01*
X2709614D01*
X2713779Y1995827D01*
Y1979165D01*
X2709614Y1975000D01*
X2701283D01*
X2705449Y1983331D02*
X2697118Y1975000D01*
X2701283D02*
X2697118Y1979165D01*
X2688787Y1975000D02*
X2680457D01*
X2684622D01*
Y1999992D01*
X2688787Y1995827D01*
X2325000Y1319992D02*
Y1295000D01*
X2308339D01*
X2283347Y1319992D02*
X2300008D01*
Y1295000D01*
X2283347D01*
X2300008Y1307496D02*
X2291677D01*
X2275016Y1319992D02*
Y1295000D01*
X2262520D01*
X2258355Y1299165D01*
Y1315827D01*
X2262520Y1319992D01*
X2275016D01*
X2250024Y1315827D02*
X2245859Y1319992D01*
X2237528D01*
X2233363Y1315827D01*
Y1311661D01*
X2237528Y1307496D01*
X2241694D01*
X2237528D01*
X2233363Y1303331D01*
Y1299165D01*
X2237528Y1295000D01*
X2245859D01*
X2250024Y1299165D01*
X2465000Y634992D02*
Y610000D01*
X2448339D01*
X2423347Y634992D02*
X2440008D01*
Y610000D01*
X2423347D01*
X2440008Y622496D02*
X2431677D01*
X2415016Y634992D02*
Y610000D01*
X2402520D01*
X2398355Y614165D01*
Y630827D01*
X2402520Y634992D01*
X2415016D01*
X2373363Y610000D02*
X2390024D01*
X2373363Y626661D01*
Y630827D01*
X2377528Y634992D01*
X2385859D01*
X2390024Y630827D01*
X2869685Y1229992D02*
Y1205000D01*
X2853024D01*
X2828032Y1229992D02*
X2844693D01*
Y1205000D01*
X2828032D01*
X2844693Y1217496D02*
X2836363D01*
X2819701Y1229992D02*
Y1205000D01*
X2807205D01*
X2803040Y1209165D01*
Y1225827D01*
X2807205Y1229992D01*
X2819701D01*
X2794709Y1205000D02*
X2786379D01*
X2790544D01*
Y1229992D01*
X2794709Y1225827D01*
X2312586Y2452185D02*
X2316752Y2456350D01*
X2325082D01*
X2329248Y2452185D01*
Y2435523D01*
X2325082Y2431358D01*
X2316752D01*
X2312586Y2435523D01*
X2304256Y2431358D02*
X2295925D01*
X2300091D01*
Y2456350D01*
X2304256Y2452185D01*
D49*
X2593616Y2535689D02*
D03*
D50*
X2206182Y1175750D02*
D03*
X2483818Y710470D02*
D03*
X3031182Y1167667D02*
D03*
%TF.MD5,81b992d967a0496cb65acb28cec9ad92*%
M02*
