%TF.GenerationSoftware,Altium Limited,Altium Designer,19.1.5 (86)*%
G04 Layer_Color=32896*
%FSLAX26Y26*%
%MOIN*%
%TF.FileFunction,Other,Courtyard_Top*%
%TF.Part,Single*%
G01*
G75*
%TA.AperFunction,NonConductor*%
%ADD47C,0.003937*%
%ADD88C,0.001968*%
D47*
X2335916Y1498480D02*
X2363755Y1526319D01*
X2335916D02*
X2363755Y1498480D01*
X1997820Y1690360D02*
X2025659Y1662521D01*
X1997820Y1662521D02*
X2025659Y1690360D01*
X2123021Y1835360D02*
X2150860Y1807521D01*
X2123021D02*
X2150860Y1835360D01*
X2915000Y1095000D02*
X2954370D01*
X2934685Y1075315D02*
Y1114685D01*
X2836181Y835315D02*
Y874685D01*
X2816496Y855000D02*
X2855866D01*
X1910315Y490000D02*
X1949685D01*
X1930000Y470315D02*
Y509685D01*
X2615708Y1887271D02*
X2651141D01*
X2633425Y1869554D02*
Y1904988D01*
X2590000Y802284D02*
Y837716D01*
X2572283Y820000D02*
X2607716D01*
X2678166Y1405000D02*
X2713599D01*
X2695882Y1387283D02*
Y1422716D01*
X2233620Y1160000D02*
X2269053D01*
X2251337Y1142284D02*
Y1177717D01*
X2421203Y1155000D02*
X2456636D01*
X2438920Y1137283D02*
Y1172716D01*
X2180000Y802284D02*
Y837716D01*
X2162284Y820000D02*
X2197717D01*
X2085000Y807284D02*
Y842716D01*
X2067284Y825000D02*
X2102717D01*
X2542472Y1272527D02*
X2567528Y1247473D01*
X2542472D02*
X2567528Y1272527D01*
X2580000Y1058504D02*
Y1093937D01*
X2562283Y1076220D02*
X2597716D01*
X1921772Y1173347D02*
X1957205D01*
X1939488Y1155630D02*
Y1191063D01*
X1927284Y1058347D02*
X1962716D01*
X1945000Y1040630D02*
Y1076063D01*
X2615708Y2015000D02*
X2651141D01*
X2633425Y1997283D02*
Y2032716D01*
X2615708Y1950000D02*
X2651141D01*
X2633425Y1932283D02*
Y1967716D01*
X2760315Y410000D02*
X2799685D01*
X2780000Y390315D02*
Y429685D01*
X2066968Y1155630D02*
Y1191063D01*
X2049252Y1173347D02*
X2084685D01*
X2071968Y1040630D02*
Y1076063D01*
X2054252Y1058347D02*
X2089685D01*
X1933589Y1629792D02*
X1950292Y1613089D01*
X1933589D02*
X1950292Y1629792D01*
X2839685Y1133189D02*
Y1156811D01*
X2827874Y1145000D02*
X2851496D01*
X2839685Y1048189D02*
Y1071811D01*
X2827874Y1060000D02*
X2851496D01*
X2893189Y750000D02*
X2916811D01*
X2905000Y738189D02*
Y761811D01*
X3029685Y1088189D02*
Y1111811D01*
X3017874Y1100000D02*
X3041496D01*
X2965000Y863189D02*
Y886811D01*
X2953189Y875000D02*
X2976811D01*
X2705354Y823189D02*
Y846811D01*
X2693543Y835000D02*
X2717165D01*
X2935000Y340315D02*
Y379685D01*
X2915315Y360000D02*
X2954685D01*
X2935000Y420315D02*
Y459685D01*
X2915315Y440000D02*
X2954685D01*
X2515000Y823189D02*
Y846811D01*
X2503189Y835000D02*
X2526811D01*
X2525640Y1072727D02*
Y1096349D01*
X2513829Y1084538D02*
X2537451D01*
X2234413Y1933968D02*
X2259468Y1908913D01*
X2234413D02*
X2259468Y1933968D01*
X2545403Y1749048D02*
X2570458Y1774103D01*
X2545403D02*
X2570458Y1749048D01*
X2642472Y1652473D02*
X2667528Y1677527D01*
X2642472D02*
X2667528Y1652473D01*
X2592472Y1322527D02*
X2617528Y1297473D01*
X2592472D02*
X2617528Y1322527D01*
X2115897Y1263937D02*
X2140952Y1288992D01*
X2115897D02*
X2140952Y1263937D01*
X2059413Y1768968D02*
X2084468Y1743913D01*
X2059413D02*
X2084468Y1768968D01*
X2192325Y1893968D02*
X2217380Y1868913D01*
X2192325D02*
X2217380Y1893968D01*
X2049413Y1878913D02*
X2074468Y1903968D01*
X2049413D02*
X2074468Y1878913D01*
D88*
X2349835Y1882656D02*
X2720092Y1512399D01*
X1979579D02*
X2349835Y1142142D01*
X1979579Y1512399D02*
X2349835Y1882656D01*
Y1142142D02*
X2720092Y1512399D01*
X2004780Y1599884D02*
X2088296Y1683400D01*
X1935182Y1669481D02*
X2018699Y1752997D01*
X2088296Y1683400D01*
X1935182Y1669481D02*
X2004780Y1599884D01*
X2058992Y1828400D02*
X2129981Y1899389D01*
X2143900Y1743492D02*
X2214889Y1814481D01*
X2129981Y1899389D02*
X2214889Y1814481D01*
X2058992Y1828400D02*
X2143900Y1743492D01*
X2871496Y1043819D02*
Y1146181D01*
X2997874Y1043819D02*
Y1146181D01*
X2871496D02*
X2997874D01*
X2871496Y1043819D02*
X2997874D01*
X2753504Y784134D02*
X2918858D01*
X2753504Y925866D02*
X2918858D01*
Y784134D02*
Y925866D01*
X2753504Y784134D02*
Y925866D01*
X1878819Y314803D02*
Y665197D01*
X1981181Y314803D02*
Y665197D01*
X1878819Y314803D02*
X1981181D01*
X1878819Y665197D02*
X1981181D01*
X2690512Y1859712D02*
Y1914830D01*
X2576338Y1859712D02*
Y1914830D01*
Y1859712D02*
X2690512D01*
X2576338Y1914830D02*
X2690512D01*
X2562441Y877087D02*
X2617559D01*
X2562441Y762913D02*
X2617559D01*
Y877087D01*
X2562441Y762913D02*
Y877087D01*
X2638795Y1377441D02*
Y1432559D01*
X2752969Y1377441D02*
Y1432559D01*
X2638795D02*
X2752969D01*
X2638795Y1377441D02*
X2752969D01*
X2308424Y1132441D02*
Y1187559D01*
X2194250Y1132441D02*
Y1187559D01*
Y1132441D02*
X2308424D01*
X2194250Y1187559D02*
X2308424D01*
X2381833Y1127441D02*
Y1182559D01*
X2496006Y1127441D02*
Y1182559D01*
X2381833D02*
X2496006D01*
X2381833Y1127441D02*
X2496006D01*
X2152441Y762913D02*
X2207559D01*
X2152441Y877087D02*
X2207559D01*
X2152441Y762913D02*
Y877087D01*
X2207559Y762913D02*
Y877087D01*
X2057441Y767913D02*
X2112559D01*
X2057441Y882087D02*
X2112559D01*
X2057441Y767913D02*
Y882087D01*
X2112559Y767913D02*
Y882087D01*
X2495146Y1280879D02*
X2534121Y1319853D01*
X2575879Y1200147D02*
X2614854Y1239121D01*
X2534121Y1319853D02*
X2614854Y1239121D01*
X2495146Y1280879D02*
X2575879Y1200147D01*
X2552441Y1133307D02*
X2607559D01*
X2552441Y1019134D02*
X2607559D01*
Y1133307D01*
X2552441Y1019134D02*
Y1133307D01*
X1882402Y1145787D02*
Y1200906D01*
X1996575Y1145787D02*
Y1200906D01*
X1882402D02*
X1996575D01*
X1882402Y1145787D02*
X1996575D01*
X1887913Y1030787D02*
Y1085906D01*
X2002087Y1030787D02*
Y1085906D01*
X1887913D02*
X2002087D01*
X1887913Y1030787D02*
X2002087D01*
X2576338Y1987441D02*
Y2042559D01*
X2690512Y1987441D02*
Y2042559D01*
X2576338D02*
X2690512D01*
X2576338Y1987441D02*
X2690512D01*
X2576338Y1922441D02*
Y1977559D01*
X2690512Y1922441D02*
Y1977559D01*
X2576338D02*
X2690512D01*
X2576338Y1922441D02*
X2690512D01*
X2820945Y359213D02*
Y460787D01*
X2739055Y359213D02*
Y460787D01*
X2820945D01*
X2739055Y359213D02*
X2820945D01*
X2009882Y1145787D02*
X2124055D01*
X2009882Y1200906D02*
X2124055D01*
Y1145787D02*
Y1200906D01*
X2009882Y1145787D02*
Y1200906D01*
X2014882Y1030787D02*
X2129055D01*
X2014882Y1085906D02*
X2129055D01*
Y1030787D02*
Y1085906D01*
X2014882Y1030787D02*
Y1085906D01*
X1954468Y1581074D02*
X1982307Y1608913D01*
X1901574Y1633968D02*
X1929413Y1661807D01*
X1901574Y1633968D02*
X1954468Y1581074D01*
X1929413Y1661807D02*
X1982307Y1608913D01*
X2820000Y1182401D02*
X2859370D01*
X2820000Y1107598D02*
X2859370D01*
Y1182401D01*
X2820000Y1107598D02*
Y1182401D01*
X2820000Y1022598D02*
X2859370D01*
X2820000Y1097402D02*
X2859370D01*
X2820000Y1022598D02*
Y1097402D01*
X2859370Y1022598D02*
Y1097402D01*
X2942401Y730315D02*
Y769685D01*
X2867598Y730315D02*
Y769685D01*
Y730315D02*
X2942401D01*
X2867598Y769685D02*
X2942401D01*
X3010000Y1062599D02*
X3049370D01*
X3010000Y1137402D02*
X3049370D01*
X3010000Y1062599D02*
Y1137402D01*
X3049370Y1062599D02*
Y1137402D01*
X2945315Y837598D02*
X2984685D01*
X2945315Y912402D02*
X2984685D01*
X2945315Y837598D02*
Y912402D01*
X2984685Y837598D02*
Y912402D01*
X2685669Y872402D02*
X2725039D01*
X2685669Y797598D02*
X2725039D01*
Y872402D01*
X2685669Y797598D02*
Y872402D01*
X2870039Y395433D02*
X2999961D01*
X2870039Y324567D02*
X2999961D01*
X2870039D02*
Y395433D01*
X2999961Y324567D02*
Y395433D01*
X2870039Y475433D02*
X2999961D01*
X2870039Y404567D02*
X2999961D01*
X2870039D02*
Y475433D01*
X2999961Y404567D02*
Y475433D01*
X2495315Y797598D02*
X2534685D01*
X2495315Y872402D02*
X2534685D01*
X2495315Y797598D02*
Y872402D01*
X2534685Y797598D02*
Y872402D01*
X2505955Y1047137D02*
X2545325D01*
X2505955Y1121940D02*
X2545325D01*
X2505955Y1047137D02*
Y1121940D01*
X2545325Y1047137D02*
Y1121940D01*
X2187087Y1942320D02*
X2226061Y1981294D01*
X2267820Y1861587D02*
X2306794Y1900561D01*
X2226061Y1981294D02*
X2306794Y1900561D01*
X2187087Y1942320D02*
X2267820Y1861587D01*
X2578810Y1821429D02*
X2617784Y1782454D01*
X2498077Y1740696D02*
X2537051Y1701722D01*
X2617784Y1782454D01*
X2498077Y1740696D02*
X2578810Y1821429D01*
X2675879Y1724853D02*
X2714854Y1685879D01*
X2595146Y1644121D02*
X2634121Y1605147D01*
X2714854Y1685879D01*
X2595146Y1644121D02*
X2675879Y1724853D01*
X2625879Y1250147D02*
X2664854Y1289121D01*
X2545146Y1330879D02*
X2584121Y1369853D01*
X2545146Y1330879D02*
X2625879Y1250147D01*
X2584121Y1369853D02*
X2664854Y1289121D01*
X2068571Y1255586D02*
X2107546Y1216611D01*
X2149304Y1336318D02*
X2188278Y1297344D01*
X2068571Y1255586D02*
X2149304Y1336318D01*
X2107546Y1216611D02*
X2188278Y1297344D01*
X2012087Y1777320D02*
X2051061Y1816294D01*
X2092820Y1696587D02*
X2131794Y1735561D01*
X2051061Y1816294D02*
X2131794Y1735561D01*
X2012087Y1777320D02*
X2092820Y1696587D01*
X2144999Y1902320D02*
X2183974Y1941294D01*
X2225732Y1821587D02*
X2264706Y1860561D01*
X2183974Y1941294D02*
X2264706Y1860561D01*
X2144999Y1902320D02*
X2225732Y1821587D01*
X2002087Y1870561D02*
X2041062Y1831587D01*
X2082820Y1951294D02*
X2121794Y1912320D01*
X2002087Y1870561D02*
X2082820Y1951294D01*
X2041062Y1831587D02*
X2121794Y1912320D01*
%TF.MD5,111ccd212bca2a8a3677a9fda8555c6b*%
M02*
