%TF.GenerationSoftware,Altium Limited,Altium Designer,19.1.5 (86)*%
G04 Layer_Color=32768*
%FSLAX26Y26*%
%MOIN*%
%TF.FileFunction,Other,Assembly_Bottom*%
%TF.Part,Single*%
G01*
G75*
%TA.AperFunction,NonConductor*%
%ADD47C,0.003937*%
D47*
X2555276Y2496319D02*
G03*
X2555276Y2496319I-19685J0D01*
G01*
X2178543Y1233189D02*
G03*
X2178543Y1233189I-19685J0D01*
G01*
X2550827Y653032D02*
G03*
X2550827Y653032I-19685J0D01*
G01*
X3003543Y1225106D02*
G03*
X3003543Y1225106I-19685J0D01*
G01*
X2448976Y2409705D02*
X2571024D01*
X2448976Y2531752D02*
X2571024D01*
X2448976Y2409705D02*
Y2531752D01*
X2571024Y2409705D02*
Y2531752D01*
X2047284Y1428976D02*
X2082717D01*
X2047284Y1362047D02*
X2082717D01*
X2047284D02*
Y1428976D01*
X2082717Y1362047D02*
Y1428976D01*
X3097801Y2032283D02*
Y2067716D01*
X3030872Y2032283D02*
Y2067716D01*
X3097801D01*
X3030872Y2032283D02*
X3097801D01*
X2117284Y1428465D02*
X2152717D01*
X2117284Y1361535D02*
X2152717D01*
X2117284D02*
Y1428465D01*
X2152717Y1361535D02*
Y1428465D01*
X2182284D02*
X2217717D01*
X2182284Y1361535D02*
X2217717D01*
X2182284D02*
Y1428465D01*
X2217717Y1361535D02*
Y1428465D01*
X2597283Y456535D02*
X2632716D01*
X2597283Y523465D02*
X2632716D01*
Y456535D02*
Y523465D01*
X2597283Y456535D02*
Y523465D01*
X2913976Y2032283D02*
Y2067716D01*
X2847047Y2032283D02*
Y2067716D01*
X2913976D01*
X2847047Y2032283D02*
X2913976D01*
X2522283Y456535D02*
X2557716D01*
X2522283Y523465D02*
X2557716D01*
Y456535D02*
Y523465D01*
X2522283Y456535D02*
Y523465D01*
X2452283Y456535D02*
X2487716D01*
X2452283Y523465D02*
X2487716D01*
Y456535D02*
Y523465D01*
X2452283Y456535D02*
Y523465D01*
X2736063Y2032283D02*
Y2067716D01*
X2669134Y2032283D02*
Y2067716D01*
X2736063D01*
X2669134Y2032283D02*
X2736063D01*
X2816535Y1255421D02*
Y1290854D01*
X2883465Y1255421D02*
Y1290854D01*
X2816535Y1255421D02*
X2883465D01*
X2816535Y1290854D02*
X2883465D01*
X3142953Y1263504D02*
Y1298937D01*
X3076024Y1263504D02*
Y1298937D01*
X3142953D01*
X3076024Y1263504D02*
X3142953D01*
X3143465Y1202283D02*
Y1237716D01*
X3076535Y1202283D02*
Y1237716D01*
X3143465D01*
X3076535Y1202283D02*
X3143465D01*
X3015390Y1906220D02*
X3138225D01*
X3015390Y1847165D02*
X3138225D01*
X3015390D02*
Y1906220D01*
X3138225Y1847165D02*
Y1906220D01*
X2821181Y1911220D02*
X2944016D01*
X2821181Y1852165D02*
X2944016D01*
X2821181D02*
Y1911220D01*
X2944016Y1852165D02*
Y1911220D01*
X2641181D02*
X2764016D01*
X2641181Y1852165D02*
X2764016D01*
X2641181D02*
Y1911220D01*
X2764016Y1852165D02*
Y1911220D01*
X2105709Y1197756D02*
Y1292244D01*
X2194291Y1197756D02*
Y1292244D01*
X2105709D02*
X2194291D01*
X2105709Y1197756D02*
X2194291D01*
X2584291Y593976D02*
Y688465D01*
X2495709Y593976D02*
Y688465D01*
Y593976D02*
X2584291D01*
X2495709Y688465D02*
X2584291D01*
X2930709Y1189673D02*
Y1284161D01*
X3019291Y1189673D02*
Y1284161D01*
X2930709D02*
X3019291D01*
X2930709Y1189673D02*
X3019291D01*
X2378189Y2423347D02*
X2401811D01*
X2378189Y2466654D02*
X2401811D01*
Y2423347D02*
Y2466654D01*
X2378189Y2423347D02*
Y2466654D01*
%TF.MD5,d1627d7703b4311d37871ac6b0af0728*%
M02*
