%TF.GenerationSoftware,Altium Limited,Altium Designer,19.1.5 (86)*%
G04 Layer_Color=255*
%FSLAX26Y26*%
%MOIN*%
%TF.FileFunction,Pads,Top*%
%TF.Part,Single*%
G01*
G75*
%TA.AperFunction,SMDPad,CuDef*%
G04:AMPARAMS|DCode=10|XSize=11.811mil|YSize=55.118mil|CornerRadius=0mil|HoleSize=0mil|Usage=FLASHONLY|Rotation=135.000|XOffset=0mil|YOffset=0mil|HoleType=Round|Shape=Rectangle|*
%AMROTATEDRECTD10*
4,1,4,0.023663,0.015311,-0.015311,-0.023663,-0.023663,-0.015311,0.015311,0.023663,0.023663,0.015311,0.0*
%
%ADD10ROTATEDRECTD10*%

G04:AMPARAMS|DCode=11|XSize=11.811mil|YSize=55.118mil|CornerRadius=0mil|HoleSize=0mil|Usage=FLASHONLY|Rotation=225.000|XOffset=0mil|YOffset=0mil|HoleType=Round|Shape=Rectangle|*
%AMROTATEDRECTD11*
4,1,4,-0.015311,0.023663,0.023663,-0.015311,0.015311,-0.023663,-0.023663,0.015311,-0.015311,0.023663,0.0*
%
%ADD11ROTATEDRECTD11*%

%ADD12P,0.038974X4X90.0*%
G04:AMPARAMS|DCode=13|XSize=33.465mil|YSize=25.591mil|CornerRadius=0mil|HoleSize=0mil|Usage=FLASHONLY|Rotation=45.000|XOffset=0mil|YOffset=0mil|HoleType=Round|Shape=Rectangle|*
%AMROTATEDRECTD13*
4,1,4,-0.002784,-0.020879,-0.020879,-0.002784,0.002784,0.020879,0.020879,0.002784,-0.002784,-0.020879,0.0*
%
%ADD13ROTATEDRECTD13*%

%ADD14R,0.017716X0.011811*%
%ADD15R,0.035039X0.062992*%
%ADD16R,0.043307X0.023622*%
%ADD17O,0.025591X0.064961*%
%ADD18R,0.055118X0.086614*%
%ADD19R,0.078740X0.098425*%
%ADD20R,0.033465X0.035433*%
%ADD21R,0.035433X0.033465*%
G04:AMPARAMS|DCode=22|XSize=35.433mil|YSize=33.465mil|CornerRadius=0mil|HoleSize=0mil|Usage=FLASHONLY|Rotation=45.000|XOffset=0mil|YOffset=0mil|HoleType=Round|Shape=Rectangle|*
%AMROTATEDRECTD22*
4,1,4,-0.000696,-0.024359,-0.024359,-0.000696,0.000696,0.024359,0.024359,0.000696,-0.000696,-0.024359,0.0*
%
%ADD22ROTATEDRECTD22*%

%ADD23R,0.015748X0.025591*%
%ADD24R,0.049213X0.070866*%
%ADD25O,0.062992X0.157480*%
%ADD26R,0.062992X0.157480*%
%ADD27P,0.035634X4X270.0*%
%ADD28R,0.025197X0.025197*%
%ADD29R,0.025197X0.025197*%
%ADD30R,0.041339X0.051181*%
G04:AMPARAMS|DCode=31|XSize=35.433mil|YSize=33.465mil|CornerRadius=0mil|HoleSize=0mil|Usage=FLASHONLY|Rotation=315.000|XOffset=0mil|YOffset=0mil|HoleType=Round|Shape=Rectangle|*
%AMROTATEDRECTD31*
4,1,4,-0.024359,0.000696,-0.000696,0.024359,0.024359,-0.000696,0.000696,-0.024359,-0.024359,0.000696,0.0*
%
%ADD31ROTATEDRECTD31*%

%TA.AperFunction,ComponentPad*%
%ADD35R,0.059055X0.059055*%
%ADD36C,0.059055*%
%ADD37C,0.060000*%
D10*
X2295549Y1249322D02*
D03*
X2281630Y1263242D02*
D03*
X2267711Y1277161D02*
D03*
X2253791Y1291080D02*
D03*
X2239872Y1305000D02*
D03*
X2225952Y1318919D02*
D03*
X2212033Y1332839D02*
D03*
X2198113Y1346758D02*
D03*
X2184194Y1360678D02*
D03*
X2170275Y1374597D02*
D03*
X2156355Y1388516D02*
D03*
X2142436Y1402436D02*
D03*
X2128516Y1416355D02*
D03*
X2114597Y1430275D02*
D03*
X2100677Y1444194D02*
D03*
X2086758Y1458113D02*
D03*
X2404121Y1775476D02*
D03*
X2418040Y1761557D02*
D03*
X2431960Y1747638D02*
D03*
X2445879Y1733718D02*
D03*
X2459799Y1719799D02*
D03*
X2473718Y1705879D02*
D03*
X2487637Y1691960D02*
D03*
X2501557Y1678040D02*
D03*
X2515476Y1664121D02*
D03*
X2529396Y1650201D02*
D03*
X2543315Y1636282D02*
D03*
X2557235Y1622363D02*
D03*
X2571154Y1608443D02*
D03*
X2585073Y1594524D02*
D03*
X2598993Y1580604D02*
D03*
X2612912Y1566685D02*
D03*
D11*
X2086758D02*
D03*
X2100677Y1580604D02*
D03*
X2114597Y1594524D02*
D03*
X2128516Y1608443D02*
D03*
X2142436Y1622363D02*
D03*
X2156355Y1636282D02*
D03*
X2170275Y1650201D02*
D03*
X2184194Y1664121D02*
D03*
X2198113Y1678040D02*
D03*
X2212033Y1691960D02*
D03*
X2225952Y1705879D02*
D03*
X2239872Y1719799D02*
D03*
X2253791Y1733718D02*
D03*
X2267711Y1747638D02*
D03*
X2281630Y1761557D02*
D03*
X2295549Y1775476D02*
D03*
X2612912Y1458113D02*
D03*
X2598993Y1444194D02*
D03*
X2585073Y1430275D02*
D03*
X2571154Y1416355D02*
D03*
X2557235Y1402436D02*
D03*
X2543315Y1388516D02*
D03*
X2529396Y1374597D02*
D03*
X2515476Y1360678D02*
D03*
X2501557Y1346758D02*
D03*
X2487637Y1332839D02*
D03*
X2473718Y1318919D02*
D03*
X2459799Y1305000D02*
D03*
X2445879Y1291080D02*
D03*
X2431960Y1277161D02*
D03*
X2418040Y1263242D02*
D03*
X2404121Y1249322D02*
D03*
D12*
X2046538Y1676441D02*
D03*
X2011739Y1641642D02*
D03*
Y1711239D02*
D03*
X1976941Y1676441D02*
D03*
D13*
X2095182Y1825617D02*
D03*
X2132765Y1863199D02*
D03*
X2141116Y1779682D02*
D03*
X2178699Y1817265D02*
D03*
D14*
X2896299Y1120591D02*
D03*
Y1095000D02*
D03*
Y1069409D02*
D03*
X2973071Y1120591D02*
D03*
Y1095000D02*
D03*
Y1069409D02*
D03*
D15*
X2934685Y1095000D02*
D03*
D16*
X2887362Y892402D02*
D03*
Y817598D02*
D03*
X2785000D02*
D03*
Y855000D02*
D03*
Y892402D02*
D03*
D17*
X2275000Y853780D02*
D03*
X2325000D02*
D03*
X2375000D02*
D03*
X2425000D02*
D03*
X2275000Y1076220D02*
D03*
X2325000D02*
D03*
X2375000D02*
D03*
X2425000D02*
D03*
D18*
X3075000Y550000D02*
D03*
X3020000Y1932638D02*
D03*
X1970000Y210000D02*
D03*
X1853185Y1941441D02*
D03*
X2986486Y1643425D02*
D03*
X2893347Y1643944D02*
D03*
X2800000Y1642929D02*
D03*
X2425669Y1960581D02*
D03*
X2520000D02*
D03*
D19*
X1930000Y385669D02*
D03*
Y594331D02*
D03*
D20*
X2663937Y1887271D02*
D03*
X2602913D02*
D03*
X2665370Y1405000D02*
D03*
X2726394D02*
D03*
X2281849Y1160000D02*
D03*
X2220825D02*
D03*
X2408408Y1155000D02*
D03*
X2469431D02*
D03*
X1908976Y1173347D02*
D03*
X1970000D02*
D03*
X1914488Y1058347D02*
D03*
X1975512D02*
D03*
X2602913Y2015000D02*
D03*
X2663937D02*
D03*
X2602913Y1950000D02*
D03*
X2663937D02*
D03*
X2097480Y1173347D02*
D03*
X2036457D02*
D03*
X2102480Y1058347D02*
D03*
X2041457D02*
D03*
D21*
X2590000Y850512D02*
D03*
Y789488D02*
D03*
X2180000D02*
D03*
Y850512D02*
D03*
X2085000Y794488D02*
D03*
Y855512D02*
D03*
X2580000Y1106732D02*
D03*
Y1045709D02*
D03*
D22*
X2533425Y1281575D02*
D03*
X2576575Y1238425D02*
D03*
X2225365Y1943016D02*
D03*
X2268516Y1899866D02*
D03*
X2626575Y1288425D02*
D03*
X2583425Y1331575D02*
D03*
X2050365Y1778016D02*
D03*
X2093516Y1734866D02*
D03*
X2183278Y1903016D02*
D03*
X2226428Y1859866D02*
D03*
D23*
X2760315Y374567D02*
D03*
X2799685D02*
D03*
D24*
X2780000Y429685D02*
D03*
D25*
X2125000Y605118D02*
D03*
X2275000D02*
D03*
X2425000D02*
D03*
D26*
X2575000D02*
D03*
D27*
X1954746Y1608635D02*
D03*
X1929135Y1634246D02*
D03*
D28*
X2839685Y1163110D02*
D03*
Y1126890D02*
D03*
Y1041890D02*
D03*
Y1078110D02*
D03*
X3029685Y1081890D02*
D03*
Y1118110D02*
D03*
X2965000Y856890D02*
D03*
Y893110D02*
D03*
X2705354Y853110D02*
D03*
Y816890D02*
D03*
X2515000Y816890D02*
D03*
Y853110D02*
D03*
X2525640Y1066428D02*
D03*
Y1102649D02*
D03*
D29*
X2923110Y750000D02*
D03*
X2886890D02*
D03*
D30*
X2900551Y360000D02*
D03*
X2969449D02*
D03*
X2900551Y440000D02*
D03*
X2969449D02*
D03*
D31*
X2579506Y1783150D02*
D03*
X2536356Y1740000D02*
D03*
X2676575Y1686575D02*
D03*
X2633425Y1643425D02*
D03*
X2106850Y1254890D02*
D03*
X2150000Y1298040D02*
D03*
X2040366Y1869866D02*
D03*
X2083516Y1913016D02*
D03*
D35*
X2739685Y1055000D02*
D03*
X3070000Y790000D02*
D03*
X2925000Y540000D02*
D03*
X2785000D02*
D03*
X1840000Y1305000D02*
D03*
X1975000Y795000D02*
D03*
X3200000Y390000D02*
D03*
X3090000Y1460000D02*
D03*
X2965000D02*
D03*
X2840000D02*
D03*
X3095000Y1643242D02*
D03*
D36*
X2739685Y1155000D02*
D03*
X3070000Y890000D02*
D03*
X2925000Y640000D02*
D03*
X2785000D02*
D03*
X1840000Y1405000D02*
D03*
Y1505000D02*
D03*
X1975000Y895000D02*
D03*
X3200000Y490000D02*
D03*
Y590000D02*
D03*
Y690000D02*
D03*
Y790000D02*
D03*
Y890000D02*
D03*
X3090000Y1360000D02*
D03*
X2965000D02*
D03*
X2840000D02*
D03*
X3095000Y1743242D02*
D03*
D37*
X2124213Y300000D02*
D03*
X2575000D02*
D03*
%TF.MD5,64eba3514e144cb9c26952143f1d2296*%
M02*
