%TF.GenerationSoftware,Altium Limited,Altium Designer,19.1.5 (86)*%
G04 Layer_Color=8388736*
%FSLAX26Y26*%
%MOIN*%
%TF.FileFunction,Other,Top_Assembly*%
%TF.Part,Single*%
G01*
G75*
%TA.AperFunction,NonConductor*%
%ADD98C,0.003937*%
D98*
X4109095Y6200591D02*
G03*
X4109095Y6200591I-19685J0D01*
G01*
X3329213Y6160433D02*
G03*
X3329213Y6160433I-19685J0D01*
G01*
X3851682Y5567912D02*
G03*
X3851682Y5567912I-19685J0D01*
G01*
X3402271Y4545403D02*
X3449597Y4592729D01*
X3310403Y4637271D02*
X3357729Y4684597D01*
X3310403Y4637271D02*
X3402271Y4545403D01*
X3357729Y4684597D02*
X3449597Y4592729D01*
X3350403Y5447729D02*
X3397729Y5400403D01*
X3442271Y5539597D02*
X3489597Y5492271D01*
X3350403Y5447729D02*
X3442271Y5539597D01*
X3397729Y5400403D02*
X3489597Y5492271D01*
X3241337Y5228040D02*
X3271960Y5258663D01*
X3258040Y5211337D02*
X3288663Y5241960D01*
X3241337Y5228040D02*
X3258040Y5211337D01*
X3271960Y5258663D02*
X3288663Y5241960D01*
X4038040Y5578663D02*
X4068663Y5548040D01*
X4021337Y5561960D02*
X4051960Y5531337D01*
X4021337Y5561960D02*
X4038040Y5578663D01*
X4051960Y5531337D02*
X4068663Y5548040D01*
X4225403Y4612729D02*
X4272729Y4565403D01*
X4317271Y4704597D02*
X4364597Y4657271D01*
X4225403Y4612729D02*
X4317271Y4704597D01*
X4272729Y4565403D02*
X4364597Y4657271D01*
X4387311Y4891706D02*
X4442989Y4947383D01*
X4456908Y4822109D02*
X4512586Y4877786D01*
X4442989Y4947383D02*
X4512586Y4877786D01*
X4387311Y4891706D02*
X4456908Y4822109D01*
X3653040Y4395971D02*
X3724029Y4466960D01*
X3595971Y4453040D02*
X3666960Y4524029D01*
X3724029Y4466960D01*
X3595971Y4453040D02*
X3653040Y4395971D01*
X3104055Y6156378D02*
X3235945D01*
X3104055Y5953622D02*
X3235945D01*
Y6156378D01*
X3104055Y5953622D02*
Y6156378D01*
X2619449Y8579961D02*
Y8700039D01*
X2550551Y8579961D02*
Y8700039D01*
Y8579961D02*
X2619449D01*
X2550551Y8700039D02*
X2619449D01*
X3494449Y8584961D02*
Y8705039D01*
X3425551Y8584961D02*
Y8705039D01*
Y8584961D02*
X3494449D01*
X3425551Y8705039D02*
X3494449D01*
X4369921Y8604961D02*
Y8725039D01*
X4301024Y8604961D02*
Y8725039D01*
Y8604961D02*
X4369921D01*
X4301024Y8725039D02*
X4369921D01*
X4053976Y6113976D02*
Y6236024D01*
X4176024Y6113976D02*
Y6236024D01*
X4053976D02*
X4176024D01*
X4053976Y6113976D02*
X4176024D01*
X3274095Y6034449D02*
Y6195866D01*
X3435512Y6034449D02*
Y6195866D01*
X3274095D02*
X3435512D01*
X3274095Y6034449D02*
X3435512D01*
X1276339Y1410394D02*
Y1709606D01*
X1193661Y1410394D02*
Y1709606D01*
X1276339D01*
X1193661Y1410394D02*
X1276339D01*
X2072717Y996535D02*
Y1063465D01*
X2037284Y996535D02*
Y1063465D01*
X2072717D01*
X2037284Y996535D02*
X2072717D01*
X2082717Y1366535D02*
Y1433465D01*
X2047284Y1366535D02*
Y1433465D01*
X2082717D01*
X2047284Y1366535D02*
X2082717D01*
X1737717Y1371535D02*
Y1438465D01*
X1702284Y1371535D02*
Y1438465D01*
X1737717D01*
X1702284Y1371535D02*
X1737717D01*
X2402717D02*
Y1438465D01*
X2367284Y1371535D02*
Y1438465D01*
X2402717D01*
X2367284Y1371535D02*
X2402717D01*
X2102717Y1751535D02*
Y1818465D01*
X2067284Y1751535D02*
Y1818465D01*
X2102717D01*
X2067284Y1751535D02*
X2102717D01*
X4222283Y5941535D02*
Y6008465D01*
X4257717Y5941535D02*
Y6008465D01*
X4222283Y5941535D02*
X4257717D01*
X4222283Y6008465D02*
X4257717D01*
X4362717Y3636535D02*
Y3703465D01*
X4327283Y3636535D02*
Y3703465D01*
X4362717D01*
X4327283Y3636535D02*
X4362717D01*
X4087717Y3736535D02*
Y3803465D01*
X4052284Y3736535D02*
Y3803465D01*
X4087717D01*
X4052284Y3736535D02*
X4087717D01*
X5546535Y8842717D02*
X5613465D01*
X5546535Y8807283D02*
X5613465D01*
X5546535D02*
Y8842717D01*
X5613465Y8807283D02*
Y8842717D01*
X2482717Y8606535D02*
Y8673465D01*
X2447284Y8606535D02*
Y8673465D01*
X2482717D01*
X2447284Y8606535D02*
X2482717D01*
X2364410Y8681890D02*
X2415591D01*
X2364410Y8599213D02*
X2415591D01*
Y8681890D01*
X2364410Y8599213D02*
Y8681890D01*
X3352717Y8616535D02*
Y8683465D01*
X3317284Y8616535D02*
Y8683465D01*
X3352717D01*
X3317284Y8616535D02*
X3352717D01*
X3234410Y8696339D02*
X3285591D01*
X3234410Y8613661D02*
X3285591D01*
Y8696339D01*
X3234410Y8613661D02*
Y8696339D01*
X2586535Y8042283D02*
X2653465D01*
X2586535Y8077717D02*
X2653465D01*
Y8042283D02*
Y8077717D01*
X2586535Y8042283D02*
Y8077717D01*
X3446535Y8052283D02*
X3513465D01*
X3446535Y8087717D02*
X3513465D01*
Y8052283D02*
Y8087717D01*
X3446535Y8052283D02*
Y8087717D01*
X4227717Y8641535D02*
Y8708465D01*
X4192283Y8641535D02*
Y8708465D01*
X4227717D01*
X4192283Y8641535D02*
X4227717D01*
X4104409Y8716339D02*
X4155591D01*
X4104409Y8633661D02*
X4155591D01*
Y8716339D01*
X4104409Y8633661D02*
Y8716339D01*
X4311535Y8072283D02*
X4378465D01*
X4311535Y8107717D02*
X4378465D01*
Y8072283D02*
Y8107717D01*
X4311535Y8072283D02*
Y8107717D01*
X2172717Y7616535D02*
Y7683465D01*
X2137284Y7616535D02*
Y7683465D01*
X2172717D01*
X2137284Y7616535D02*
X2172717D01*
X2026535Y7662283D02*
X2093465D01*
X2026535Y7697717D02*
X2093465D01*
Y7662283D02*
Y7697717D01*
X2026535Y7662283D02*
Y7697717D01*
X2157717Y7781535D02*
Y7848465D01*
X2122284Y7781535D02*
Y7848465D01*
X2157717D01*
X2122284Y7781535D02*
X2157717D01*
X2352717Y7476535D02*
Y7543465D01*
X2317284Y7476535D02*
Y7543465D01*
X2352717D01*
X2317284Y7476535D02*
X2352717D01*
X2332047Y7677717D02*
X2398976D01*
X2332047Y7642283D02*
X2398976D01*
X2332047D02*
Y7677717D01*
X2398976Y7642283D02*
Y7677717D01*
X4312283Y6131535D02*
Y6198465D01*
X4347717Y6131535D02*
Y6198465D01*
X4312283Y6131535D02*
X4347717D01*
X4312283Y6198465D02*
X4347717D01*
X4076535Y6277283D02*
X4143465D01*
X4076535Y6312717D02*
X4143465D01*
Y6277283D02*
Y6312717D01*
X4076535Y6277283D02*
Y6312717D01*
X6017717Y861535D02*
Y928465D01*
X5982283Y861535D02*
Y928465D01*
X6017717D01*
X5982283Y861535D02*
X6017717D01*
X5837717Y866535D02*
Y933465D01*
X5802283Y866535D02*
Y933465D01*
X5837717D01*
X5802283Y866535D02*
X5837717D01*
X5637717Y876535D02*
Y943465D01*
X5602283Y876535D02*
Y943465D01*
X5637717D01*
X5602283Y876535D02*
X5637717D01*
X5974409Y1191339D02*
X6025591D01*
X5974409Y1108661D02*
X6025591D01*
Y1191339D01*
X5974409Y1108661D02*
Y1191339D01*
X5709409Y1196339D02*
X5760591D01*
X5709409Y1113661D02*
X5760591D01*
Y1196339D01*
X5709409Y1113661D02*
Y1196339D01*
X5429409Y1201339D02*
X5480591D01*
X5429409Y1118661D02*
X5480591D01*
Y1201339D01*
X5429409Y1118661D02*
Y1201339D01*
X1957717Y996535D02*
Y1063465D01*
X1922284Y996535D02*
Y1063465D01*
X1957717D01*
X1922284Y996535D02*
X1957717D01*
X3831535Y3262717D02*
X3898465D01*
X3831535Y3227284D02*
X3898465D01*
X3831535D02*
Y3262717D01*
X3898465Y3227284D02*
Y3262717D01*
X1962717Y1371535D02*
Y1438465D01*
X1927284Y1371535D02*
Y1438465D01*
X1962717D01*
X1927284Y1371535D02*
X1962717D01*
X1627717D02*
Y1438465D01*
X1592284Y1371535D02*
Y1438465D01*
X1627717D01*
X1592284Y1371535D02*
X1627717D01*
X2302717D02*
Y1438465D01*
X2267284Y1371535D02*
Y1438465D01*
X2302717D01*
X2267284Y1371535D02*
X2302717D01*
X1972717Y1741535D02*
Y1808465D01*
X1937284Y1741535D02*
Y1808465D01*
X1972717D01*
X1937284Y1741535D02*
X1972717D01*
X1607717Y6826024D02*
Y6892953D01*
X1572284Y6826024D02*
Y6892953D01*
X1607717D01*
X1572284Y6826024D02*
X1607717D01*
X1567283Y7191024D02*
Y7257953D01*
X1602716Y7191024D02*
Y7257953D01*
X1567283Y7191024D02*
X1602716D01*
X1567283Y7257953D02*
X1602716D01*
X1567283Y7006535D02*
Y7073465D01*
X1602716Y7006535D02*
Y7073465D01*
X1567283Y7006535D02*
X1602716D01*
X1567283Y7073465D02*
X1602716D01*
X1767717Y2686024D02*
Y2752953D01*
X1732284Y2686024D02*
Y2752953D01*
X1767717D01*
X1732284Y2686024D02*
X1767717D01*
X1762717Y3286535D02*
Y3353465D01*
X1727284Y3286535D02*
Y3353465D01*
X1762717D01*
X1727284Y3286535D02*
X1762717D01*
X2232717Y2931535D02*
Y2998465D01*
X2197284Y2931535D02*
Y2998465D01*
X2232717D01*
X2197284Y2931535D02*
X2232717D01*
X2237717Y2651535D02*
Y2718465D01*
X2202284Y2651535D02*
Y2718465D01*
X2237717D01*
X2202284Y2651535D02*
X2237717D01*
Y2791535D02*
Y2858465D01*
X2202284Y2791535D02*
Y2858465D01*
X2237717D01*
X2202284Y2791535D02*
X2237717D01*
X1767717Y2906535D02*
Y2973465D01*
X1732284Y2906535D02*
Y2973465D01*
X1767717D01*
X1732284Y2906535D02*
X1767717D01*
X2237717Y3531535D02*
Y3598465D01*
X2202284Y3531535D02*
Y3598465D01*
X2237717D01*
X2202284Y3531535D02*
X2237717D01*
Y3261535D02*
Y3328465D01*
X2202284Y3261535D02*
Y3328465D01*
X2237717D01*
X2202284Y3261535D02*
X2237717D01*
Y3396535D02*
Y3463465D01*
X2202284Y3396535D02*
Y3463465D01*
X2237717D01*
X2202284Y3396535D02*
X2237717D01*
X1762717Y3511535D02*
Y3578465D01*
X1727284Y3511535D02*
Y3578465D01*
X1762717D01*
X1727284Y3511535D02*
X1762717D01*
X2016535Y3132283D02*
X2083465D01*
X2016535Y3167716D02*
X2083465D01*
Y3132283D02*
Y3167716D01*
X2016535Y3132283D02*
Y3167716D01*
X2007047Y3717283D02*
X2073976D01*
X2007047Y3752716D02*
X2073976D01*
Y3717283D02*
Y3752716D01*
X2007047Y3717283D02*
Y3752716D01*
X1767717Y3891535D02*
Y3958465D01*
X1732284Y3891535D02*
Y3958465D01*
X1767717D01*
X1732284Y3891535D02*
X1767717D01*
X1772717Y4691535D02*
Y4758465D01*
X1737284Y4691535D02*
Y4758465D01*
X1772717D01*
X1737284Y4691535D02*
X1772717D01*
X2242717Y4156535D02*
Y4223465D01*
X2207284Y4156535D02*
Y4223465D01*
X2242717D01*
X2207284Y4156535D02*
X2242717D01*
X2237717Y3881535D02*
Y3948465D01*
X2202284Y3881535D02*
Y3948465D01*
X2237717D01*
X2202284Y3881535D02*
X2237717D01*
Y4016535D02*
Y4083465D01*
X2202284Y4016535D02*
Y4083465D01*
X2237717D01*
X2202284Y4016535D02*
X2237717D01*
X1772717Y4111535D02*
Y4178465D01*
X1737284Y4111535D02*
Y4178465D01*
X1772717D01*
X1737284Y4111535D02*
X1772717D01*
X2222717Y4926535D02*
Y4993465D01*
X2187284Y4926535D02*
Y4993465D01*
X2222717D01*
X2187284Y4926535D02*
X2222717D01*
Y4656535D02*
Y4723465D01*
X2187284Y4656535D02*
Y4723465D01*
X2222717D01*
X2187284Y4656535D02*
X2222717D01*
Y4791535D02*
Y4858465D01*
X2187284Y4791535D02*
Y4858465D01*
X2222717D01*
X2187284Y4791535D02*
X2222717D01*
X1767717Y4921024D02*
Y4987953D01*
X1732284Y4921024D02*
Y4987953D01*
X1767717D01*
X1732284Y4921024D02*
X1767717D01*
X1986024Y4327283D02*
X2052953D01*
X1986024Y4362717D02*
X2052953D01*
Y4327283D02*
Y4362717D01*
X1986024Y4327283D02*
Y4362717D01*
X1971535Y5122283D02*
X2038465D01*
X1971535Y5157717D02*
X2038465D01*
Y5122283D02*
Y5157717D01*
X1971535Y5122283D02*
Y5157717D01*
X1772717Y5306024D02*
Y5372953D01*
X1737284Y5306024D02*
Y5372953D01*
X1772717D01*
X1737284Y5306024D02*
X1772717D01*
Y5906024D02*
Y5972953D01*
X1737284Y5906024D02*
Y5972953D01*
X1772717D01*
X1737284Y5906024D02*
X1772717D01*
X2212717Y5531024D02*
Y5597953D01*
X2177284Y5531024D02*
Y5597953D01*
X2212717D01*
X2177284Y5531024D02*
X2212717D01*
Y5281535D02*
Y5348465D01*
X2177284Y5281535D02*
Y5348465D01*
X2212717D01*
X2177284Y5281535D02*
X2212717D01*
Y5406535D02*
Y5473465D01*
X2177284Y5406535D02*
Y5473465D01*
X2212717D01*
X2177284Y5406535D02*
X2212717D01*
X1777717Y5521535D02*
Y5588465D01*
X1742284Y5521535D02*
Y5588465D01*
X1777717D01*
X1742284Y5521535D02*
X1777717D01*
X2217717Y6121024D02*
Y6187953D01*
X2182284Y6121024D02*
Y6187953D01*
X2217717D01*
X2182284Y6121024D02*
X2217717D01*
Y5871024D02*
Y5937953D01*
X2182284Y5871024D02*
Y5937953D01*
X2217717D01*
X2182284Y5871024D02*
X2217717D01*
Y5996535D02*
Y6063465D01*
X2182284Y5996535D02*
Y6063465D01*
X2217717D01*
X2182284Y5996535D02*
X2217717D01*
X1772717Y6111535D02*
Y6178465D01*
X1737284Y6111535D02*
Y6178465D01*
X1772717D01*
X1737284Y6111535D02*
X1772717D01*
X1972047Y5742283D02*
X2038976D01*
X1972047Y5777717D02*
X2038976D01*
Y5742283D02*
Y5777717D01*
X1972047Y5742283D02*
Y5777717D01*
X1971535Y6322283D02*
X2038465D01*
X1971535Y6357717D02*
X2038465D01*
Y6322283D02*
Y6357717D01*
X1971535Y6322283D02*
Y6357717D01*
X1917717Y8637047D02*
Y8703976D01*
X1882284Y8637047D02*
Y8703976D01*
X1917717D01*
X1882284Y8637047D02*
X1917717D01*
Y8256535D02*
Y8323465D01*
X1882284Y8256535D02*
Y8323465D01*
X1917717D01*
X1882284Y8256535D02*
X1917717D01*
X1721535Y8872717D02*
X1788465D01*
X1721535Y8837283D02*
X1788465D01*
X1721535D02*
Y8872717D01*
X1788465Y8837283D02*
Y8872717D01*
X1732047Y8147717D02*
X1798976D01*
X1732047Y8112283D02*
X1798976D01*
X1732047D02*
Y8147717D01*
X1798976Y8112283D02*
Y8147717D01*
X1917717Y8767047D02*
Y8833976D01*
X1882284Y8767047D02*
Y8833976D01*
X1917717D01*
X1882284Y8767047D02*
X1917717D01*
Y8391535D02*
Y8458465D01*
X1882284Y8391535D02*
Y8458465D01*
X1917717D01*
X1882284Y8391535D02*
X1917717D01*
X1407283Y1746535D02*
Y1813465D01*
X1442716Y1746535D02*
Y1813465D01*
X1407283Y1746535D02*
X1442716D01*
X1407283Y1813465D02*
X1442716D01*
X1567717Y1746535D02*
Y1813465D01*
X1532284Y1746535D02*
Y1813465D01*
X1567717D01*
X1532284Y1746535D02*
X1567717D01*
X3431535Y5957283D02*
X3498465D01*
X3431535Y5992717D02*
X3498465D01*
Y5957283D02*
Y5992717D01*
X3431535Y5957283D02*
Y5992717D01*
X2997283Y6016535D02*
Y6083465D01*
X3032716Y6016535D02*
Y6083465D01*
X2997283Y6016535D02*
X3032716D01*
X2997283Y6083465D02*
X3032716D01*
X3262283Y6246535D02*
Y6313465D01*
X3297716Y6246535D02*
Y6313465D01*
X3262283Y6246535D02*
X3297716D01*
X3262283Y6313465D02*
X3297716D01*
X5297717Y1701535D02*
Y1768465D01*
X5262283Y1701535D02*
Y1768465D01*
X5297717D01*
X5262283Y1701535D02*
X5297717D01*
Y2156535D02*
Y2223465D01*
X5262283Y2156535D02*
Y2223465D01*
X5297717D01*
X5262283Y2156535D02*
X5297717D01*
X5276535Y1602283D02*
X5343465D01*
X5276535Y1637716D02*
X5343465D01*
Y1602283D02*
Y1637716D01*
X5276535Y1602283D02*
Y1637716D01*
X5277047Y2052283D02*
X5343976D01*
X5277047Y2087716D02*
X5343976D01*
Y2052283D02*
Y2087716D01*
X5277047Y2052283D02*
Y2087716D01*
X5406535Y1837283D02*
X5473465D01*
X5406535Y1872716D02*
X5473465D01*
Y1837283D02*
Y1872716D01*
X5406535Y1837283D02*
Y1872716D01*
Y2287283D02*
X5473465D01*
X5406535Y2322716D02*
X5473465D01*
Y2287283D02*
Y2322716D01*
X5406535Y2287283D02*
Y2322716D01*
X5302717Y2616535D02*
Y2683465D01*
X5267283Y2616535D02*
Y2683465D01*
X5302717D01*
X5267283Y2616535D02*
X5302717D01*
Y3216535D02*
Y3283465D01*
X5267283Y3216535D02*
Y3283465D01*
X5302717D01*
X5267283Y3216535D02*
X5302717D01*
X5276535Y2517283D02*
X5343465D01*
X5276535Y2552716D02*
X5343465D01*
Y2517283D02*
Y2552716D01*
X5276535Y2517283D02*
Y2552716D01*
X5281535Y3112283D02*
X5348465D01*
X5281535Y3147716D02*
X5348465D01*
Y3112283D02*
Y3147716D01*
X5281535Y3112283D02*
Y3147716D01*
X5406535Y2747283D02*
X5473465D01*
X5406535Y2782716D02*
X5473465D01*
Y2747283D02*
Y2782716D01*
X5406535Y2747283D02*
Y2782716D01*
Y3342283D02*
X5473465D01*
X5406535Y3377716D02*
X5473465D01*
Y3342283D02*
Y3377716D01*
X5406535Y3342283D02*
Y3377716D01*
X5302717Y3656535D02*
Y3723465D01*
X5267283Y3656535D02*
Y3723465D01*
X5302717D01*
X5267283Y3656535D02*
X5302717D01*
Y4121535D02*
Y4188465D01*
X5267283Y4121535D02*
Y4188465D01*
X5302717D01*
X5267283Y4121535D02*
X5302717D01*
X5276535Y3557283D02*
X5343465D01*
X5276535Y3592716D02*
X5343465D01*
Y3557283D02*
Y3592716D01*
X5276535Y3557283D02*
Y3592716D01*
Y4017283D02*
X5343465D01*
X5276535Y4052716D02*
X5343465D01*
Y4017283D02*
Y4052716D01*
X5276535Y4017283D02*
Y4052716D01*
X5406535Y3787283D02*
X5473465D01*
X5406535Y3822716D02*
X5473465D01*
Y3787283D02*
Y3822716D01*
X5406535Y3787283D02*
Y3822716D01*
Y4242283D02*
X5473465D01*
X5406535Y4277717D02*
X5473465D01*
Y4242283D02*
Y4277717D01*
X5406535Y4242283D02*
Y4277717D01*
X5302717Y4576535D02*
Y4643465D01*
X5267283Y4576535D02*
Y4643465D01*
X5302717D01*
X5267283Y4576535D02*
X5302717D01*
Y5166535D02*
Y5233465D01*
X5267283Y5166535D02*
Y5233465D01*
X5302717D01*
X5267283Y5166535D02*
X5302717D01*
X5281535Y4477283D02*
X5348465D01*
X5281535Y4512717D02*
X5348465D01*
Y4477283D02*
Y4512717D01*
X5281535Y4477283D02*
Y4512717D01*
X5276535Y5067283D02*
X5343465D01*
X5276535Y5102717D02*
X5343465D01*
Y5067283D02*
Y5102717D01*
X5276535Y5067283D02*
Y5102717D01*
X5406535Y4702283D02*
X5473465D01*
X5406535Y4737717D02*
X5473465D01*
Y4702283D02*
Y4737717D01*
X5406535Y4702283D02*
Y4737717D01*
Y5297283D02*
X5473465D01*
X5406535Y5332717D02*
X5473465D01*
Y5297283D02*
Y5332717D01*
X5406535Y5297283D02*
Y5332717D01*
X5302717Y5616535D02*
Y5683465D01*
X5267283Y5616535D02*
Y5683465D01*
X5302717D01*
X5267283Y5616535D02*
X5302717D01*
X5281535Y5512283D02*
X5348465D01*
X5281535Y5547717D02*
X5348465D01*
Y5512283D02*
Y5547717D01*
X5281535Y5512283D02*
Y5547717D01*
X5406535Y5742283D02*
X5473465D01*
X5406535Y5777717D02*
X5473465D01*
Y5742283D02*
Y5777717D01*
X5406535Y5742283D02*
Y5777717D01*
X5297717Y6506535D02*
Y6573465D01*
X5262283Y6506535D02*
Y6573465D01*
X5297717D01*
X5262283Y6506535D02*
X5297717D01*
Y6076535D02*
Y6143465D01*
X5262283Y6076535D02*
Y6143465D01*
X5297717D01*
X5262283Y6076535D02*
X5297717D01*
X5281535Y5972283D02*
X5348465D01*
X5281535Y6007717D02*
X5348465D01*
Y5972283D02*
Y6007717D01*
X5281535Y5972283D02*
Y6007717D01*
X5277047Y6412283D02*
X5343976D01*
X5277047Y6447717D02*
X5343976D01*
Y6412283D02*
Y6447717D01*
X5277047Y6412283D02*
Y6447717D01*
X5406535Y6202283D02*
X5473465D01*
X5406535Y6237717D02*
X5473465D01*
Y6202283D02*
Y6237717D01*
X5406535Y6202283D02*
Y6237717D01*
X5401535Y6642283D02*
X5468465D01*
X5401535Y6677717D02*
X5468465D01*
Y6642283D02*
Y6677717D01*
X5401535Y6642283D02*
Y6677717D01*
X5302717Y7546535D02*
Y7613465D01*
X5267283Y7546535D02*
Y7613465D01*
X5302717D01*
X5267283Y7546535D02*
X5302717D01*
Y7091535D02*
Y7158465D01*
X5267283Y7091535D02*
Y7158465D01*
X5302717D01*
X5267283Y7091535D02*
X5302717D01*
X5281535Y6997283D02*
X5348465D01*
X5281535Y7032717D02*
X5348465D01*
Y6997283D02*
Y7032717D01*
X5281535Y6997283D02*
Y7032717D01*
Y7447283D02*
X5348465D01*
X5281535Y7482717D02*
X5348465D01*
Y7447283D02*
Y7482717D01*
X5281535Y7447283D02*
Y7482717D01*
X5401535Y7217283D02*
X5468465D01*
X5401535Y7252717D02*
X5468465D01*
Y7217283D02*
Y7252717D01*
X5401535Y7217283D02*
Y7252717D01*
Y7672283D02*
X5468465D01*
X5401535Y7707717D02*
X5468465D01*
Y7672283D02*
Y7707717D01*
X5401535Y7672283D02*
Y7707717D01*
X5307717Y7976535D02*
Y8043465D01*
X5272283Y7976535D02*
Y8043465D01*
X5307717D01*
X5272283Y7976535D02*
X5307717D01*
X5302717Y8446535D02*
Y8513465D01*
X5267283Y8446535D02*
Y8513465D01*
X5302717D01*
X5267283Y8446535D02*
X5302717D01*
X5277047Y7887283D02*
X5343976D01*
X5277047Y7922717D02*
X5343976D01*
Y7887283D02*
Y7922717D01*
X5277047Y7887283D02*
Y7922717D01*
X5286535Y8347283D02*
X5353465D01*
X5286535Y8382717D02*
X5353465D01*
Y8347283D02*
Y8382717D01*
X5286535Y8347283D02*
Y8382717D01*
X5406535Y8112283D02*
X5473465D01*
X5406535Y8147717D02*
X5473465D01*
Y8112283D02*
Y8147717D01*
X5406535Y8112283D02*
Y8147717D01*
X5402047Y8567283D02*
X5468976D01*
X5402047Y8602717D02*
X5468976D01*
Y8567283D02*
Y8602717D01*
X5402047Y8567283D02*
Y8602717D01*
X5390472Y1673583D02*
X5449528D01*
X5390472Y1796417D02*
X5449528D01*
Y1673583D02*
Y1796417D01*
X5390472Y1673583D02*
Y1796417D01*
X5388779Y2126181D02*
X5447835D01*
X5388779Y2249016D02*
X5447835D01*
Y2126181D02*
Y2249016D01*
X5388779Y2126181D02*
Y2249016D01*
X5385472Y2588583D02*
X5444528D01*
X5385472Y2711417D02*
X5444528D01*
Y2588583D02*
Y2711417D01*
X5385472Y2588583D02*
Y2711417D01*
X5390472Y3183583D02*
X5449528D01*
X5390472Y3306417D02*
X5449528D01*
Y3183583D02*
Y3306417D01*
X5390472Y3183583D02*
Y3306417D01*
X5385472Y3628583D02*
X5444528D01*
X5385472Y3751417D02*
X5444528D01*
Y3628583D02*
Y3751417D01*
X5385472Y3628583D02*
Y3751417D01*
X5388779Y4090984D02*
X5447835D01*
X5388779Y4213819D02*
X5447835D01*
Y4090984D02*
Y4213819D01*
X5388779Y4090984D02*
Y4213819D01*
X5385472Y4548583D02*
X5444528D01*
X5385472Y4671417D02*
X5444528D01*
Y4548583D02*
Y4671417D01*
X5385472Y4548583D02*
Y4671417D01*
X5390472Y5138583D02*
X5449528D01*
X5390472Y5261417D02*
X5449528D01*
Y5138583D02*
Y5261417D01*
X5390472Y5138583D02*
Y5261417D01*
Y5583583D02*
X5449528D01*
X5390472Y5706417D02*
X5449528D01*
Y5583583D02*
Y5706417D01*
X5390472Y5583583D02*
Y5706417D01*
X5385472Y6048583D02*
X5444528D01*
X5385472Y6171417D02*
X5444528D01*
Y6048583D02*
Y6171417D01*
X5385472Y6048583D02*
Y6171417D01*
X5388779Y6485984D02*
X5447835D01*
X5388779Y6608819D02*
X5447835D01*
Y6485984D02*
Y6608819D01*
X5388779Y6485984D02*
Y6608819D01*
X5390472Y7068583D02*
X5449528D01*
X5390472Y7191417D02*
X5449528D01*
Y7068583D02*
Y7191417D01*
X5390472Y7068583D02*
Y7191417D01*
X5388779Y7515984D02*
X5447835D01*
X5388779Y7638819D02*
X5447835D01*
Y7515984D02*
Y7638819D01*
X5388779Y7515984D02*
Y7638819D01*
X5390472Y7958583D02*
X5449528D01*
X5390472Y8081417D02*
X5449528D01*
Y7958583D02*
Y8081417D01*
X5390472Y7958583D02*
Y8081417D01*
Y8418583D02*
X5449528D01*
X5390472Y8541417D02*
X5449528D01*
Y8418583D02*
Y8541417D01*
X5390472Y8418583D02*
Y8541417D01*
X1875472Y7513583D02*
X1934527D01*
X1875472Y7636417D02*
X1934527D01*
Y7513583D02*
Y7636417D01*
X1875472Y7513583D02*
Y7636417D01*
X6240472Y838583D02*
X6299528D01*
X6240472Y961417D02*
X6299528D01*
Y838583D02*
Y961417D01*
X6240472Y838583D02*
Y961417D01*
X5430472Y828583D02*
X5489528D01*
X5430472Y951417D02*
X5489528D01*
Y828583D02*
Y951417D01*
X5430472Y828583D02*
Y951417D01*
X5328779Y1261181D02*
X5387835D01*
X5328779Y1384016D02*
X5387835D01*
Y1261181D02*
Y1384016D01*
X5328779Y1261181D02*
Y1384016D01*
X4155472Y3628583D02*
X4214528D01*
X4155472Y3751417D02*
X4214528D01*
Y3628583D02*
Y3751417D01*
X4155472Y3628583D02*
Y3751417D01*
X2753504Y8042283D02*
X2820433D01*
X2753504Y8077717D02*
X2820433D01*
Y8042283D02*
Y8077717D01*
X2753504Y8042283D02*
Y8077717D01*
X3613504Y8052283D02*
X3680433D01*
X3613504Y8087717D02*
X3680433D01*
Y8052283D02*
Y8087717D01*
X3613504Y8052283D02*
Y8087717D01*
X4478504Y8072283D02*
X4545433D01*
X4478504Y8107717D02*
X4545433D01*
Y8072283D02*
Y8107717D01*
X4478504Y8072283D02*
Y8107717D01*
X2024567Y7587717D02*
X2091496D01*
X2024567Y7552283D02*
X2091496D01*
X2024567D02*
Y7587717D01*
X2091496Y7552283D02*
Y7587717D01*
X2026024Y7477717D02*
X2092953D01*
X2026024Y7442283D02*
X2092953D01*
X2026024D02*
Y7477717D01*
X2092953Y7442283D02*
Y7477717D01*
X5403504Y1602283D02*
X5470433D01*
X5403504Y1637716D02*
X5470433D01*
Y1602283D02*
Y1637716D01*
X5403504Y1602283D02*
Y1637716D01*
Y2052283D02*
X5470433D01*
X5403504Y2087716D02*
X5470433D01*
Y2052283D02*
Y2087716D01*
X5403504Y2052283D02*
Y2087716D01*
Y2517283D02*
X5470433D01*
X5403504Y2552716D02*
X5470433D01*
Y2517283D02*
Y2552716D01*
X5403504Y2517283D02*
Y2552716D01*
X5407047Y3112283D02*
X5473976D01*
X5407047Y3147716D02*
X5473976D01*
Y3112283D02*
Y3147716D01*
X5407047Y3112283D02*
Y3147716D01*
X5403504Y3557283D02*
X5470433D01*
X5403504Y3592716D02*
X5470433D01*
Y3557283D02*
Y3592716D01*
X5403504Y3557283D02*
Y3592716D01*
Y4017283D02*
X5470433D01*
X5403504Y4052716D02*
X5470433D01*
Y4017283D02*
Y4052716D01*
X5403504Y4017283D02*
Y4052716D01*
Y4477283D02*
X5470433D01*
X5403504Y4512717D02*
X5470433D01*
Y4477283D02*
Y4512717D01*
X5403504Y4477283D02*
Y4512717D01*
Y5067283D02*
X5470433D01*
X5403504Y5102717D02*
X5470433D01*
Y5067283D02*
Y5102717D01*
X5403504Y5067283D02*
Y5102717D01*
Y5512283D02*
X5470433D01*
X5403504Y5547717D02*
X5470433D01*
Y5512283D02*
Y5547717D01*
X5403504Y5512283D02*
Y5547717D01*
Y5977283D02*
X5470433D01*
X5403504Y6012717D02*
X5470433D01*
Y5977283D02*
Y6012717D01*
X5403504Y5977283D02*
Y6012717D01*
X5401024Y6417283D02*
X5467953D01*
X5401024Y6452717D02*
X5467953D01*
Y6417283D02*
Y6452717D01*
X5401024Y6417283D02*
Y6452717D01*
X5403504Y6997283D02*
X5470433D01*
X5403504Y7032717D02*
X5470433D01*
Y6997283D02*
Y7032717D01*
X5403504Y6997283D02*
Y7032717D01*
X5402047Y7447283D02*
X5468976D01*
X5402047Y7482717D02*
X5468976D01*
Y7447283D02*
Y7482717D01*
X5402047Y7447283D02*
Y7482717D01*
X5398504Y7887283D02*
X5465433D01*
X5398504Y7922717D02*
X5465433D01*
Y7887283D02*
Y7922717D01*
X5398504Y7887283D02*
Y7922717D01*
X5408504Y8347283D02*
X5475433D01*
X5408504Y8382717D02*
X5475433D01*
Y8347283D02*
Y8382717D01*
X5408504Y8347283D02*
Y8382717D01*
X6087717Y863504D02*
Y930433D01*
X6052283Y863504D02*
Y930433D01*
X6087717D01*
X6052283Y863504D02*
X6087717D01*
X5907717Y868504D02*
Y935433D01*
X5872283Y868504D02*
Y935433D01*
X5907717D01*
X5872283Y868504D02*
X5907717D01*
X5712717Y878504D02*
Y945433D01*
X5677283Y878504D02*
Y945433D01*
X5712717D01*
X5677283Y878504D02*
X5712717D01*
X2884764Y8660236D02*
X3105236D01*
X2884764Y8439764D02*
X3105236D01*
Y8660236D01*
X2884764Y8439764D02*
Y8660236D01*
X3759764Y8665236D02*
X3980236D01*
X3759764Y8444764D02*
X3980236D01*
Y8665236D01*
X3759764Y8444764D02*
Y8665236D01*
X4634764Y8680236D02*
X4855236D01*
X4634764Y8459764D02*
X4855236D01*
Y8680236D01*
X4634764Y8459764D02*
Y8680236D01*
X1874409Y7100787D02*
X1925591D01*
X1874409Y7018110D02*
X1925591D01*
Y7100787D01*
X1874409Y7018110D02*
Y7100787D01*
X1974409Y8389213D02*
X2025591D01*
X1974409Y8471890D02*
X2025591D01*
X1974409Y8389213D02*
Y8471890D01*
X2025591Y8389213D02*
Y8471890D01*
X3094409Y6223661D02*
X3145590D01*
X3094409Y6306339D02*
X3145590D01*
X3094409Y6223661D02*
Y6306339D01*
X3145590Y6223661D02*
Y6306339D01*
X6002913Y1642953D02*
X6217087D01*
X6002913Y1837047D02*
X6217087D01*
Y1642953D02*
Y1837047D01*
X6002913Y1642953D02*
Y1837047D01*
X6001457Y2097953D02*
X6215630D01*
X6001457Y2292047D02*
X6215630D01*
Y2097953D02*
Y2292047D01*
X6001457Y2097953D02*
Y2292047D01*
X6002913Y2552953D02*
X6217087D01*
X6002913Y2747047D02*
X6217087D01*
Y2552953D02*
Y2747047D01*
X6002913Y2552953D02*
Y2747047D01*
X6001457Y3147953D02*
X6215630D01*
X6001457Y3342047D02*
X6215630D01*
Y3147953D02*
Y3342047D01*
X6001457Y3147953D02*
Y3342047D01*
X5997913Y3597953D02*
X6212087D01*
X5997913Y3792047D02*
X6212087D01*
Y3597953D02*
Y3792047D01*
X5997913Y3597953D02*
Y3792047D01*
X6001457Y4042953D02*
X6215630D01*
X6001457Y4237047D02*
X6215630D01*
Y4042953D02*
Y4237047D01*
X6001457Y4042953D02*
Y4237047D01*
X6002913Y4502953D02*
X6217087D01*
X6002913Y4697047D02*
X6217087D01*
Y4502953D02*
Y4697047D01*
X6002913Y4502953D02*
Y4697047D01*
Y5097953D02*
X6217087D01*
X6002913Y5292047D02*
X6217087D01*
Y5097953D02*
Y5292047D01*
X6002913Y5097953D02*
Y5292047D01*
Y5547953D02*
X6217087D01*
X6002913Y5742047D02*
X6217087D01*
Y5547953D02*
Y5742047D01*
X6002913Y5547953D02*
Y5742047D01*
Y6007953D02*
X6217087D01*
X6002913Y6202047D02*
X6217087D01*
Y6007953D02*
Y6202047D01*
X6002913Y6007953D02*
Y6202047D01*
Y6447953D02*
X6217087D01*
X6002913Y6642047D02*
X6217087D01*
Y6447953D02*
Y6642047D01*
X6002913Y6447953D02*
Y6642047D01*
Y7032953D02*
X6217087D01*
X6002913Y7227047D02*
X6217087D01*
Y7032953D02*
Y7227047D01*
X6002913Y7032953D02*
Y7227047D01*
Y7482953D02*
X6217087D01*
X6002913Y7677047D02*
X6217087D01*
Y7482953D02*
Y7677047D01*
X6002913Y7482953D02*
Y7677047D01*
Y7932953D02*
X6217087D01*
X6002913Y8127047D02*
X6217087D01*
Y7932953D02*
Y8127047D01*
X6002913Y7932953D02*
Y8127047D01*
X5997913Y8382953D02*
X6212087D01*
X5997913Y8577047D02*
X6212087D01*
Y8382953D02*
Y8577047D01*
X5997913Y8382953D02*
Y8577047D01*
X2326142Y7755472D02*
Y7814528D01*
X2249370Y7755472D02*
Y7814528D01*
Y7755472D02*
X2326142D01*
X2249370Y7814528D02*
X2326142D01*
X1913189Y2488346D02*
Y2531653D01*
X1936811Y2488346D02*
Y2531653D01*
X1913189Y2488346D02*
X1936811D01*
X1913189Y2531653D02*
X1936811D01*
X3343189Y6713346D02*
Y6756654D01*
X3366811Y6713346D02*
Y6756654D01*
X3343189Y6713346D02*
X3366811D01*
X3343189Y6756654D02*
X3366811D01*
X3201811Y3603347D02*
Y3646654D01*
X3178189Y3603347D02*
Y3646654D01*
X3201811D01*
X3178189Y3603347D02*
X3201811D01*
X4678346Y6983189D02*
X4721654D01*
X4678346Y7006811D02*
X4721654D01*
Y6983189D02*
Y7006811D01*
X4678346Y6983189D02*
Y7006811D01*
X3736811Y3608347D02*
Y3651654D01*
X3713189Y3608347D02*
Y3651654D01*
X3736811D01*
X3713189Y3608347D02*
X3736811D01*
X2758347Y5778189D02*
X2801654D01*
X2758347Y5801811D02*
X2801654D01*
Y5778189D02*
Y5801811D01*
X2758347Y5778189D02*
Y5801811D01*
X2748347Y4443189D02*
X2791654D01*
X2748347Y4466811D02*
X2791654D01*
Y4443189D02*
Y4466811D01*
X2748347Y4443189D02*
Y4466811D01*
X3833189Y2568346D02*
Y2611653D01*
X3856811Y2568346D02*
Y2611653D01*
X3833189Y2568346D02*
X3856811D01*
X3833189Y2611653D02*
X3856811D01*
X3238189Y6716457D02*
Y6759764D01*
X3261811Y6716457D02*
Y6759764D01*
X3238189Y6716457D02*
X3261811D01*
X3238189Y6759764D02*
X3261811D01*
X2755236Y5673189D02*
X2798543D01*
X2755236Y5696811D02*
X2798543D01*
Y5673189D02*
Y5696811D01*
X2755236Y5673189D02*
Y5696811D01*
X3306811Y3605236D02*
Y3648543D01*
X3283189Y3605236D02*
Y3648543D01*
X3306811D01*
X3283189Y3605236D02*
X3306811D01*
X2748347Y4558189D02*
X2791654D01*
X2748347Y4581811D02*
X2791654D01*
Y4558189D02*
Y4581811D01*
X2748347Y4558189D02*
Y4581811D01*
X3718189Y2596457D02*
Y2639764D01*
X3741811Y2596457D02*
Y2639764D01*
X3718189Y2596457D02*
X3741811D01*
X3718189Y2639764D02*
X3741811D01*
X2018189Y2488346D02*
Y2531653D01*
X2041811Y2488346D02*
Y2531653D01*
X2018189Y2488346D02*
X2041811D01*
X2018189Y2531653D02*
X2041811D01*
X1638347Y6418189D02*
X1681654D01*
X1638347Y6441811D02*
X1681654D01*
Y6418189D02*
Y6441811D01*
X1638347Y6418189D02*
Y6441811D01*
X1693347Y2548189D02*
X1736654D01*
X1693347Y2571811D02*
X1736654D01*
Y2548189D02*
Y2571811D01*
X1693347Y2548189D02*
Y2571811D01*
X2753346Y5906811D02*
X2796653D01*
X2753346Y5883189D02*
X2796653D01*
X2753346D02*
Y5906811D01*
X2796653Y5883189D02*
Y5906811D01*
X2743346Y4351811D02*
X2786653D01*
X2743346Y4328189D02*
X2786653D01*
X2743346D02*
Y4351811D01*
X2786653Y4328189D02*
Y4351811D01*
X3626811Y2593347D02*
Y2636654D01*
X3603189Y2593347D02*
Y2636654D01*
X3626811D01*
X3603189Y2593347D02*
X3626811D01*
X2206811Y2490236D02*
Y2533543D01*
X2183189Y2490236D02*
Y2533543D01*
X2206811D01*
X2183189Y2490236D02*
X2206811D01*
X1646457Y4441811D02*
X1689764D01*
X1646457Y4418189D02*
X1689764D01*
X1646457D02*
Y4441811D01*
X1689764Y4418189D02*
Y4441811D01*
X1633346Y6551811D02*
X1676653D01*
X1633346Y6528189D02*
X1676653D01*
X1633346D02*
Y6551811D01*
X1676653Y6528189D02*
Y6551811D01*
X1638346Y7381811D02*
X1681653D01*
X1638346Y7358189D02*
X1681653D01*
X1638346D02*
Y7381811D01*
X1681653Y7358189D02*
Y7381811D01*
X2151811Y8095236D02*
Y8138543D01*
X2128189Y8095236D02*
Y8138543D01*
X2151811D01*
X2128189Y8095236D02*
X2151811D01*
X1328346Y4401811D02*
X1371653D01*
X1328346Y4378189D02*
X1371653D01*
X1328346D02*
Y4401811D01*
X1371653Y4378189D02*
Y4401811D01*
X1311457Y6661811D02*
X1354764D01*
X1311457Y6638189D02*
X1354764D01*
X1311457D02*
Y6661811D01*
X1354764Y6638189D02*
Y6661811D01*
X4751811Y3785236D02*
Y3828543D01*
X4728189Y3785236D02*
Y3828543D01*
X4751811D01*
X4728189Y3785236D02*
X4751811D01*
X3058347Y3313189D02*
X3101654D01*
X3058347Y3336811D02*
X3101654D01*
Y3313189D02*
Y3336811D01*
X3058347Y3313189D02*
Y3336811D01*
X6071811Y1068347D02*
Y1111654D01*
X6048189Y1068347D02*
Y1111654D01*
X6071811D01*
X6048189Y1068347D02*
X6071811D01*
X5811811Y1078347D02*
Y1121654D01*
X5788189Y1078347D02*
Y1121654D01*
X5811811D01*
X5788189Y1078347D02*
X5811811D01*
X5531811Y1083347D02*
Y1126654D01*
X5508189Y1083347D02*
Y1126654D01*
X5531811D01*
X5508189Y1083347D02*
X5531811D01*
X2046811Y1653347D02*
Y1696654D01*
X2023189Y1653347D02*
Y1696654D01*
X2046811D01*
X2023189Y1653347D02*
X2046811D01*
X1651811Y1153347D02*
Y1196654D01*
X1628189Y1153347D02*
Y1196654D01*
X1651811D01*
X1628189Y1153347D02*
X1651811D01*
X3258189Y4261693D02*
Y4305000D01*
X3281811Y4261693D02*
Y4305000D01*
X3258189Y4261693D02*
X3281811D01*
X3258189Y4305000D02*
X3281811D01*
X4226811Y3781457D02*
Y3824764D01*
X4203189Y3781457D02*
Y3824764D01*
X4226811D01*
X4203189Y3781457D02*
X4226811D01*
X5275236Y1848189D02*
X5318543D01*
X5275236Y1871811D02*
X5318543D01*
Y1848189D02*
Y1871811D01*
X5275236Y1848189D02*
Y1871811D01*
X5273346Y2303189D02*
X5316654D01*
X5273346Y2326811D02*
X5316654D01*
Y2303189D02*
Y2326811D01*
X5273346Y2303189D02*
Y2326811D01*
Y2763189D02*
X5316654D01*
X5273346Y2786811D02*
X5316654D01*
Y2763189D02*
Y2786811D01*
X5273346Y2763189D02*
Y2786811D01*
X5276457Y3363189D02*
X5319764D01*
X5276457Y3386811D02*
X5319764D01*
Y3363189D02*
Y3386811D01*
X5276457Y3363189D02*
Y3386811D01*
X5273346Y3803189D02*
X5316654D01*
X5273346Y3826811D02*
X5316654D01*
Y3803189D02*
Y3826811D01*
X5273346Y3803189D02*
Y3826811D01*
Y4263189D02*
X5316654D01*
X5273346Y4286811D02*
X5316654D01*
Y4263189D02*
Y4286811D01*
X5273346Y4263189D02*
Y4286811D01*
Y4718189D02*
X5316654D01*
X5273346Y4741811D02*
X5316654D01*
Y4718189D02*
Y4741811D01*
X5273346Y4718189D02*
Y4741811D01*
Y5313189D02*
X5316654D01*
X5273346Y5336811D02*
X5316654D01*
Y5313189D02*
Y5336811D01*
X5273346Y5313189D02*
Y5336811D01*
Y5758189D02*
X5316654D01*
X5273346Y5781811D02*
X5316654D01*
Y5758189D02*
Y5781811D01*
X5273346Y5758189D02*
Y5781811D01*
Y6218189D02*
X5316654D01*
X5273346Y6241811D02*
X5316654D01*
Y6218189D02*
Y6241811D01*
X5273346Y6218189D02*
Y6241811D01*
X5268346Y6648189D02*
X5311654D01*
X5268346Y6671811D02*
X5311654D01*
Y6648189D02*
Y6671811D01*
X5268346Y6648189D02*
Y6671811D01*
X5273346Y7238189D02*
X5316654D01*
X5273346Y7261811D02*
X5316654D01*
Y7238189D02*
Y7261811D01*
X5273346Y7238189D02*
Y7261811D01*
Y7688189D02*
X5316654D01*
X5273346Y7711811D02*
X5316654D01*
Y7688189D02*
Y7711811D01*
X5273346Y7688189D02*
Y7711811D01*
Y8123189D02*
X5316654D01*
X5273346Y8146811D02*
X5316654D01*
Y8123189D02*
Y8146811D01*
X5273346Y8123189D02*
Y8146811D01*
X5268346Y8588189D02*
X5311654D01*
X5268346Y8611811D02*
X5311654D01*
Y8588189D02*
Y8611811D01*
X5268346Y8588189D02*
Y8611811D01*
X3531337Y4631960D02*
X3561960Y4601337D01*
X3548040Y4648663D02*
X3578663Y4618040D01*
X3561960Y4601337D02*
X3578663Y4618040D01*
X3531337Y4631960D02*
X3548040Y4648663D01*
X4291648Y5361648D02*
X4322271Y5331026D01*
X4308352Y5378352D02*
X4338974Y5347729D01*
X4322271Y5331026D02*
X4338974Y5347729D01*
X4291648Y5361648D02*
X4308352Y5378352D01*
X4527787Y5003409D02*
X4558410Y4972786D01*
X4511084Y4986706D02*
X4541707Y4956083D01*
X4511084Y4986706D02*
X4527787Y5003409D01*
X4541707Y4956083D02*
X4558410Y4972786D01*
X3451337Y4721960D02*
X3481960Y4691337D01*
X3468040Y4738663D02*
X3498663Y4708040D01*
X3481960Y4691337D02*
X3498663Y4708040D01*
X3451337Y4721960D02*
X3468040Y4738663D01*
X4156337Y4663040D02*
X4186960Y4693663D01*
X4173040Y4646337D02*
X4203663Y4676960D01*
X4156337Y4663040D02*
X4173040Y4646337D01*
X4186960Y4693663D02*
X4203663Y4676960D01*
X3278040Y4898663D02*
X3308663Y4868040D01*
X3261337Y4881960D02*
X3291960Y4851337D01*
X3261337Y4881960D02*
X3278040Y4898663D01*
X3291960Y4851337D02*
X3308663Y4868040D01*
X3416337Y5373040D02*
X3446960Y5403663D01*
X3433040Y5356337D02*
X3463663Y5386960D01*
X3416337Y5373040D02*
X3433040Y5356337D01*
X3446960Y5403663D02*
X3463663Y5386960D01*
X3951337Y4468040D02*
X3981960Y4498663D01*
X3968040Y4451337D02*
X3998663Y4481960D01*
X3951337Y4468040D02*
X3968040Y4451337D01*
X3981960Y4498663D02*
X3998663Y4481960D01*
X4262271Y5400403D02*
X4309597Y5447729D01*
X4170403Y5492271D02*
X4217729Y5539597D01*
X4170403Y5492271D02*
X4262271Y5400403D01*
X4217729Y5539597D02*
X4309597Y5447729D01*
X4487787Y4963409D02*
X4518410Y4932786D01*
X4471084Y4946706D02*
X4501707Y4916083D01*
X4471084Y4946706D02*
X4487787Y4963409D01*
X4501707Y4916083D02*
X4518410Y4932786D01*
X3593040Y4423663D02*
X3623663Y4393040D01*
X3576337Y4406960D02*
X3606960Y4376337D01*
X3576337Y4406960D02*
X3593040Y4423663D01*
X3606960Y4376337D02*
X3623663Y4393040D01*
X2775039Y8321535D02*
Y8388465D01*
X2904961Y8321535D02*
Y8388465D01*
X2775039D02*
X2904961D01*
X2775039Y8321535D02*
X2904961D01*
X2749409Y8593661D02*
X2800590D01*
X2749409Y8676339D02*
X2800590D01*
X2749409Y8593661D02*
Y8676339D01*
X2800590Y8593661D02*
Y8676339D01*
X2446535Y8487283D02*
X2513465D01*
X2446535Y8522717D02*
X2513465D01*
Y8487283D02*
Y8522717D01*
X2446535Y8487283D02*
Y8522717D01*
X3650039Y8326535D02*
Y8393465D01*
X3779961Y8326535D02*
Y8393465D01*
X3650039D02*
X3779961D01*
X3650039Y8326535D02*
X3779961D01*
X3624409Y8598661D02*
X3675590D01*
X3624409Y8681339D02*
X3675590D01*
X3624409Y8598661D02*
Y8681339D01*
X3675590Y8598661D02*
Y8681339D01*
X3316535Y8492283D02*
X3383465D01*
X3316535Y8527717D02*
X3383465D01*
Y8492283D02*
Y8527717D01*
X3316535Y8492283D02*
Y8527717D01*
X4525039Y8346535D02*
Y8413465D01*
X4654961Y8346535D02*
Y8413465D01*
X4525039D02*
X4654961D01*
X4525039Y8346535D02*
X4654961D01*
X4196535Y8512283D02*
X4263465D01*
X4196535Y8547717D02*
X4263465D01*
Y8512283D02*
Y8547717D01*
X4196535Y8512283D02*
Y8547717D01*
X4509409Y8623661D02*
X4560591D01*
X4509409Y8706339D02*
X4560591D01*
X4509409Y8623661D02*
Y8706339D01*
X4560591Y8623661D02*
Y8706339D01*
X1826535Y7710039D02*
X1893465D01*
X1826535Y7839961D02*
X1893465D01*
X1826535Y7710039D02*
Y7839961D01*
X1893465Y7710039D02*
Y7839961D01*
X1721535Y7710039D02*
X1788465D01*
X1721535Y7839961D02*
X1788465D01*
X1721535Y7710039D02*
Y7839961D01*
X1788465Y7710039D02*
Y7839961D01*
X4251811Y6125236D02*
Y6168543D01*
X4228189Y6125236D02*
Y6168543D01*
X4251811D01*
X4228189Y6125236D02*
X4251811D01*
X1703189Y7030236D02*
Y7073543D01*
X1726811Y7030236D02*
Y7073543D01*
X1703189Y7030236D02*
X1726811D01*
X1703189Y7073543D02*
X1726811D01*
X1771535Y7124961D02*
X1838465D01*
X1771535Y6995039D02*
X1838465D01*
Y7124961D01*
X1771535Y6995039D02*
Y7124961D01*
X1818347Y2668189D02*
X1861654D01*
X1818347Y2691811D02*
X1861654D01*
Y2668189D02*
Y2691811D01*
X1818347Y2668189D02*
Y2691811D01*
X1820236Y3273189D02*
X1863543D01*
X1820236Y3296811D02*
X1863543D01*
Y3273189D02*
Y3296811D01*
X1820236Y3273189D02*
Y3296811D01*
X1813347Y3873189D02*
X1856654D01*
X1813347Y3896811D02*
X1856654D01*
Y3873189D02*
Y3896811D01*
X1813347Y3873189D02*
Y3896811D01*
X1818347Y4673189D02*
X1861654D01*
X1818347Y4696811D02*
X1861654D01*
Y4673189D02*
Y4696811D01*
X1818347Y4673189D02*
Y4696811D01*
X1815236Y5273189D02*
X1858543D01*
X1815236Y5296811D02*
X1858543D01*
Y5273189D02*
Y5296811D01*
X1815236Y5273189D02*
Y5296811D01*
X1820236Y5883189D02*
X1863543D01*
X1820236Y5906811D02*
X1863543D01*
Y5883189D02*
Y5906811D01*
X1820236Y5883189D02*
Y5906811D01*
X1987717Y8707047D02*
Y8773976D01*
X1952284Y8707047D02*
Y8773976D01*
X1987717D01*
X1952284Y8707047D02*
X1987717D01*
X2012717Y8256535D02*
Y8323465D01*
X1977284Y8256535D02*
Y8323465D01*
X2012717D01*
X1977284Y8256535D02*
X2012717D01*
X1318189Y1553346D02*
Y1596653D01*
X1341811Y1553346D02*
Y1596653D01*
X1318189Y1553346D02*
X1341811D01*
X1318189Y1596653D02*
X1341811D01*
X3081811Y5950236D02*
Y5993543D01*
X3058189Y5950236D02*
Y5993543D01*
X3081811D01*
X3058189Y5950236D02*
X3081811D01*
X3058189Y6118346D02*
Y6161654D01*
X3081811Y6118346D02*
Y6161654D01*
X3058189Y6118346D02*
X3081811D01*
X3058189Y6161654D02*
X3081811D01*
X3268346Y5891811D02*
X3311653D01*
X3268346Y5868189D02*
X3311653D01*
X3268346D02*
Y5891811D01*
X3311653Y5868189D02*
Y5891811D01*
X3268346Y5936811D02*
X3311653D01*
X3268346Y5913189D02*
X3311653D01*
X3268346D02*
Y5936811D01*
X3311653Y5913189D02*
Y5936811D01*
X3173189Y6218346D02*
Y6261654D01*
X3196811Y6218346D02*
Y6261654D01*
X3173189Y6218346D02*
X3196811D01*
X3173189Y6261654D02*
X3196811D01*
X1808661Y1120394D02*
Y1419606D01*
X1891339Y1120394D02*
Y1419606D01*
X1808661Y1120394D02*
X1891339D01*
X1808661Y1419606D02*
X1891339D01*
X2143661Y1120394D02*
Y1419606D01*
X2226339Y1120394D02*
Y1419606D01*
X2143661Y1120394D02*
X2226339D01*
X2143661Y1419606D02*
X2226339D01*
X1808661Y745394D02*
Y1044606D01*
X1891339Y745394D02*
Y1044606D01*
X1808661Y745394D02*
X1891339D01*
X1808661Y1044606D02*
X1891339D01*
X1473661Y1115394D02*
Y1414606D01*
X1556339Y1115394D02*
Y1414606D01*
X1473661Y1115394D02*
X1556339D01*
X1473661Y1414606D02*
X1556339D01*
X1808661Y1495394D02*
Y1794606D01*
X1891339Y1495394D02*
Y1794606D01*
X1808661Y1495394D02*
X1891339D01*
X1808661Y1794606D02*
X1891339D01*
X3275220Y5061245D02*
X3831997Y5618022D01*
Y4504468D02*
X4388774Y5061245D01*
X3831997Y5618022D02*
X4388774Y5061245D01*
X3275220D02*
X3831997Y4504468D01*
%TF.MD5,8e233ebcb3ec83414b1c261443168be9*%
M02*
