%TF.GenerationSoftware,Altium Limited,Altium Designer,19.1.5 (86)*%
G04 Layer_Color=8388736*
%FSLAX26Y26*%
%MOIN*%
%TF.FileFunction,Soldermask,Top*%
%TF.Part,Single*%
G01*
G75*
%TA.AperFunction,NonConductor*%
%ADD10C,0.019685*%
%TA.AperFunction,ComponentPad*%
%ADD77R,0.058000X0.058000*%
%ADD78C,0.058000*%
%ADD79R,0.067055X0.067055*%
%ADD80C,0.067055*%
%ADD81R,0.067055X0.067055*%
%ADD82R,0.108000X0.058000*%
%ADD83O,0.108000X0.058000*%
%ADD84C,0.118236*%
%ADD85C,0.065087*%
%ADD86R,0.065087X0.065087*%
%ADD87C,0.068000*%
%ADD88R,0.147764X0.059181*%
%ADD89R,0.059181X0.147764*%
%ADD90R,0.069024X0.169417*%
%ADD91R,0.059181X0.059181*%
%ADD92C,0.059181*%
%ADD93C,0.135953*%
%ADD94C,0.106425*%
%TA.AperFunction,ViaPad*%
%ADD95C,0.068000*%
%ADD96C,0.028000*%
%ADD97C,0.027685*%
%TA.AperFunction,NonConductor*%
%ADD110C,0.039370*%
%TA.AperFunction,SMDPad,CuDef*%
G04:AMPARAMS|DCode=111|XSize=74.929mil|YSize=49.339mil|CornerRadius=0mil|HoleSize=0mil|Usage=FLASHONLY|Rotation=225.000|XOffset=0mil|YOffset=0mil|HoleType=Round|Shape=Rectangle|*
%AMROTATEDRECTD111*
4,1,4,0.009048,0.043935,0.043935,0.009048,-0.009048,-0.043935,-0.043935,-0.009048,0.009048,0.043935,0.0*
%
%ADD111ROTATEDRECTD111*%

G04:AMPARAMS|DCode=112|XSize=74.929mil|YSize=49.339mil|CornerRadius=0mil|HoleSize=0mil|Usage=FLASHONLY|Rotation=135.000|XOffset=0mil|YOffset=0mil|HoleType=Round|Shape=Rectangle|*
%AMROTATEDRECTD112*
4,1,4,0.043935,-0.009048,0.009048,-0.043935,-0.043935,0.009048,-0.009048,0.043935,0.043935,-0.009048,0.0*
%
%ADD112ROTATEDRECTD112*%

%ADD113P,0.046947X4X360.0*%
%ADD114P,0.046947X4X270.0*%
%ADD115P,0.050288X4X360.0*%
G04:AMPARAMS|DCode=116|XSize=41.465mil|YSize=33.591mil|CornerRadius=0mil|HoleSize=0mil|Usage=FLASHONLY|Rotation=135.000|XOffset=0mil|YOffset=0mil|HoleType=Round|Shape=Rectangle|*
%AMROTATEDRECTD116*
4,1,4,0.026536,-0.002784,0.002784,-0.026536,-0.026536,0.002784,-0.002784,0.026536,0.026536,-0.002784,0.0*
%
%ADD116ROTATEDRECTD116*%

%ADD117R,0.102488X0.074929*%
%ADD118R,0.047370X0.031622*%
G04:AMPARAMS|DCode=119|XSize=29.654mil|YSize=39.496mil|CornerRadius=5.949mil|HoleSize=0mil|Usage=FLASHONLY|Rotation=90.000|XOffset=0mil|YOffset=0mil|HoleType=Round|Shape=RoundedRectangle|*
%AMROUNDEDRECTD119*
21,1,0.029654,0.027599,0,0,90.0*
21,1,0.017756,0.039496,0,0,90.0*
1,1,0.011898,0.013799,0.008878*
1,1,0.011898,0.013799,-0.008878*
1,1,0.011898,-0.013799,-0.008878*
1,1,0.011898,-0.013799,0.008878*
%
%ADD119ROUNDEDRECTD119*%
%ADD120R,0.047370X0.023748*%
%ADD121R,0.058394X0.102488*%
%ADD122O,0.072961X0.033591*%
%ADD123O,0.043433X0.017843*%
%ADD124O,0.017843X0.043433*%
%ADD125R,0.106425X0.106425*%
%ADD126R,0.063118X0.094614*%
%ADD127R,0.094614X0.063118*%
%TA.AperFunction,ConnectorPad*%
%ADD128R,0.061150X0.082803*%
%ADD129R,0.047370X0.055244*%
%ADD130R,0.061150X0.069024*%
%ADD131R,0.051307X0.041465*%
%ADD132R,0.051307X0.037528*%
%ADD133R,0.078866X0.054063*%
%TA.AperFunction,SMDPad,CuDef*%
%ADD134R,0.086740X0.106425*%
%ADD135R,0.043433X0.041465*%
%ADD136R,0.041465X0.043433*%
%ADD137R,0.059181X0.049339*%
%ADD138R,0.063118X0.047370*%
%ADD139R,0.230047X0.085953*%
%TA.AperFunction,ConnectorPad*%
%ADD140R,0.165480X0.070992*%
%ADD141O,0.165480X0.070992*%
%TA.AperFunction,SMDPad,CuDef*%
%ADD142R,0.165480X0.070992*%
%ADD143O,0.165480X0.070992*%
%ADD144R,0.067055X0.189102*%
%ADD145R,0.039496X0.031622*%
%ADD146R,0.033197X0.033197*%
%ADD147R,0.033197X0.033197*%
%ADD148R,0.049339X0.074929*%
%ADD149R,0.074929X0.049339*%
%TA.AperFunction,ConnectorPad*%
%ADD150R,0.086740X0.106425*%
%TA.AperFunction,SMDPad,CuDef*%
G04:AMPARAMS|DCode=151|XSize=19.811mil|YSize=69.024mil|CornerRadius=0mil|HoleSize=0mil|Usage=FLASHONLY|Rotation=45.000|XOffset=0mil|YOffset=0mil|HoleType=Round|Shape=Rectangle|*
%AMROTATEDRECTD151*
4,1,4,0.017399,-0.031408,-0.031408,0.017399,-0.017399,0.031408,0.031408,-0.017399,0.017399,-0.031408,0.0*
%
%ADD151ROTATEDRECTD151*%

G04:AMPARAMS|DCode=152|XSize=19.811mil|YSize=69.024mil|CornerRadius=0mil|HoleSize=0mil|Usage=FLASHONLY|Rotation=315.000|XOffset=0mil|YOffset=0mil|HoleType=Round|Shape=Rectangle|*
%AMROTATEDRECTD152*
4,1,4,-0.031408,-0.017399,0.017399,0.031408,0.031408,0.017399,-0.017399,-0.031408,-0.031408,-0.017399,0.0*
%
%ADD152ROTATEDRECTD152*%

D10*
X4704748Y7250000D02*
G03*
X4704748Y7250000I-9748J0D01*
G01*
X2844748D02*
G03*
X2844748Y7250000I-9748J0D01*
G01*
X5144748Y1010000D02*
G03*
X5144748Y1010000I-9748J0D01*
G01*
X2579748Y1005000D02*
G03*
X2579748Y1005000I-9748J0D01*
G01*
D77*
X1775000Y9205000D02*
D03*
D78*
Y9105000D02*
D03*
Y9005000D02*
D03*
D79*
X5835000Y8825000D02*
D03*
X2810000Y8230000D02*
D03*
X3685000Y8235000D02*
D03*
X4560000Y8253780D02*
D03*
X4025000Y5980000D02*
D03*
X2830000Y3410000D02*
D03*
Y1065000D02*
D03*
X1945000Y3050000D02*
D03*
X1950000Y3640000D02*
D03*
X1940000Y4250000D02*
D03*
X1930000Y5045000D02*
D03*
X1925000Y5655000D02*
D03*
Y6255000D02*
D03*
D80*
X5735000Y8825000D02*
D03*
X2910000Y8230000D02*
D03*
X3010000D02*
D03*
X3785000Y8235000D02*
D03*
X3885000D02*
D03*
X4660000Y8253780D02*
D03*
X4760000D02*
D03*
X2490000Y7615000D02*
D03*
Y7715000D02*
D03*
X4495000Y6305000D02*
D03*
X1985000Y6695000D02*
D03*
Y6795000D02*
D03*
X2320000Y2820000D02*
D03*
Y2920000D02*
D03*
Y3430000D02*
D03*
Y3530000D02*
D03*
X2310000Y4035000D02*
D03*
Y4135000D02*
D03*
X4125000Y5980000D02*
D03*
X2300000Y4820000D02*
D03*
Y4920000D02*
D03*
X2295000Y5430000D02*
D03*
Y5530000D02*
D03*
Y6020000D02*
D03*
Y6120000D02*
D03*
X4655000Y3735000D02*
D03*
X4525000D02*
D03*
X2930000Y3410000D02*
D03*
X3030000D02*
D03*
X3130000D02*
D03*
X3230000D02*
D03*
X3330000D02*
D03*
X3430000D02*
D03*
X3530000D02*
D03*
X3630000D02*
D03*
X3730000D02*
D03*
X3830000D02*
D03*
X3930000D02*
D03*
X4030000D02*
D03*
X4130000D02*
D03*
X4230000D02*
D03*
X4330000D02*
D03*
X4430000D02*
D03*
X4530000D02*
D03*
X4630000D02*
D03*
X4730000D02*
D03*
X3130000Y1065000D02*
D03*
X3030000D02*
D03*
X2930000D02*
D03*
X2045000Y3050000D02*
D03*
X2050000Y3640000D02*
D03*
X2040000Y4250000D02*
D03*
X2030000Y5045000D02*
D03*
X2025000Y5655000D02*
D03*
Y6255000D02*
D03*
X6120000Y9105000D02*
D03*
X2540000Y9095000D02*
D03*
X6120000Y8825000D02*
D03*
X3120000Y4215000D02*
D03*
Y4315000D02*
D03*
Y4415000D02*
D03*
Y4515000D02*
D03*
Y4615000D02*
D03*
X6140000Y1205000D02*
D03*
X5885000Y1210000D02*
D03*
X5600000Y1215000D02*
D03*
D81*
X2490000Y7515000D02*
D03*
X4495000Y6205000D02*
D03*
X1985000Y6595000D02*
D03*
X2320000Y2720000D02*
D03*
Y3330000D02*
D03*
X2310000Y3935000D02*
D03*
X2300000Y4720000D02*
D03*
X2295000Y5330000D02*
D03*
Y5920000D02*
D03*
X4655000Y3635000D02*
D03*
X4525000D02*
D03*
X6120000Y9205000D02*
D03*
X2540000Y8995000D02*
D03*
X6120000Y8925000D02*
D03*
X3120000Y4115000D02*
D03*
X6140000Y1105000D02*
D03*
X5885000Y1110000D02*
D03*
X5600000Y1115000D02*
D03*
D82*
X5570000Y1840000D02*
D03*
Y2290000D02*
D03*
Y2750000D02*
D03*
Y3350000D02*
D03*
X5575000Y3790000D02*
D03*
X5570000Y4250000D02*
D03*
Y4705000D02*
D03*
Y5300000D02*
D03*
Y5745000D02*
D03*
Y6205000D02*
D03*
Y6650000D02*
D03*
Y7235000D02*
D03*
Y7680000D02*
D03*
Y8125000D02*
D03*
Y8580000D02*
D03*
D83*
Y1740000D02*
D03*
Y1640000D02*
D03*
X5870000Y1840000D02*
D03*
Y1740000D02*
D03*
Y1640000D02*
D03*
X5570000Y2190000D02*
D03*
Y2090000D02*
D03*
X5870000Y2290000D02*
D03*
Y2190000D02*
D03*
Y2090000D02*
D03*
X5570000Y2650000D02*
D03*
Y2550000D02*
D03*
X5870000Y2750000D02*
D03*
Y2650000D02*
D03*
Y2550000D02*
D03*
X5570000Y3250000D02*
D03*
Y3150000D02*
D03*
X5870000Y3350000D02*
D03*
Y3250000D02*
D03*
Y3150000D02*
D03*
X5575000Y3690000D02*
D03*
Y3590000D02*
D03*
X5875000Y3790000D02*
D03*
Y3690000D02*
D03*
Y3590000D02*
D03*
X5570000Y4150000D02*
D03*
Y4050000D02*
D03*
X5870000Y4250000D02*
D03*
Y4150000D02*
D03*
Y4050000D02*
D03*
X5570000Y4605000D02*
D03*
Y4505000D02*
D03*
X5870000Y4705000D02*
D03*
Y4605000D02*
D03*
Y4505000D02*
D03*
X5570000Y5200000D02*
D03*
Y5100000D02*
D03*
X5870000Y5300000D02*
D03*
Y5200000D02*
D03*
Y5100000D02*
D03*
X5570000Y5645000D02*
D03*
Y5545000D02*
D03*
X5870000Y5745000D02*
D03*
Y5645000D02*
D03*
Y5545000D02*
D03*
X5570000Y6105000D02*
D03*
Y6005000D02*
D03*
X5870000Y6205000D02*
D03*
Y6105000D02*
D03*
Y6005000D02*
D03*
X5570000Y6550000D02*
D03*
Y6450000D02*
D03*
X5870000Y6650000D02*
D03*
Y6550000D02*
D03*
Y6450000D02*
D03*
X5570000Y7135000D02*
D03*
Y7035000D02*
D03*
X5870000Y7235000D02*
D03*
Y7135000D02*
D03*
Y7035000D02*
D03*
X5570000Y7580000D02*
D03*
Y7480000D02*
D03*
X5870000Y7680000D02*
D03*
Y7580000D02*
D03*
Y7480000D02*
D03*
X5570000Y8025000D02*
D03*
Y7925000D02*
D03*
X5870000Y8125000D02*
D03*
Y8025000D02*
D03*
Y7925000D02*
D03*
X5570000Y8480000D02*
D03*
Y8380000D02*
D03*
X5870000Y8580000D02*
D03*
Y8480000D02*
D03*
Y8380000D02*
D03*
D84*
X1428347Y7436339D02*
D03*
Y7953661D02*
D03*
D85*
X1535039Y7557205D02*
D03*
Y7655630D02*
D03*
Y7734370D02*
D03*
D86*
Y7832795D02*
D03*
D87*
X1223976Y2600000D02*
D03*
Y4251575D02*
D03*
X6771024Y2795000D02*
D03*
Y1143425D02*
D03*
X6770000Y4745000D02*
D03*
Y3093425D02*
D03*
X1223976Y4610000D02*
D03*
Y6261575D02*
D03*
X6771024Y6695000D02*
D03*
Y5043425D02*
D03*
X6780000Y9205000D02*
D03*
Y8931378D02*
D03*
X6771024Y8635000D02*
D03*
Y6983425D02*
D03*
D88*
X1444921Y8966024D02*
D03*
D89*
X1316968Y9155000D02*
D03*
D90*
X1563032D02*
D03*
D91*
X1339921Y8349213D02*
D03*
D92*
X1410000Y8630315D02*
D03*
Y8389370D02*
D03*
X1339921Y8590157D02*
D03*
Y8429528D02*
D03*
X1410000Y8550000D02*
D03*
Y8469685D02*
D03*
X1339921Y8509843D02*
D03*
X1599764Y8759843D02*
D03*
Y8219685D02*
D03*
Y8669685D02*
D03*
Y8309843D02*
D03*
D93*
X1239921Y8239764D02*
D03*
Y8739764D02*
D03*
D94*
X1374961Y8169882D02*
D03*
Y8809646D02*
D03*
D95*
X1145000Y835000D02*
D03*
X6855000Y825000D02*
D03*
X6850000Y9495000D02*
D03*
X1160000D02*
D03*
X1400000Y3055000D02*
D03*
Y3650000D02*
D03*
Y4250000D02*
D03*
Y5060000D02*
D03*
Y5660000D02*
D03*
Y6260000D02*
D03*
X6595000Y1295000D02*
D03*
Y1745000D02*
D03*
Y2195000D02*
D03*
Y2645000D02*
D03*
X6593976Y3245000D02*
D03*
Y3695000D02*
D03*
Y4145000D02*
D03*
Y4595000D02*
D03*
X6595000Y5195000D02*
D03*
Y5645000D02*
D03*
Y6095000D02*
D03*
Y6545000D02*
D03*
Y7135000D02*
D03*
Y7585000D02*
D03*
Y8035000D02*
D03*
Y8485000D02*
D03*
X1395000Y2605000D02*
D03*
X1405000Y3205000D02*
D03*
X1400000Y3800000D02*
D03*
X1390000Y4610000D02*
D03*
X1400000Y5210000D02*
D03*
X1405000Y5810000D02*
D03*
X6625000Y1145000D02*
D03*
X6620000Y1595000D02*
D03*
X6605000Y2045000D02*
D03*
Y2495000D02*
D03*
X6613976Y3095000D02*
D03*
X6608976Y3545000D02*
D03*
X6593976Y3995000D02*
D03*
X6603976Y4445000D02*
D03*
X6630000Y5045000D02*
D03*
X6615000Y5495000D02*
D03*
X6605000Y5945000D02*
D03*
Y6395000D02*
D03*
X6595000Y6985000D02*
D03*
X6605000Y7435000D02*
D03*
X6595000Y7885000D02*
D03*
Y8330000D02*
D03*
X6605000Y9205000D02*
D03*
D96*
X4415000Y4650000D02*
D03*
X4065000Y4780000D02*
D03*
X4470000Y5390000D02*
D03*
X4335000D02*
D03*
X4115000Y5600000D02*
D03*
X4080000Y5620000D02*
D03*
X3395000Y5510000D02*
D03*
X3360000Y5495000D02*
D03*
X3235000Y5275000D02*
D03*
X3185000D02*
D03*
X3290000Y4795000D02*
D03*
X3220000Y4890000D02*
D03*
X3445000Y4690000D02*
D03*
X3500000Y4620000D02*
D03*
X3565000Y4560000D02*
D03*
X3880000Y4650000D02*
D03*
X3850000Y4630000D02*
D03*
X3510000Y5475000D02*
D03*
X3495000Y5450000D02*
D03*
X3475000Y5430000D02*
D03*
X3465000Y4415000D02*
D03*
X4400000Y5025000D02*
D03*
X3935000Y5455000D02*
D03*
X3875000Y5510000D02*
D03*
X3830000Y5540000D02*
D03*
X3855000Y5490000D02*
D03*
X3800000Y5535000D02*
D03*
X3870000Y5465000D02*
D03*
X4010000Y5266000D02*
D03*
X4035000Y5340000D02*
D03*
X4065000D02*
D03*
X4005000Y5240000D02*
D03*
X3909231Y5321000D02*
D03*
X3960000Y5435000D02*
D03*
X4000000Y5210000D02*
D03*
X3995000Y5180000D02*
D03*
X3990000Y5150000D02*
D03*
X4015000Y5130000D02*
D03*
X4065000D02*
D03*
X3970000Y5285000D02*
D03*
X4235000Y5170000D02*
D03*
X4120000Y5003846D02*
D03*
X4105000Y4975000D02*
D03*
Y4945000D02*
D03*
X4030000Y4845000D02*
D03*
X4000000Y4805000D02*
D03*
X3995000Y4765000D02*
D03*
X3360000Y5075000D02*
D03*
X3385000Y5095000D02*
D03*
Y5365000D02*
D03*
X3605000Y5225000D02*
D03*
X3650000D02*
D03*
X3557000Y5198000D02*
D03*
X3635000Y5580000D02*
D03*
X3605000Y5520000D02*
D03*
X3660000Y5640000D02*
D03*
X3605000Y5590000D02*
D03*
X3625000Y5610000D02*
D03*
X3630971Y5651000D02*
D03*
X4095000Y4855000D02*
D03*
X4075000Y4830000D02*
D03*
X3955000Y4765000D02*
D03*
Y4730000D02*
D03*
X3905000Y4760000D02*
D03*
X3875000Y4765000D02*
D03*
X3830000Y4708000D02*
D03*
X4165000Y4895000D02*
D03*
X4135000Y4875000D02*
D03*
X4449747Y5014746D02*
D03*
X3935000Y5309000D02*
D03*
X3730000Y5640000D02*
D03*
X3375000Y5280000D02*
D03*
X3225000Y4860000D02*
D03*
X3370000Y5025000D02*
D03*
X3335000Y5045000D02*
D03*
X3397884Y4995357D02*
D03*
X3510000Y4915000D02*
D03*
X3475000D02*
D03*
X3512559Y4885000D02*
D03*
X3425000Y4780000D02*
D03*
X3480000Y4650000D02*
D03*
X4450000Y5775000D02*
D03*
Y5935000D02*
D03*
X4375000D02*
D03*
Y5775000D02*
D03*
X1940000Y820000D02*
D03*
X1650000Y1460000D02*
D03*
X1945000Y1550000D02*
D03*
X1680000Y1395000D02*
D03*
X3450000Y1605000D02*
D03*
X4485472Y8655000D02*
D03*
X4465472Y8675000D02*
D03*
X4445472Y8655000D02*
D03*
X4425472Y8675000D02*
D03*
X4785000Y8740000D02*
D03*
X3910000Y8720000D02*
D03*
X3550000Y8655000D02*
D03*
X3570000Y8635000D02*
D03*
X3590000Y8655000D02*
D03*
X3610000Y8635000D02*
D03*
X3035000Y8715000D02*
D03*
X2735000Y8630000D02*
D03*
X2715000Y8650000D02*
D03*
X2695000Y8630000D02*
D03*
X1775000Y2575000D02*
D03*
X1880000Y1465000D02*
D03*
X3665000Y5200000D02*
D03*
X3330000Y6230000D02*
D03*
X3365000Y6245000D02*
D03*
X1800000Y5560000D02*
D03*
X2270000Y3480000D02*
D03*
X1405000Y4405000D02*
D03*
X4257500Y4660000D02*
D03*
X3695000Y3870000D02*
D03*
X5345000Y960000D02*
D03*
X1815000Y3835000D02*
D03*
X2170000Y8080000D02*
D03*
X2105000Y8165000D02*
D03*
X1395000Y6665000D02*
D03*
X1275000Y6670000D02*
D03*
X1290000Y4410000D02*
D03*
X4650000Y6985000D02*
D03*
X4760000Y6975000D02*
D03*
X2835000Y5915000D02*
D03*
X2655000Y5945000D02*
D03*
X2815000Y4355000D02*
D03*
X2640000Y4360000D02*
D03*
X3640000Y2575000D02*
D03*
X3595000Y2825000D02*
D03*
X2210000Y2455000D02*
D03*
X2140000Y2570000D02*
D03*
X1660000Y2580000D02*
D03*
X1600000Y6445000D02*
D03*
X1735000Y6455000D02*
D03*
X3360000Y6665000D02*
D03*
X3410000Y6755000D02*
D03*
X2885000Y5790000D02*
D03*
X2710000Y5775000D02*
D03*
X2900000Y4455000D02*
D03*
X2695000Y4440000D02*
D03*
X3170000Y3575000D02*
D03*
X3220000Y3855000D02*
D03*
X3760000Y3610000D02*
D03*
X3810000Y2425000D02*
D03*
X3895000Y2635000D02*
D03*
X1935000Y2450000D02*
D03*
X1905000Y2565000D02*
D03*
X3215000Y6655000D02*
D03*
X3190000Y6830000D02*
D03*
X2665000Y5680000D02*
D03*
X2885000Y5685000D02*
D03*
X2900000Y4580000D02*
D03*
X2645000Y4570000D02*
D03*
X3315000Y3860000D02*
D03*
X3280000Y3470000D02*
D03*
X3740000Y2420000D02*
D03*
X3715000Y2815000D02*
D03*
X2050000Y2440000D02*
D03*
X2060000Y2575000D02*
D03*
X1605000Y4440000D02*
D03*
X1720000D02*
D03*
X1595000Y6555000D02*
D03*
X1720000D02*
D03*
Y7375000D02*
D03*
X1600000D02*
D03*
X4585000Y7630000D02*
D03*
X2940000Y7660000D02*
D03*
X4555000Y6655000D02*
D03*
X2920000Y6675000D02*
D03*
X2910000Y3925000D02*
D03*
X4525000Y4240000D02*
D03*
X4565000Y2155000D02*
D03*
X3105000Y2130000D02*
D03*
X2280000Y1170000D02*
D03*
X1945000D02*
D03*
X3975000Y3855000D02*
D03*
X3460000Y5890000D02*
D03*
X4285000Y6180000D02*
D03*
X4195000Y6270000D02*
D03*
X3410000Y5560000D02*
D03*
X3390000Y4695000D02*
D03*
X4165000Y5555000D02*
D03*
X4135000Y5155000D02*
D03*
X4100000Y5130000D02*
D03*
X4180000Y5115000D02*
D03*
X1800000Y4160000D02*
D03*
X1795000Y2960000D02*
D03*
X2235000Y5955000D02*
D03*
X2240000Y6065000D02*
D03*
X2160000Y6190000D02*
D03*
X1770000Y6215000D02*
D03*
X1880000Y5860000D02*
D03*
X2235000Y5370000D02*
D03*
Y5475000D02*
D03*
X2155000Y5600000D02*
D03*
X1865000Y5240000D02*
D03*
X1785000Y5020000D02*
D03*
X2165000Y4995000D02*
D03*
X2240000Y4855000D02*
D03*
X2235000Y4755000D02*
D03*
X1880000Y4650000D02*
D03*
X2175000Y3960000D02*
D03*
X2265000Y4080000D02*
D03*
X2180000Y4215000D02*
D03*
X1860000Y3855000D02*
D03*
X2260000Y3355000D02*
D03*
X2175000Y3600000D02*
D03*
X1785000D02*
D03*
X1870000Y3240000D02*
D03*
X2255000Y2755000D02*
D03*
X2260000Y2865000D02*
D03*
X2140000Y3010000D02*
D03*
X1875000Y2630000D02*
D03*
X2055000Y8445000D02*
D03*
X2085000Y7720000D02*
D03*
X1965000Y7120000D02*
D03*
X4355000Y6060000D02*
D03*
X3185000Y6300000D02*
D03*
X2075000Y1705000D02*
D03*
X1690000Y1205000D02*
D03*
X1895000Y1085000D02*
D03*
X2220000Y1470000D02*
D03*
X1900000Y1835000D02*
D03*
X1590000Y1830000D02*
D03*
X6005000Y975000D02*
D03*
X5800000Y970000D02*
D03*
X5585000Y985000D02*
D03*
X5355000Y1860000D02*
D03*
X5320000Y2125000D02*
D03*
X5355000Y2310000D02*
D03*
X5320000Y2575000D02*
D03*
X5360000Y2765000D02*
D03*
X5325000Y3180000D02*
D03*
X5360000Y3365000D02*
D03*
X5320000Y3615000D02*
D03*
X5365000Y3810000D02*
D03*
X5325000Y4080000D02*
D03*
X5360000Y4260000D02*
D03*
X5315000Y4535000D02*
D03*
X5355000Y4725000D02*
D03*
X5325000Y5130000D02*
D03*
X5355000Y5330000D02*
D03*
X5320000Y5575000D02*
D03*
X5355000Y5765000D02*
D03*
X5315000Y6035000D02*
D03*
X5355000Y6225000D02*
D03*
X5320000Y6475000D02*
D03*
X5355000Y6665000D02*
D03*
X5320000Y7055000D02*
D03*
X5355000Y7245000D02*
D03*
X5315000Y7505000D02*
D03*
X5355000Y7700000D02*
D03*
X5320000Y7950000D02*
D03*
X5355000Y8135000D02*
D03*
X5325000Y8415000D02*
D03*
X5350000Y8630000D02*
D03*
X5250000Y1580000D02*
D03*
X5935000Y1155000D02*
D03*
X5665000Y1140000D02*
D03*
X5385000Y1150000D02*
D03*
X4545000Y8930000D02*
D03*
X4465000D02*
D03*
X4395000D02*
D03*
Y8855000D02*
D03*
X4465000D02*
D03*
X4545000D02*
D03*
X4630000Y8740000D02*
D03*
X4705000D02*
D03*
X4860000D02*
D03*
X4410000Y8365000D02*
D03*
Y8425000D02*
D03*
Y8485000D02*
D03*
X4480000D02*
D03*
X4550000D02*
D03*
Y8550000D02*
D03*
X4480000D02*
D03*
X4410000D02*
D03*
X4315000Y8530000D02*
D03*
X4260000Y8275000D02*
D03*
X3400000Y8220000D02*
D03*
X3755000Y8720000D02*
D03*
X3835000D02*
D03*
X3985000D02*
D03*
X3605000Y8530000D02*
D03*
X3675000D02*
D03*
Y8465000D02*
D03*
X3535000Y8405000D02*
D03*
X3530000Y8345000D02*
D03*
X3535000Y8465000D02*
D03*
X3605000D02*
D03*
X3535000Y8530000D02*
D03*
X3440000Y8510000D02*
D03*
X3665000Y8830000D02*
D03*
X3525000Y8915000D02*
D03*
X3520000Y8835000D02*
D03*
X3590000D02*
D03*
X3670000Y8910000D02*
D03*
X3590000D02*
D03*
X2795000Y8830000D02*
D03*
X2715000D02*
D03*
X2645000D02*
D03*
X2795000Y8905000D02*
D03*
X2715000D02*
D03*
X2645000D02*
D03*
X2660000Y8460000D02*
D03*
X2730000D02*
D03*
X2800000D02*
D03*
X2660000Y8525000D02*
D03*
X2730000D02*
D03*
X2800000D02*
D03*
X2660000Y8400000D02*
D03*
Y8340000D02*
D03*
X2510000Y8250000D02*
D03*
X2675000Y8650000D02*
D03*
X2565000Y8505000D02*
D03*
X3110000Y8715000D02*
D03*
X2960000D02*
D03*
X2880000D02*
D03*
X3015000Y8135000D02*
D03*
Y8060000D02*
D03*
X3100000D02*
D03*
Y8135000D02*
D03*
Y8210000D02*
D03*
X3180000Y8135000D02*
D03*
X3265000D02*
D03*
X3180000Y8060000D02*
D03*
X3265000D02*
D03*
X3180000Y8210000D02*
D03*
X3265000D02*
D03*
Y5365000D02*
D03*
X3250000Y5845000D02*
D03*
X2027795Y7795000D02*
D03*
X2255000Y7530000D02*
D03*
X5015000Y8230000D02*
D03*
X1513720Y6833721D02*
D03*
X1510610Y7279390D02*
D03*
X2340000Y7225000D02*
D03*
X2305000Y7265000D02*
D03*
X2300000Y7295000D02*
D03*
X1821890Y2636890D02*
D03*
X1853780Y2963780D02*
D03*
X2165000Y2905000D02*
D03*
Y2670000D02*
D03*
X2160000Y3505000D02*
D03*
Y3275000D02*
D03*
X1853780Y3558780D02*
D03*
X1825000Y3245000D02*
D03*
X1853780Y4153780D02*
D03*
X2155000Y3900000D02*
D03*
Y4140000D02*
D03*
X2160000Y4935000D02*
D03*
X2159488Y4659488D02*
D03*
X1853780Y4963780D02*
D03*
Y5566220D02*
D03*
Y6166220D02*
D03*
X1821890Y4641890D02*
D03*
X1818780Y5231221D02*
D03*
X2140000Y5305000D02*
D03*
Y5545000D02*
D03*
X1680000Y1150000D02*
D03*
X2025000Y1605000D02*
D03*
X5240000Y1860000D02*
D03*
Y2315000D02*
D03*
X5235000Y2775000D02*
D03*
Y3375000D02*
D03*
Y3815000D02*
D03*
X5240000Y4275000D02*
D03*
Y4730000D02*
D03*
X5235000Y5320000D02*
D03*
X5240000Y5770000D02*
D03*
Y6230000D02*
D03*
X5230000Y6660000D02*
D03*
X5240000Y7250000D02*
D03*
X5235000Y7690000D02*
D03*
Y8130000D02*
D03*
X5230000Y8585000D02*
D03*
X6020000Y1070000D02*
D03*
X5745000D02*
D03*
X5480000Y1075000D02*
D03*
X4770000Y3755000D02*
D03*
X1995000Y8655000D02*
D03*
X1900000Y8520000D02*
D03*
X3320000Y6275000D02*
D03*
X3350000Y6280000D02*
D03*
X2335000Y7840000D02*
D03*
X2410000Y6690000D02*
D03*
X2380000Y6595000D02*
D03*
X2370000Y6950000D02*
D03*
X2360000Y7070000D02*
D03*
X4510000Y4805000D02*
D03*
X4140000Y5075000D02*
D03*
X4108760Y5035529D02*
D03*
X4435000Y5290000D02*
D03*
X3890000Y5390000D02*
D03*
X4375000Y5475000D02*
D03*
X4355000Y4610000D02*
D03*
X4190000Y4545000D02*
D03*
X4015000Y3755000D02*
D03*
X4270000Y4530000D02*
D03*
X4170000Y5020811D02*
D03*
X4180000Y5070000D02*
D03*
X4130000Y5125000D02*
D03*
X4040000Y5110000D02*
D03*
X3820000Y4735000D02*
D03*
X3795000Y4700000D02*
D03*
X3470000Y6170000D02*
D03*
X3495000Y6030000D02*
D03*
X3830000Y5225000D02*
D03*
X3665000Y5290000D02*
D03*
X3630000Y5265000D02*
D03*
X3860000Y4735000D02*
D03*
X3740000Y5280000D02*
D03*
X4215000Y5080000D02*
D03*
X3325000Y5960000D02*
D03*
X3855000Y5250000D02*
D03*
X3880000Y5275000D02*
D03*
X3635000Y6110000D02*
D03*
X3610000Y6085000D02*
D03*
X3590000Y6060000D02*
D03*
X3470000Y6080000D02*
D03*
X3775000Y4810000D02*
D03*
X3365000Y5985000D02*
D03*
X3510000Y5070000D02*
D03*
X3810000Y4860000D02*
D03*
X3540000Y5040000D02*
D03*
X3690000Y4845000D02*
D03*
X3720000Y4850000D02*
D03*
X3760000Y4855000D02*
D03*
X3800000Y4795000D02*
D03*
X4205000Y5040000D02*
D03*
X3830000Y4670000D02*
D03*
X3995000Y6200000D02*
D03*
X4285000Y6250000D02*
D03*
X3665000Y4830000D02*
D03*
X3590000Y5190000D02*
D03*
X3650000Y4875000D02*
D03*
X3620000Y5125000D02*
D03*
X3610000Y5045000D02*
D03*
X3530000Y5000000D02*
D03*
X3925000Y5280000D02*
D03*
X3805000Y5445000D02*
D03*
X1480000Y1810000D02*
D03*
X2625000Y3330000D02*
D03*
X3435000Y5070000D02*
D03*
X3518883Y5115000D02*
D03*
X3850000Y5385000D02*
D03*
X3855000Y5415000D02*
D03*
X4760000Y8160000D02*
D03*
Y8085000D02*
D03*
X4845000D02*
D03*
Y8160000D02*
D03*
Y8235000D02*
D03*
X4925000Y8160000D02*
D03*
X5010000D02*
D03*
X4925000Y8085000D02*
D03*
X5010000D02*
D03*
X4925000Y8235000D02*
D03*
X4140000Y8215000D02*
D03*
X4055000D02*
D03*
X4140000Y8065000D02*
D03*
X4055000D02*
D03*
X4140000Y8140000D02*
D03*
X4055000D02*
D03*
X3975000Y8215000D02*
D03*
Y8140000D02*
D03*
Y8065000D02*
D03*
X3890000D02*
D03*
Y8140000D02*
D03*
X5225000Y8500000D02*
D03*
X2345000Y8855000D02*
D03*
X5515000Y8770000D02*
D03*
X5340000Y8865000D02*
D03*
X4070000Y3665000D02*
D03*
X2025000Y1760000D02*
D03*
X2340000Y1390000D02*
D03*
X2005000D02*
D03*
X1995000Y1010000D02*
D03*
X1590000Y985000D02*
D03*
X1365000Y1635000D02*
D03*
X6155000Y930000D02*
D03*
X5365000Y855000D02*
D03*
X6175000Y815000D02*
D03*
X5360000Y1420000D02*
D03*
X5395000Y1095000D02*
D03*
X5225000Y1785000D02*
D03*
X5230000Y1695000D02*
D03*
X5225000Y2240000D02*
D03*
Y2125000D02*
D03*
X5235000Y2695000D02*
D03*
X5230000Y2595000D02*
D03*
X5220000Y3300000D02*
D03*
X5225000Y3205000D02*
D03*
X5230000Y3740000D02*
D03*
X5235000Y3645000D02*
D03*
X5225000Y4205000D02*
D03*
Y4100000D02*
D03*
X5230000Y4570000D02*
D03*
X5235000Y4660000D02*
D03*
X5230000Y5245000D02*
D03*
X5235000Y5155000D02*
D03*
X5220000Y5695000D02*
D03*
X5230000Y5595000D02*
D03*
X5220000Y6155000D02*
D03*
X5230000Y6055000D02*
D03*
X5225000Y6585000D02*
D03*
X5230000Y6490000D02*
D03*
X5240000Y7175000D02*
D03*
X5235000Y7075000D02*
D03*
X5220000Y7535000D02*
D03*
X5230000Y7620000D02*
D03*
X5240000Y8030000D02*
D03*
X5245000Y7970000D02*
D03*
X5230000Y8435000D02*
D03*
X1835000Y5855000D02*
D03*
X2145000Y6145000D02*
D03*
X2150000Y5895000D02*
D03*
X1645000Y7230000D02*
D03*
X1515000Y6940000D02*
D03*
Y7080000D02*
D03*
X1510000Y6990000D02*
D03*
X1650000Y6810000D02*
D03*
X1640000Y7075000D02*
D03*
X1745000Y7155000D02*
D03*
X1935000Y7690000D02*
D03*
X1850000Y7475000D02*
D03*
X1825000Y8285000D02*
D03*
Y8410000D02*
D03*
Y8695000D02*
D03*
X1840000Y8855000D02*
D03*
X1970000Y8825000D02*
D03*
X1955000Y8185000D02*
D03*
X1865000Y8135000D02*
D03*
X2050000Y8260000D02*
D03*
X1845000Y8635000D02*
D03*
X1520000Y8390000D02*
D03*
X1510000Y8470000D02*
D03*
X1520000Y8570000D02*
D03*
X1515000Y8510000D02*
D03*
X4595000Y8075000D02*
D03*
X3730000Y8060000D02*
D03*
X2865000Y8045000D02*
D03*
X3455000Y4535000D02*
D03*
X4020000Y6110000D02*
D03*
X4285000Y6105000D02*
D03*
X4190000Y6045000D02*
D03*
X3495000Y6155000D02*
D03*
X3235000Y6175000D02*
D03*
X3240000Y6130000D02*
D03*
X3325000Y5995000D02*
D03*
X3395000Y5970000D02*
D03*
X3230000Y6280000D02*
D03*
X3175000Y6055000D02*
D03*
X3009419Y5959419D02*
D03*
X3080000Y6055000D02*
D03*
X3009419Y6155581D02*
D03*
X4580000Y4870000D02*
D03*
X4625000Y4925000D02*
D03*
X4485000Y4770000D02*
D03*
X3610000Y4330000D02*
D03*
X3570000Y4375000D02*
D03*
D97*
X3333150Y6136811D02*
D03*
X3376457D02*
D03*
X3333150Y6093504D02*
D03*
X3376457D02*
D03*
D110*
X4734370Y7250000D02*
G03*
X4734370Y7250000I-39370J0D01*
G01*
X2874370D02*
G03*
X2874370Y7250000I-39370J0D01*
G01*
X5174370Y1010000D02*
G03*
X5174370Y1010000I-39370J0D01*
G01*
X2609370Y1005000D02*
G03*
X2609370Y1005000I-39370J0D01*
G01*
D111*
X3421062Y4573938D02*
D03*
X3338938Y4656062D02*
D03*
X4281062Y5428938D02*
D03*
X4198938Y5511062D02*
D03*
D112*
X3378938Y5428938D02*
D03*
X3461062Y5511062D02*
D03*
X4253938Y4593938D02*
D03*
X4336062Y4676062D02*
D03*
D113*
X3252194Y5222194D02*
D03*
X3280311Y5250311D02*
D03*
X4167194Y4657194D02*
D03*
X4195311Y4685311D02*
D03*
X3427194Y5367194D02*
D03*
X3455311Y5395311D02*
D03*
X3962194Y4462194D02*
D03*
X3990311Y4490311D02*
D03*
D114*
X4032194Y5567806D02*
D03*
X4060311Y5539689D02*
D03*
X3567806Y4612194D02*
D03*
X3539689Y4640311D02*
D03*
X4328117Y5341883D02*
D03*
X4300000Y5370000D02*
D03*
X4521941Y4992552D02*
D03*
X4550059Y4964435D02*
D03*
X3487806Y4702194D02*
D03*
X3459689Y4730311D02*
D03*
X3272194Y4887806D02*
D03*
X3300311Y4859689D02*
D03*
X4481941Y4952552D02*
D03*
X4510059Y4924435D02*
D03*
X3587194Y4412806D02*
D03*
X3615311Y4384689D02*
D03*
D115*
X4449949Y4919545D02*
D03*
X4484747Y4884746D02*
D03*
X4415150D02*
D03*
X4449949Y4849948D02*
D03*
D116*
X3664176Y4501758D02*
D03*
X3701758Y4464176D02*
D03*
X3618242Y4455824D02*
D03*
X3655824Y4418242D02*
D03*
D117*
X3170000Y6127835D02*
D03*
Y5982165D02*
D03*
D118*
X2639134Y8602598D02*
D03*
Y8640000D02*
D03*
Y8677401D02*
D03*
X2530866D02*
D03*
Y8640000D02*
D03*
Y8602598D02*
D03*
X3514134Y8607598D02*
D03*
Y8645000D02*
D03*
Y8682401D02*
D03*
X3405866D02*
D03*
Y8645000D02*
D03*
Y8607598D02*
D03*
X4389606Y8627598D02*
D03*
Y8665000D02*
D03*
Y8702401D02*
D03*
X4281339D02*
D03*
Y8665000D02*
D03*
Y8627598D02*
D03*
D119*
X1964803Y7832402D02*
D03*
Y7795000D02*
D03*
Y7757599D02*
D03*
X2065197D02*
D03*
Y7832402D02*
D03*
D120*
X4062244Y6214370D02*
D03*
Y6175000D02*
D03*
Y6135630D02*
D03*
X4167756Y6214370D02*
D03*
Y6175000D02*
D03*
Y6135630D02*
D03*
D121*
X4115000Y6175000D02*
D03*
D122*
X1853780Y2915000D02*
D03*
Y2865000D02*
D03*
Y2815000D02*
D03*
Y2765000D02*
D03*
X2076220Y2915000D02*
D03*
Y2865000D02*
D03*
Y2815000D02*
D03*
Y2765000D02*
D03*
X1853780Y3515000D02*
D03*
Y3465000D02*
D03*
Y3415000D02*
D03*
Y3365000D02*
D03*
X2076220Y3515000D02*
D03*
Y3465000D02*
D03*
Y3415000D02*
D03*
Y3365000D02*
D03*
X1853780Y4115000D02*
D03*
Y4065000D02*
D03*
Y4015000D02*
D03*
Y3965000D02*
D03*
X2076220Y4115000D02*
D03*
Y4065000D02*
D03*
Y4015000D02*
D03*
Y3965000D02*
D03*
X1853780Y4915000D02*
D03*
Y4865000D02*
D03*
Y4815000D02*
D03*
Y4765000D02*
D03*
X2076220Y4915000D02*
D03*
Y4865000D02*
D03*
Y4815000D02*
D03*
Y4765000D02*
D03*
X1853780Y5520000D02*
D03*
Y5470000D02*
D03*
Y5420000D02*
D03*
Y5370000D02*
D03*
X2076220Y5520000D02*
D03*
Y5470000D02*
D03*
Y5420000D02*
D03*
Y5370000D02*
D03*
X1853780Y6120000D02*
D03*
Y6070000D02*
D03*
Y6020000D02*
D03*
Y5970000D02*
D03*
X2076220Y6120000D02*
D03*
Y6070000D02*
D03*
Y6020000D02*
D03*
Y5970000D02*
D03*
D123*
X3280000Y6164370D02*
D03*
Y6144685D02*
D03*
Y6125000D02*
D03*
Y6105315D02*
D03*
Y6085630D02*
D03*
Y6065945D02*
D03*
X3429606D02*
D03*
Y6085630D02*
D03*
Y6105315D02*
D03*
Y6125000D02*
D03*
Y6144685D02*
D03*
Y6164370D02*
D03*
D124*
X3305591Y6040354D02*
D03*
X3325276D02*
D03*
X3344961D02*
D03*
X3364646D02*
D03*
X3384331D02*
D03*
X3404016D02*
D03*
Y6189961D02*
D03*
X3384331D02*
D03*
X3364646D02*
D03*
X3344961D02*
D03*
X3325276D02*
D03*
X3305591D02*
D03*
D125*
X3354803Y6115158D02*
D03*
D126*
X4650000Y2110000D02*
D03*
X3025000Y2105000D02*
D03*
X4670000Y7595000D02*
D03*
X2845000Y7615000D02*
D03*
X4610000Y4165000D02*
D03*
X4630000Y6625000D02*
D03*
X2830000Y6645000D02*
D03*
X2805000Y3880000D02*
D03*
X5320000Y1110000D02*
D03*
X5420000Y8845000D02*
D03*
X1505000Y995000D02*
D03*
X2270000Y8855000D02*
D03*
X1750000Y7545000D02*
D03*
X5980000Y9205000D02*
D03*
X5975000Y8795000D02*
D03*
D127*
X2615000Y8215000D02*
D03*
X3495000Y8225000D02*
D03*
X4365000Y8239213D02*
D03*
X2705000Y9100000D02*
D03*
D128*
X1036909Y6913445D02*
D03*
Y7148484D02*
D03*
D129*
X1220965Y7286280D02*
D03*
X1075295D02*
D03*
D130*
X1458169Y7279390D02*
D03*
D131*
X1463091Y7182539D02*
D03*
Y7139232D02*
D03*
Y7095925D02*
D03*
Y7052618D02*
D03*
Y7009311D02*
D03*
Y6966004D02*
D03*
Y6922697D02*
D03*
D132*
Y6881358D02*
D03*
D133*
X1449311Y6833721D02*
D03*
D134*
X1235000Y1664331D02*
D03*
Y1455669D02*
D03*
X1850000Y1165669D02*
D03*
Y1374331D02*
D03*
X2185000Y1165669D02*
D03*
Y1374331D02*
D03*
X1515000Y1160669D02*
D03*
Y1369331D02*
D03*
X1850000Y1540669D02*
D03*
Y1749331D02*
D03*
D135*
X2055000Y1060512D02*
D03*
Y999488D02*
D03*
X2065000Y1430512D02*
D03*
Y1369488D02*
D03*
X1720000Y1435512D02*
D03*
Y1374488D02*
D03*
X2385000Y1435512D02*
D03*
Y1374488D02*
D03*
X2085000Y1815512D02*
D03*
Y1754488D02*
D03*
X4240000Y5944488D02*
D03*
Y6005512D02*
D03*
X4345000Y3700512D02*
D03*
Y3639488D02*
D03*
X4070000Y3800512D02*
D03*
Y3739488D02*
D03*
X2465000Y8670512D02*
D03*
Y8609488D02*
D03*
X3335000Y8680512D02*
D03*
Y8619488D02*
D03*
X4210000Y8705512D02*
D03*
Y8644488D02*
D03*
X2155000Y7680512D02*
D03*
Y7619488D02*
D03*
X2140000Y7845512D02*
D03*
Y7784488D02*
D03*
X2335000Y7540512D02*
D03*
Y7479488D02*
D03*
X4330000Y6134488D02*
D03*
Y6195512D02*
D03*
X6000000Y925512D02*
D03*
Y864488D02*
D03*
X5820000Y930512D02*
D03*
Y869488D02*
D03*
X5620000Y940512D02*
D03*
Y879488D02*
D03*
X1940000Y1060512D02*
D03*
Y999488D02*
D03*
X1945000Y1435512D02*
D03*
Y1374488D02*
D03*
X1610000Y1435512D02*
D03*
Y1374488D02*
D03*
X2285000Y1435512D02*
D03*
Y1374488D02*
D03*
X1955000Y1805512D02*
D03*
Y1744488D02*
D03*
X1590000Y6890000D02*
D03*
Y6828976D02*
D03*
X1585000Y7193976D02*
D03*
Y7255000D02*
D03*
Y7009488D02*
D03*
Y7070512D02*
D03*
X1750000Y2750000D02*
D03*
Y2688976D02*
D03*
X1745000Y3350512D02*
D03*
Y3289488D02*
D03*
X2215000Y2995512D02*
D03*
Y2934488D02*
D03*
X2220000Y2715512D02*
D03*
Y2654488D02*
D03*
Y2855512D02*
D03*
Y2794488D02*
D03*
X1750000Y2970512D02*
D03*
Y2909488D02*
D03*
X2220000Y3595512D02*
D03*
Y3534488D02*
D03*
Y3325512D02*
D03*
Y3264488D02*
D03*
Y3460512D02*
D03*
Y3399488D02*
D03*
X1745000Y3575512D02*
D03*
Y3514488D02*
D03*
X1750000Y3955512D02*
D03*
Y3894488D02*
D03*
X1755000Y4755512D02*
D03*
Y4694488D02*
D03*
X2225000Y4220512D02*
D03*
Y4159488D02*
D03*
X2220000Y3945512D02*
D03*
Y3884488D02*
D03*
Y4080512D02*
D03*
Y4019488D02*
D03*
X1755000Y4175512D02*
D03*
Y4114488D02*
D03*
X2205000Y4990512D02*
D03*
Y4929488D02*
D03*
Y4720512D02*
D03*
Y4659488D02*
D03*
Y4855512D02*
D03*
Y4794488D02*
D03*
X1750000Y4985000D02*
D03*
Y4923976D02*
D03*
X1755000Y5370000D02*
D03*
Y5308976D02*
D03*
Y5970000D02*
D03*
Y5908976D02*
D03*
X2195000Y5595000D02*
D03*
Y5533976D02*
D03*
Y5345512D02*
D03*
Y5284488D02*
D03*
Y5470512D02*
D03*
Y5409488D02*
D03*
X1760000Y5585512D02*
D03*
Y5524488D02*
D03*
X2200000Y6185000D02*
D03*
Y6123976D02*
D03*
Y5935000D02*
D03*
Y5873976D02*
D03*
Y6060512D02*
D03*
Y5999488D02*
D03*
X1755000Y6175512D02*
D03*
Y6114488D02*
D03*
X1900000Y8701024D02*
D03*
Y8640000D02*
D03*
Y8320512D02*
D03*
Y8259488D02*
D03*
Y8831024D02*
D03*
Y8770000D02*
D03*
Y8455512D02*
D03*
Y8394488D02*
D03*
X1425000Y1749488D02*
D03*
Y1810512D02*
D03*
X1550000D02*
D03*
Y1749488D02*
D03*
X3015000Y6019488D02*
D03*
Y6080512D02*
D03*
X3280000Y6249488D02*
D03*
Y6310512D02*
D03*
X5280000Y1765512D02*
D03*
Y1704488D02*
D03*
Y2220512D02*
D03*
Y2159488D02*
D03*
X5285000Y2680512D02*
D03*
Y2619488D02*
D03*
Y3280512D02*
D03*
Y3219488D02*
D03*
Y3720512D02*
D03*
Y3659488D02*
D03*
Y4185512D02*
D03*
Y4124488D02*
D03*
Y4640512D02*
D03*
Y4579488D02*
D03*
Y5230512D02*
D03*
Y5169488D02*
D03*
Y5680512D02*
D03*
Y5619488D02*
D03*
X5280000Y6570512D02*
D03*
Y6509488D02*
D03*
Y6140512D02*
D03*
Y6079488D02*
D03*
X5285000Y7610512D02*
D03*
Y7549488D02*
D03*
Y7155512D02*
D03*
Y7094488D02*
D03*
X5290000Y8040512D02*
D03*
Y7979488D02*
D03*
X5285000Y8510512D02*
D03*
Y8449488D02*
D03*
X6070000Y927480D02*
D03*
Y866457D02*
D03*
X5890000Y932480D02*
D03*
Y871457D02*
D03*
X5695000Y942480D02*
D03*
Y881457D02*
D03*
X1970000Y8771024D02*
D03*
Y8710000D02*
D03*
X1995000Y8320512D02*
D03*
Y8259488D02*
D03*
D136*
X5549488Y8825000D02*
D03*
X5610512D02*
D03*
X2650512Y8060000D02*
D03*
X2589488D02*
D03*
X3510512Y8070000D02*
D03*
X3449488D02*
D03*
X4375512Y8090000D02*
D03*
X4314488D02*
D03*
X2090512Y7680000D02*
D03*
X2029488D02*
D03*
X2335000Y7660000D02*
D03*
X2396024D02*
D03*
X4140512Y6295000D02*
D03*
X4079488D02*
D03*
X3834488Y3245000D02*
D03*
X3895512D02*
D03*
X2080512Y3150000D02*
D03*
X2019488D02*
D03*
X2071024Y3735000D02*
D03*
X2010000D02*
D03*
X2050000Y4345000D02*
D03*
X1988976D02*
D03*
X2035512Y5140000D02*
D03*
X1974488D02*
D03*
X2036024Y5760000D02*
D03*
X1975000D02*
D03*
X2035512Y6340000D02*
D03*
X1974488D02*
D03*
X1724488Y8855000D02*
D03*
X1785512D02*
D03*
X1735000Y8130000D02*
D03*
X1796024D02*
D03*
X3495512Y5975000D02*
D03*
X3434488D02*
D03*
X5340512Y1620000D02*
D03*
X5279488D02*
D03*
X5341024Y2070000D02*
D03*
X5280000D02*
D03*
X5470512Y1855000D02*
D03*
X5409488D02*
D03*
X5470512Y2305000D02*
D03*
X5409488D02*
D03*
X5340512Y2535000D02*
D03*
X5279488D02*
D03*
X5345512Y3130000D02*
D03*
X5284488D02*
D03*
X5470512Y2765000D02*
D03*
X5409488D02*
D03*
X5470512Y3360000D02*
D03*
X5409488D02*
D03*
X5340512Y3575000D02*
D03*
X5279488D02*
D03*
X5340512Y4035000D02*
D03*
X5279488D02*
D03*
X5470512Y3805000D02*
D03*
X5409488D02*
D03*
X5470512Y4260000D02*
D03*
X5409488D02*
D03*
X5345512Y4495000D02*
D03*
X5284488D02*
D03*
X5340512Y5085000D02*
D03*
X5279488D02*
D03*
X5470512Y4720000D02*
D03*
X5409488D02*
D03*
X5470512Y5315000D02*
D03*
X5409488D02*
D03*
X5345512Y5530000D02*
D03*
X5284488D02*
D03*
X5470512Y5760000D02*
D03*
X5409488D02*
D03*
X5345512Y5990000D02*
D03*
X5284488D02*
D03*
X5341024Y6430000D02*
D03*
X5280000D02*
D03*
X5470512Y6220000D02*
D03*
X5409488D02*
D03*
X5465512Y6660000D02*
D03*
X5404488D02*
D03*
X5345512Y7015000D02*
D03*
X5284488D02*
D03*
X5345512Y7465000D02*
D03*
X5284488D02*
D03*
X5465512Y7235000D02*
D03*
X5404488D02*
D03*
X5465512Y7690000D02*
D03*
X5404488D02*
D03*
X5341024Y7905000D02*
D03*
X5280000D02*
D03*
X5350512Y8365000D02*
D03*
X5289488D02*
D03*
X5470512Y8130000D02*
D03*
X5409488D02*
D03*
X5466024Y8585000D02*
D03*
X5405000D02*
D03*
X2817480Y8060000D02*
D03*
X2756457D02*
D03*
X3677480Y8070000D02*
D03*
X3616457D02*
D03*
X4542480Y8090000D02*
D03*
X4481457D02*
D03*
X2027520Y7570000D02*
D03*
X2088543D02*
D03*
X2028976Y7460000D02*
D03*
X2090000D02*
D03*
X5467480Y1620000D02*
D03*
X5406457D02*
D03*
X5467480Y2070000D02*
D03*
X5406457D02*
D03*
X5467480Y2535000D02*
D03*
X5406457D02*
D03*
X5471024Y3130000D02*
D03*
X5410000D02*
D03*
X5467480Y3575000D02*
D03*
X5406457D02*
D03*
X5467480Y4035000D02*
D03*
X5406457D02*
D03*
X5467480Y4495000D02*
D03*
X5406457D02*
D03*
X5467480Y5085000D02*
D03*
X5406457D02*
D03*
X5467480Y5530000D02*
D03*
X5406457D02*
D03*
X5467480Y5995000D02*
D03*
X5406457D02*
D03*
X5465000Y6435000D02*
D03*
X5403976D02*
D03*
X5467480Y7015000D02*
D03*
X5406457D02*
D03*
X5466024Y7465000D02*
D03*
X5405000D02*
D03*
X5462480Y7905000D02*
D03*
X5401457D02*
D03*
X5472480Y8365000D02*
D03*
X5411457D02*
D03*
X2510512Y8505000D02*
D03*
X2449488D02*
D03*
X3380512Y8510000D02*
D03*
X3319488D02*
D03*
X4260512Y8530000D02*
D03*
X4199488D02*
D03*
D137*
X2390000Y8675000D02*
D03*
Y8606102D02*
D03*
X3260000Y8689449D02*
D03*
Y8620551D02*
D03*
X4130000Y8709449D02*
D03*
Y8640551D02*
D03*
X6000000Y1184449D02*
D03*
Y1115551D02*
D03*
X5735000Y1189449D02*
D03*
Y1120551D02*
D03*
X5455000Y1194449D02*
D03*
Y1125551D02*
D03*
X1900000Y7093898D02*
D03*
Y7025000D02*
D03*
X2000000Y8396102D02*
D03*
Y8465000D02*
D03*
X3120000Y6230551D02*
D03*
Y6299449D02*
D03*
X2775000Y8600551D02*
D03*
Y8669449D02*
D03*
X3650000Y8605551D02*
D03*
Y8674449D02*
D03*
X4535000Y8630551D02*
D03*
Y8699449D02*
D03*
D138*
X5463307Y1735000D02*
D03*
X5376693Y1697599D02*
D03*
Y1772402D02*
D03*
X5461614Y2187598D02*
D03*
X5375000Y2150197D02*
D03*
Y2225000D02*
D03*
X5458307Y2650000D02*
D03*
X5371693Y2612599D02*
D03*
Y2687402D02*
D03*
X5463307Y3245000D02*
D03*
X5376693Y3207599D02*
D03*
Y3282402D02*
D03*
X5458307Y3690000D02*
D03*
X5371693Y3652599D02*
D03*
Y3727402D02*
D03*
X5461614Y4152401D02*
D03*
X5375000Y4115000D02*
D03*
Y4189803D02*
D03*
X5458307Y4610000D02*
D03*
X5371693Y4572599D02*
D03*
Y4647402D02*
D03*
X5463307Y5200000D02*
D03*
X5376693Y5162599D02*
D03*
Y5237402D02*
D03*
X5463307Y5645000D02*
D03*
X5376693Y5607599D02*
D03*
Y5682402D02*
D03*
X5458307Y6110000D02*
D03*
X5371693Y6072599D02*
D03*
Y6147402D02*
D03*
X5461614Y6547401D02*
D03*
X5375000Y6510000D02*
D03*
Y6584803D02*
D03*
X5463307Y7130000D02*
D03*
X5376693Y7092599D02*
D03*
Y7167402D02*
D03*
X5461614Y7577401D02*
D03*
X5375000Y7540000D02*
D03*
Y7614803D02*
D03*
X5463307Y8020000D02*
D03*
X5376693Y7982599D02*
D03*
Y8057402D02*
D03*
X5463307Y8480000D02*
D03*
X5376693Y8442599D02*
D03*
Y8517402D02*
D03*
X1948307Y7575000D02*
D03*
X1861693Y7537599D02*
D03*
Y7612402D02*
D03*
X6313307Y900000D02*
D03*
X6226693Y862598D02*
D03*
Y937402D02*
D03*
X5503307Y890000D02*
D03*
X5416693Y852598D02*
D03*
Y927402D02*
D03*
X5401614Y1322598D02*
D03*
X5315000Y1285197D02*
D03*
Y1360000D02*
D03*
X4228307Y3690000D02*
D03*
X4141693Y3652599D02*
D03*
Y3727402D02*
D03*
D139*
X2995000Y8636220D02*
D03*
Y8463780D02*
D03*
X3870000Y8641220D02*
D03*
Y8468780D02*
D03*
X4745000Y8656220D02*
D03*
Y8483780D02*
D03*
D140*
X1535000Y2600000D02*
D03*
Y3950000D02*
D03*
Y4610000D02*
D03*
Y5960000D02*
D03*
X6470945Y9206969D02*
D03*
D141*
X1535000Y2750000D02*
D03*
Y2900000D02*
D03*
Y3050000D02*
D03*
Y3200000D02*
D03*
Y3350000D02*
D03*
Y3500000D02*
D03*
Y3650000D02*
D03*
Y3800000D02*
D03*
Y4100000D02*
D03*
Y4250000D02*
D03*
Y4760000D02*
D03*
Y4910000D02*
D03*
Y5060000D02*
D03*
Y5210000D02*
D03*
Y5360000D02*
D03*
Y5510000D02*
D03*
Y5660000D02*
D03*
Y5810000D02*
D03*
Y6110000D02*
D03*
Y6260000D02*
D03*
X6470945Y9069173D02*
D03*
Y8931378D02*
D03*
D142*
X6460000Y2795000D02*
D03*
Y1445000D02*
D03*
X6458976Y4745000D02*
D03*
Y3395000D02*
D03*
X6460000Y6695000D02*
D03*
Y5345000D02*
D03*
Y8635000D02*
D03*
Y7285000D02*
D03*
D143*
Y2645000D02*
D03*
Y2495000D02*
D03*
Y2345000D02*
D03*
Y2195000D02*
D03*
Y2045000D02*
D03*
Y1895000D02*
D03*
Y1745000D02*
D03*
Y1595000D02*
D03*
Y1295000D02*
D03*
Y1145000D02*
D03*
X6458976Y4595000D02*
D03*
Y4445000D02*
D03*
Y4295000D02*
D03*
Y4145000D02*
D03*
Y3995000D02*
D03*
Y3845000D02*
D03*
Y3695000D02*
D03*
Y3545000D02*
D03*
Y3245000D02*
D03*
Y3095000D02*
D03*
X6460000Y6545000D02*
D03*
Y6395000D02*
D03*
Y6245000D02*
D03*
Y6095000D02*
D03*
Y5945000D02*
D03*
Y5795000D02*
D03*
Y5645000D02*
D03*
Y5495000D02*
D03*
Y5195000D02*
D03*
Y5045000D02*
D03*
Y8485000D02*
D03*
Y8335000D02*
D03*
Y8185000D02*
D03*
Y8035000D02*
D03*
Y7885000D02*
D03*
Y7735000D02*
D03*
Y7585000D02*
D03*
Y7435000D02*
D03*
Y7135000D02*
D03*
Y6985000D02*
D03*
D144*
X6206457Y1740000D02*
D03*
X6013543D02*
D03*
X6205000Y2195000D02*
D03*
X6012087D02*
D03*
X6206457Y2650000D02*
D03*
X6013543D02*
D03*
X6205000Y3245000D02*
D03*
X6012087D02*
D03*
X6201457Y3695000D02*
D03*
X6008543D02*
D03*
X6205000Y4140000D02*
D03*
X6012087D02*
D03*
X6206457Y4600000D02*
D03*
X6013543D02*
D03*
X6206457Y5195000D02*
D03*
X6013543D02*
D03*
X6206457Y5645000D02*
D03*
X6013543D02*
D03*
X6206457Y6105000D02*
D03*
X6013543D02*
D03*
X6206457Y6545000D02*
D03*
X6013543D02*
D03*
X6206457Y7130000D02*
D03*
X6013543D02*
D03*
X6206457Y7580000D02*
D03*
X6013543D02*
D03*
X6206457Y8030000D02*
D03*
X6013543D02*
D03*
X6201457Y8480000D02*
D03*
X6008543D02*
D03*
D145*
X2335000Y7785000D02*
D03*
X2240512D02*
D03*
D146*
X1925000Y2491890D02*
D03*
Y2531653D02*
D03*
X3355000Y6716890D02*
D03*
Y6756654D02*
D03*
X3190000Y3643110D02*
D03*
Y3603347D02*
D03*
X3725000Y3648110D02*
D03*
Y3608347D02*
D03*
X3845000Y2571890D02*
D03*
Y2611653D02*
D03*
X3250000Y6720000D02*
D03*
Y6759764D02*
D03*
X3295000Y3645000D02*
D03*
Y3605236D02*
D03*
X3730000Y2600000D02*
D03*
Y2639764D02*
D03*
X2030000Y2491890D02*
D03*
Y2531653D02*
D03*
X3615000Y2633110D02*
D03*
Y2593347D02*
D03*
X2195000Y2530000D02*
D03*
Y2490236D02*
D03*
X2140000Y8135000D02*
D03*
Y8095236D02*
D03*
X4740000Y3825000D02*
D03*
Y3785236D02*
D03*
X6060000Y1108110D02*
D03*
Y1068347D02*
D03*
X5800000Y1118110D02*
D03*
Y1078347D02*
D03*
X5520000Y1123110D02*
D03*
Y1083347D02*
D03*
X2035000Y1693110D02*
D03*
Y1653347D02*
D03*
X1640000Y1193110D02*
D03*
Y1153347D02*
D03*
X3270000Y4265236D02*
D03*
Y4305000D02*
D03*
X4215000Y3821220D02*
D03*
Y3781457D02*
D03*
X4240000Y6165000D02*
D03*
Y6125236D02*
D03*
X1715000Y7033779D02*
D03*
Y7073543D02*
D03*
X1330000Y1556890D02*
D03*
Y1596653D02*
D03*
X3070000Y5990000D02*
D03*
Y5950236D02*
D03*
Y6121890D02*
D03*
Y6161654D02*
D03*
X3185000Y6221890D02*
D03*
Y6261654D02*
D03*
D147*
X4718110Y6995000D02*
D03*
X4678346D02*
D03*
X2798110Y5790000D02*
D03*
X2758347D02*
D03*
X2788110Y4455000D02*
D03*
X2748347D02*
D03*
X2795000Y5685000D02*
D03*
X2755236D02*
D03*
X2788110Y4570000D02*
D03*
X2748347D02*
D03*
X1678110Y6430000D02*
D03*
X1638347D02*
D03*
X1733110Y2560000D02*
D03*
X1693347D02*
D03*
X2756890Y5895000D02*
D03*
X2796653D02*
D03*
X2746890Y4340000D02*
D03*
X2786653D02*
D03*
X1650000Y4430000D02*
D03*
X1689764D02*
D03*
X1636890Y6540000D02*
D03*
X1676653D02*
D03*
X1641890Y7370000D02*
D03*
X1681653D02*
D03*
X1331890Y4390000D02*
D03*
X1371653D02*
D03*
X1315000Y6650000D02*
D03*
X1354764D02*
D03*
X3098110Y3325000D02*
D03*
X3058347D02*
D03*
X5315000Y1860000D02*
D03*
X5275236D02*
D03*
X5313110Y2315000D02*
D03*
X5273346D02*
D03*
X5313110Y2775000D02*
D03*
X5273346D02*
D03*
X5316221Y3375000D02*
D03*
X5276457D02*
D03*
X5313110Y3815000D02*
D03*
X5273346D02*
D03*
X5313110Y4275000D02*
D03*
X5273346D02*
D03*
X5313110Y4730000D02*
D03*
X5273346D02*
D03*
X5313110Y5325000D02*
D03*
X5273346D02*
D03*
X5313110Y5770000D02*
D03*
X5273346D02*
D03*
X5313110Y6230000D02*
D03*
X5273346D02*
D03*
X5308110Y6660000D02*
D03*
X5268346D02*
D03*
X5313110Y7250000D02*
D03*
X5273346D02*
D03*
X5313110Y7700000D02*
D03*
X5273346D02*
D03*
X5313110Y8135000D02*
D03*
X5273346D02*
D03*
X5308110Y8600000D02*
D03*
X5268346D02*
D03*
X1858110Y2680000D02*
D03*
X1818347D02*
D03*
X1860000Y3285000D02*
D03*
X1820236D02*
D03*
X1853110Y3885000D02*
D03*
X1813347D02*
D03*
X1858110Y4685000D02*
D03*
X1818347D02*
D03*
X1855000Y5285000D02*
D03*
X1815236D02*
D03*
X1860000Y5895000D02*
D03*
X1820236D02*
D03*
X3271890Y5880000D02*
D03*
X3311653D02*
D03*
X3271890Y5925000D02*
D03*
X3311653D02*
D03*
D148*
X2781929Y8355000D02*
D03*
X2898071D02*
D03*
X3656929Y8360000D02*
D03*
X3773071D02*
D03*
X4531929Y8380000D02*
D03*
X4648071D02*
D03*
D149*
X1860000Y7716929D02*
D03*
Y7833071D02*
D03*
X1755000Y7716929D02*
D03*
Y7833071D02*
D03*
X1805000Y7118071D02*
D03*
Y7001929D02*
D03*
D150*
X1850000Y790669D02*
D03*
Y999331D02*
D03*
D151*
X3777711Y5602711D02*
D03*
X3763791Y5588791D02*
D03*
X3749872Y5574872D02*
D03*
X3735952Y5560953D02*
D03*
X3722033Y5547033D02*
D03*
X3708114Y5533114D02*
D03*
X3694194Y5519194D02*
D03*
X3680275Y5505275D02*
D03*
X3666355Y5491355D02*
D03*
X3652436Y5477436D02*
D03*
X3638517Y5463517D02*
D03*
X3624597Y5449597D02*
D03*
X3610678Y5435678D02*
D03*
X3596758Y5421758D02*
D03*
X3582839Y5407839D02*
D03*
X3568919Y5393919D02*
D03*
X3555000Y5380000D02*
D03*
X3541081Y5366081D02*
D03*
X3527161Y5352161D02*
D03*
X3513242Y5338242D02*
D03*
X3499322Y5324322D02*
D03*
X3485403Y5310403D02*
D03*
X3471483Y5296483D02*
D03*
X3457564Y5282564D02*
D03*
X3443645Y5268645D02*
D03*
X3429725Y5254725D02*
D03*
X3415806Y5240806D02*
D03*
X3401886Y5226886D02*
D03*
X3387967Y5212967D02*
D03*
X3374048Y5199047D02*
D03*
X3360128Y5185128D02*
D03*
X3346209Y5171209D02*
D03*
X3332289Y5157289D02*
D03*
X3318370Y5143370D02*
D03*
X3304450Y5129450D02*
D03*
X3290531Y5115531D02*
D03*
X3886282Y4519779D02*
D03*
X3900202Y4533699D02*
D03*
X3914121Y4547618D02*
D03*
X3928041Y4561538D02*
D03*
X3941960Y4575457D02*
D03*
X3955880Y4589377D02*
D03*
X3969799Y4603296D02*
D03*
X3983718Y4617215D02*
D03*
X3997638Y4631135D02*
D03*
X4011557Y4645054D02*
D03*
X4025477Y4658974D02*
D03*
X4039396Y4672893D02*
D03*
X4053315Y4686813D02*
D03*
X4067235Y4700732D02*
D03*
X4081154Y4714651D02*
D03*
X4095074Y4728571D02*
D03*
X4108993Y4742490D02*
D03*
X4122913Y4756410D02*
D03*
X4136832Y4770329D02*
D03*
X4150751Y4784249D02*
D03*
X4164671Y4798168D02*
D03*
X4178590Y4812087D02*
D03*
X4192510Y4826007D02*
D03*
X4206429Y4839926D02*
D03*
X4220349Y4853846D02*
D03*
X4234268Y4867765D02*
D03*
X4248187Y4881685D02*
D03*
X4262107Y4895604D02*
D03*
X4276026Y4909523D02*
D03*
X4289946Y4923443D02*
D03*
X4303865Y4937362D02*
D03*
X4317784Y4951282D02*
D03*
X4331704Y4965201D02*
D03*
X4345623Y4979120D02*
D03*
X4359543Y4993040D02*
D03*
X4373462Y5006959D02*
D03*
D152*
X3290531D02*
D03*
X3304450Y4993040D02*
D03*
X3318370Y4979120D02*
D03*
X3332289Y4965201D02*
D03*
X3346209Y4951282D02*
D03*
X3360128Y4937362D02*
D03*
X3374048Y4923443D02*
D03*
X3387967Y4909523D02*
D03*
X3401886Y4895604D02*
D03*
X3415806Y4881685D02*
D03*
X3429725Y4867765D02*
D03*
X3443645Y4853846D02*
D03*
X3457564Y4839926D02*
D03*
X3471483Y4826007D02*
D03*
X3485403Y4812087D02*
D03*
X3499322Y4798168D02*
D03*
X3513242Y4784249D02*
D03*
X3527161Y4770329D02*
D03*
X3541081Y4756410D02*
D03*
X3555000Y4742490D02*
D03*
X3568919Y4728571D02*
D03*
X3582839Y4714651D02*
D03*
X3596758Y4700732D02*
D03*
X3610678Y4686813D02*
D03*
X3624597Y4672893D02*
D03*
X3638517Y4658974D02*
D03*
X3652436Y4645054D02*
D03*
X3666355Y4631135D02*
D03*
X3680275Y4617215D02*
D03*
X3694194Y4603296D02*
D03*
X3708114Y4589377D02*
D03*
X3722033Y4575457D02*
D03*
X3735952Y4561538D02*
D03*
X3749872Y4547618D02*
D03*
X3763791Y4533699D02*
D03*
X3777711Y4519779D02*
D03*
X4373462Y5115531D02*
D03*
X4359543Y5129450D02*
D03*
X4345623Y5143370D02*
D03*
X4331704Y5157289D02*
D03*
X4317784Y5171209D02*
D03*
X4303865Y5185128D02*
D03*
X4289946Y5199047D02*
D03*
X4276026Y5212967D02*
D03*
X4262107Y5226886D02*
D03*
X4248187Y5240806D02*
D03*
X4234268Y5254725D02*
D03*
X4220349Y5268645D02*
D03*
X4206429Y5282564D02*
D03*
X4192510Y5296483D02*
D03*
X4178590Y5310403D02*
D03*
X4164671Y5324322D02*
D03*
X4150751Y5338242D02*
D03*
X4136832Y5352161D02*
D03*
X4122913Y5366081D02*
D03*
X4108993Y5380000D02*
D03*
X4095074Y5393919D02*
D03*
X4081154Y5407839D02*
D03*
X4067235Y5421758D02*
D03*
X4053315Y5435678D02*
D03*
X4039396Y5449597D02*
D03*
X4025477Y5463517D02*
D03*
X4011557Y5477436D02*
D03*
X3997638Y5491355D02*
D03*
X3983718Y5505275D02*
D03*
X3969799Y5519194D02*
D03*
X3955880Y5533114D02*
D03*
X3941960Y5547033D02*
D03*
X3928041Y5560953D02*
D03*
X3914121Y5574872D02*
D03*
X3900202Y5588791D02*
D03*
X3886282Y5602711D02*
D03*
%TF.MD5,21e9128a10d5a62655138165989f79ef*%
M02*
