%TF.GenerationSoftware,Altium Limited,Altium Designer,19.1.5 (86)*%
G04 Layer_Physical_Order=6*
G04 Layer_Color=16711680*
%FSLAX26Y26*%
%MOIN*%
%TF.FileFunction,Copper,L6,Bot,Signal*%
%TF.Part,Single*%
G01*
G75*
%TA.AperFunction,Conductor*%
%ADD53C,0.006000*%
%TA.AperFunction,ComponentPad*%
%ADD56R,0.050000X0.050000*%
%ADD57C,0.050000*%
%ADD58R,0.059055X0.059055*%
%ADD59C,0.059055*%
%ADD60R,0.059055X0.059055*%
%ADD61R,0.100000X0.050000*%
%ADD62O,0.100000X0.050000*%
%ADD63C,0.110236*%
%ADD64C,0.057087*%
%ADD65R,0.057087X0.057087*%
%ADD66C,0.060000*%
%ADD67R,0.139764X0.051181*%
%ADD68R,0.051181X0.139764*%
%ADD69R,0.061024X0.161417*%
%ADD70R,0.051181X0.051181*%
%ADD71C,0.051181*%
%ADD72C,0.127953*%
%ADD73C,0.098425*%
%TA.AperFunction,ViaPad*%
%ADD74C,0.060000*%
%ADD75C,0.020000*%
%ADD76C,0.019685*%
G36*
X2360000Y8725000D02*
Y8390000D01*
X2445000Y8305000D01*
X5100000D01*
Y8035000D01*
X5075000Y8010000D01*
X2460000Y8010000D01*
X2435000Y7985000D01*
Y6985000D01*
X2385705Y6935705D01*
X2381821Y6938892D01*
X2385072Y6943757D01*
X2386314Y6950000D01*
X2385072Y6956243D01*
X2381535Y6961535D01*
X2376243Y6965072D01*
X2370000Y6966314D01*
X2363757Y6965072D01*
X2358465Y6961535D01*
X2354928Y6956243D01*
X2353686Y6950000D01*
X2354928Y6943757D01*
X2358465Y6938465D01*
X2363757Y6934928D01*
X2370000Y6933686D01*
X2376243Y6934928D01*
X2381108Y6938179D01*
X2384295Y6934295D01*
X2120000Y6670000D01*
X2016251D01*
X2014039Y6674484D01*
X2016033Y6677083D01*
X2019613Y6685725D01*
X2020834Y6695000D01*
X2019613Y6704275D01*
X2016033Y6712917D01*
X2010339Y6720338D01*
X2002917Y6726033D01*
X1994274Y6729613D01*
X1985000Y6730834D01*
X1975726Y6729613D01*
X1967083Y6726033D01*
X1959661Y6720338D01*
X1953967Y6712917D01*
X1950387Y6704275D01*
X1949166Y6695000D01*
X1950387Y6685725D01*
X1953967Y6677083D01*
X1955961Y6674484D01*
X1953749Y6670000D01*
X1410319D01*
X1410072Y6671243D01*
X1406535Y6676535D01*
X1401243Y6680072D01*
X1395000Y6681314D01*
X1388757Y6680072D01*
X1383465Y6676535D01*
X1379928Y6671243D01*
X1379681Y6670000D01*
X1291313D01*
X1290072Y6676243D01*
X1286535Y6681535D01*
X1281243Y6685072D01*
X1275000Y6686314D01*
X1268757Y6685072D01*
X1263465Y6681535D01*
X1259928Y6676243D01*
X1258687Y6670000D01*
X1165000D01*
X1030000Y6805000D01*
Y8780000D01*
X1140000Y8890000D01*
X2195000D01*
X2360000Y8725000D01*
D02*
G37*
%LPC*%
G36*
X1840000Y8871314D02*
X1833757Y8870072D01*
X1828465Y8866535D01*
X1824928Y8861243D01*
X1823687Y8855000D01*
X1824928Y8848757D01*
X1828465Y8843465D01*
X1833757Y8839928D01*
X1840000Y8838686D01*
X1846243Y8839928D01*
X1851535Y8843465D01*
X1855072Y8848757D01*
X1856313Y8855000D01*
X1855072Y8861243D01*
X1851535Y8866535D01*
X1846243Y8870072D01*
X1840000Y8871314D01*
D02*
G37*
G36*
X1970000Y8841314D02*
X1963757Y8840072D01*
X1958465Y8836535D01*
X1954928Y8831243D01*
X1953687Y8825000D01*
X1954928Y8818757D01*
X1958465Y8813465D01*
X1963757Y8809928D01*
X1970000Y8808686D01*
X1976243Y8809928D01*
X1981535Y8813465D01*
X1985072Y8818757D01*
X1986313Y8825000D01*
X1985072Y8831243D01*
X1981535Y8836535D01*
X1976243Y8840072D01*
X1970000Y8841314D01*
D02*
G37*
G36*
X1374961Y8865335D02*
X1360547Y8863437D01*
X1347116Y8857874D01*
X1335583Y8849024D01*
X1326733Y8837490D01*
X1321169Y8824059D01*
X1319272Y8809646D01*
X1321169Y8795232D01*
X1326733Y8781801D01*
X1335583Y8770268D01*
X1347116Y8761418D01*
X1360547Y8755854D01*
X1374961Y8753957D01*
X1389374Y8755854D01*
X1402805Y8761418D01*
X1414339Y8770268D01*
X1423189Y8781801D01*
X1428752Y8795232D01*
X1430650Y8809646D01*
X1428752Y8824059D01*
X1423189Y8837490D01*
X1414339Y8849024D01*
X1402805Y8857874D01*
X1389374Y8863437D01*
X1374961Y8865335D01*
D02*
G37*
G36*
X1599764Y8791706D02*
X1591517Y8790620D01*
X1583832Y8787437D01*
X1577233Y8782373D01*
X1572169Y8775774D01*
X1568986Y8768089D01*
X1567901Y8759843D01*
X1568986Y8751596D01*
X1572169Y8743911D01*
X1577233Y8737312D01*
X1583832Y8732248D01*
X1591517Y8729065D01*
X1599764Y8727979D01*
X1608011Y8729065D01*
X1615695Y8732248D01*
X1622294Y8737312D01*
X1627358Y8743911D01*
X1630541Y8751596D01*
X1631627Y8759843D01*
X1630541Y8768089D01*
X1627358Y8775774D01*
X1622294Y8782373D01*
X1615695Y8787437D01*
X1608011Y8790620D01*
X1599764Y8791706D01*
D02*
G37*
G36*
X1825000Y8711314D02*
X1818757Y8710072D01*
X1813465Y8706535D01*
X1809928Y8701243D01*
X1808687Y8695000D01*
X1809928Y8688757D01*
X1813465Y8683465D01*
X1818757Y8679928D01*
X1825000Y8678686D01*
X1831243Y8679928D01*
X1836535Y8683465D01*
X1840072Y8688757D01*
X1841313Y8695000D01*
X1840072Y8701243D01*
X1836535Y8706535D01*
X1831243Y8710072D01*
X1825000Y8711314D01*
D02*
G37*
G36*
X1239921Y8810079D02*
X1226204Y8808728D01*
X1213013Y8804726D01*
X1200856Y8798229D01*
X1190201Y8789484D01*
X1181457Y8778829D01*
X1174959Y8766672D01*
X1170957Y8753482D01*
X1169606Y8739764D01*
X1170957Y8726046D01*
X1174959Y8712855D01*
X1181457Y8700699D01*
X1190201Y8690044D01*
X1200856Y8681299D01*
X1213013Y8674801D01*
X1226204Y8670800D01*
X1239921Y8669449D01*
X1253639Y8670800D01*
X1266830Y8674801D01*
X1278986Y8681299D01*
X1289641Y8690044D01*
X1298386Y8700699D01*
X1304884Y8712855D01*
X1308885Y8726046D01*
X1310236Y8739764D01*
X1308885Y8753482D01*
X1304884Y8766672D01*
X1298386Y8778829D01*
X1289641Y8789484D01*
X1278986Y8798229D01*
X1266830Y8804726D01*
X1253639Y8808728D01*
X1239921Y8810079D01*
D02*
G37*
G36*
X1995000Y8671314D02*
X1988757Y8670072D01*
X1983465Y8666535D01*
X1979928Y8661243D01*
X1978687Y8655000D01*
X1979928Y8648757D01*
X1983465Y8643465D01*
X1988757Y8639928D01*
X1995000Y8638686D01*
X2001243Y8639928D01*
X2006535Y8643465D01*
X2010072Y8648757D01*
X2011313Y8655000D01*
X2010072Y8661243D01*
X2006535Y8666535D01*
X2001243Y8670072D01*
X1995000Y8671314D01*
D02*
G37*
G36*
X1599764Y8701548D02*
X1591517Y8700462D01*
X1583832Y8697279D01*
X1577233Y8692216D01*
X1572169Y8685617D01*
X1568986Y8677932D01*
X1567901Y8669685D01*
X1568986Y8661438D01*
X1572169Y8653754D01*
X1577233Y8647155D01*
X1583832Y8642091D01*
X1591517Y8638908D01*
X1599764Y8637822D01*
X1608011Y8638908D01*
X1615695Y8642091D01*
X1622294Y8647155D01*
X1627358Y8653754D01*
X1630541Y8661438D01*
X1631627Y8669685D01*
X1630541Y8677932D01*
X1627358Y8685617D01*
X1622294Y8692216D01*
X1615695Y8697279D01*
X1608011Y8700462D01*
X1599764Y8701548D01*
D02*
G37*
G36*
X1845000Y8651314D02*
X1838757Y8650072D01*
X1833465Y8646535D01*
X1829928Y8641243D01*
X1828687Y8635000D01*
X1829928Y8628757D01*
X1833465Y8623465D01*
X1838757Y8619928D01*
X1845000Y8618686D01*
X1851243Y8619928D01*
X1856535Y8623465D01*
X1860072Y8628757D01*
X1861313Y8635000D01*
X1860072Y8641243D01*
X1856535Y8646535D01*
X1851243Y8650072D01*
X1845000Y8651314D01*
D02*
G37*
G36*
X1410000Y8662178D02*
X1401753Y8661092D01*
X1394068Y8657909D01*
X1387469Y8652846D01*
X1382406Y8646247D01*
X1379223Y8638562D01*
X1378137Y8630315D01*
X1379223Y8622068D01*
X1382406Y8614383D01*
X1387469Y8607784D01*
X1394068Y8602721D01*
X1401753Y8599538D01*
X1410000Y8598452D01*
X1418247Y8599538D01*
X1425932Y8602721D01*
X1432531Y8607784D01*
X1437594Y8614383D01*
X1440777Y8622068D01*
X1441863Y8630315D01*
X1440777Y8638562D01*
X1437594Y8646247D01*
X1432531Y8652846D01*
X1425932Y8657909D01*
X1418247Y8661092D01*
X1410000Y8662178D01*
D02*
G37*
G36*
X1339921Y8622021D02*
X1331675Y8620935D01*
X1323990Y8617752D01*
X1317391Y8612688D01*
X1312327Y8606089D01*
X1309144Y8598404D01*
X1308058Y8590157D01*
X1309144Y8581911D01*
X1312327Y8574226D01*
X1317391Y8567627D01*
X1323990Y8562563D01*
X1331675Y8559380D01*
X1339921Y8558294D01*
X1348168Y8559380D01*
X1355853Y8562563D01*
X1362452Y8567627D01*
X1367516Y8574226D01*
X1370699Y8581911D01*
X1371784Y8590157D01*
X1370699Y8598404D01*
X1367516Y8606089D01*
X1362452Y8612688D01*
X1355853Y8617752D01*
X1348168Y8620935D01*
X1339921Y8622021D01*
D02*
G37*
G36*
X1520000Y8586314D02*
X1513757Y8585072D01*
X1508465Y8581535D01*
X1504928Y8576243D01*
X1503687Y8570000D01*
X1504928Y8563757D01*
X1508465Y8558465D01*
X1513757Y8554928D01*
X1520000Y8553686D01*
X1526243Y8554928D01*
X1531535Y8558465D01*
X1535072Y8563757D01*
X1536313Y8570000D01*
X1535072Y8576243D01*
X1531535Y8581535D01*
X1526243Y8585072D01*
X1520000Y8586314D01*
D02*
G37*
G36*
X1410000Y8581863D02*
X1401753Y8580777D01*
X1394068Y8577594D01*
X1387469Y8572531D01*
X1382406Y8565932D01*
X1379223Y8558247D01*
X1378137Y8550000D01*
X1379223Y8541753D01*
X1382406Y8534068D01*
X1387469Y8527469D01*
X1394068Y8522406D01*
X1401753Y8519223D01*
X1410000Y8518137D01*
X1418247Y8519223D01*
X1425932Y8522406D01*
X1432531Y8527469D01*
X1437594Y8534068D01*
X1440777Y8541753D01*
X1441863Y8550000D01*
X1440777Y8558247D01*
X1437594Y8565932D01*
X1432531Y8572531D01*
X1425932Y8577594D01*
X1418247Y8580777D01*
X1410000Y8581863D01*
D02*
G37*
G36*
X1900000Y8536314D02*
X1893757Y8535072D01*
X1888465Y8531535D01*
X1884928Y8526243D01*
X1883687Y8520000D01*
X1884928Y8513757D01*
X1888465Y8508465D01*
X1893757Y8504928D01*
X1900000Y8503686D01*
X1906243Y8504928D01*
X1911535Y8508465D01*
X1915072Y8513757D01*
X1916313Y8520000D01*
X1915072Y8526243D01*
X1911535Y8531535D01*
X1906243Y8535072D01*
X1900000Y8536314D01*
D02*
G37*
G36*
X1515000Y8526314D02*
X1508757Y8525072D01*
X1503465Y8521535D01*
X1499928Y8516243D01*
X1498687Y8510000D01*
X1499928Y8503757D01*
X1503465Y8498465D01*
X1508757Y8494928D01*
X1515000Y8493686D01*
X1521243Y8494928D01*
X1526535Y8498465D01*
X1530072Y8503757D01*
X1531313Y8510000D01*
X1530072Y8516243D01*
X1526535Y8521535D01*
X1521243Y8525072D01*
X1515000Y8526314D01*
D02*
G37*
G36*
X1339921Y8541706D02*
X1331675Y8540620D01*
X1323990Y8537437D01*
X1317391Y8532373D01*
X1312327Y8525774D01*
X1309144Y8518089D01*
X1308058Y8509843D01*
X1309144Y8501596D01*
X1312327Y8493911D01*
X1317391Y8487312D01*
X1323990Y8482248D01*
X1331675Y8479065D01*
X1339921Y8477979D01*
X1348168Y8479065D01*
X1355853Y8482248D01*
X1362452Y8487312D01*
X1367516Y8493911D01*
X1370699Y8501596D01*
X1371784Y8509843D01*
X1370699Y8518089D01*
X1367516Y8525774D01*
X1362452Y8532373D01*
X1355853Y8537437D01*
X1348168Y8540620D01*
X1339921Y8541706D01*
D02*
G37*
G36*
X1510000Y8486314D02*
X1503757Y8485072D01*
X1498465Y8481535D01*
X1494928Y8476243D01*
X1493687Y8470000D01*
X1494928Y8463757D01*
X1498465Y8458465D01*
X1503757Y8454928D01*
X1510000Y8453686D01*
X1516243Y8454928D01*
X1521535Y8458465D01*
X1525072Y8463757D01*
X1526313Y8470000D01*
X1525072Y8476243D01*
X1521535Y8481535D01*
X1516243Y8485072D01*
X1510000Y8486314D01*
D02*
G37*
G36*
X2060000Y8464397D02*
Y8450000D01*
X2074397D01*
X2073840Y8452804D01*
X2069419Y8459419D01*
X2062804Y8463840D01*
X2060000Y8464397D01*
D02*
G37*
G36*
X2050000D02*
X2047196Y8463840D01*
X2040581Y8459419D01*
X2036160Y8452804D01*
X2035603Y8450000D01*
X2050000D01*
Y8464397D01*
D02*
G37*
G36*
X1410000Y8501548D02*
X1401753Y8500462D01*
X1394068Y8497279D01*
X1387469Y8492216D01*
X1382406Y8485617D01*
X1379223Y8477932D01*
X1378137Y8469685D01*
X1379223Y8461438D01*
X1382406Y8453753D01*
X1387469Y8447154D01*
X1394068Y8442091D01*
X1401753Y8438908D01*
X1410000Y8437822D01*
X1418247Y8438908D01*
X1425932Y8442091D01*
X1432531Y8447154D01*
X1437594Y8453753D01*
X1440777Y8461438D01*
X1441863Y8469685D01*
X1440777Y8477932D01*
X1437594Y8485617D01*
X1432531Y8492216D01*
X1425932Y8497279D01*
X1418247Y8500462D01*
X1410000Y8501548D01*
D02*
G37*
G36*
X2074397Y8440000D02*
X2060000D01*
Y8425603D01*
X2062804Y8426160D01*
X2069419Y8430581D01*
X2073840Y8437196D01*
X2074397Y8440000D01*
D02*
G37*
G36*
X2050000D02*
X2035603D01*
X2036160Y8437196D01*
X2040581Y8430581D01*
X2047196Y8426160D01*
X2050000Y8425603D01*
Y8440000D01*
D02*
G37*
G36*
X1339921Y8461391D02*
X1331675Y8460305D01*
X1323990Y8457122D01*
X1317391Y8452058D01*
X1312327Y8445459D01*
X1309144Y8437774D01*
X1308058Y8429528D01*
X1309144Y8421281D01*
X1312327Y8413596D01*
X1317391Y8406997D01*
X1323990Y8401933D01*
X1331675Y8398750D01*
X1339921Y8397665D01*
X1348168Y8398750D01*
X1355853Y8401933D01*
X1362452Y8406997D01*
X1367516Y8413596D01*
X1370699Y8421281D01*
X1371784Y8429528D01*
X1370699Y8437774D01*
X1367516Y8445459D01*
X1362452Y8452058D01*
X1355853Y8457122D01*
X1348168Y8460305D01*
X1339921Y8461391D01*
D02*
G37*
G36*
X1825000Y8426314D02*
X1818757Y8425072D01*
X1813465Y8421535D01*
X1809928Y8416243D01*
X1808687Y8410000D01*
X1809928Y8403757D01*
X1813465Y8398465D01*
X1818757Y8394928D01*
X1825000Y8393686D01*
X1831243Y8394928D01*
X1836535Y8398465D01*
X1840072Y8403757D01*
X1841313Y8410000D01*
X1840072Y8416243D01*
X1836535Y8421535D01*
X1831243Y8425072D01*
X1825000Y8426314D01*
D02*
G37*
G36*
X1520000Y8406314D02*
X1513757Y8405072D01*
X1508465Y8401535D01*
X1504928Y8396243D01*
X1503687Y8390000D01*
X1504928Y8383757D01*
X1508465Y8378465D01*
X1513757Y8374928D01*
X1520000Y8373686D01*
X1526243Y8374928D01*
X1531535Y8378465D01*
X1535072Y8383757D01*
X1536313Y8390000D01*
X1535072Y8396243D01*
X1531535Y8401535D01*
X1526243Y8405072D01*
X1520000Y8406314D01*
D02*
G37*
G36*
X1410000Y8421233D02*
X1401753Y8420147D01*
X1394069Y8416964D01*
X1387469Y8411901D01*
X1382406Y8405302D01*
X1379223Y8397617D01*
X1378137Y8389370D01*
X1379223Y8381123D01*
X1382406Y8373439D01*
X1387469Y8366840D01*
X1394069Y8361776D01*
X1401753Y8358593D01*
X1410000Y8357507D01*
X1418247Y8358593D01*
X1425931Y8361776D01*
X1432531Y8366840D01*
X1437594Y8373439D01*
X1440777Y8381123D01*
X1441863Y8389370D01*
X1440777Y8397617D01*
X1437594Y8405302D01*
X1432531Y8411901D01*
X1425931Y8416964D01*
X1418247Y8420147D01*
X1410000Y8421233D01*
D02*
G37*
G36*
X1371512Y8380803D02*
X1308331D01*
Y8317622D01*
X1371512D01*
Y8380803D01*
D02*
G37*
G36*
X1599764Y8341706D02*
X1591517Y8340620D01*
X1583832Y8337437D01*
X1577233Y8332373D01*
X1572169Y8325774D01*
X1568986Y8318089D01*
X1567901Y8309843D01*
X1568986Y8301596D01*
X1572169Y8293911D01*
X1577233Y8287312D01*
X1583832Y8282248D01*
X1591517Y8279065D01*
X1599764Y8277979D01*
X1608011Y8279065D01*
X1615695Y8282248D01*
X1622294Y8287312D01*
X1627358Y8293911D01*
X1630541Y8301596D01*
X1631627Y8309843D01*
X1630541Y8318089D01*
X1627358Y8325774D01*
X1622294Y8332373D01*
X1615695Y8337437D01*
X1608011Y8340620D01*
X1599764Y8341706D01*
D02*
G37*
G36*
X1825000Y8301314D02*
X1818757Y8300072D01*
X1813465Y8296535D01*
X1809928Y8291243D01*
X1808687Y8285000D01*
X1809928Y8278757D01*
X1813465Y8273465D01*
X1818757Y8269928D01*
X1825000Y8268686D01*
X1831243Y8269928D01*
X1836535Y8273465D01*
X1840072Y8278757D01*
X1841313Y8285000D01*
X1840072Y8291243D01*
X1836535Y8296535D01*
X1831243Y8300072D01*
X1825000Y8301314D01*
D02*
G37*
G36*
X4765000Y8292990D02*
Y8258780D01*
X4799210D01*
X4798510Y8264098D01*
X4794527Y8273714D01*
X4788191Y8281971D01*
X4779934Y8288307D01*
X4770319Y8292290D01*
X4765000Y8292990D01*
D02*
G37*
G36*
X4755000D02*
X4749681Y8292290D01*
X4740066Y8288307D01*
X4731809Y8281971D01*
X4725473Y8273714D01*
X4721490Y8264098D01*
X4720790Y8258780D01*
X4755000D01*
Y8292990D01*
D02*
G37*
G36*
X4260000Y8291314D02*
X4253757Y8290072D01*
X4248465Y8286535D01*
X4244928Y8281243D01*
X4243686Y8275000D01*
X4244928Y8268757D01*
X4248465Y8263465D01*
X4253757Y8259928D01*
X4260000Y8258686D01*
X4266243Y8259928D01*
X4271535Y8263465D01*
X4275072Y8268757D01*
X4276314Y8275000D01*
X4275072Y8281243D01*
X4271535Y8286535D01*
X4266243Y8290072D01*
X4260000Y8291314D01*
D02*
G37*
G36*
X2050000Y8276314D02*
X2043757Y8275072D01*
X2038465Y8271535D01*
X2034928Y8266243D01*
X2033687Y8260000D01*
X2034928Y8253757D01*
X2038465Y8248465D01*
X2043757Y8244928D01*
X2050000Y8243686D01*
X2056243Y8244928D01*
X2061535Y8248465D01*
X2065072Y8253757D01*
X2066314Y8260000D01*
X2065072Y8266243D01*
X2061535Y8271535D01*
X2056243Y8275072D01*
X2050000Y8276314D01*
D02*
G37*
G36*
X4930000Y8254397D02*
Y8240000D01*
X4944397D01*
X4943840Y8242804D01*
X4939419Y8249419D01*
X4932804Y8253840D01*
X4930000Y8254397D01*
D02*
G37*
G36*
X4920000D02*
X4917196Y8253840D01*
X4910581Y8249419D01*
X4906160Y8242804D01*
X4905603Y8240000D01*
X4920000D01*
Y8254397D01*
D02*
G37*
G36*
X4850000D02*
Y8240000D01*
X4864397D01*
X4863840Y8242804D01*
X4859419Y8249419D01*
X4852804Y8253840D01*
X4850000Y8254397D01*
D02*
G37*
G36*
X4840000D02*
X4837196Y8253840D01*
X4830581Y8249419D01*
X4826160Y8242804D01*
X4825603Y8240000D01*
X4840000D01*
Y8254397D01*
D02*
G37*
G36*
X5020000Y8249397D02*
Y8235000D01*
X5034397D01*
X5033840Y8237804D01*
X5029419Y8244419D01*
X5022804Y8248840D01*
X5020000Y8249397D01*
D02*
G37*
G36*
X5010000D02*
X5007196Y8248840D01*
X5000581Y8244419D01*
X4996160Y8237804D01*
X4995603Y8235000D01*
X5010000D01*
Y8249397D01*
D02*
G37*
G36*
X2510000Y8266314D02*
X2503757Y8265072D01*
X2498465Y8261535D01*
X2494928Y8256243D01*
X2493686Y8250000D01*
X2494928Y8243757D01*
X2498465Y8238465D01*
X2503757Y8234928D01*
X2510000Y8233686D01*
X2516243Y8234928D01*
X2521535Y8238465D01*
X2525072Y8243757D01*
X2526314Y8250000D01*
X2525072Y8256243D01*
X2521535Y8261535D01*
X2516243Y8265072D01*
X2510000Y8266314D01*
D02*
G37*
G36*
X4595528Y8289307D02*
X4524472D01*
Y8218252D01*
X4595528D01*
Y8289307D01*
D02*
G37*
G36*
X4660000Y8289614D02*
X4650725Y8288393D01*
X4642083Y8284813D01*
X4634662Y8279118D01*
X4628967Y8271697D01*
X4625387Y8263054D01*
X4624166Y8253780D01*
X4625387Y8244505D01*
X4628967Y8235862D01*
X4634662Y8228441D01*
X4642083Y8222746D01*
X4650725Y8219166D01*
X4660000Y8217945D01*
X4669275Y8219166D01*
X4677917Y8222746D01*
X4685338Y8228441D01*
X4691033Y8235862D01*
X4694613Y8244505D01*
X4695834Y8253780D01*
X4694613Y8263054D01*
X4691033Y8271697D01*
X4685338Y8279118D01*
X4677917Y8284813D01*
X4669275Y8288393D01*
X4660000Y8289614D01*
D02*
G37*
G36*
X4944397Y8230000D02*
X4930000D01*
Y8215603D01*
X4932804Y8216160D01*
X4939419Y8220581D01*
X4943840Y8227196D01*
X4944397Y8230000D01*
D02*
G37*
G36*
X4920000D02*
X4905603D01*
X4906160Y8227196D01*
X4910581Y8220581D01*
X4917196Y8216160D01*
X4920000Y8215603D01*
Y8230000D01*
D02*
G37*
G36*
X4864397D02*
X4850000D01*
Y8215603D01*
X4852804Y8216160D01*
X4859419Y8220581D01*
X4863840Y8227196D01*
X4864397Y8230000D01*
D02*
G37*
G36*
X4840000D02*
X4825603D01*
X4826160Y8227196D01*
X4830581Y8220581D01*
X4837196Y8216160D01*
X4840000Y8215603D01*
Y8230000D01*
D02*
G37*
G36*
X4799210Y8248780D02*
X4765000D01*
Y8214569D01*
X4770319Y8215269D01*
X4779934Y8219252D01*
X4788191Y8225588D01*
X4794527Y8233845D01*
X4798510Y8243461D01*
X4799210Y8248780D01*
D02*
G37*
G36*
X4755000D02*
X4720790D01*
X4721490Y8243461D01*
X4725473Y8233845D01*
X4731809Y8225588D01*
X4740066Y8219252D01*
X4749681Y8215269D01*
X4755000Y8214569D01*
Y8248780D01*
D02*
G37*
G36*
X5034397Y8225000D02*
X5020000D01*
Y8210603D01*
X5022804Y8211160D01*
X5029419Y8215581D01*
X5033840Y8222196D01*
X5034397Y8225000D01*
D02*
G37*
G36*
X5010000D02*
X4995603D01*
X4996160Y8222196D01*
X5000581Y8215581D01*
X5007196Y8211160D01*
X5010000Y8210603D01*
Y8225000D01*
D02*
G37*
G36*
X3400000Y8236314D02*
X3393757Y8235072D01*
X3388465Y8231535D01*
X3384928Y8226243D01*
X3383686Y8220000D01*
X3384928Y8213757D01*
X3388465Y8208465D01*
X3393757Y8204928D01*
X3400000Y8203686D01*
X3406243Y8204928D01*
X3411535Y8208465D01*
X3415072Y8213757D01*
X3416314Y8220000D01*
X3415072Y8226243D01*
X3411535Y8231535D01*
X3406243Y8235072D01*
X3400000Y8236314D01*
D02*
G37*
G36*
X3720528Y8270528D02*
X3649472D01*
Y8199472D01*
X3720528D01*
Y8270528D01*
D02*
G37*
G36*
X3885000Y8270834D02*
X3875726Y8269613D01*
X3867083Y8266033D01*
X3859662Y8260338D01*
X3853967Y8252917D01*
X3850387Y8244274D01*
X3849166Y8235000D01*
X3850387Y8225726D01*
X3853967Y8217083D01*
X3859662Y8209662D01*
X3867083Y8203967D01*
X3875726Y8200387D01*
X3885000Y8199166D01*
X3894274Y8200387D01*
X3902917Y8203967D01*
X3910338Y8209662D01*
X3916033Y8217083D01*
X3919613Y8225726D01*
X3920834Y8235000D01*
X3919613Y8244274D01*
X3916033Y8252917D01*
X3910338Y8260338D01*
X3902917Y8266033D01*
X3894274Y8269613D01*
X3885000Y8270834D01*
D02*
G37*
G36*
X3785000D02*
X3775726Y8269613D01*
X3767083Y8266033D01*
X3759662Y8260338D01*
X3753967Y8252917D01*
X3750387Y8244274D01*
X3749166Y8235000D01*
X3750387Y8225726D01*
X3753967Y8217083D01*
X3759662Y8209662D01*
X3767083Y8203967D01*
X3775726Y8200387D01*
X3785000Y8199166D01*
X3794274Y8200387D01*
X3802917Y8203967D01*
X3810338Y8209662D01*
X3816033Y8217083D01*
X3819613Y8225726D01*
X3820834Y8235000D01*
X3819613Y8244274D01*
X3816033Y8252917D01*
X3810338Y8260338D01*
X3802917Y8266033D01*
X3794274Y8269613D01*
X3785000Y8270834D01*
D02*
G37*
G36*
X4140000Y8231314D02*
X4133757Y8230072D01*
X4128465Y8226535D01*
X4124928Y8221243D01*
X4123686Y8215000D01*
X4124928Y8208757D01*
X4128465Y8203465D01*
X4133757Y8199928D01*
X4140000Y8198686D01*
X4146243Y8199928D01*
X4151535Y8203465D01*
X4155072Y8208757D01*
X4156314Y8215000D01*
X4155072Y8221243D01*
X4151535Y8226535D01*
X4146243Y8230072D01*
X4140000Y8231314D01*
D02*
G37*
G36*
X4055000D02*
X4048757Y8230072D01*
X4043465Y8226535D01*
X4039928Y8221243D01*
X4038686Y8215000D01*
X4039928Y8208757D01*
X4043465Y8203465D01*
X4048757Y8199928D01*
X4055000Y8198686D01*
X4061243Y8199928D01*
X4066535Y8203465D01*
X4070072Y8208757D01*
X4071314Y8215000D01*
X4070072Y8221243D01*
X4066535Y8226535D01*
X4061243Y8230072D01*
X4055000Y8231314D01*
D02*
G37*
G36*
X3975000D02*
X3968757Y8230072D01*
X3963465Y8226535D01*
X3959928Y8221243D01*
X3958686Y8215000D01*
X3959928Y8208757D01*
X3963465Y8203465D01*
X3968757Y8199928D01*
X3975000Y8198686D01*
X3981243Y8199928D01*
X3986535Y8203465D01*
X3990072Y8208757D01*
X3991314Y8215000D01*
X3990072Y8221243D01*
X3986535Y8226535D01*
X3981243Y8230072D01*
X3975000Y8231314D01*
D02*
G37*
G36*
X2845528Y8265528D02*
X2774472D01*
Y8194472D01*
X2845528D01*
Y8265528D01*
D02*
G37*
G36*
X3010000Y8265834D02*
X3000726Y8264613D01*
X2992083Y8261033D01*
X2984662Y8255338D01*
X2978967Y8247917D01*
X2975387Y8239274D01*
X2974166Y8230000D01*
X2975387Y8220726D01*
X2978967Y8212083D01*
X2984662Y8204662D01*
X2992083Y8198967D01*
X3000726Y8195387D01*
X3010000Y8194166D01*
X3019274Y8195387D01*
X3027917Y8198967D01*
X3035338Y8204662D01*
X3041033Y8212083D01*
X3044613Y8220726D01*
X3045834Y8230000D01*
X3044613Y8239274D01*
X3041033Y8247917D01*
X3035338Y8255338D01*
X3027917Y8261033D01*
X3019274Y8264613D01*
X3010000Y8265834D01*
D02*
G37*
G36*
X2910000D02*
X2900726Y8264613D01*
X2892083Y8261033D01*
X2884662Y8255338D01*
X2878967Y8247917D01*
X2875387Y8239274D01*
X2874166Y8230000D01*
X2875387Y8220726D01*
X2878967Y8212083D01*
X2884662Y8204662D01*
X2892083Y8198967D01*
X2900726Y8195387D01*
X2910000Y8194166D01*
X2919274Y8195387D01*
X2927917Y8198967D01*
X2935338Y8204662D01*
X2941033Y8212083D01*
X2944613Y8220726D01*
X2945834Y8230000D01*
X2944613Y8239274D01*
X2941033Y8247917D01*
X2935338Y8255338D01*
X2927917Y8261033D01*
X2919274Y8264613D01*
X2910000Y8265834D01*
D02*
G37*
G36*
X3265000Y8226314D02*
X3258757Y8225072D01*
X3253465Y8221535D01*
X3249928Y8216243D01*
X3248686Y8210000D01*
X3249928Y8203757D01*
X3253465Y8198465D01*
X3258757Y8194928D01*
X3265000Y8193686D01*
X3271243Y8194928D01*
X3276535Y8198465D01*
X3280072Y8203757D01*
X3281314Y8210000D01*
X3280072Y8216243D01*
X3276535Y8221535D01*
X3271243Y8225072D01*
X3265000Y8226314D01*
D02*
G37*
G36*
X3180000D02*
X3173757Y8225072D01*
X3168465Y8221535D01*
X3164928Y8216243D01*
X3163686Y8210000D01*
X3164928Y8203757D01*
X3168465Y8198465D01*
X3173757Y8194928D01*
X3180000Y8193686D01*
X3186243Y8194928D01*
X3191535Y8198465D01*
X3195072Y8203757D01*
X3196314Y8210000D01*
X3195072Y8216243D01*
X3191535Y8221535D01*
X3186243Y8225072D01*
X3180000Y8226314D01*
D02*
G37*
G36*
X3100000D02*
X3093757Y8225072D01*
X3088465Y8221535D01*
X3084928Y8216243D01*
X3083686Y8210000D01*
X3084928Y8203757D01*
X3088465Y8198465D01*
X3093757Y8194928D01*
X3100000Y8193686D01*
X3106243Y8194928D01*
X3111535Y8198465D01*
X3115072Y8203757D01*
X3116314Y8210000D01*
X3115072Y8216243D01*
X3111535Y8221535D01*
X3106243Y8225072D01*
X3100000Y8226314D01*
D02*
G37*
G36*
X1599764Y8251548D02*
X1591517Y8250462D01*
X1583832Y8247279D01*
X1577233Y8242216D01*
X1572169Y8235617D01*
X1568986Y8227932D01*
X1567901Y8219685D01*
X1568986Y8211438D01*
X1572169Y8203753D01*
X1577233Y8197154D01*
X1583832Y8192091D01*
X1591517Y8188908D01*
X1599764Y8187822D01*
X1608011Y8188908D01*
X1615695Y8192091D01*
X1622294Y8197154D01*
X1627358Y8203753D01*
X1630541Y8211438D01*
X1631627Y8219685D01*
X1630541Y8227932D01*
X1627358Y8235617D01*
X1622294Y8242216D01*
X1615695Y8247279D01*
X1608011Y8250462D01*
X1599764Y8251548D01*
D02*
G37*
G36*
X1239921Y8310079D02*
X1226204Y8308728D01*
X1213013Y8304726D01*
X1200856Y8298229D01*
X1190201Y8289484D01*
X1181457Y8278829D01*
X1174959Y8266672D01*
X1170957Y8253482D01*
X1169606Y8239764D01*
X1170957Y8226046D01*
X1174959Y8212855D01*
X1181457Y8200699D01*
X1190201Y8190044D01*
X1200856Y8181299D01*
X1213013Y8174801D01*
X1226204Y8170800D01*
X1239921Y8169449D01*
X1253639Y8170800D01*
X1266830Y8174801D01*
X1278986Y8181299D01*
X1289641Y8190044D01*
X1298386Y8200699D01*
X1304884Y8212855D01*
X1308885Y8226046D01*
X1310236Y8239764D01*
X1308885Y8253482D01*
X1304884Y8266672D01*
X1298386Y8278829D01*
X1289641Y8289484D01*
X1278986Y8298229D01*
X1266830Y8304726D01*
X1253639Y8308728D01*
X1239921Y8310079D01*
D02*
G37*
G36*
X1955000Y8201314D02*
X1948757Y8200072D01*
X1943465Y8196535D01*
X1939928Y8191243D01*
X1938687Y8185000D01*
X1939928Y8178757D01*
X1943465Y8173465D01*
X1948757Y8169928D01*
X1955000Y8168686D01*
X1961243Y8169928D01*
X1966535Y8173465D01*
X1970072Y8178757D01*
X1971313Y8185000D01*
X1970072Y8191243D01*
X1966535Y8196535D01*
X1961243Y8200072D01*
X1955000Y8201314D01*
D02*
G37*
G36*
X5015000Y8179397D02*
Y8165000D01*
X5029397D01*
X5028840Y8167804D01*
X5024419Y8174419D01*
X5017804Y8178840D01*
X5015000Y8179397D01*
D02*
G37*
G36*
X5005000D02*
X5002196Y8178840D01*
X4995581Y8174419D01*
X4991160Y8167804D01*
X4990603Y8165000D01*
X5005000D01*
Y8179397D01*
D02*
G37*
G36*
X4930000D02*
Y8165000D01*
X4944397D01*
X4943840Y8167804D01*
X4939419Y8174419D01*
X4932804Y8178840D01*
X4930000Y8179397D01*
D02*
G37*
G36*
X4920000D02*
X4917196Y8178840D01*
X4910581Y8174419D01*
X4906160Y8167804D01*
X4905603Y8165000D01*
X4920000D01*
Y8179397D01*
D02*
G37*
G36*
X4850000D02*
Y8165000D01*
X4864397D01*
X4863840Y8167804D01*
X4859419Y8174419D01*
X4852804Y8178840D01*
X4850000Y8179397D01*
D02*
G37*
G36*
X4840000D02*
X4837196Y8178840D01*
X4830581Y8174419D01*
X4826160Y8167804D01*
X4825603Y8165000D01*
X4840000D01*
Y8179397D01*
D02*
G37*
G36*
X4765000D02*
Y8165000D01*
X4779397D01*
X4778840Y8167804D01*
X4774419Y8174419D01*
X4767804Y8178840D01*
X4765000Y8179397D01*
D02*
G37*
G36*
X4755000D02*
X4752196Y8178840D01*
X4745581Y8174419D01*
X4741160Y8167804D01*
X4740603Y8165000D01*
X4755000D01*
Y8179397D01*
D02*
G37*
G36*
X2105000Y8181314D02*
X2098757Y8180072D01*
X2093465Y8176535D01*
X2089928Y8171243D01*
X2088686Y8165000D01*
X2089928Y8158757D01*
X2093465Y8153465D01*
X2098757Y8149928D01*
X2105000Y8148686D01*
X2111243Y8149928D01*
X2116535Y8153465D01*
X2120072Y8158757D01*
X2121314Y8165000D01*
X2120072Y8171243D01*
X2116535Y8176535D01*
X2111243Y8180072D01*
X2105000Y8181314D01*
D02*
G37*
G36*
X5029397Y8155000D02*
X5015000D01*
Y8140603D01*
X5017804Y8141160D01*
X5024419Y8145581D01*
X5028840Y8152196D01*
X5029397Y8155000D01*
D02*
G37*
G36*
X5005000D02*
X4990603D01*
X4991160Y8152196D01*
X4995581Y8145581D01*
X5002196Y8141160D01*
X5005000Y8140603D01*
Y8155000D01*
D02*
G37*
G36*
X4944397D02*
X4930000D01*
Y8140603D01*
X4932804Y8141160D01*
X4939419Y8145581D01*
X4943840Y8152196D01*
X4944397Y8155000D01*
D02*
G37*
G36*
X4920000D02*
X4905603D01*
X4906160Y8152196D01*
X4910581Y8145581D01*
X4917196Y8141160D01*
X4920000Y8140603D01*
Y8155000D01*
D02*
G37*
G36*
X4864397D02*
X4850000D01*
Y8140603D01*
X4852804Y8141160D01*
X4859419Y8145581D01*
X4863840Y8152196D01*
X4864397Y8155000D01*
D02*
G37*
G36*
X4840000D02*
X4825603D01*
X4826160Y8152196D01*
X4830581Y8145581D01*
X4837196Y8141160D01*
X4840000Y8140603D01*
Y8155000D01*
D02*
G37*
G36*
X4779397D02*
X4765000D01*
Y8140603D01*
X4767804Y8141160D01*
X4774419Y8145581D01*
X4778840Y8152196D01*
X4779397Y8155000D01*
D02*
G37*
G36*
X4755000D02*
X4740603D01*
X4741160Y8152196D01*
X4745581Y8145581D01*
X4752196Y8141160D01*
X4755000Y8140603D01*
Y8155000D01*
D02*
G37*
G36*
X4140000Y8156314D02*
X4133757Y8155072D01*
X4128465Y8151535D01*
X4124928Y8146243D01*
X4123686Y8140000D01*
X4124928Y8133757D01*
X4128465Y8128465D01*
X4133757Y8124928D01*
X4140000Y8123686D01*
X4146243Y8124928D01*
X4151535Y8128465D01*
X4155072Y8133757D01*
X4156314Y8140000D01*
X4155072Y8146243D01*
X4151535Y8151535D01*
X4146243Y8155072D01*
X4140000Y8156314D01*
D02*
G37*
G36*
X4055000D02*
X4048757Y8155072D01*
X4043465Y8151535D01*
X4039928Y8146243D01*
X4038686Y8140000D01*
X4039928Y8133757D01*
X4043465Y8128465D01*
X4048757Y8124928D01*
X4055000Y8123686D01*
X4061243Y8124928D01*
X4066535Y8128465D01*
X4070072Y8133757D01*
X4071314Y8140000D01*
X4070072Y8146243D01*
X4066535Y8151535D01*
X4061243Y8155072D01*
X4055000Y8156314D01*
D02*
G37*
G36*
X3975000D02*
X3968757Y8155072D01*
X3963465Y8151535D01*
X3959928Y8146243D01*
X3958686Y8140000D01*
X3959928Y8133757D01*
X3963465Y8128465D01*
X3968757Y8124928D01*
X3975000Y8123686D01*
X3981243Y8124928D01*
X3986535Y8128465D01*
X3990072Y8133757D01*
X3991314Y8140000D01*
X3990072Y8146243D01*
X3986535Y8151535D01*
X3981243Y8155072D01*
X3975000Y8156314D01*
D02*
G37*
G36*
X3890000D02*
X3883757Y8155072D01*
X3878465Y8151535D01*
X3874928Y8146243D01*
X3873686Y8140000D01*
X3874928Y8133757D01*
X3878465Y8128465D01*
X3883757Y8124928D01*
X3890000Y8123686D01*
X3896243Y8124928D01*
X3901535Y8128465D01*
X3905072Y8133757D01*
X3906314Y8140000D01*
X3905072Y8146243D01*
X3901535Y8151535D01*
X3896243Y8155072D01*
X3890000Y8156314D01*
D02*
G37*
G36*
X3265000Y8151314D02*
X3258757Y8150072D01*
X3253465Y8146535D01*
X3249928Y8141243D01*
X3248686Y8135000D01*
X3249928Y8128757D01*
X3253465Y8123465D01*
X3258757Y8119928D01*
X3265000Y8118686D01*
X3271243Y8119928D01*
X3276535Y8123465D01*
X3280072Y8128757D01*
X3281314Y8135000D01*
X3280072Y8141243D01*
X3276535Y8146535D01*
X3271243Y8150072D01*
X3265000Y8151314D01*
D02*
G37*
G36*
X3180000D02*
X3173757Y8150072D01*
X3168465Y8146535D01*
X3164928Y8141243D01*
X3163686Y8135000D01*
X3164928Y8128757D01*
X3168465Y8123465D01*
X3173757Y8119928D01*
X3180000Y8118686D01*
X3186243Y8119928D01*
X3191535Y8123465D01*
X3195072Y8128757D01*
X3196314Y8135000D01*
X3195072Y8141243D01*
X3191535Y8146535D01*
X3186243Y8150072D01*
X3180000Y8151314D01*
D02*
G37*
G36*
X3100000D02*
X3093757Y8150072D01*
X3088465Y8146535D01*
X3084928Y8141243D01*
X3083686Y8135000D01*
X3084928Y8128757D01*
X3088465Y8123465D01*
X3093757Y8119928D01*
X3100000Y8118686D01*
X3106243Y8119928D01*
X3111535Y8123465D01*
X3115072Y8128757D01*
X3116314Y8135000D01*
X3115072Y8141243D01*
X3111535Y8146535D01*
X3106243Y8150072D01*
X3100000Y8151314D01*
D02*
G37*
G36*
X3015000D02*
X3008757Y8150072D01*
X3003465Y8146535D01*
X2999928Y8141243D01*
X2998686Y8135000D01*
X2999928Y8128757D01*
X3003465Y8123465D01*
X3008757Y8119928D01*
X3015000Y8118686D01*
X3021243Y8119928D01*
X3026535Y8123465D01*
X3030072Y8128757D01*
X3031314Y8135000D01*
X3030072Y8141243D01*
X3026535Y8146535D01*
X3021243Y8150072D01*
X3015000Y8151314D01*
D02*
G37*
G36*
X1865000D02*
X1858757Y8150072D01*
X1853465Y8146535D01*
X1849928Y8141243D01*
X1848687Y8135000D01*
X1849928Y8128757D01*
X1853465Y8123465D01*
X1858757Y8119928D01*
X1865000Y8118686D01*
X1871243Y8119928D01*
X1876535Y8123465D01*
X1880072Y8128757D01*
X1881313Y8135000D01*
X1880072Y8141243D01*
X1876535Y8146535D01*
X1871243Y8150072D01*
X1865000Y8151314D01*
D02*
G37*
G36*
X1374961Y8225571D02*
X1360547Y8223673D01*
X1347116Y8218110D01*
X1335583Y8209260D01*
X1326733Y8197726D01*
X1321169Y8184295D01*
X1319272Y8169882D01*
X1321169Y8155468D01*
X1326733Y8142037D01*
X1335583Y8130504D01*
X1347116Y8121654D01*
X1360547Y8116091D01*
X1374961Y8114193D01*
X1389374Y8116091D01*
X1402805Y8121654D01*
X1414339Y8130504D01*
X1423189Y8142037D01*
X1428752Y8155468D01*
X1430650Y8169882D01*
X1428752Y8184295D01*
X1423189Y8197726D01*
X1414339Y8209260D01*
X1402805Y8218110D01*
X1389374Y8223673D01*
X1374961Y8225571D01*
D02*
G37*
G36*
X5015000Y8104397D02*
Y8090000D01*
X5029397D01*
X5028840Y8092804D01*
X5024419Y8099419D01*
X5017804Y8103840D01*
X5015000Y8104397D01*
D02*
G37*
G36*
X5005000D02*
X5002196Y8103840D01*
X4995581Y8099419D01*
X4991160Y8092804D01*
X4990603Y8090000D01*
X5005000D01*
Y8104397D01*
D02*
G37*
G36*
X4930000D02*
Y8090000D01*
X4944397D01*
X4943840Y8092804D01*
X4939419Y8099419D01*
X4932804Y8103840D01*
X4930000Y8104397D01*
D02*
G37*
G36*
X4920000D02*
X4917196Y8103840D01*
X4910581Y8099419D01*
X4906160Y8092804D01*
X4905603Y8090000D01*
X4920000D01*
Y8104397D01*
D02*
G37*
G36*
X4850000D02*
Y8090000D01*
X4864397D01*
X4863840Y8092804D01*
X4859419Y8099419D01*
X4852804Y8103840D01*
X4850000Y8104397D01*
D02*
G37*
G36*
X4840000D02*
X4837196Y8103840D01*
X4830581Y8099419D01*
X4826160Y8092804D01*
X4825603Y8090000D01*
X4840000D01*
Y8104397D01*
D02*
G37*
G36*
X4765000D02*
Y8090000D01*
X4779397D01*
X4778840Y8092804D01*
X4774419Y8099419D01*
X4767804Y8103840D01*
X4765000Y8104397D01*
D02*
G37*
G36*
X4755000D02*
X4752196Y8103840D01*
X4745581Y8099419D01*
X4741160Y8092804D01*
X4740603Y8090000D01*
X4755000D01*
Y8104397D01*
D02*
G37*
G36*
X5029397Y8080000D02*
X5015000D01*
Y8065603D01*
X5017804Y8066160D01*
X5024419Y8070581D01*
X5028840Y8077196D01*
X5029397Y8080000D01*
D02*
G37*
G36*
X5005000D02*
X4990603D01*
X4991160Y8077196D01*
X4995581Y8070581D01*
X5002196Y8066160D01*
X5005000Y8065603D01*
Y8080000D01*
D02*
G37*
G36*
X4944397D02*
X4930000D01*
Y8065603D01*
X4932804Y8066160D01*
X4939419Y8070581D01*
X4943840Y8077196D01*
X4944397Y8080000D01*
D02*
G37*
G36*
X4920000D02*
X4905603D01*
X4906160Y8077196D01*
X4910581Y8070581D01*
X4917196Y8066160D01*
X4920000Y8065603D01*
Y8080000D01*
D02*
G37*
G36*
X4864397D02*
X4850000D01*
Y8065603D01*
X4852804Y8066160D01*
X4859419Y8070581D01*
X4863840Y8077196D01*
X4864397Y8080000D01*
D02*
G37*
G36*
X4840000D02*
X4825603D01*
X4826160Y8077196D01*
X4830581Y8070581D01*
X4837196Y8066160D01*
X4840000Y8065603D01*
Y8080000D01*
D02*
G37*
G36*
X4779397D02*
X4765000D01*
Y8065603D01*
X4767804Y8066160D01*
X4774419Y8070581D01*
X4778840Y8077196D01*
X4779397Y8080000D01*
D02*
G37*
G36*
X4755000D02*
X4740603D01*
X4741160Y8077196D01*
X4745581Y8070581D01*
X4752196Y8066160D01*
X4755000Y8065603D01*
Y8080000D01*
D02*
G37*
G36*
X2170000Y8096314D02*
X2163757Y8095072D01*
X2158465Y8091535D01*
X2154928Y8086243D01*
X2153686Y8080000D01*
X2154928Y8073757D01*
X2158465Y8068465D01*
X2163757Y8064928D01*
X2170000Y8063686D01*
X2176243Y8064928D01*
X2181535Y8068465D01*
X2185072Y8073757D01*
X2186314Y8080000D01*
X2185072Y8086243D01*
X2181535Y8091535D01*
X2176243Y8095072D01*
X2170000Y8096314D01*
D02*
G37*
G36*
X4595000Y8091314D02*
X4588757Y8090072D01*
X4583465Y8086535D01*
X4579928Y8081243D01*
X4578686Y8075000D01*
X4579928Y8068757D01*
X4583465Y8063465D01*
X4588757Y8059928D01*
X4595000Y8058686D01*
X4601243Y8059928D01*
X4606535Y8063465D01*
X4610072Y8068757D01*
X4611314Y8075000D01*
X4610072Y8081243D01*
X4606535Y8086535D01*
X4601243Y8090072D01*
X4595000Y8091314D01*
D02*
G37*
G36*
X4140000Y8081314D02*
X4133757Y8080072D01*
X4128465Y8076535D01*
X4124928Y8071243D01*
X4123686Y8065000D01*
X4124928Y8058757D01*
X4128465Y8053465D01*
X4133757Y8049928D01*
X4140000Y8048686D01*
X4146243Y8049928D01*
X4151535Y8053465D01*
X4155072Y8058757D01*
X4156314Y8065000D01*
X4155072Y8071243D01*
X4151535Y8076535D01*
X4146243Y8080072D01*
X4140000Y8081314D01*
D02*
G37*
G36*
X4055000D02*
X4048757Y8080072D01*
X4043465Y8076535D01*
X4039928Y8071243D01*
X4038686Y8065000D01*
X4039928Y8058757D01*
X4043465Y8053465D01*
X4048757Y8049928D01*
X4055000Y8048686D01*
X4061243Y8049928D01*
X4066535Y8053465D01*
X4070072Y8058757D01*
X4071314Y8065000D01*
X4070072Y8071243D01*
X4066535Y8076535D01*
X4061243Y8080072D01*
X4055000Y8081314D01*
D02*
G37*
G36*
X3975000D02*
X3968757Y8080072D01*
X3963465Y8076535D01*
X3959928Y8071243D01*
X3958686Y8065000D01*
X3959928Y8058757D01*
X3963465Y8053465D01*
X3968757Y8049928D01*
X3975000Y8048686D01*
X3981243Y8049928D01*
X3986535Y8053465D01*
X3990072Y8058757D01*
X3991314Y8065000D01*
X3990072Y8071243D01*
X3986535Y8076535D01*
X3981243Y8080072D01*
X3975000Y8081314D01*
D02*
G37*
G36*
X3890000D02*
X3883757Y8080072D01*
X3878465Y8076535D01*
X3874928Y8071243D01*
X3873686Y8065000D01*
X3874928Y8058757D01*
X3878465Y8053465D01*
X3883757Y8049928D01*
X3890000Y8048686D01*
X3896243Y8049928D01*
X3901535Y8053465D01*
X3905072Y8058757D01*
X3906314Y8065000D01*
X3905072Y8071243D01*
X3901535Y8076535D01*
X3896243Y8080072D01*
X3890000Y8081314D01*
D02*
G37*
G36*
X3730000Y8076314D02*
X3723757Y8075072D01*
X3718465Y8071535D01*
X3714928Y8066243D01*
X3713686Y8060000D01*
X3714928Y8053757D01*
X3718465Y8048465D01*
X3723757Y8044928D01*
X3730000Y8043686D01*
X3736243Y8044928D01*
X3741535Y8048465D01*
X3745072Y8053757D01*
X3746314Y8060000D01*
X3745072Y8066243D01*
X3741535Y8071535D01*
X3736243Y8075072D01*
X3730000Y8076314D01*
D02*
G37*
G36*
X3265000D02*
X3258757Y8075072D01*
X3253465Y8071535D01*
X3249928Y8066243D01*
X3248686Y8060000D01*
X3249928Y8053757D01*
X3253465Y8048465D01*
X3258757Y8044928D01*
X3265000Y8043686D01*
X3271243Y8044928D01*
X3276535Y8048465D01*
X3280072Y8053757D01*
X3281314Y8060000D01*
X3280072Y8066243D01*
X3276535Y8071535D01*
X3271243Y8075072D01*
X3265000Y8076314D01*
D02*
G37*
G36*
X3180000D02*
X3173757Y8075072D01*
X3168465Y8071535D01*
X3164928Y8066243D01*
X3163686Y8060000D01*
X3164928Y8053757D01*
X3168465Y8048465D01*
X3173757Y8044928D01*
X3180000Y8043686D01*
X3186243Y8044928D01*
X3191535Y8048465D01*
X3195072Y8053757D01*
X3196314Y8060000D01*
X3195072Y8066243D01*
X3191535Y8071535D01*
X3186243Y8075072D01*
X3180000Y8076314D01*
D02*
G37*
G36*
X3100000D02*
X3093757Y8075072D01*
X3088465Y8071535D01*
X3084928Y8066243D01*
X3083686Y8060000D01*
X3084928Y8053757D01*
X3088465Y8048465D01*
X3093757Y8044928D01*
X3100000Y8043686D01*
X3106243Y8044928D01*
X3111535Y8048465D01*
X3115072Y8053757D01*
X3116314Y8060000D01*
X3115072Y8066243D01*
X3111535Y8071535D01*
X3106243Y8075072D01*
X3100000Y8076314D01*
D02*
G37*
G36*
X3015000D02*
X3008757Y8075072D01*
X3003465Y8071535D01*
X2999928Y8066243D01*
X2998686Y8060000D01*
X2999928Y8053757D01*
X3003465Y8048465D01*
X3008757Y8044928D01*
X3015000Y8043686D01*
X3021243Y8044928D01*
X3026535Y8048465D01*
X3030072Y8053757D01*
X3031314Y8060000D01*
X3030072Y8066243D01*
X3026535Y8071535D01*
X3021243Y8075072D01*
X3015000Y8076314D01*
D02*
G37*
G36*
X2865000Y8061314D02*
X2858757Y8060072D01*
X2853465Y8056535D01*
X2849928Y8051243D01*
X2848686Y8045000D01*
X2849928Y8038757D01*
X2853465Y8033465D01*
X2858757Y8029928D01*
X2865000Y8028686D01*
X2871243Y8029928D01*
X2876535Y8033465D01*
X2880072Y8038757D01*
X2881314Y8045000D01*
X2880072Y8051243D01*
X2876535Y8056535D01*
X2871243Y8060072D01*
X2865000Y8061314D01*
D02*
G37*
G36*
X1428347Y8015075D02*
X1416365Y8013895D01*
X1404844Y8010400D01*
X1394227Y8004725D01*
X1384920Y7997087D01*
X1377283Y7987781D01*
X1371608Y7977163D01*
X1368113Y7965643D01*
X1366933Y7953661D01*
X1368113Y7941680D01*
X1371608Y7930159D01*
X1377283Y7919542D01*
X1384920Y7910235D01*
X1394227Y7902598D01*
X1404844Y7896922D01*
X1416365Y7893428D01*
X1428347Y7892248D01*
X1440328Y7893428D01*
X1451849Y7896922D01*
X1462466Y7902598D01*
X1471773Y7910235D01*
X1479410Y7919542D01*
X1485085Y7930159D01*
X1488580Y7941680D01*
X1489760Y7953661D01*
X1488580Y7965643D01*
X1485085Y7977163D01*
X1479410Y7987781D01*
X1471773Y7997087D01*
X1462466Y8004725D01*
X1451849Y8010400D01*
X1440328Y8013895D01*
X1428347Y8015075D01*
D02*
G37*
G36*
X2335000Y7856314D02*
X2328757Y7855072D01*
X2323465Y7851535D01*
X2319928Y7846243D01*
X2318686Y7840000D01*
X2319928Y7833757D01*
X2323465Y7828465D01*
X2328757Y7824928D01*
X2335000Y7823686D01*
X2341243Y7824928D01*
X2346535Y7828465D01*
X2350072Y7833757D01*
X2351314Y7840000D01*
X2350072Y7846243D01*
X2346535Y7851535D01*
X2341243Y7855072D01*
X2335000Y7856314D01*
D02*
G37*
G36*
X1569583Y7867339D02*
X1500496D01*
Y7798252D01*
X1569583D01*
Y7867339D01*
D02*
G37*
G36*
X2027795Y7811314D02*
X2021552Y7810072D01*
X2016260Y7806535D01*
X2012724Y7801243D01*
X2011482Y7795000D01*
X2012724Y7788757D01*
X2016260Y7783465D01*
X2021552Y7779928D01*
X2027795Y7778686D01*
X2034038Y7779928D01*
X2039331Y7783465D01*
X2042867Y7788757D01*
X2044109Y7795000D01*
X2042867Y7801243D01*
X2039331Y7806535D01*
X2034038Y7810072D01*
X2027795Y7811314D01*
D02*
G37*
G36*
X2090000Y7739397D02*
Y7725000D01*
X2104397D01*
X2103840Y7727804D01*
X2099419Y7734419D01*
X2092804Y7738840D01*
X2090000Y7739397D01*
D02*
G37*
G36*
X2080000D02*
X2077196Y7738840D01*
X2070581Y7734419D01*
X2066160Y7727804D01*
X2065603Y7725000D01*
X2080000D01*
Y7739397D01*
D02*
G37*
G36*
X2104397Y7715000D02*
X2090000D01*
Y7700603D01*
X2092804Y7701160D01*
X2099419Y7705581D01*
X2103840Y7712196D01*
X2104397Y7715000D01*
D02*
G37*
G36*
X2080000D02*
X2065603D01*
X2066160Y7712196D01*
X2070581Y7705581D01*
X2077196Y7701160D01*
X2080000Y7700603D01*
Y7715000D01*
D02*
G37*
G36*
X1535039Y7769212D02*
X1526022Y7768024D01*
X1517619Y7764544D01*
X1510403Y7759007D01*
X1504866Y7751791D01*
X1501385Y7743388D01*
X1500198Y7734370D01*
X1501385Y7725352D01*
X1504866Y7716949D01*
X1510403Y7709734D01*
X1517619Y7704197D01*
X1526022Y7700716D01*
X1535039Y7699529D01*
X1544057Y7700716D01*
X1552460Y7704197D01*
X1559676Y7709734D01*
X1565213Y7716949D01*
X1568694Y7725352D01*
X1569881Y7734370D01*
X1568694Y7743388D01*
X1565213Y7751791D01*
X1559676Y7759007D01*
X1552460Y7764544D01*
X1544057Y7768024D01*
X1535039Y7769212D01*
D02*
G37*
G36*
X1935000Y7706314D02*
X1928757Y7705072D01*
X1923465Y7701535D01*
X1919928Y7696243D01*
X1918687Y7690000D01*
X1919928Y7683757D01*
X1923465Y7678465D01*
X1928757Y7674928D01*
X1935000Y7673686D01*
X1941243Y7674928D01*
X1946535Y7678465D01*
X1950072Y7683757D01*
X1951313Y7690000D01*
X1950072Y7696243D01*
X1946535Y7701535D01*
X1941243Y7705072D01*
X1935000Y7706314D01*
D02*
G37*
G36*
X1535039Y7690471D02*
X1526022Y7689284D01*
X1517619Y7685803D01*
X1510403Y7680266D01*
X1504866Y7673051D01*
X1501385Y7664648D01*
X1500198Y7655630D01*
X1501385Y7646612D01*
X1504866Y7638209D01*
X1510403Y7630993D01*
X1517619Y7625456D01*
X1526022Y7621976D01*
X1535039Y7620788D01*
X1544057Y7621976D01*
X1552460Y7625456D01*
X1559676Y7630993D01*
X1565213Y7638209D01*
X1568694Y7646612D01*
X1569881Y7655630D01*
X1568694Y7664648D01*
X1565213Y7673051D01*
X1559676Y7680266D01*
X1552460Y7685803D01*
X1544057Y7689284D01*
X1535039Y7690471D01*
D02*
G37*
G36*
Y7592046D02*
X1526022Y7590859D01*
X1517619Y7587378D01*
X1510403Y7581841D01*
X1504866Y7574625D01*
X1501385Y7566222D01*
X1500198Y7557205D01*
X1501385Y7548187D01*
X1504866Y7539784D01*
X1510403Y7532568D01*
X1517619Y7527031D01*
X1526022Y7523551D01*
X1535039Y7522363D01*
X1544057Y7523551D01*
X1552460Y7527031D01*
X1559676Y7532568D01*
X1565213Y7539784D01*
X1568694Y7548187D01*
X1569881Y7557205D01*
X1568694Y7566222D01*
X1565213Y7574625D01*
X1559676Y7581841D01*
X1552460Y7587378D01*
X1544057Y7590859D01*
X1535039Y7592046D01*
D02*
G37*
G36*
X2255000Y7546314D02*
X2248757Y7545072D01*
X2243465Y7541535D01*
X2239928Y7536243D01*
X2238686Y7530000D01*
X2239928Y7523757D01*
X2243465Y7518465D01*
X2248757Y7514928D01*
X2255000Y7513686D01*
X2261243Y7514928D01*
X2266535Y7518465D01*
X2270072Y7523757D01*
X2271314Y7530000D01*
X2270072Y7536243D01*
X2266535Y7541535D01*
X2261243Y7545072D01*
X2255000Y7546314D01*
D02*
G37*
G36*
X1850000Y7491314D02*
X1843757Y7490072D01*
X1838465Y7486535D01*
X1834928Y7481243D01*
X1833687Y7475000D01*
X1834928Y7468757D01*
X1838465Y7463465D01*
X1843757Y7459928D01*
X1850000Y7458686D01*
X1856243Y7459928D01*
X1861535Y7463465D01*
X1865072Y7468757D01*
X1866313Y7475000D01*
X1865072Y7481243D01*
X1861535Y7486535D01*
X1856243Y7490072D01*
X1850000Y7491314D01*
D02*
G37*
G36*
X1428347Y7497752D02*
X1416365Y7496572D01*
X1404844Y7493078D01*
X1394227Y7487402D01*
X1384920Y7479765D01*
X1377283Y7470458D01*
X1371608Y7459841D01*
X1368113Y7448320D01*
X1366933Y7436339D01*
X1368113Y7424357D01*
X1371608Y7412837D01*
X1377283Y7402219D01*
X1384920Y7392913D01*
X1394227Y7385275D01*
X1404844Y7379600D01*
X1416365Y7376105D01*
X1428347Y7374925D01*
X1440328Y7376105D01*
X1451849Y7379600D01*
X1462466Y7385275D01*
X1471773Y7392913D01*
X1479410Y7402219D01*
X1485085Y7412837D01*
X1488580Y7424357D01*
X1489760Y7436339D01*
X1488580Y7448320D01*
X1485085Y7459841D01*
X1479410Y7470458D01*
X1471773Y7479765D01*
X1462466Y7487402D01*
X1451849Y7493078D01*
X1440328Y7496572D01*
X1428347Y7497752D01*
D02*
G37*
G36*
X1720000Y7391314D02*
X1713757Y7390072D01*
X1708465Y7386535D01*
X1704928Y7381243D01*
X1703687Y7375000D01*
X1704928Y7368757D01*
X1708465Y7363465D01*
X1713757Y7359928D01*
X1720000Y7358686D01*
X1726243Y7359928D01*
X1731535Y7363465D01*
X1735072Y7368757D01*
X1736313Y7375000D01*
X1735072Y7381243D01*
X1731535Y7386535D01*
X1726243Y7390072D01*
X1720000Y7391314D01*
D02*
G37*
G36*
X1600000D02*
X1593757Y7390072D01*
X1588465Y7386535D01*
X1584928Y7381243D01*
X1583687Y7375000D01*
X1584928Y7368757D01*
X1588465Y7363465D01*
X1593757Y7359928D01*
X1600000Y7358686D01*
X1606243Y7359928D01*
X1611535Y7363465D01*
X1615072Y7368757D01*
X1616313Y7375000D01*
X1615072Y7381243D01*
X1611535Y7386535D01*
X1606243Y7390072D01*
X1600000Y7391314D01*
D02*
G37*
G36*
X1510610Y7295703D02*
X1504367Y7294462D01*
X1499075Y7290925D01*
X1495539Y7285633D01*
X1494297Y7279390D01*
X1495539Y7273147D01*
X1499075Y7267854D01*
X1504367Y7264318D01*
X1510610Y7263076D01*
X1516853Y7264318D01*
X1522146Y7267854D01*
X1525682Y7273147D01*
X1526924Y7279390D01*
X1525682Y7285633D01*
X1522146Y7290925D01*
X1516853Y7294462D01*
X1510610Y7295703D01*
D02*
G37*
G36*
X2300000Y7311314D02*
X2293757Y7310072D01*
X2288465Y7306535D01*
X2284928Y7301243D01*
X2283686Y7295000D01*
X2284928Y7288757D01*
X2288465Y7283465D01*
X2291650Y7281336D01*
X2293126Y7277431D01*
X2292556Y7275175D01*
X2289928Y7271243D01*
X2288686Y7265000D01*
X2289928Y7258757D01*
X2293465Y7253465D01*
X2298757Y7249928D01*
X2305000Y7248686D01*
X2311243Y7249928D01*
X2316535Y7253465D01*
X2320072Y7258757D01*
X2321314Y7265000D01*
X2320072Y7271243D01*
X2316535Y7276535D01*
X2313350Y7278664D01*
X2311874Y7282569D01*
X2312444Y7284825D01*
X2315072Y7288757D01*
X2316314Y7295000D01*
X2315072Y7301243D01*
X2311535Y7306535D01*
X2306243Y7310072D01*
X2300000Y7311314D01*
D02*
G37*
G36*
X1645000Y7246314D02*
X1638757Y7245072D01*
X1633465Y7241535D01*
X1629928Y7236243D01*
X1628687Y7230000D01*
X1629928Y7223757D01*
X1633465Y7218465D01*
X1638757Y7214928D01*
X1645000Y7213686D01*
X1651243Y7214928D01*
X1656535Y7218465D01*
X1660072Y7223757D01*
X1661313Y7230000D01*
X1660072Y7236243D01*
X1656535Y7241535D01*
X1651243Y7245072D01*
X1645000Y7246314D01*
D02*
G37*
G36*
X2340000Y7241314D02*
X2333757Y7240072D01*
X2328465Y7236535D01*
X2324928Y7231243D01*
X2323686Y7225000D01*
X2324928Y7218757D01*
X2328465Y7213465D01*
X2333757Y7209928D01*
X2340000Y7208686D01*
X2346243Y7209928D01*
X2351535Y7213465D01*
X2355072Y7218757D01*
X2356314Y7225000D01*
X2355072Y7231243D01*
X2351535Y7236535D01*
X2346243Y7240072D01*
X2340000Y7241314D01*
D02*
G37*
G36*
X1745000Y7171314D02*
X1738757Y7170072D01*
X1733465Y7166535D01*
X1729928Y7161243D01*
X1728687Y7155000D01*
X1729928Y7148757D01*
X1733465Y7143465D01*
X1738757Y7139928D01*
X1745000Y7138686D01*
X1751243Y7139928D01*
X1756535Y7143465D01*
X1760072Y7148757D01*
X1761313Y7155000D01*
X1760072Y7161243D01*
X1756535Y7166535D01*
X1751243Y7170072D01*
X1745000Y7171314D01*
D02*
G37*
G36*
X1970000Y7139397D02*
Y7125000D01*
X1984397D01*
X1983840Y7127804D01*
X1979419Y7134419D01*
X1972804Y7138840D01*
X1970000Y7139397D01*
D02*
G37*
G36*
X1960000D02*
X1957196Y7138840D01*
X1950581Y7134419D01*
X1946160Y7127804D01*
X1945603Y7125000D01*
X1960000D01*
Y7139397D01*
D02*
G37*
G36*
X1984397Y7115000D02*
X1970000D01*
Y7100603D01*
X1972804Y7101160D01*
X1979419Y7105581D01*
X1983840Y7112196D01*
X1984397Y7115000D01*
D02*
G37*
G36*
X1960000D02*
X1945603D01*
X1946160Y7112196D01*
X1950581Y7105581D01*
X1957196Y7101160D01*
X1960000Y7100603D01*
Y7115000D01*
D02*
G37*
G36*
X1515000Y7096314D02*
X1508757Y7095072D01*
X1503465Y7091535D01*
X1499928Y7086243D01*
X1498687Y7080000D01*
X1499928Y7073757D01*
X1503465Y7068465D01*
X1508757Y7064928D01*
X1515000Y7063686D01*
X1521243Y7064928D01*
X1526535Y7068465D01*
X1530072Y7073757D01*
X1531313Y7080000D01*
X1530072Y7086243D01*
X1526535Y7091535D01*
X1521243Y7095072D01*
X1515000Y7096314D01*
D02*
G37*
G36*
X1640000Y7091314D02*
X1633757Y7090072D01*
X1628465Y7086535D01*
X1624928Y7081243D01*
X1623687Y7075000D01*
X1624928Y7068757D01*
X1628465Y7063465D01*
X1633757Y7059928D01*
X1640000Y7058686D01*
X1646243Y7059928D01*
X1651535Y7063465D01*
X1655072Y7068757D01*
X1656313Y7075000D01*
X1655072Y7081243D01*
X1651535Y7086535D01*
X1646243Y7090072D01*
X1640000Y7091314D01*
D02*
G37*
G36*
X2360000Y7086314D02*
X2353757Y7085072D01*
X2348465Y7081535D01*
X2344928Y7076243D01*
X2343686Y7070000D01*
X2344928Y7063757D01*
X2348465Y7058465D01*
X2353757Y7054928D01*
X2360000Y7053686D01*
X2366243Y7054928D01*
X2371535Y7058465D01*
X2375072Y7063757D01*
X2376314Y7070000D01*
X2375072Y7076243D01*
X2371535Y7081535D01*
X2366243Y7085072D01*
X2360000Y7086314D01*
D02*
G37*
G36*
X1510000Y7006314D02*
X1503757Y7005072D01*
X1498465Y7001535D01*
X1494928Y6996243D01*
X1493687Y6990000D01*
X1494928Y6983757D01*
X1498465Y6978465D01*
X1503757Y6974928D01*
X1510000Y6973686D01*
X1516243Y6974928D01*
X1521535Y6978465D01*
X1525072Y6983757D01*
X1526313Y6990000D01*
X1525072Y6996243D01*
X1521535Y7001535D01*
X1516243Y7005072D01*
X1510000Y7006314D01*
D02*
G37*
G36*
X1515000Y6956314D02*
X1508757Y6955072D01*
X1503465Y6951535D01*
X1499928Y6946243D01*
X1498687Y6940000D01*
X1499928Y6933757D01*
X1503465Y6928465D01*
X1508757Y6924928D01*
X1515000Y6923686D01*
X1521243Y6924928D01*
X1526535Y6928465D01*
X1530072Y6933757D01*
X1531313Y6940000D01*
X1530072Y6946243D01*
X1526535Y6951535D01*
X1521243Y6955072D01*
X1515000Y6956314D01*
D02*
G37*
G36*
X1513720Y6850034D02*
X1507478Y6848792D01*
X1502185Y6845256D01*
X1498649Y6839963D01*
X1497407Y6833721D01*
X1498649Y6827478D01*
X1502185Y6822185D01*
X1507478Y6818649D01*
X1513720Y6817407D01*
X1519963Y6818649D01*
X1525256Y6822185D01*
X1528792Y6827478D01*
X1530034Y6833721D01*
X1528792Y6839963D01*
X1525256Y6845256D01*
X1519963Y6848792D01*
X1513720Y6850034D01*
D02*
G37*
G36*
X1650000Y6826314D02*
X1643757Y6825072D01*
X1638465Y6821535D01*
X1634928Y6816243D01*
X1633687Y6810000D01*
X1634928Y6803757D01*
X1638465Y6798465D01*
X1643757Y6794928D01*
X1650000Y6793686D01*
X1656243Y6794928D01*
X1661535Y6798465D01*
X1665072Y6803757D01*
X1666313Y6810000D01*
X1665072Y6816243D01*
X1661535Y6821535D01*
X1656243Y6825072D01*
X1650000Y6826314D01*
D02*
G37*
G36*
X1985000Y6830834D02*
X1975726Y6829613D01*
X1967083Y6826033D01*
X1959661Y6820338D01*
X1953967Y6812917D01*
X1950387Y6804275D01*
X1949166Y6795000D01*
X1950387Y6785725D01*
X1953967Y6777083D01*
X1959661Y6769662D01*
X1967083Y6763967D01*
X1975726Y6760387D01*
X1985000Y6759166D01*
X1994274Y6760387D01*
X2002917Y6763967D01*
X2010339Y6769662D01*
X2016033Y6777083D01*
X2019613Y6785725D01*
X2020834Y6795000D01*
X2019613Y6804275D01*
X2016033Y6812917D01*
X2010339Y6820338D01*
X2002917Y6826033D01*
X1994274Y6829613D01*
X1985000Y6830834D01*
D02*
G37*
%LPD*%
D53*
X4535000Y4920148D02*
Y5104852D01*
X4559000Y4910207D02*
Y5114793D01*
X4033130Y5640000D02*
X4072130Y5601000D01*
X3903130Y5565000D02*
X4059752D01*
X3855000Y5516870D02*
X3903130Y5565000D01*
X4044307Y5611852D02*
X4067160Y5589000D01*
X3874983Y5611852D02*
X4044307D01*
X4420882Y5252912D02*
X4559000Y5114793D01*
X4420882Y5252912D02*
Y5254782D01*
X4074664Y5601000D02*
X4420882Y5254782D01*
X3730000Y5640000D02*
X4033130D01*
X4059752Y5565000D02*
X4247000Y5377752D01*
X4064722Y5577000D02*
X4259000Y5382722D01*
X4062189Y5577000D02*
X4064722D01*
X4039336Y5599852D02*
X4062189Y5577000D01*
X3905979Y5599852D02*
X4039336D01*
X4069693Y5589000D02*
X4271000Y5387693D01*
X4067160Y5589000D02*
X4069693D01*
X4072130Y5601000D02*
X4074664D01*
X4124000Y4937130D02*
Y4982870D01*
X4122024Y4984846D02*
X4124000Y4982870D01*
X4122024Y4984846D02*
Y5001823D01*
X4120000Y5003846D02*
X4122024Y5001823D01*
X3337000Y5473000D02*
Y5742000D01*
X3325000Y5461376D02*
Y5750000D01*
X3337000Y5473000D02*
X3362753Y5447247D01*
X3325000Y5461376D02*
X3350753Y5435624D01*
X3325000Y5750000D02*
X3372000Y5797000D01*
X3337000Y5742000D02*
X3395000Y5800000D01*
X3311000Y5317130D02*
Y5753000D01*
X3299000Y5307870D02*
Y5835870D01*
X3526753Y5134000D02*
X3537883Y5122870D01*
X3299000Y5835870D02*
X3325000Y5861870D01*
X3494130Y5134000D02*
X3526753D01*
X3299000Y5307870D02*
X3561000Y5045870D01*
X3311000Y5317130D02*
X3494130Y5134000D01*
X3311000Y5753000D02*
X3360000Y5802000D01*
X3760000Y4066515D02*
Y4363941D01*
X4135000Y4738941D01*
Y4875000D01*
X3775000Y3651870D02*
Y4361971D01*
X4165000Y4751971D01*
Y4895000D01*
X3935000Y5455000D02*
X4116971D01*
X4487000Y5084971D01*
X3875000Y5510000D02*
X3880553D01*
X3830000Y5540000D02*
X3846127D01*
X3800000Y5536870D02*
X3874983Y5611852D01*
X3855000Y5490000D02*
Y5516870D01*
X3800000Y5535000D02*
Y5536870D01*
X3846127Y5540000D02*
X3905979Y5599852D01*
X3880553Y5510000D02*
X3885000D01*
X3906000Y5531000D01*
X3880553Y5510000D02*
X3885553Y5515000D01*
X3906000Y5531000D02*
X4076782D01*
X4235000Y5372782D01*
X3870000Y5465000D02*
X3895000D01*
X3949000Y5519000D01*
X3960000Y5435000D02*
X4120000D01*
X4065000Y5106159D02*
Y5130000D01*
X3822130Y4689000D02*
X3860870D01*
X3924000Y4752130D01*
X4084870Y4898000D02*
X4124000Y4937130D01*
X4032130Y4874000D02*
X4094811D01*
X3936000Y4777870D02*
X4032130Y4874000D01*
X3936000Y4747159D02*
Y4777870D01*
X4027160Y4886000D02*
X4089840D01*
X3924000Y4782841D02*
X4027160Y4886000D01*
X3924000Y4752130D02*
Y4782841D01*
X3362753Y5340377D02*
Y5447247D01*
Y5340377D02*
X3823130Y4880000D01*
X3350753Y5335407D02*
Y5435624D01*
Y5335407D02*
X3807321Y4878838D01*
Y4862679D02*
Y4878838D01*
X3823130Y4880000D02*
X3968130D01*
X3986130Y4898000D01*
X4084870D01*
X4089840Y4886000D02*
X4152000Y4948159D01*
X4094811Y4874000D02*
X4164000Y4943189D01*
X3839840Y4651000D02*
X3936000Y4747159D01*
X3905000Y4760000D02*
Y4761870D01*
X3825000Y4651000D02*
X3839840D01*
X3882870Y4784000D02*
X3905000Y4761870D01*
X3748000Y4574000D02*
X3825000Y4651000D01*
X4164000Y4993941D02*
X4167000Y4996941D01*
X4164000Y4943189D02*
Y4993941D01*
X3748000Y4071485D02*
Y4574000D01*
X3811000Y4662130D02*
X3815080Y4658050D01*
Y4658050D02*
Y4658050D01*
X3735000Y4577971D02*
X3815080Y4658050D01*
X3811000Y4677870D02*
X3822130Y4689000D01*
X3811000Y4662130D02*
Y4677870D01*
X4152000Y4948159D02*
Y4994971D01*
X3735000Y4315000D02*
Y4577971D01*
X4139000Y5007971D02*
X4152000Y4994971D01*
X4120000Y5435000D02*
X4475000Y5080000D01*
X3949000Y5519000D02*
X4071811D01*
X4223000Y5367811D01*
X3225000Y4860000D02*
X3370000Y5005000D01*
Y5025000D01*
X3185000Y4895000D02*
X3335000Y5045000D01*
X3185000Y4580000D02*
Y4895000D01*
X3197000Y4794473D02*
X3397884Y4995357D01*
X3197000Y4537514D02*
Y4794473D01*
X3120000Y4460514D02*
X3197000Y4537514D01*
X3120000Y4415000D02*
Y4460514D01*
Y4515000D02*
X3185000Y4580000D01*
X4271000Y5385823D02*
X4547000Y5109823D01*
X4271000Y5385823D02*
Y5387693D01*
X4259000Y5380852D02*
X4535000Y5104852D01*
X4259000Y5380852D02*
Y5382722D01*
X4247000Y5375882D02*
X4523000Y5099882D01*
X4247000Y5375882D02*
Y5377752D01*
X4235000Y5370912D02*
X4511000Y5094912D01*
X4235000Y5370912D02*
Y5372782D01*
X4223000Y5365941D02*
X4499000Y5089941D01*
X4223000Y5365941D02*
Y5367811D01*
X5088456Y1656544D02*
X5089515D01*
X4903030Y1841970D02*
X5088456Y1656544D01*
X4903030Y1841970D02*
Y3398029D01*
X4782103Y3518956D02*
X4903030Y3398029D01*
X4235279Y4650279D02*
X4247870Y4650370D01*
X3895000Y4310000D02*
X4235279Y4650279D01*
X4247870Y4650370D02*
X4257500Y4660000D01*
X3883000Y4315207D02*
X4286397Y4718603D01*
X3871000Y4320177D02*
X4284323Y4733500D01*
X3859000Y4325148D02*
X4279352Y4745500D01*
X3847000Y4330118D02*
X4274382Y4757500D01*
X3835000Y4335088D02*
X4269412Y4769500D01*
X3823000Y4340059D02*
X4264441Y4781500D01*
X3811000Y4345029D02*
X4259471Y4793500D01*
X3799000Y4350000D02*
X4254500Y4805500D01*
X3787000Y4357000D02*
X4247500Y4817500D01*
X3895000Y3643853D02*
Y4310000D01*
X5271515Y1033485D02*
X5345000Y960000D01*
X5271515Y1033485D02*
Y1046515D01*
X5089515Y1228515D02*
Y1656544D01*
X3883000Y3638882D02*
Y4315207D01*
X3739000Y3649811D02*
Y4062485D01*
X3751000Y3644840D02*
Y4057515D01*
X3787000Y3610130D02*
Y4357000D01*
X3799000Y3605160D02*
Y4350000D01*
X3811000Y3569000D02*
Y4345029D01*
X3823000Y3612000D02*
Y4340059D01*
X3835000Y3616970D02*
Y4335088D01*
X3847000Y3621941D02*
Y4330118D01*
X3859000Y3626912D02*
Y4325148D01*
X3871000Y3633912D02*
Y4320177D01*
X3727000Y3654782D02*
Y4307000D01*
X3751000Y4057515D02*
X3760000Y4066515D01*
X3739000Y4062485D02*
X3748000Y4071485D01*
X3727000Y4307000D02*
X3735000Y4315000D01*
X3603218Y3531000D02*
X3727000Y3654782D01*
X3608189Y3519000D02*
X3739000Y3649811D01*
X3613160Y3507000D02*
X3751000Y3644840D01*
X4019897Y3518956D02*
X4782103D01*
X3895000Y3643853D02*
X4019897Y3518956D01*
X5089515Y1228515D02*
X5271515Y1046515D01*
X5101515Y1233485D02*
X5300000Y1035000D01*
X3711091Y3534221D02*
X3787000Y3610130D01*
X3730000Y3536160D02*
X3799000Y3605160D01*
X3533130Y3410000D02*
X3775000Y3651870D01*
X3530000Y3410000D02*
X3533130D01*
X2996514Y3531000D02*
X3603218D01*
X3730000Y3410000D02*
Y3536160D01*
X3472514Y3507000D02*
X3613160D01*
X3711091Y3491091D02*
Y3534221D01*
X3084514Y3519000D02*
X3608189D01*
X3871000Y3633912D02*
X4009956Y3494956D01*
X3835000Y3616970D02*
X4030000Y3421970D01*
X3847000Y3621941D02*
X3999470Y3469470D01*
X3859000Y3626912D02*
X4002956Y3482956D01*
X3823000Y3612000D02*
X3930000Y3505000D01*
X3883000Y3638882D02*
X4014926Y3506956D01*
X3811000Y3569000D02*
X3830000Y3550000D01*
X3907000Y3648823D02*
Y3810425D01*
Y3812425D02*
Y4295000D01*
X4475000Y4945000D02*
Y5080000D01*
X4487000Y4940029D02*
Y5084971D01*
X4523000Y4925118D02*
Y5099882D01*
X4511000Y4930088D02*
Y5094912D01*
X4499000Y4935059D02*
Y5089941D01*
X4100000Y5088130D02*
Y5130000D01*
X3325000Y5861870D02*
Y5960000D01*
X6050000Y1035000D02*
X6155000Y930000D01*
X5300000Y1035000D02*
X6050000D01*
X4375000Y4690000D02*
X4490000Y4805000D01*
X4510000D01*
X4100000Y5088130D02*
X4151000Y5037130D01*
X4065000Y5106159D02*
X4139000Y5032160D01*
Y5017870D02*
Y5032160D01*
X4151000Y5022841D02*
Y5037130D01*
X4432882Y5257882D02*
Y5287882D01*
X4435000Y5290000D01*
X4432882Y5257882D02*
X4571000Y5119764D01*
Y4905236D02*
Y5119764D01*
X4384367Y4718603D02*
X4571000Y4905236D01*
X4382293Y4733500D02*
X4559000Y4910207D01*
X4547000Y4915177D02*
Y5109823D01*
X4377323Y4745500D02*
X4547000Y4915177D01*
X4362412Y4781500D02*
X4511000Y4930088D01*
X4357441Y4793500D02*
X4499000Y4935059D01*
X4352471Y4805500D02*
X4487000Y4940029D01*
X4347500Y4817500D02*
X4475000Y4945000D01*
X4372352Y4757500D02*
X4535000Y4920148D01*
X4367382Y4769500D02*
X4523000Y4925118D01*
X4375000Y4603130D02*
Y4690000D01*
X4286397Y4718603D02*
X4384367D01*
X4284323Y4733500D02*
X4382293D01*
X4279352Y4745500D02*
X4377323D01*
X4274382Y4757500D02*
X4372352D01*
X4264441Y4781500D02*
X4362412D01*
X4259471Y4793500D02*
X4357441D01*
X4254500Y4805500D02*
X4352471D01*
X4247500Y4817500D02*
X4347500D01*
X4269412Y4769500D02*
X4367382D01*
X4362870Y4591000D02*
X4375000Y4603130D01*
X4262870Y4591000D02*
X4362870D01*
X4183450Y4511580D02*
X4262870Y4591000D01*
X4157521Y4511580D02*
X4183450D01*
X3931000Y4285059D02*
X4157521Y4511580D01*
X4222000Y4610000D02*
X4355000D01*
X3907000Y4295000D02*
X4222000Y4610000D01*
X4173971Y4545000D02*
X4190000D01*
X3919000Y4290029D02*
X4173971Y4545000D01*
X3931000Y3860000D02*
Y4285059D01*
X3907000Y3648823D02*
X4024867Y3530956D01*
X3919000Y3653794D02*
Y4290029D01*
Y3653794D02*
X4029838Y3542956D01*
X3931000Y3860000D02*
X4015000Y3776000D01*
Y3755000D02*
Y3776000D01*
X4139000Y5017870D02*
X4139000Y5017870D01*
X4151000Y5012941D02*
X4167000Y4996941D01*
X4151000Y5012941D02*
Y5022841D01*
X4151000Y5022841D02*
X4151000Y5022841D01*
X4139000Y5007971D02*
Y5017870D01*
X4029838Y3542956D02*
X4792044D01*
X4024867Y3530956D02*
X4787074D01*
X4014926Y3506956D02*
X4287530D01*
X4792044Y3542956D02*
X4930000Y3405000D01*
X4787074Y3530956D02*
X4918000Y3400030D01*
Y1845030D02*
Y3400030D01*
Y1845030D02*
X5101515Y1661515D01*
X4930000Y1850000D02*
Y3405000D01*
X5101515Y1233485D02*
Y1661515D01*
X4930000Y1850000D02*
X5360000Y1420000D01*
X2902041Y3436528D02*
X2996514Y3531000D01*
X2856528Y3436528D02*
X2902041D01*
X2830000Y3410000D02*
X2856528Y3436528D01*
X2975514Y3410000D02*
X3084514Y3519000D01*
X2930000Y3410000D02*
X2975514D01*
X3375514D02*
X3472514Y3507000D01*
X3330000Y3410000D02*
X3375514D01*
X3830000D02*
Y3550000D01*
X4287530Y3506956D02*
X4384486Y3410000D01*
X4430000D01*
X4009956Y3494956D02*
X4199530D01*
X4284486Y3410000D01*
X4330000D01*
X4002956Y3482956D02*
X4111530D01*
X4184486Y3410000D01*
X4230000D01*
X4087292D02*
X4130000D01*
X4027822Y3469470D02*
X4087292Y3410000D01*
X3999470Y3469470D02*
X4027822D01*
X3630000Y3410000D02*
X3711091Y3491091D01*
X4030000Y3410000D02*
Y3421970D01*
X3930000Y3410000D02*
Y3505000D01*
X3857870Y4784000D02*
X3882870D01*
X3741966Y4899904D02*
X3857870Y4784000D01*
X3360000Y5802000D02*
Y5940000D01*
X3372000Y5797000D02*
Y5944971D01*
X3754630Y4833500D02*
X3778370D01*
X3797870Y4814000D01*
Y4797130D02*
X3800000Y4795000D01*
X3797870Y4797130D02*
Y4814000D01*
X3728226Y4899904D02*
X3741966D01*
X3807321Y4862679D02*
X3810000Y4860000D01*
X3395000Y5800000D02*
Y5970000D01*
X3325000Y5995000D02*
X3345000Y5975000D01*
Y5955000D02*
Y5975000D01*
Y5955000D02*
X3360000Y5940000D01*
X3365000Y5951971D02*
Y5985000D01*
X3532876Y5102124D02*
X3591000Y5044000D01*
X3532876Y5102124D02*
X3532876D01*
X3532876D02*
X3537883Y5107130D01*
Y5122870D01*
X3591000Y5037130D02*
Y5044000D01*
X3365000Y5951971D02*
X3372000Y5944971D01*
X3591000Y5037130D02*
X3728226Y4899904D01*
X3561000Y5035870D02*
Y5045870D01*
Y5035870D02*
X3739000Y4857870D01*
Y4849130D02*
Y4857870D01*
Y4849130D02*
X3754630Y4833500D01*
D56*
X1775000Y9205000D02*
D03*
D57*
Y9105000D02*
D03*
Y9005000D02*
D03*
D58*
X5835000Y8825000D02*
D03*
X2810000Y8230000D02*
D03*
X3685000Y8235000D02*
D03*
X4560000Y8253780D02*
D03*
X4025000Y5980000D02*
D03*
X2830000Y3410000D02*
D03*
Y1065000D02*
D03*
X1945000Y3050000D02*
D03*
X1950000Y3640000D02*
D03*
X1940000Y4250000D02*
D03*
X1930000Y5045000D02*
D03*
X1925000Y5655000D02*
D03*
Y6255000D02*
D03*
D59*
X5735000Y8825000D02*
D03*
X2910000Y8230000D02*
D03*
X3010000D02*
D03*
X3785000Y8235000D02*
D03*
X3885000D02*
D03*
X4660000Y8253780D02*
D03*
X4760000D02*
D03*
X2490000Y7615000D02*
D03*
Y7715000D02*
D03*
X4495000Y6305000D02*
D03*
X1985000Y6695000D02*
D03*
Y6795000D02*
D03*
X2320000Y2820000D02*
D03*
Y2920000D02*
D03*
Y3430000D02*
D03*
Y3530000D02*
D03*
X2310000Y4035000D02*
D03*
Y4135000D02*
D03*
X4125000Y5980000D02*
D03*
X2300000Y4820000D02*
D03*
Y4920000D02*
D03*
X2295000Y5430000D02*
D03*
Y5530000D02*
D03*
Y6020000D02*
D03*
Y6120000D02*
D03*
X4655000Y3735000D02*
D03*
X4525000D02*
D03*
X2930000Y3410000D02*
D03*
X3030000D02*
D03*
X3130000D02*
D03*
X3230000D02*
D03*
X3330000D02*
D03*
X3430000D02*
D03*
X3530000D02*
D03*
X3630000D02*
D03*
X3730000D02*
D03*
X3830000D02*
D03*
X3930000D02*
D03*
X4030000D02*
D03*
X4130000D02*
D03*
X4230000D02*
D03*
X4330000D02*
D03*
X4430000D02*
D03*
X4530000D02*
D03*
X4630000D02*
D03*
X4730000D02*
D03*
X3130000Y1065000D02*
D03*
X3030000D02*
D03*
X2930000D02*
D03*
X2045000Y3050000D02*
D03*
X2050000Y3640000D02*
D03*
X2040000Y4250000D02*
D03*
X2030000Y5045000D02*
D03*
X2025000Y5655000D02*
D03*
Y6255000D02*
D03*
X6120000Y9105000D02*
D03*
X2540000Y9095000D02*
D03*
X6120000Y8825000D02*
D03*
X3120000Y4215000D02*
D03*
Y4315000D02*
D03*
Y4415000D02*
D03*
Y4515000D02*
D03*
Y4615000D02*
D03*
X6140000Y1205000D02*
D03*
X5885000Y1210000D02*
D03*
X5600000Y1215000D02*
D03*
D60*
X2490000Y7515000D02*
D03*
X4495000Y6205000D02*
D03*
X1985000Y6595000D02*
D03*
X2320000Y2720000D02*
D03*
Y3330000D02*
D03*
X2310000Y3935000D02*
D03*
X2300000Y4720000D02*
D03*
X2295000Y5330000D02*
D03*
Y5920000D02*
D03*
X4655000Y3635000D02*
D03*
X4525000D02*
D03*
X6120000Y9205000D02*
D03*
X2540000Y8995000D02*
D03*
X6120000Y8925000D02*
D03*
X3120000Y4115000D02*
D03*
X6140000Y1105000D02*
D03*
X5885000Y1110000D02*
D03*
X5600000Y1115000D02*
D03*
D61*
X5570000Y1840000D02*
D03*
Y2290000D02*
D03*
Y2750000D02*
D03*
Y3350000D02*
D03*
X5575000Y3790000D02*
D03*
X5570000Y4250000D02*
D03*
Y4705000D02*
D03*
Y5300000D02*
D03*
Y5745000D02*
D03*
Y6205000D02*
D03*
Y6650000D02*
D03*
Y7235000D02*
D03*
Y7680000D02*
D03*
Y8125000D02*
D03*
Y8580000D02*
D03*
D62*
Y1740000D02*
D03*
Y1640000D02*
D03*
X5870000Y1840000D02*
D03*
Y1740000D02*
D03*
Y1640000D02*
D03*
X5570000Y2190000D02*
D03*
Y2090000D02*
D03*
X5870000Y2290000D02*
D03*
Y2190000D02*
D03*
Y2090000D02*
D03*
X5570000Y2650000D02*
D03*
Y2550000D02*
D03*
X5870000Y2750000D02*
D03*
Y2650000D02*
D03*
Y2550000D02*
D03*
X5570000Y3250000D02*
D03*
Y3150000D02*
D03*
X5870000Y3350000D02*
D03*
Y3250000D02*
D03*
Y3150000D02*
D03*
X5575000Y3690000D02*
D03*
Y3590000D02*
D03*
X5875000Y3790000D02*
D03*
Y3690000D02*
D03*
Y3590000D02*
D03*
X5570000Y4150000D02*
D03*
Y4050000D02*
D03*
X5870000Y4250000D02*
D03*
Y4150000D02*
D03*
Y4050000D02*
D03*
X5570000Y4605000D02*
D03*
Y4505000D02*
D03*
X5870000Y4705000D02*
D03*
Y4605000D02*
D03*
Y4505000D02*
D03*
X5570000Y5200000D02*
D03*
Y5100000D02*
D03*
X5870000Y5300000D02*
D03*
Y5200000D02*
D03*
Y5100000D02*
D03*
X5570000Y5645000D02*
D03*
Y5545000D02*
D03*
X5870000Y5745000D02*
D03*
Y5645000D02*
D03*
Y5545000D02*
D03*
X5570000Y6105000D02*
D03*
Y6005000D02*
D03*
X5870000Y6205000D02*
D03*
Y6105000D02*
D03*
Y6005000D02*
D03*
X5570000Y6550000D02*
D03*
Y6450000D02*
D03*
X5870000Y6650000D02*
D03*
Y6550000D02*
D03*
Y6450000D02*
D03*
X5570000Y7135000D02*
D03*
Y7035000D02*
D03*
X5870000Y7235000D02*
D03*
Y7135000D02*
D03*
Y7035000D02*
D03*
X5570000Y7580000D02*
D03*
Y7480000D02*
D03*
X5870000Y7680000D02*
D03*
Y7580000D02*
D03*
Y7480000D02*
D03*
X5570000Y8025000D02*
D03*
Y7925000D02*
D03*
X5870000Y8125000D02*
D03*
Y8025000D02*
D03*
Y7925000D02*
D03*
X5570000Y8480000D02*
D03*
Y8380000D02*
D03*
X5870000Y8580000D02*
D03*
Y8480000D02*
D03*
Y8380000D02*
D03*
D63*
X1428347Y7436339D02*
D03*
Y7953661D02*
D03*
D64*
X1535039Y7557205D02*
D03*
Y7655630D02*
D03*
Y7734370D02*
D03*
D65*
Y7832795D02*
D03*
D66*
X1223976Y2600000D02*
D03*
Y4251575D02*
D03*
X6771024Y2795000D02*
D03*
Y1143425D02*
D03*
X6770000Y4745000D02*
D03*
Y3093425D02*
D03*
X1223976Y4610000D02*
D03*
Y6261575D02*
D03*
X6771024Y6695000D02*
D03*
Y5043425D02*
D03*
X6780000Y9205000D02*
D03*
Y8931378D02*
D03*
X6771024Y8635000D02*
D03*
Y6983425D02*
D03*
D67*
X1444921Y8966024D02*
D03*
D68*
X1316968Y9155000D02*
D03*
D69*
X1563032D02*
D03*
D70*
X1339921Y8349213D02*
D03*
D71*
X1410000Y8630315D02*
D03*
Y8389370D02*
D03*
X1339921Y8590157D02*
D03*
Y8429528D02*
D03*
X1410000Y8550000D02*
D03*
Y8469685D02*
D03*
X1339921Y8509843D02*
D03*
X1599764Y8759843D02*
D03*
Y8219685D02*
D03*
Y8669685D02*
D03*
Y8309843D02*
D03*
D72*
X1239921Y8239764D02*
D03*
Y8739764D02*
D03*
D73*
X1374961Y8169882D02*
D03*
Y8809646D02*
D03*
D74*
X1145000Y835000D02*
D03*
X6855000Y825000D02*
D03*
X6850000Y9495000D02*
D03*
X1160000D02*
D03*
X1400000Y3055000D02*
D03*
Y3650000D02*
D03*
Y4250000D02*
D03*
Y5060000D02*
D03*
Y5660000D02*
D03*
Y6260000D02*
D03*
X6595000Y1295000D02*
D03*
Y1745000D02*
D03*
Y2195000D02*
D03*
Y2645000D02*
D03*
X6593976Y3245000D02*
D03*
Y3695000D02*
D03*
Y4145000D02*
D03*
Y4595000D02*
D03*
X6595000Y5195000D02*
D03*
Y5645000D02*
D03*
Y6095000D02*
D03*
Y6545000D02*
D03*
Y7135000D02*
D03*
Y7585000D02*
D03*
Y8035000D02*
D03*
Y8485000D02*
D03*
X1395000Y2605000D02*
D03*
X1405000Y3205000D02*
D03*
X1400000Y3800000D02*
D03*
X1390000Y4610000D02*
D03*
X1400000Y5210000D02*
D03*
X1405000Y5810000D02*
D03*
X6625000Y1145000D02*
D03*
X6620000Y1595000D02*
D03*
X6605000Y2045000D02*
D03*
Y2495000D02*
D03*
X6613976Y3095000D02*
D03*
X6608976Y3545000D02*
D03*
X6593976Y3995000D02*
D03*
X6603976Y4445000D02*
D03*
X6630000Y5045000D02*
D03*
X6615000Y5495000D02*
D03*
X6605000Y5945000D02*
D03*
Y6395000D02*
D03*
X6595000Y6985000D02*
D03*
X6605000Y7435000D02*
D03*
X6595000Y7885000D02*
D03*
Y8330000D02*
D03*
X6605000Y9205000D02*
D03*
D75*
X4415000Y4650000D02*
D03*
X4065000Y4780000D02*
D03*
X4470000Y5390000D02*
D03*
X4335000D02*
D03*
X4115000Y5600000D02*
D03*
X4080000Y5620000D02*
D03*
X3395000Y5510000D02*
D03*
X3360000Y5495000D02*
D03*
X3235000Y5275000D02*
D03*
X3185000D02*
D03*
X3290000Y4795000D02*
D03*
X3220000Y4890000D02*
D03*
X3445000Y4690000D02*
D03*
X3500000Y4620000D02*
D03*
X3565000Y4560000D02*
D03*
X3880000Y4650000D02*
D03*
X3850000Y4630000D02*
D03*
X3510000Y5475000D02*
D03*
X3495000Y5450000D02*
D03*
X3475000Y5430000D02*
D03*
X3465000Y4415000D02*
D03*
X4400000Y5025000D02*
D03*
X3935000Y5455000D02*
D03*
X3875000Y5510000D02*
D03*
X3830000Y5540000D02*
D03*
X3855000Y5490000D02*
D03*
X3800000Y5535000D02*
D03*
X3870000Y5465000D02*
D03*
X4010000Y5266000D02*
D03*
X4035000Y5340000D02*
D03*
X4065000D02*
D03*
X4005000Y5240000D02*
D03*
X3909231Y5321000D02*
D03*
X3960000Y5435000D02*
D03*
X4000000Y5210000D02*
D03*
X3995000Y5180000D02*
D03*
X3990000Y5150000D02*
D03*
X4015000Y5130000D02*
D03*
X4065000D02*
D03*
X3970000Y5285000D02*
D03*
X4235000Y5170000D02*
D03*
X4120000Y5003846D02*
D03*
X4105000Y4975000D02*
D03*
Y4945000D02*
D03*
X4030000Y4845000D02*
D03*
X4000000Y4805000D02*
D03*
X3995000Y4765000D02*
D03*
X3360000Y5075000D02*
D03*
X3385000Y5095000D02*
D03*
Y5365000D02*
D03*
X3605000Y5225000D02*
D03*
X3650000D02*
D03*
X3557000Y5198000D02*
D03*
X3635000Y5580000D02*
D03*
X3605000Y5520000D02*
D03*
X3660000Y5640000D02*
D03*
X3605000Y5590000D02*
D03*
X3625000Y5610000D02*
D03*
X3630971Y5651000D02*
D03*
X4095000Y4855000D02*
D03*
X4075000Y4830000D02*
D03*
X3955000Y4765000D02*
D03*
Y4730000D02*
D03*
X3905000Y4760000D02*
D03*
X3875000Y4765000D02*
D03*
X3830000Y4708000D02*
D03*
X4165000Y4895000D02*
D03*
X4135000Y4875000D02*
D03*
X4449747Y5014746D02*
D03*
X3935000Y5309000D02*
D03*
X3730000Y5640000D02*
D03*
X3375000Y5280000D02*
D03*
X3225000Y4860000D02*
D03*
X3370000Y5025000D02*
D03*
X3335000Y5045000D02*
D03*
X3397884Y4995357D02*
D03*
X3510000Y4915000D02*
D03*
X3475000D02*
D03*
X3512559Y4885000D02*
D03*
X3425000Y4780000D02*
D03*
X3480000Y4650000D02*
D03*
X4450000Y5775000D02*
D03*
Y5935000D02*
D03*
X4375000D02*
D03*
Y5775000D02*
D03*
X1940000Y820000D02*
D03*
X1650000Y1460000D02*
D03*
X1945000Y1550000D02*
D03*
X1680000Y1395000D02*
D03*
X3450000Y1605000D02*
D03*
X4485472Y8655000D02*
D03*
X4465472Y8675000D02*
D03*
X4445472Y8655000D02*
D03*
X4425472Y8675000D02*
D03*
X4785000Y8740000D02*
D03*
X3910000Y8720000D02*
D03*
X3550000Y8655000D02*
D03*
X3570000Y8635000D02*
D03*
X3590000Y8655000D02*
D03*
X3610000Y8635000D02*
D03*
X3035000Y8715000D02*
D03*
X2735000Y8630000D02*
D03*
X2715000Y8650000D02*
D03*
X2695000Y8630000D02*
D03*
X1775000Y2575000D02*
D03*
X1880000Y1465000D02*
D03*
X3665000Y5200000D02*
D03*
X3330000Y6230000D02*
D03*
X3365000Y6245000D02*
D03*
X1800000Y5560000D02*
D03*
X2270000Y3480000D02*
D03*
X1405000Y4405000D02*
D03*
X4257500Y4660000D02*
D03*
X3695000Y3870000D02*
D03*
X5345000Y960000D02*
D03*
X1815000Y3835000D02*
D03*
X2170000Y8080000D02*
D03*
X2105000Y8165000D02*
D03*
X1395000Y6665000D02*
D03*
X1275000Y6670000D02*
D03*
X1290000Y4410000D02*
D03*
X4650000Y6985000D02*
D03*
X4760000Y6975000D02*
D03*
X2835000Y5915000D02*
D03*
X2655000Y5945000D02*
D03*
X2815000Y4355000D02*
D03*
X2640000Y4360000D02*
D03*
X3640000Y2575000D02*
D03*
X3595000Y2825000D02*
D03*
X2210000Y2455000D02*
D03*
X2140000Y2570000D02*
D03*
X1660000Y2580000D02*
D03*
X1600000Y6445000D02*
D03*
X1735000Y6455000D02*
D03*
X3360000Y6665000D02*
D03*
X3410000Y6755000D02*
D03*
X2885000Y5790000D02*
D03*
X2710000Y5775000D02*
D03*
X2900000Y4455000D02*
D03*
X2695000Y4440000D02*
D03*
X3170000Y3575000D02*
D03*
X3220000Y3855000D02*
D03*
X3760000Y3610000D02*
D03*
X3810000Y2425000D02*
D03*
X3895000Y2635000D02*
D03*
X1935000Y2450000D02*
D03*
X1905000Y2565000D02*
D03*
X3215000Y6655000D02*
D03*
X3190000Y6830000D02*
D03*
X2665000Y5680000D02*
D03*
X2885000Y5685000D02*
D03*
X2900000Y4580000D02*
D03*
X2645000Y4570000D02*
D03*
X3315000Y3860000D02*
D03*
X3280000Y3470000D02*
D03*
X3740000Y2420000D02*
D03*
X3715000Y2815000D02*
D03*
X2050000Y2440000D02*
D03*
X2060000Y2575000D02*
D03*
X1605000Y4440000D02*
D03*
X1720000D02*
D03*
X1595000Y6555000D02*
D03*
X1720000D02*
D03*
Y7375000D02*
D03*
X1600000D02*
D03*
X4585000Y7630000D02*
D03*
X2940000Y7660000D02*
D03*
X4555000Y6655000D02*
D03*
X2920000Y6675000D02*
D03*
X2910000Y3925000D02*
D03*
X4525000Y4240000D02*
D03*
X4565000Y2155000D02*
D03*
X3105000Y2130000D02*
D03*
X2280000Y1170000D02*
D03*
X1945000D02*
D03*
X3975000Y3855000D02*
D03*
X3460000Y5890000D02*
D03*
X4285000Y6180000D02*
D03*
X4195000Y6270000D02*
D03*
X3410000Y5560000D02*
D03*
X3390000Y4695000D02*
D03*
X4165000Y5555000D02*
D03*
X4135000Y5155000D02*
D03*
X4100000Y5130000D02*
D03*
X4180000Y5115000D02*
D03*
X1800000Y4160000D02*
D03*
X1795000Y2960000D02*
D03*
X2235000Y5955000D02*
D03*
X2240000Y6065000D02*
D03*
X2160000Y6190000D02*
D03*
X1770000Y6215000D02*
D03*
X1880000Y5860000D02*
D03*
X2235000Y5370000D02*
D03*
Y5475000D02*
D03*
X2155000Y5600000D02*
D03*
X1865000Y5240000D02*
D03*
X1785000Y5020000D02*
D03*
X2165000Y4995000D02*
D03*
X2240000Y4855000D02*
D03*
X2235000Y4755000D02*
D03*
X1880000Y4650000D02*
D03*
X2175000Y3960000D02*
D03*
X2265000Y4080000D02*
D03*
X2180000Y4215000D02*
D03*
X1860000Y3855000D02*
D03*
X2260000Y3355000D02*
D03*
X2175000Y3600000D02*
D03*
X1785000D02*
D03*
X1870000Y3240000D02*
D03*
X2255000Y2755000D02*
D03*
X2260000Y2865000D02*
D03*
X2140000Y3010000D02*
D03*
X1875000Y2630000D02*
D03*
X2055000Y8445000D02*
D03*
X2085000Y7720000D02*
D03*
X1965000Y7120000D02*
D03*
X4355000Y6060000D02*
D03*
X3185000Y6300000D02*
D03*
X2075000Y1705000D02*
D03*
X1690000Y1205000D02*
D03*
X1895000Y1085000D02*
D03*
X2220000Y1470000D02*
D03*
X1900000Y1835000D02*
D03*
X1590000Y1830000D02*
D03*
X6005000Y975000D02*
D03*
X5800000Y970000D02*
D03*
X5585000Y985000D02*
D03*
X5355000Y1860000D02*
D03*
X5320000Y2125000D02*
D03*
X5355000Y2310000D02*
D03*
X5320000Y2575000D02*
D03*
X5360000Y2765000D02*
D03*
X5325000Y3180000D02*
D03*
X5360000Y3365000D02*
D03*
X5320000Y3615000D02*
D03*
X5365000Y3810000D02*
D03*
X5325000Y4080000D02*
D03*
X5360000Y4260000D02*
D03*
X5315000Y4535000D02*
D03*
X5355000Y4725000D02*
D03*
X5325000Y5130000D02*
D03*
X5355000Y5330000D02*
D03*
X5320000Y5575000D02*
D03*
X5355000Y5765000D02*
D03*
X5315000Y6035000D02*
D03*
X5355000Y6225000D02*
D03*
X5320000Y6475000D02*
D03*
X5355000Y6665000D02*
D03*
X5320000Y7055000D02*
D03*
X5355000Y7245000D02*
D03*
X5315000Y7505000D02*
D03*
X5355000Y7700000D02*
D03*
X5320000Y7950000D02*
D03*
X5355000Y8135000D02*
D03*
X5325000Y8415000D02*
D03*
X5350000Y8630000D02*
D03*
X5250000Y1580000D02*
D03*
X5935000Y1155000D02*
D03*
X5665000Y1140000D02*
D03*
X5385000Y1150000D02*
D03*
X4545000Y8930000D02*
D03*
X4465000D02*
D03*
X4395000D02*
D03*
Y8855000D02*
D03*
X4465000D02*
D03*
X4545000D02*
D03*
X4630000Y8740000D02*
D03*
X4705000D02*
D03*
X4860000D02*
D03*
X4410000Y8365000D02*
D03*
Y8425000D02*
D03*
Y8485000D02*
D03*
X4480000D02*
D03*
X4550000D02*
D03*
Y8550000D02*
D03*
X4480000D02*
D03*
X4410000D02*
D03*
X4315000Y8530000D02*
D03*
X4260000Y8275000D02*
D03*
X3400000Y8220000D02*
D03*
X3755000Y8720000D02*
D03*
X3835000D02*
D03*
X3985000D02*
D03*
X3605000Y8530000D02*
D03*
X3675000D02*
D03*
Y8465000D02*
D03*
X3535000Y8405000D02*
D03*
X3530000Y8345000D02*
D03*
X3535000Y8465000D02*
D03*
X3605000D02*
D03*
X3535000Y8530000D02*
D03*
X3440000Y8510000D02*
D03*
X3665000Y8830000D02*
D03*
X3525000Y8915000D02*
D03*
X3520000Y8835000D02*
D03*
X3590000D02*
D03*
X3670000Y8910000D02*
D03*
X3590000D02*
D03*
X2795000Y8830000D02*
D03*
X2715000D02*
D03*
X2645000D02*
D03*
X2795000Y8905000D02*
D03*
X2715000D02*
D03*
X2645000D02*
D03*
X2660000Y8460000D02*
D03*
X2730000D02*
D03*
X2800000D02*
D03*
X2660000Y8525000D02*
D03*
X2730000D02*
D03*
X2800000D02*
D03*
X2660000Y8400000D02*
D03*
Y8340000D02*
D03*
X2510000Y8250000D02*
D03*
X2675000Y8650000D02*
D03*
X2565000Y8505000D02*
D03*
X3110000Y8715000D02*
D03*
X2960000D02*
D03*
X2880000D02*
D03*
X3015000Y8135000D02*
D03*
Y8060000D02*
D03*
X3100000D02*
D03*
Y8135000D02*
D03*
Y8210000D02*
D03*
X3180000Y8135000D02*
D03*
X3265000D02*
D03*
X3180000Y8060000D02*
D03*
X3265000D02*
D03*
X3180000Y8210000D02*
D03*
X3265000D02*
D03*
Y5365000D02*
D03*
X3250000Y5845000D02*
D03*
X2027795Y7795000D02*
D03*
X2255000Y7530000D02*
D03*
X5015000Y8230000D02*
D03*
X1513720Y6833721D02*
D03*
X1510610Y7279390D02*
D03*
X2340000Y7225000D02*
D03*
X2305000Y7265000D02*
D03*
X2300000Y7295000D02*
D03*
X1821890Y2636890D02*
D03*
X1853780Y2963780D02*
D03*
X2165000Y2905000D02*
D03*
Y2670000D02*
D03*
X2160000Y3505000D02*
D03*
Y3275000D02*
D03*
X1853780Y3558780D02*
D03*
X1825000Y3245000D02*
D03*
X1853780Y4153780D02*
D03*
X2155000Y3900000D02*
D03*
Y4140000D02*
D03*
X2160000Y4935000D02*
D03*
X2159488Y4659488D02*
D03*
X1853780Y4963780D02*
D03*
Y5566220D02*
D03*
Y6166220D02*
D03*
X1821890Y4641890D02*
D03*
X1818780Y5231221D02*
D03*
X2140000Y5305000D02*
D03*
Y5545000D02*
D03*
X1680000Y1150000D02*
D03*
X2025000Y1605000D02*
D03*
X5240000Y1860000D02*
D03*
Y2315000D02*
D03*
X5235000Y2775000D02*
D03*
Y3375000D02*
D03*
Y3815000D02*
D03*
X5240000Y4275000D02*
D03*
Y4730000D02*
D03*
X5235000Y5320000D02*
D03*
X5240000Y5770000D02*
D03*
Y6230000D02*
D03*
X5230000Y6660000D02*
D03*
X5240000Y7250000D02*
D03*
X5235000Y7690000D02*
D03*
Y8130000D02*
D03*
X5230000Y8585000D02*
D03*
X6020000Y1070000D02*
D03*
X5745000D02*
D03*
X5480000Y1075000D02*
D03*
X4770000Y3755000D02*
D03*
X1995000Y8655000D02*
D03*
X1900000Y8520000D02*
D03*
X3320000Y6275000D02*
D03*
X3350000Y6280000D02*
D03*
X2335000Y7840000D02*
D03*
X2410000Y6690000D02*
D03*
X2380000Y6595000D02*
D03*
X2370000Y6950000D02*
D03*
X2360000Y7070000D02*
D03*
X4510000Y4805000D02*
D03*
X4140000Y5075000D02*
D03*
X4108760Y5035529D02*
D03*
X4435000Y5290000D02*
D03*
X3890000Y5390000D02*
D03*
X4375000Y5475000D02*
D03*
X4355000Y4610000D02*
D03*
X4190000Y4545000D02*
D03*
X4015000Y3755000D02*
D03*
X4270000Y4530000D02*
D03*
X4170000Y5020811D02*
D03*
X4180000Y5070000D02*
D03*
X4130000Y5125000D02*
D03*
X4040000Y5110000D02*
D03*
X3820000Y4735000D02*
D03*
X3795000Y4700000D02*
D03*
X3470000Y6170000D02*
D03*
X3495000Y6030000D02*
D03*
X3830000Y5225000D02*
D03*
X3665000Y5290000D02*
D03*
X3630000Y5265000D02*
D03*
X3860000Y4735000D02*
D03*
X3740000Y5280000D02*
D03*
X4215000Y5080000D02*
D03*
X3325000Y5960000D02*
D03*
X3855000Y5250000D02*
D03*
X3880000Y5275000D02*
D03*
X3635000Y6110000D02*
D03*
X3610000Y6085000D02*
D03*
X3590000Y6060000D02*
D03*
X3470000Y6080000D02*
D03*
X3775000Y4810000D02*
D03*
X3365000Y5985000D02*
D03*
X3510000Y5070000D02*
D03*
X3810000Y4860000D02*
D03*
X3540000Y5040000D02*
D03*
X3690000Y4845000D02*
D03*
X3720000Y4850000D02*
D03*
X3760000Y4855000D02*
D03*
X3800000Y4795000D02*
D03*
X4205000Y5040000D02*
D03*
X3830000Y4670000D02*
D03*
X3995000Y6200000D02*
D03*
X4285000Y6250000D02*
D03*
X3665000Y4830000D02*
D03*
X3590000Y5190000D02*
D03*
X3650000Y4875000D02*
D03*
X3620000Y5125000D02*
D03*
X3610000Y5045000D02*
D03*
X3530000Y5000000D02*
D03*
X3925000Y5280000D02*
D03*
X3805000Y5445000D02*
D03*
X1480000Y1810000D02*
D03*
X2625000Y3330000D02*
D03*
X3435000Y5070000D02*
D03*
X3518883Y5115000D02*
D03*
X3850000Y5385000D02*
D03*
X3855000Y5415000D02*
D03*
X4760000Y8160000D02*
D03*
Y8085000D02*
D03*
X4845000D02*
D03*
Y8160000D02*
D03*
Y8235000D02*
D03*
X4925000Y8160000D02*
D03*
X5010000D02*
D03*
X4925000Y8085000D02*
D03*
X5010000D02*
D03*
X4925000Y8235000D02*
D03*
X4140000Y8215000D02*
D03*
X4055000D02*
D03*
X4140000Y8065000D02*
D03*
X4055000D02*
D03*
X4140000Y8140000D02*
D03*
X4055000D02*
D03*
X3975000Y8215000D02*
D03*
Y8140000D02*
D03*
Y8065000D02*
D03*
X3890000D02*
D03*
Y8140000D02*
D03*
X5225000Y8500000D02*
D03*
X2345000Y8855000D02*
D03*
X5515000Y8770000D02*
D03*
X5340000Y8865000D02*
D03*
X4070000Y3665000D02*
D03*
X2025000Y1760000D02*
D03*
X2340000Y1390000D02*
D03*
X2005000D02*
D03*
X1995000Y1010000D02*
D03*
X1590000Y985000D02*
D03*
X1365000Y1635000D02*
D03*
X6155000Y930000D02*
D03*
X5365000Y855000D02*
D03*
X6175000Y815000D02*
D03*
X5360000Y1420000D02*
D03*
X5395000Y1095000D02*
D03*
X5225000Y1785000D02*
D03*
X5230000Y1695000D02*
D03*
X5225000Y2240000D02*
D03*
Y2125000D02*
D03*
X5235000Y2695000D02*
D03*
X5230000Y2595000D02*
D03*
X5220000Y3300000D02*
D03*
X5225000Y3205000D02*
D03*
X5230000Y3740000D02*
D03*
X5235000Y3645000D02*
D03*
X5225000Y4205000D02*
D03*
Y4100000D02*
D03*
X5230000Y4570000D02*
D03*
X5235000Y4660000D02*
D03*
X5230000Y5245000D02*
D03*
X5235000Y5155000D02*
D03*
X5220000Y5695000D02*
D03*
X5230000Y5595000D02*
D03*
X5220000Y6155000D02*
D03*
X5230000Y6055000D02*
D03*
X5225000Y6585000D02*
D03*
X5230000Y6490000D02*
D03*
X5240000Y7175000D02*
D03*
X5235000Y7075000D02*
D03*
X5220000Y7535000D02*
D03*
X5230000Y7620000D02*
D03*
X5240000Y8030000D02*
D03*
X5245000Y7970000D02*
D03*
X5230000Y8435000D02*
D03*
X1835000Y5855000D02*
D03*
X2145000Y6145000D02*
D03*
X2150000Y5895000D02*
D03*
X1645000Y7230000D02*
D03*
X1515000Y6940000D02*
D03*
Y7080000D02*
D03*
X1510000Y6990000D02*
D03*
X1650000Y6810000D02*
D03*
X1640000Y7075000D02*
D03*
X1745000Y7155000D02*
D03*
X1935000Y7690000D02*
D03*
X1850000Y7475000D02*
D03*
X1825000Y8285000D02*
D03*
Y8410000D02*
D03*
Y8695000D02*
D03*
X1840000Y8855000D02*
D03*
X1970000Y8825000D02*
D03*
X1955000Y8185000D02*
D03*
X1865000Y8135000D02*
D03*
X2050000Y8260000D02*
D03*
X1845000Y8635000D02*
D03*
X1520000Y8390000D02*
D03*
X1510000Y8470000D02*
D03*
X1520000Y8570000D02*
D03*
X1515000Y8510000D02*
D03*
X4595000Y8075000D02*
D03*
X3730000Y8060000D02*
D03*
X2865000Y8045000D02*
D03*
X3455000Y4535000D02*
D03*
X4020000Y6110000D02*
D03*
X4285000Y6105000D02*
D03*
X4190000Y6045000D02*
D03*
X3495000Y6155000D02*
D03*
X3235000Y6175000D02*
D03*
X3240000Y6130000D02*
D03*
X3325000Y5995000D02*
D03*
X3395000Y5970000D02*
D03*
X3230000Y6280000D02*
D03*
X3175000Y6055000D02*
D03*
X3009419Y5959419D02*
D03*
X3080000Y6055000D02*
D03*
X3009419Y6155581D02*
D03*
X4580000Y4870000D02*
D03*
X4625000Y4925000D02*
D03*
X4485000Y4770000D02*
D03*
X3610000Y4330000D02*
D03*
X3570000Y4375000D02*
D03*
D76*
X3333150Y6136811D02*
D03*
X3376457D02*
D03*
X3333150Y6093504D02*
D03*
X3376457D02*
D03*
%TF.MD5,dfec5f1956d3997c8db793811125e611*%
M02*
