%TF.GenerationSoftware,Altium Limited,Altium Designer,19.1.5 (86)*%
G04 Layer_Physical_Order=2*
G04 Layer_Color=36540*
%FSLAX26Y26*%
%MOIN*%
%TF.FileFunction,Copper,L2,Inr,Signal*%
%TF.Part,Single*%
G01*
G75*
%TA.AperFunction,Conductor*%
%ADD53C,0.006000*%
%TA.AperFunction,ComponentPad*%
%ADD56R,0.050000X0.050000*%
%ADD57C,0.050000*%
%ADD58R,0.059055X0.059055*%
%ADD59C,0.059055*%
%ADD60R,0.059055X0.059055*%
%ADD61R,0.100000X0.050000*%
%ADD62O,0.100000X0.050000*%
%ADD63C,0.110236*%
%ADD64C,0.057087*%
%ADD65R,0.057087X0.057087*%
%ADD66C,0.060000*%
%ADD67R,0.139764X0.051181*%
%ADD68R,0.051181X0.139764*%
%ADD69R,0.061024X0.161417*%
%ADD70R,0.051181X0.051181*%
%ADD71C,0.051181*%
%ADD72C,0.127953*%
%ADD73C,0.098425*%
%TA.AperFunction,ViaPad*%
%ADD74C,0.060000*%
%ADD75C,0.020000*%
%ADD76C,0.019685*%
D53*
X3870899Y5421000D02*
X3947130D01*
X3875870Y5409000D02*
X3942160D01*
X4327130D02*
X5054000D01*
X3947160Y5404000D02*
X4322130D01*
X3942160Y5409000D02*
X3947160Y5404000D01*
X4322159Y5421000D02*
X5044000D01*
X3952130Y5416000D02*
X4317159D01*
X3947130Y5421000D02*
X3952130Y5416000D01*
X5054000Y5409000D02*
X5100000Y5455000D01*
X5044000Y5421000D02*
X5088000Y5465000D01*
X4317159Y5416000D02*
X4322159Y5421000D01*
X4322130Y5404000D02*
X4327130Y5409000D01*
X2295000Y5530000D02*
X3595000D01*
X3605000Y5520000D01*
X3425000Y4591870D02*
Y4780000D01*
Y4591870D02*
X3484000Y4532870D01*
X3504000Y5469000D02*
X3510000Y5475000D01*
X2279514Y5469000D02*
X3504000D01*
X3494000Y5449000D02*
X3495000Y5450000D01*
X2397030Y5449000D02*
X3494000D01*
X2256472Y5445959D02*
X2279514Y5469000D01*
X2377030Y5429000D02*
X2397030Y5449000D01*
X2295000Y5330000D02*
X2395000Y5430000D01*
X3475000D01*
X3497000Y3912285D02*
Y4425000D01*
X3509000Y3443486D02*
Y4414000D01*
X3521000Y3510970D02*
Y4409029D01*
X3533000Y3515941D02*
Y4403000D01*
X3484000Y4362130D02*
Y4532870D01*
X3479472Y4357602D02*
X3484000Y4362130D01*
X3479472Y3459472D02*
Y4357602D01*
X3430000Y3410000D02*
X3479472Y3459472D01*
X3533000Y3515941D02*
X3591472Y3457469D01*
X3533000Y4403000D02*
X3756000Y4626000D01*
X3521000Y3510970D02*
X3579472Y3452498D01*
X3521000Y4409029D02*
X3744000Y4632029D01*
X3509000Y4414000D02*
X3690000Y4595000D01*
X3491472Y3425959D02*
X3509000Y3443486D01*
X3497000Y4425000D02*
X3665000Y4593000D01*
X3491472Y3906757D02*
X3497000Y3912285D01*
X3491472Y3442929D02*
Y3906757D01*
X3479472Y3430929D02*
X3491472Y3442929D01*
X4012000Y5268000D02*
X5207000D01*
X4010000Y5266000D02*
X4012000Y5268000D01*
X4203130Y5285000D02*
X4227130Y5309000D01*
X4012218Y5285000D02*
X4203130D01*
X4012218Y5285000D02*
X4012218Y5285000D01*
X3970000Y5285000D02*
X4012218D01*
X3970000Y5285000D02*
X3970000Y5285000D01*
X4017189Y5297000D02*
X4198159D01*
X4022160Y5309000D02*
X4193189D01*
X4117971Y5321000D02*
X4141971Y5345000D01*
X4027130Y5321000D02*
X4117971D01*
X4020130Y5328000D02*
X4027130Y5321000D01*
X3927130Y5328000D02*
X4020130D01*
X3922809Y5323679D02*
X3927130Y5328000D01*
X3911909Y5323679D02*
X3922809D01*
X3909231Y5321000D02*
X3911909Y5323679D01*
X4035000Y5340000D02*
X4035000Y5340000D01*
X3901361Y5340000D02*
X4035000D01*
X4198159Y5297000D02*
X4222159Y5321000D01*
X4193189Y5309000D02*
X4217189Y5333000D01*
X3322278Y4887397D02*
X3399267D01*
X3274000Y4935674D02*
X3322278Y4887397D01*
X3274000Y4935674D02*
Y5020485D01*
X4036000Y5369000D02*
X4065000Y5340000D01*
X3862130Y5369000D02*
X4036000D01*
X4010189Y5304000D02*
X4017189Y5297000D01*
X3962130Y5304000D02*
X4010189D01*
X4015160Y5316000D02*
X4022160Y5309000D01*
X3942000Y5316000D02*
X4015160D01*
X4005000Y5240000D02*
X5155000D01*
X5126000Y5224000D02*
X5180000Y5170000D01*
X4057130Y5224000D02*
X5126000D01*
X4043130Y5210000D02*
X4057130Y5224000D01*
X3610000Y5048639D02*
X3901361Y5340000D01*
X5207000Y5268000D02*
X5230000Y5245000D01*
X3890000Y5390000D02*
X4226870D01*
X4000000Y5210000D02*
X4043130D01*
X3995000Y5180000D02*
X4015425D01*
X3990000Y5150000D02*
X4080000D01*
X3880000Y5233130D02*
X4003130Y5110000D01*
X4040000D01*
X4226870Y5390000D02*
X4256870Y5360000D01*
X4227130Y5151000D02*
X5089000D01*
X4223130Y5155000D02*
X4227130Y5151000D01*
X4135000Y5155000D02*
X4223130D01*
X5081000Y5189000D02*
X5145000Y5125000D01*
X4119000Y5189000D02*
X5081000D01*
X4080000Y5150000D02*
X4119000Y5189000D01*
X5089000Y5151000D02*
X5130000Y5110000D01*
X5096000Y5204000D02*
X5160000Y5140000D01*
X4117029Y5204000D02*
X5096000D01*
X4078454Y5165425D02*
X4117029Y5204000D01*
X5145000Y3375000D02*
Y5125000D01*
X5160000Y3810000D02*
Y5140000D01*
X3830000Y5223130D02*
X4105000Y4948130D01*
X3830000Y5223130D02*
Y5225000D01*
X4105000Y4945000D02*
Y4948130D01*
Y4975000D02*
Y4985000D01*
X3868000Y5222000D02*
X4105000Y4985000D01*
X3297645Y4929000D02*
X3387130D01*
X3286000Y4940645D02*
X3297645Y4929000D01*
X3286000Y4940645D02*
Y5035000D01*
X3851870Y4845000D02*
X4030000D01*
X3675870Y5021000D02*
X3851870Y4845000D01*
X3955000Y4765000D02*
X3968130D01*
X4188130Y4545000D01*
X4190000D01*
X2904912Y5119000D02*
X3287870D01*
X3350870Y5056000D01*
X3421000D01*
X3435000Y5070000D01*
X3295000Y5131000D02*
X3351000Y5075000D01*
X3315000Y5143000D02*
X3363000Y5095000D01*
X3351000Y5075000D02*
X3360000D01*
X3363000Y5095000D02*
X3385000D01*
X2894970Y5143000D02*
X3315000D01*
X2819000Y5304000D02*
X3651000D01*
X2335000Y4820000D02*
X2819000Y5304000D01*
X3597000Y5217000D02*
X3605000Y5225000D01*
X2842000Y5217000D02*
X3597000D01*
X3568000Y5129971D02*
X3650000Y5211971D01*
Y5225000D01*
X2385000Y4760000D02*
X2842000Y5217000D01*
X2863000Y5198000D02*
X3557000D01*
X2864485Y5179000D02*
X3575212D01*
X3466883Y5167000D02*
X3518883Y5115000D01*
X2877000Y5167000D02*
X3466883D01*
X2445000Y4735000D02*
X2877000Y5167000D01*
X3451870Y5155000D02*
X3510000Y5096870D01*
X2890000Y5155000D02*
X3451870D01*
X2460000Y4725000D02*
X2890000Y5155000D01*
X2472000Y4720029D02*
X2894970Y5143000D01*
X2899941Y5131000D02*
X3295000D01*
X2485000Y4716059D02*
X2899941Y5131000D01*
X2500000Y4714088D02*
X2904912Y5119000D01*
X3597130Y5571000D02*
X3612870D01*
X3619191Y5577321D01*
X3632321D01*
X3635000Y5580000D01*
X3610000Y5671971D02*
Y6085000D01*
Y5671971D02*
X3630971Y5651000D01*
X3635000Y6110000D02*
X3660000Y6085000D01*
Y5640000D02*
Y6085000D01*
X3590000Y5665101D02*
X3625000Y5630101D01*
X3590000Y5665101D02*
Y6060000D01*
X3625000Y5610000D02*
Y5630101D01*
X3549000Y5619130D02*
X3597130Y5571000D01*
X3549000Y5619130D02*
Y6101000D01*
X3537000Y5614159D02*
X3592160Y5559000D01*
X3537000Y5614159D02*
Y6040000D01*
X3684000Y5282130D02*
Y5467870D01*
X3592870Y5559000D02*
X3684000Y5467870D01*
X3592160Y5559000D02*
X3592870D01*
X3605000Y5590000D02*
Y5620000D01*
X3561000Y5664000D02*
X3605000Y5620000D01*
X3561000Y5664000D02*
Y6115870D01*
X4110000Y4855000D02*
X4355000Y4610000D01*
X4095000Y4855000D02*
X4110000D01*
X4087500Y4830000D02*
X4257500Y4660000D01*
X4075000Y4830000D02*
X4087500D01*
X4141971Y5345000D02*
X5081485D01*
X3935000Y5309000D02*
X3942000Y5316000D01*
X3938130Y5280000D02*
X3962130Y5304000D01*
X3925000Y5280000D02*
X3938130D01*
X3610000Y5045000D02*
Y5048639D01*
X2296000Y5429000D02*
X2377030D01*
X3375000Y5280000D02*
X3450000D01*
X3464000Y5266000D01*
X3557870D02*
X3575870Y5284000D01*
X3637870D01*
X3464000Y5266000D02*
X3557870D01*
X3405754Y4976357D02*
X3460397Y5031000D01*
X3390014Y4976357D02*
X3405754D01*
X3370000Y4996372D02*
X3390014Y4976357D01*
X3370000Y4996372D02*
Y5025000D01*
X3313000D02*
X3370000D01*
X3255000Y5083000D02*
X3313000Y5025000D01*
X3460397Y5031000D02*
X3504130D01*
X3387130Y4929000D02*
X3477130Y5019000D01*
X3428870Y4842000D02*
X3501870Y4915000D01*
X3295118Y4842000D02*
X3428870D01*
X3238000Y4899118D02*
X3295118Y4842000D01*
X3501870Y4915000D02*
X3510000D01*
X3399267Y4887397D02*
X3511000Y4999130D01*
X3399267Y4870426D02*
X3509840Y4981000D01*
X3300633Y4870426D02*
X3399267D01*
X3262000Y4909059D02*
X3300633Y4870426D01*
X3450000Y4890000D02*
X3475000Y4915000D01*
X3443130Y4890000D02*
X3450000D01*
X3407130Y4854000D02*
X3443130Y4890000D01*
X3300088Y4854000D02*
X3407130D01*
X3250000Y4904088D02*
X3300088Y4854000D01*
X3262000Y4909059D02*
Y5015515D01*
X3250000Y4904088D02*
Y5005000D01*
X3238000Y4899118D02*
Y5000029D01*
X3510000Y4885000D02*
X3512559D01*
X3477130Y5019000D02*
X3512840D01*
X3445000Y4820000D02*
X3510000Y4885000D01*
X1677130Y1392130D02*
X2026000Y1741000D01*
X2032870D01*
X3450000Y1605000D02*
X3527472Y1682472D01*
Y3230000D01*
X3130000Y1311870D02*
X3515472Y1697342D01*
X3130000Y1065000D02*
Y1311870D01*
X3515472Y1697342D02*
Y3235000D01*
X3527472Y3230000D02*
X3591472Y3294000D01*
X5088000Y8363000D02*
X5225000Y8500000D01*
X5088000Y5465000D02*
Y8363000D01*
X2044000Y1752130D02*
Y1759000D01*
X2032870Y1741000D02*
X2044000Y1752130D01*
X3497000Y6080000D02*
X3537000Y6040000D01*
X3470000Y6080000D02*
X3497000D01*
X3495000Y6155000D02*
X3549000Y6101000D01*
X3502870Y6174000D02*
X3561000Y6115870D01*
X3509840Y4981000D02*
X3539000D01*
X4256870Y5360000D02*
X5070000D01*
X4217189Y5333000D02*
X5086456D01*
X4222159Y5321000D02*
X5091426D01*
X4227130Y5309000D02*
X5096397D01*
X5070000Y5360000D02*
X5115000Y5405000D01*
X5086456Y5333000D02*
X5155000Y5401544D01*
X5081485Y5345000D02*
X5135000Y5398515D01*
X5155000Y5240000D02*
X5195000Y5200000D01*
X5061000Y5134000D02*
X5110000Y5085000D01*
X4165329Y5134000D02*
X5061000D01*
X4156329Y5125000D02*
X4165329Y5134000D01*
X4130000Y5125000D02*
X4156329D01*
X4180000Y5115000D02*
X5045000D01*
X2256472Y4963528D02*
Y5445959D01*
Y4963528D02*
X2300000Y4920000D01*
X3503472Y1738472D02*
Y3328716D01*
X3030000Y1265000D02*
X3503472Y1738472D01*
X3030000Y1065000D02*
Y1265000D01*
X2930000Y1065000D02*
Y1205000D01*
X3479472Y1754472D01*
X4215000Y5080000D02*
X4322492Y4972508D01*
X2337500Y7227500D02*
X2340000Y7225000D01*
X1925669Y7265000D02*
X2305000D01*
X1647500Y7227500D02*
X2337500D01*
X1535039Y7655630D02*
X1925669Y7265000D01*
X1645000Y7230000D02*
X1647500Y7227500D01*
X2268000Y7295000D02*
X2300000D01*
X2165000Y2670000D02*
Y2905000D01*
X2160000Y3275000D02*
Y3505000D01*
X2155000Y3900000D02*
Y4140000D01*
X2159744Y4934744D02*
X2160000Y4935000D01*
X2159744Y4659744D02*
Y4934744D01*
X2159488Y4659488D02*
X2159744Y4659744D01*
X2140000Y5305000D02*
Y5545000D01*
X1535039Y7734370D02*
X1595000Y7674409D01*
Y7612640D02*
Y7674409D01*
Y7612640D02*
X1930640Y7277000D01*
X2250000D01*
X2268000Y7295000D01*
X2407500Y6692500D02*
X2410000Y6690000D01*
X1987500Y6692500D02*
X2407500D01*
X1985000Y6695000D02*
X1987500Y6692500D01*
X1985000Y6595000D02*
X2380000D01*
X1985000Y6795000D02*
X2140000Y6950000D01*
X2370000D01*
X1640000Y7075000D02*
X1642500Y7072500D01*
X2357500D01*
X2360000Y7070000D01*
X4322492Y4972508D02*
X4349362D01*
X4452596Y4869274D01*
Y4862404D02*
Y4869274D01*
Y4862404D02*
X4510000Y4805000D01*
X3867578Y5417679D02*
X3870899Y5421000D01*
X3857679Y5417679D02*
X3867578D01*
X3851000Y5342130D02*
Y5357870D01*
Y5342130D02*
X3859080Y5334050D01*
Y5329080D02*
Y5334050D01*
X3570000Y5040000D02*
X3859080Y5329080D01*
X3851870Y5385000D02*
X3875870Y5409000D01*
X3855000Y5415000D02*
X3857679Y5417679D01*
X5190000Y5402603D02*
Y5665000D01*
X5096397Y5309000D02*
X5190000Y5402603D01*
X5175000Y5404574D02*
Y6110000D01*
X5091426Y5321000D02*
X5175000Y5404574D01*
X5155000Y5401544D02*
Y6515000D01*
X5045000Y5115000D02*
X5090000Y5070000D01*
X2615000Y4665000D02*
X2770000Y4820000D01*
X2615000Y4665000D02*
X2615000Y3340000D01*
X2625000Y3330000D01*
X2770000Y4820000D02*
X3445000D01*
X3470000Y6170000D02*
X3472679Y6172679D01*
X3485809D01*
X2295000Y5430000D02*
X2296000Y5429000D01*
X3302870Y5246000D02*
X3644130D01*
X3657130Y5259000D02*
X3719000D01*
X3740000Y5280000D01*
X3644130Y5246000D02*
X3657130Y5259000D01*
X3651000Y5304000D02*
X3665000Y5290000D01*
X3672870Y5271000D02*
X3684000Y5282130D01*
X3650870Y5271000D02*
X3672870D01*
X3637870Y5284000D02*
X3650870Y5271000D01*
X3487130Y6174000D02*
X3502870D01*
X3485809Y6172679D02*
X3487130Y6174000D01*
X3620000Y5125000D02*
X3759000Y5264000D01*
Y5399000D01*
X3805000Y5445000D01*
X4030000Y5165425D02*
X4078454D01*
X3855000Y5249130D02*
Y5250000D01*
X4015425Y5180000D02*
X4030000Y5165425D01*
X3880000Y5233130D02*
Y5275000D01*
X3855000Y5249130D02*
X3868000Y5236130D01*
Y5222000D02*
Y5236130D01*
X3756000Y4626000D02*
Y4817870D01*
X3744000Y4632029D02*
Y4789671D01*
X3720000Y4813671D02*
X3744000Y4789671D01*
X3720000Y4813671D02*
Y4850000D01*
X3756000Y4817870D02*
X3760000Y4821870D01*
X3510000Y5070000D02*
Y5096870D01*
X3514840Y5021000D02*
X3675870D01*
X3504130Y5031000D02*
X3568000Y5094870D01*
Y5129971D01*
X3512840Y5019000D02*
X3514840Y5021000D01*
X3540000Y5040000D02*
X3570000D01*
X3690000Y4595000D02*
Y4845000D01*
X3760000Y4821870D02*
Y4855000D01*
X4450000Y6250000D02*
X4495000Y6205000D01*
X4285000Y6250000D02*
X4450000D01*
X3591472Y3294000D02*
Y3457469D01*
X3579472Y3299000D02*
Y3452498D01*
X3491472Y3340716D02*
Y3425959D01*
Y3340716D02*
X3503472Y3328716D01*
X3479472Y1754472D02*
Y3430929D01*
X3515472Y3235000D02*
X3579472Y3299000D01*
X3665000Y4593000D02*
Y4830000D01*
X3586212Y5190000D02*
X3590000D01*
X3545000Y4980000D02*
X3650000Y4875000D01*
X3540000Y4980000D02*
X3545000D01*
X2188839Y1193839D02*
X2370000Y1375000D01*
X2178839Y1193839D02*
X2188839D01*
X1995000Y1010000D02*
X2178839Y1193839D01*
X2370000Y1375000D02*
Y2034089D01*
X2601000Y2265088D01*
Y4672148D01*
X2951852Y5023000D01*
X3215030D01*
X3238000Y5000029D01*
X2340000Y1390000D02*
Y2021059D01*
X2589000Y2270059D01*
Y4684148D01*
X2939852Y5035000D01*
X3220000D01*
X3250000Y5005000D01*
X3851000Y5357870D02*
X3862130Y5369000D01*
X2005000Y1390000D02*
Y1680000D01*
X2180985Y1855985D01*
Y1879015D01*
X2577000Y2275030D01*
Y4689118D01*
X2934882Y5047000D01*
X3230515D01*
X3262000Y5015515D01*
X3539000Y4981000D02*
X3540000Y4980000D01*
X2044000Y1759000D02*
X2565000Y2280000D01*
Y4694088D01*
X2929912Y5059000D01*
X3235485D01*
X3274000Y5020485D01*
X2924941Y5071000D02*
X3250000D01*
X2919970Y5083000D02*
X3255000D01*
X2550000Y4696059D02*
X2924941Y5071000D01*
X3250000D02*
X3286000Y5035000D01*
X2425000Y4739515D02*
X2864485Y5179000D01*
X2536000Y4699029D02*
X2919970Y5083000D01*
X3511000Y4999130D02*
X3529130D01*
X2025000Y1760000D02*
X2550000Y2285000D01*
Y4696059D01*
X2536000Y2377059D02*
Y4699029D01*
X2500000Y2900000D02*
Y4714088D01*
X2485000Y2985000D02*
Y4716059D01*
X2394941Y2236000D02*
X2536000Y2377059D01*
X2320000Y2720000D02*
X2500000Y2900000D01*
X2320000Y2820000D02*
X2485000Y2985000D01*
X1425000Y1865000D02*
X1480000Y1810000D01*
X1425000Y1865000D02*
Y2145000D01*
X1515000Y2235000D01*
X2144000D01*
X2145000Y2236000D01*
X2394941D01*
X2300000Y4820000D02*
X2335000D01*
X2826000Y5246000D02*
X3301000D01*
X2300000Y4720000D02*
X2826000Y5246000D01*
X2472000Y3072000D02*
Y4720029D01*
X2460000Y3570000D02*
Y4725000D01*
X2320000Y3430000D02*
X2460000Y3570000D01*
X2320000Y2920000D02*
X2472000Y3072000D01*
X2445000Y3655000D02*
Y4735000D01*
X2320000Y3530000D02*
X2445000Y3655000D01*
X2320000Y4135000D02*
X2385000Y4200000D01*
X2310000Y4135000D02*
X2320000D01*
X2385000Y4200000D02*
Y4760000D01*
X2310000Y4035000D02*
X2365000D01*
X2410000Y4080000D02*
Y4745000D01*
X2365000Y4035000D02*
X2410000Y4080000D01*
X2310000Y3935000D02*
X2425000Y4050000D01*
Y4739515D01*
X3575212Y5179000D02*
X3586212Y5190000D01*
X2410000Y4745000D02*
X2863000Y5198000D01*
X5090000Y1920000D02*
Y5070000D01*
Y1920000D02*
X5225000Y1785000D01*
X5110000Y2355000D02*
Y5085000D01*
Y2355000D02*
X5225000Y2240000D01*
X5130000Y2800000D02*
Y5110000D01*
Y2800000D02*
X5235000Y2695000D01*
X5145000Y3375000D02*
X5220000Y3300000D01*
X5180000Y4250000D02*
Y5170000D01*
X5195000Y4700000D02*
Y5200000D01*
X5160000Y3810000D02*
X5230000Y3740000D01*
X5180000Y4250000D02*
X5225000Y4205000D01*
X5195000Y4700000D02*
X5235000Y4660000D01*
X5100000Y5455000D02*
Y7890000D01*
X5115000Y5405000D02*
Y7505000D01*
X5230000Y7620000D01*
X5100000Y7890000D02*
X5240000Y8030000D01*
X3850000Y5385000D02*
X3851870D01*
X5155000Y6515000D02*
X5225000Y6585000D01*
X5190000Y5665000D02*
X5220000Y5695000D01*
X5175000Y6110000D02*
X5220000Y6155000D01*
X5135000Y7070000D02*
X5135000Y5398515D01*
X5135000Y7070000D02*
X5240000Y7175000D01*
X2147500Y5897500D02*
X2150000Y5895000D01*
X2147500Y5897500D02*
Y6142500D01*
X2145000Y6145000D02*
X2147500Y6142500D01*
X1900000Y6695000D02*
X1985000D01*
X1515000Y7080000D02*
X1900000Y6695000D01*
X1905000Y6595000D02*
X1985000D01*
X1510000Y6990000D02*
X1905000Y6595000D01*
X1700000Y8695000D02*
X1825000D01*
X1515000Y8510000D02*
X1700000Y8695000D01*
X1510000Y8470000D02*
X1570000Y8410000D01*
X1825000D01*
X1605000Y8390000D02*
X1710000Y8285000D01*
X1825000D01*
X1520000Y8390000D02*
X1605000D01*
D56*
X1775000Y9205000D02*
D03*
D57*
Y9105000D02*
D03*
Y9005000D02*
D03*
D58*
X5835000Y8825000D02*
D03*
X2810000Y8230000D02*
D03*
X3685000Y8235000D02*
D03*
X4560000Y8253780D02*
D03*
X4025000Y5980000D02*
D03*
X2830000Y3410000D02*
D03*
Y1065000D02*
D03*
X1945000Y3050000D02*
D03*
X1950000Y3640000D02*
D03*
X1940000Y4250000D02*
D03*
X1930000Y5045000D02*
D03*
X1925000Y5655000D02*
D03*
Y6255000D02*
D03*
D59*
X5735000Y8825000D02*
D03*
X2910000Y8230000D02*
D03*
X3010000D02*
D03*
X3785000Y8235000D02*
D03*
X3885000D02*
D03*
X4660000Y8253780D02*
D03*
X4760000D02*
D03*
X2490000Y7615000D02*
D03*
Y7715000D02*
D03*
X4495000Y6305000D02*
D03*
X1985000Y6695000D02*
D03*
Y6795000D02*
D03*
X2320000Y2820000D02*
D03*
Y2920000D02*
D03*
Y3430000D02*
D03*
Y3530000D02*
D03*
X2310000Y4035000D02*
D03*
Y4135000D02*
D03*
X4125000Y5980000D02*
D03*
X2300000Y4820000D02*
D03*
Y4920000D02*
D03*
X2295000Y5430000D02*
D03*
Y5530000D02*
D03*
Y6020000D02*
D03*
Y6120000D02*
D03*
X4655000Y3735000D02*
D03*
X4525000D02*
D03*
X2930000Y3410000D02*
D03*
X3030000D02*
D03*
X3130000D02*
D03*
X3230000D02*
D03*
X3330000D02*
D03*
X3430000D02*
D03*
X3530000D02*
D03*
X3630000D02*
D03*
X3730000D02*
D03*
X3830000D02*
D03*
X3930000D02*
D03*
X4030000D02*
D03*
X4130000D02*
D03*
X4230000D02*
D03*
X4330000D02*
D03*
X4430000D02*
D03*
X4530000D02*
D03*
X4630000D02*
D03*
X4730000D02*
D03*
X3130000Y1065000D02*
D03*
X3030000D02*
D03*
X2930000D02*
D03*
X2045000Y3050000D02*
D03*
X2050000Y3640000D02*
D03*
X2040000Y4250000D02*
D03*
X2030000Y5045000D02*
D03*
X2025000Y5655000D02*
D03*
Y6255000D02*
D03*
X6120000Y9105000D02*
D03*
X2540000Y9095000D02*
D03*
X6120000Y8825000D02*
D03*
X3120000Y4215000D02*
D03*
Y4315000D02*
D03*
Y4415000D02*
D03*
Y4515000D02*
D03*
Y4615000D02*
D03*
X6140000Y1205000D02*
D03*
X5885000Y1210000D02*
D03*
X5600000Y1215000D02*
D03*
D60*
X2490000Y7515000D02*
D03*
X4495000Y6205000D02*
D03*
X1985000Y6595000D02*
D03*
X2320000Y2720000D02*
D03*
Y3330000D02*
D03*
X2310000Y3935000D02*
D03*
X2300000Y4720000D02*
D03*
X2295000Y5330000D02*
D03*
Y5920000D02*
D03*
X4655000Y3635000D02*
D03*
X4525000D02*
D03*
X6120000Y9205000D02*
D03*
X2540000Y8995000D02*
D03*
X6120000Y8925000D02*
D03*
X3120000Y4115000D02*
D03*
X6140000Y1105000D02*
D03*
X5885000Y1110000D02*
D03*
X5600000Y1115000D02*
D03*
D61*
X5570000Y1840000D02*
D03*
Y2290000D02*
D03*
Y2750000D02*
D03*
Y3350000D02*
D03*
X5575000Y3790000D02*
D03*
X5570000Y4250000D02*
D03*
Y4705000D02*
D03*
Y5300000D02*
D03*
Y5745000D02*
D03*
Y6205000D02*
D03*
Y6650000D02*
D03*
Y7235000D02*
D03*
Y7680000D02*
D03*
Y8125000D02*
D03*
Y8580000D02*
D03*
D62*
Y1740000D02*
D03*
Y1640000D02*
D03*
X5870000Y1840000D02*
D03*
Y1740000D02*
D03*
Y1640000D02*
D03*
X5570000Y2190000D02*
D03*
Y2090000D02*
D03*
X5870000Y2290000D02*
D03*
Y2190000D02*
D03*
Y2090000D02*
D03*
X5570000Y2650000D02*
D03*
Y2550000D02*
D03*
X5870000Y2750000D02*
D03*
Y2650000D02*
D03*
Y2550000D02*
D03*
X5570000Y3250000D02*
D03*
Y3150000D02*
D03*
X5870000Y3350000D02*
D03*
Y3250000D02*
D03*
Y3150000D02*
D03*
X5575000Y3690000D02*
D03*
Y3590000D02*
D03*
X5875000Y3790000D02*
D03*
Y3690000D02*
D03*
Y3590000D02*
D03*
X5570000Y4150000D02*
D03*
Y4050000D02*
D03*
X5870000Y4250000D02*
D03*
Y4150000D02*
D03*
Y4050000D02*
D03*
X5570000Y4605000D02*
D03*
Y4505000D02*
D03*
X5870000Y4705000D02*
D03*
Y4605000D02*
D03*
Y4505000D02*
D03*
X5570000Y5200000D02*
D03*
Y5100000D02*
D03*
X5870000Y5300000D02*
D03*
Y5200000D02*
D03*
Y5100000D02*
D03*
X5570000Y5645000D02*
D03*
Y5545000D02*
D03*
X5870000Y5745000D02*
D03*
Y5645000D02*
D03*
Y5545000D02*
D03*
X5570000Y6105000D02*
D03*
Y6005000D02*
D03*
X5870000Y6205000D02*
D03*
Y6105000D02*
D03*
Y6005000D02*
D03*
X5570000Y6550000D02*
D03*
Y6450000D02*
D03*
X5870000Y6650000D02*
D03*
Y6550000D02*
D03*
Y6450000D02*
D03*
X5570000Y7135000D02*
D03*
Y7035000D02*
D03*
X5870000Y7235000D02*
D03*
Y7135000D02*
D03*
Y7035000D02*
D03*
X5570000Y7580000D02*
D03*
Y7480000D02*
D03*
X5870000Y7680000D02*
D03*
Y7580000D02*
D03*
Y7480000D02*
D03*
X5570000Y8025000D02*
D03*
Y7925000D02*
D03*
X5870000Y8125000D02*
D03*
Y8025000D02*
D03*
Y7925000D02*
D03*
X5570000Y8480000D02*
D03*
Y8380000D02*
D03*
X5870000Y8580000D02*
D03*
Y8480000D02*
D03*
Y8380000D02*
D03*
D63*
X1428347Y7436339D02*
D03*
Y7953661D02*
D03*
D64*
X1535039Y7557205D02*
D03*
Y7655630D02*
D03*
Y7734370D02*
D03*
D65*
Y7832795D02*
D03*
D66*
X1223976Y2600000D02*
D03*
Y4251575D02*
D03*
X6771024Y2795000D02*
D03*
Y1143425D02*
D03*
X6770000Y4745000D02*
D03*
Y3093425D02*
D03*
X1223976Y4610000D02*
D03*
Y6261575D02*
D03*
X6771024Y6695000D02*
D03*
Y5043425D02*
D03*
X6780000Y9205000D02*
D03*
Y8931378D02*
D03*
X6771024Y8635000D02*
D03*
Y6983425D02*
D03*
D67*
X1444921Y8966024D02*
D03*
D68*
X1316968Y9155000D02*
D03*
D69*
X1563032D02*
D03*
D70*
X1339921Y8349213D02*
D03*
D71*
X1410000Y8630315D02*
D03*
Y8389370D02*
D03*
X1339921Y8590157D02*
D03*
Y8429528D02*
D03*
X1410000Y8550000D02*
D03*
Y8469685D02*
D03*
X1339921Y8509843D02*
D03*
X1599764Y8759843D02*
D03*
Y8219685D02*
D03*
Y8669685D02*
D03*
Y8309843D02*
D03*
D72*
X1239921Y8239764D02*
D03*
Y8739764D02*
D03*
D73*
X1374961Y8169882D02*
D03*
Y8809646D02*
D03*
D74*
X1145000Y835000D02*
D03*
X6855000Y825000D02*
D03*
X6850000Y9495000D02*
D03*
X1160000D02*
D03*
X1400000Y3055000D02*
D03*
Y3650000D02*
D03*
Y4250000D02*
D03*
Y5060000D02*
D03*
Y5660000D02*
D03*
Y6260000D02*
D03*
X6595000Y1295000D02*
D03*
Y1745000D02*
D03*
Y2195000D02*
D03*
Y2645000D02*
D03*
X6593976Y3245000D02*
D03*
Y3695000D02*
D03*
Y4145000D02*
D03*
Y4595000D02*
D03*
X6595000Y5195000D02*
D03*
Y5645000D02*
D03*
Y6095000D02*
D03*
Y6545000D02*
D03*
Y7135000D02*
D03*
Y7585000D02*
D03*
Y8035000D02*
D03*
Y8485000D02*
D03*
X1395000Y2605000D02*
D03*
X1405000Y3205000D02*
D03*
X1400000Y3800000D02*
D03*
X1390000Y4610000D02*
D03*
X1400000Y5210000D02*
D03*
X1405000Y5810000D02*
D03*
X6625000Y1145000D02*
D03*
X6620000Y1595000D02*
D03*
X6605000Y2045000D02*
D03*
Y2495000D02*
D03*
X6613976Y3095000D02*
D03*
X6608976Y3545000D02*
D03*
X6593976Y3995000D02*
D03*
X6603976Y4445000D02*
D03*
X6630000Y5045000D02*
D03*
X6615000Y5495000D02*
D03*
X6605000Y5945000D02*
D03*
Y6395000D02*
D03*
X6595000Y6985000D02*
D03*
X6605000Y7435000D02*
D03*
X6595000Y7885000D02*
D03*
Y8330000D02*
D03*
X6605000Y9205000D02*
D03*
D75*
X4415000Y4650000D02*
D03*
X4065000Y4780000D02*
D03*
X4470000Y5390000D02*
D03*
X4335000D02*
D03*
X4115000Y5600000D02*
D03*
X4080000Y5620000D02*
D03*
X3395000Y5510000D02*
D03*
X3360000Y5495000D02*
D03*
X3235000Y5275000D02*
D03*
X3185000D02*
D03*
X3290000Y4795000D02*
D03*
X3220000Y4890000D02*
D03*
X3445000Y4690000D02*
D03*
X3500000Y4620000D02*
D03*
X3565000Y4560000D02*
D03*
X3880000Y4650000D02*
D03*
X3850000Y4630000D02*
D03*
X3510000Y5475000D02*
D03*
X3495000Y5450000D02*
D03*
X3475000Y5430000D02*
D03*
X3465000Y4415000D02*
D03*
X4400000Y5025000D02*
D03*
X3935000Y5455000D02*
D03*
X3875000Y5510000D02*
D03*
X3830000Y5540000D02*
D03*
X3855000Y5490000D02*
D03*
X3800000Y5535000D02*
D03*
X3870000Y5465000D02*
D03*
X4010000Y5266000D02*
D03*
X4035000Y5340000D02*
D03*
X4065000D02*
D03*
X4005000Y5240000D02*
D03*
X3909231Y5321000D02*
D03*
X3960000Y5435000D02*
D03*
X4000000Y5210000D02*
D03*
X3995000Y5180000D02*
D03*
X3990000Y5150000D02*
D03*
X4015000Y5130000D02*
D03*
X4065000D02*
D03*
X3970000Y5285000D02*
D03*
X4235000Y5170000D02*
D03*
X4120000Y5003846D02*
D03*
X4105000Y4975000D02*
D03*
Y4945000D02*
D03*
X4030000Y4845000D02*
D03*
X4000000Y4805000D02*
D03*
X3995000Y4765000D02*
D03*
X3360000Y5075000D02*
D03*
X3385000Y5095000D02*
D03*
Y5365000D02*
D03*
X3605000Y5225000D02*
D03*
X3650000D02*
D03*
X3557000Y5198000D02*
D03*
X3635000Y5580000D02*
D03*
X3605000Y5520000D02*
D03*
X3660000Y5640000D02*
D03*
X3605000Y5590000D02*
D03*
X3625000Y5610000D02*
D03*
X3630971Y5651000D02*
D03*
X4095000Y4855000D02*
D03*
X4075000Y4830000D02*
D03*
X3955000Y4765000D02*
D03*
Y4730000D02*
D03*
X3905000Y4760000D02*
D03*
X3875000Y4765000D02*
D03*
X3830000Y4708000D02*
D03*
X4165000Y4895000D02*
D03*
X4135000Y4875000D02*
D03*
X4449747Y5014746D02*
D03*
X3935000Y5309000D02*
D03*
X3730000Y5640000D02*
D03*
X3375000Y5280000D02*
D03*
X3225000Y4860000D02*
D03*
X3370000Y5025000D02*
D03*
X3335000Y5045000D02*
D03*
X3397884Y4995357D02*
D03*
X3510000Y4915000D02*
D03*
X3475000D02*
D03*
X3512559Y4885000D02*
D03*
X3425000Y4780000D02*
D03*
X3480000Y4650000D02*
D03*
X4450000Y5775000D02*
D03*
Y5935000D02*
D03*
X4375000D02*
D03*
Y5775000D02*
D03*
X1940000Y820000D02*
D03*
X1650000Y1460000D02*
D03*
X1945000Y1550000D02*
D03*
X1680000Y1395000D02*
D03*
X3450000Y1605000D02*
D03*
X4485472Y8655000D02*
D03*
X4465472Y8675000D02*
D03*
X4445472Y8655000D02*
D03*
X4425472Y8675000D02*
D03*
X4785000Y8740000D02*
D03*
X3910000Y8720000D02*
D03*
X3550000Y8655000D02*
D03*
X3570000Y8635000D02*
D03*
X3590000Y8655000D02*
D03*
X3610000Y8635000D02*
D03*
X3035000Y8715000D02*
D03*
X2735000Y8630000D02*
D03*
X2715000Y8650000D02*
D03*
X2695000Y8630000D02*
D03*
X1775000Y2575000D02*
D03*
X1880000Y1465000D02*
D03*
X3665000Y5200000D02*
D03*
X3330000Y6230000D02*
D03*
X3365000Y6245000D02*
D03*
X1800000Y5560000D02*
D03*
X2270000Y3480000D02*
D03*
X1405000Y4405000D02*
D03*
X4257500Y4660000D02*
D03*
X3695000Y3870000D02*
D03*
X5345000Y960000D02*
D03*
X1815000Y3835000D02*
D03*
X2170000Y8080000D02*
D03*
X2105000Y8165000D02*
D03*
X1395000Y6665000D02*
D03*
X1275000Y6670000D02*
D03*
X1290000Y4410000D02*
D03*
X4650000Y6985000D02*
D03*
X4760000Y6975000D02*
D03*
X2835000Y5915000D02*
D03*
X2655000Y5945000D02*
D03*
X2815000Y4355000D02*
D03*
X2640000Y4360000D02*
D03*
X3640000Y2575000D02*
D03*
X3595000Y2825000D02*
D03*
X2210000Y2455000D02*
D03*
X2140000Y2570000D02*
D03*
X1660000Y2580000D02*
D03*
X1600000Y6445000D02*
D03*
X1735000Y6455000D02*
D03*
X3360000Y6665000D02*
D03*
X3410000Y6755000D02*
D03*
X2885000Y5790000D02*
D03*
X2710000Y5775000D02*
D03*
X2900000Y4455000D02*
D03*
X2695000Y4440000D02*
D03*
X3170000Y3575000D02*
D03*
X3220000Y3855000D02*
D03*
X3760000Y3610000D02*
D03*
X3810000Y2425000D02*
D03*
X3895000Y2635000D02*
D03*
X1935000Y2450000D02*
D03*
X1905000Y2565000D02*
D03*
X3215000Y6655000D02*
D03*
X3190000Y6830000D02*
D03*
X2665000Y5680000D02*
D03*
X2885000Y5685000D02*
D03*
X2900000Y4580000D02*
D03*
X2645000Y4570000D02*
D03*
X3315000Y3860000D02*
D03*
X3280000Y3470000D02*
D03*
X3740000Y2420000D02*
D03*
X3715000Y2815000D02*
D03*
X2050000Y2440000D02*
D03*
X2060000Y2575000D02*
D03*
X1605000Y4440000D02*
D03*
X1720000D02*
D03*
X1595000Y6555000D02*
D03*
X1720000D02*
D03*
Y7375000D02*
D03*
X1600000D02*
D03*
X4585000Y7630000D02*
D03*
X2940000Y7660000D02*
D03*
X4555000Y6655000D02*
D03*
X2920000Y6675000D02*
D03*
X2910000Y3925000D02*
D03*
X4525000Y4240000D02*
D03*
X4565000Y2155000D02*
D03*
X3105000Y2130000D02*
D03*
X2280000Y1170000D02*
D03*
X1945000D02*
D03*
X3975000Y3855000D02*
D03*
X3460000Y5890000D02*
D03*
X4285000Y6180000D02*
D03*
X4195000Y6270000D02*
D03*
X3410000Y5560000D02*
D03*
X3390000Y4695000D02*
D03*
X4165000Y5555000D02*
D03*
X4135000Y5155000D02*
D03*
X4100000Y5130000D02*
D03*
X4180000Y5115000D02*
D03*
X1800000Y4160000D02*
D03*
X1795000Y2960000D02*
D03*
X2235000Y5955000D02*
D03*
X2240000Y6065000D02*
D03*
X2160000Y6190000D02*
D03*
X1770000Y6215000D02*
D03*
X1880000Y5860000D02*
D03*
X2235000Y5370000D02*
D03*
Y5475000D02*
D03*
X2155000Y5600000D02*
D03*
X1865000Y5240000D02*
D03*
X1785000Y5020000D02*
D03*
X2165000Y4995000D02*
D03*
X2240000Y4855000D02*
D03*
X2235000Y4755000D02*
D03*
X1880000Y4650000D02*
D03*
X2175000Y3960000D02*
D03*
X2265000Y4080000D02*
D03*
X2180000Y4215000D02*
D03*
X1860000Y3855000D02*
D03*
X2260000Y3355000D02*
D03*
X2175000Y3600000D02*
D03*
X1785000D02*
D03*
X1870000Y3240000D02*
D03*
X2255000Y2755000D02*
D03*
X2260000Y2865000D02*
D03*
X2140000Y3010000D02*
D03*
X1875000Y2630000D02*
D03*
X2055000Y8445000D02*
D03*
X2085000Y7720000D02*
D03*
X1965000Y7120000D02*
D03*
X4355000Y6060000D02*
D03*
X3185000Y6300000D02*
D03*
X2075000Y1705000D02*
D03*
X1690000Y1205000D02*
D03*
X1895000Y1085000D02*
D03*
X2220000Y1470000D02*
D03*
X1900000Y1835000D02*
D03*
X1590000Y1830000D02*
D03*
X6005000Y975000D02*
D03*
X5800000Y970000D02*
D03*
X5585000Y985000D02*
D03*
X5355000Y1860000D02*
D03*
X5320000Y2125000D02*
D03*
X5355000Y2310000D02*
D03*
X5320000Y2575000D02*
D03*
X5360000Y2765000D02*
D03*
X5325000Y3180000D02*
D03*
X5360000Y3365000D02*
D03*
X5320000Y3615000D02*
D03*
X5365000Y3810000D02*
D03*
X5325000Y4080000D02*
D03*
X5360000Y4260000D02*
D03*
X5315000Y4535000D02*
D03*
X5355000Y4725000D02*
D03*
X5325000Y5130000D02*
D03*
X5355000Y5330000D02*
D03*
X5320000Y5575000D02*
D03*
X5355000Y5765000D02*
D03*
X5315000Y6035000D02*
D03*
X5355000Y6225000D02*
D03*
X5320000Y6475000D02*
D03*
X5355000Y6665000D02*
D03*
X5320000Y7055000D02*
D03*
X5355000Y7245000D02*
D03*
X5315000Y7505000D02*
D03*
X5355000Y7700000D02*
D03*
X5320000Y7950000D02*
D03*
X5355000Y8135000D02*
D03*
X5325000Y8415000D02*
D03*
X5350000Y8630000D02*
D03*
X5250000Y1580000D02*
D03*
X5935000Y1155000D02*
D03*
X5665000Y1140000D02*
D03*
X5385000Y1150000D02*
D03*
X4545000Y8930000D02*
D03*
X4465000D02*
D03*
X4395000D02*
D03*
Y8855000D02*
D03*
X4465000D02*
D03*
X4545000D02*
D03*
X4630000Y8740000D02*
D03*
X4705000D02*
D03*
X4860000D02*
D03*
X4410000Y8365000D02*
D03*
Y8425000D02*
D03*
Y8485000D02*
D03*
X4480000D02*
D03*
X4550000D02*
D03*
Y8550000D02*
D03*
X4480000D02*
D03*
X4410000D02*
D03*
X4315000Y8530000D02*
D03*
X4260000Y8275000D02*
D03*
X3400000Y8220000D02*
D03*
X3755000Y8720000D02*
D03*
X3835000D02*
D03*
X3985000D02*
D03*
X3605000Y8530000D02*
D03*
X3675000D02*
D03*
Y8465000D02*
D03*
X3535000Y8405000D02*
D03*
X3530000Y8345000D02*
D03*
X3535000Y8465000D02*
D03*
X3605000D02*
D03*
X3535000Y8530000D02*
D03*
X3440000Y8510000D02*
D03*
X3665000Y8830000D02*
D03*
X3525000Y8915000D02*
D03*
X3520000Y8835000D02*
D03*
X3590000D02*
D03*
X3670000Y8910000D02*
D03*
X3590000D02*
D03*
X2795000Y8830000D02*
D03*
X2715000D02*
D03*
X2645000D02*
D03*
X2795000Y8905000D02*
D03*
X2715000D02*
D03*
X2645000D02*
D03*
X2660000Y8460000D02*
D03*
X2730000D02*
D03*
X2800000D02*
D03*
X2660000Y8525000D02*
D03*
X2730000D02*
D03*
X2800000D02*
D03*
X2660000Y8400000D02*
D03*
Y8340000D02*
D03*
X2510000Y8250000D02*
D03*
X2675000Y8650000D02*
D03*
X2565000Y8505000D02*
D03*
X3110000Y8715000D02*
D03*
X2960000D02*
D03*
X2880000D02*
D03*
X3015000Y8135000D02*
D03*
Y8060000D02*
D03*
X3100000D02*
D03*
Y8135000D02*
D03*
Y8210000D02*
D03*
X3180000Y8135000D02*
D03*
X3265000D02*
D03*
X3180000Y8060000D02*
D03*
X3265000D02*
D03*
X3180000Y8210000D02*
D03*
X3265000D02*
D03*
Y5365000D02*
D03*
X3250000Y5845000D02*
D03*
X2027795Y7795000D02*
D03*
X2255000Y7530000D02*
D03*
X5015000Y8230000D02*
D03*
X1513720Y6833721D02*
D03*
X1510610Y7279390D02*
D03*
X2340000Y7225000D02*
D03*
X2305000Y7265000D02*
D03*
X2300000Y7295000D02*
D03*
X1821890Y2636890D02*
D03*
X1853780Y2963780D02*
D03*
X2165000Y2905000D02*
D03*
Y2670000D02*
D03*
X2160000Y3505000D02*
D03*
Y3275000D02*
D03*
X1853780Y3558780D02*
D03*
X1825000Y3245000D02*
D03*
X1853780Y4153780D02*
D03*
X2155000Y3900000D02*
D03*
Y4140000D02*
D03*
X2160000Y4935000D02*
D03*
X2159488Y4659488D02*
D03*
X1853780Y4963780D02*
D03*
Y5566220D02*
D03*
Y6166220D02*
D03*
X1821890Y4641890D02*
D03*
X1818780Y5231221D02*
D03*
X2140000Y5305000D02*
D03*
Y5545000D02*
D03*
X1680000Y1150000D02*
D03*
X2025000Y1605000D02*
D03*
X5240000Y1860000D02*
D03*
Y2315000D02*
D03*
X5235000Y2775000D02*
D03*
Y3375000D02*
D03*
Y3815000D02*
D03*
X5240000Y4275000D02*
D03*
Y4730000D02*
D03*
X5235000Y5320000D02*
D03*
X5240000Y5770000D02*
D03*
Y6230000D02*
D03*
X5230000Y6660000D02*
D03*
X5240000Y7250000D02*
D03*
X5235000Y7690000D02*
D03*
Y8130000D02*
D03*
X5230000Y8585000D02*
D03*
X6020000Y1070000D02*
D03*
X5745000D02*
D03*
X5480000Y1075000D02*
D03*
X4770000Y3755000D02*
D03*
X1995000Y8655000D02*
D03*
X1900000Y8520000D02*
D03*
X3320000Y6275000D02*
D03*
X3350000Y6280000D02*
D03*
X2335000Y7840000D02*
D03*
X2410000Y6690000D02*
D03*
X2380000Y6595000D02*
D03*
X2370000Y6950000D02*
D03*
X2360000Y7070000D02*
D03*
X4510000Y4805000D02*
D03*
X4140000Y5075000D02*
D03*
X4108760Y5035529D02*
D03*
X4435000Y5290000D02*
D03*
X3890000Y5390000D02*
D03*
X4375000Y5475000D02*
D03*
X4355000Y4610000D02*
D03*
X4190000Y4545000D02*
D03*
X4015000Y3755000D02*
D03*
X4270000Y4530000D02*
D03*
X4170000Y5020811D02*
D03*
X4180000Y5070000D02*
D03*
X4130000Y5125000D02*
D03*
X4040000Y5110000D02*
D03*
X3820000Y4735000D02*
D03*
X3795000Y4700000D02*
D03*
X3470000Y6170000D02*
D03*
X3495000Y6030000D02*
D03*
X3830000Y5225000D02*
D03*
X3665000Y5290000D02*
D03*
X3630000Y5265000D02*
D03*
X3860000Y4735000D02*
D03*
X3740000Y5280000D02*
D03*
X4215000Y5080000D02*
D03*
X3325000Y5960000D02*
D03*
X3855000Y5250000D02*
D03*
X3880000Y5275000D02*
D03*
X3635000Y6110000D02*
D03*
X3610000Y6085000D02*
D03*
X3590000Y6060000D02*
D03*
X3470000Y6080000D02*
D03*
X3775000Y4810000D02*
D03*
X3365000Y5985000D02*
D03*
X3510000Y5070000D02*
D03*
X3810000Y4860000D02*
D03*
X3540000Y5040000D02*
D03*
X3690000Y4845000D02*
D03*
X3720000Y4850000D02*
D03*
X3760000Y4855000D02*
D03*
X3800000Y4795000D02*
D03*
X4205000Y5040000D02*
D03*
X3830000Y4670000D02*
D03*
X3995000Y6200000D02*
D03*
X4285000Y6250000D02*
D03*
X3665000Y4830000D02*
D03*
X3590000Y5190000D02*
D03*
X3650000Y4875000D02*
D03*
X3620000Y5125000D02*
D03*
X3610000Y5045000D02*
D03*
X3530000Y5000000D02*
D03*
X3925000Y5280000D02*
D03*
X3805000Y5445000D02*
D03*
X1480000Y1810000D02*
D03*
X2625000Y3330000D02*
D03*
X3435000Y5070000D02*
D03*
X3518883Y5115000D02*
D03*
X3850000Y5385000D02*
D03*
X3855000Y5415000D02*
D03*
X4760000Y8160000D02*
D03*
Y8085000D02*
D03*
X4845000D02*
D03*
Y8160000D02*
D03*
Y8235000D02*
D03*
X4925000Y8160000D02*
D03*
X5010000D02*
D03*
X4925000Y8085000D02*
D03*
X5010000D02*
D03*
X4925000Y8235000D02*
D03*
X4140000Y8215000D02*
D03*
X4055000D02*
D03*
X4140000Y8065000D02*
D03*
X4055000D02*
D03*
X4140000Y8140000D02*
D03*
X4055000D02*
D03*
X3975000Y8215000D02*
D03*
Y8140000D02*
D03*
Y8065000D02*
D03*
X3890000D02*
D03*
Y8140000D02*
D03*
X5225000Y8500000D02*
D03*
X2345000Y8855000D02*
D03*
X5515000Y8770000D02*
D03*
X5340000Y8865000D02*
D03*
X4070000Y3665000D02*
D03*
X2025000Y1760000D02*
D03*
X2340000Y1390000D02*
D03*
X2005000D02*
D03*
X1995000Y1010000D02*
D03*
X1590000Y985000D02*
D03*
X1365000Y1635000D02*
D03*
X6155000Y930000D02*
D03*
X5365000Y855000D02*
D03*
X6175000Y815000D02*
D03*
X5360000Y1420000D02*
D03*
X5395000Y1095000D02*
D03*
X5225000Y1785000D02*
D03*
X5230000Y1695000D02*
D03*
X5225000Y2240000D02*
D03*
Y2125000D02*
D03*
X5235000Y2695000D02*
D03*
X5230000Y2595000D02*
D03*
X5220000Y3300000D02*
D03*
X5225000Y3205000D02*
D03*
X5230000Y3740000D02*
D03*
X5235000Y3645000D02*
D03*
X5225000Y4205000D02*
D03*
Y4100000D02*
D03*
X5230000Y4570000D02*
D03*
X5235000Y4660000D02*
D03*
X5230000Y5245000D02*
D03*
X5235000Y5155000D02*
D03*
X5220000Y5695000D02*
D03*
X5230000Y5595000D02*
D03*
X5220000Y6155000D02*
D03*
X5230000Y6055000D02*
D03*
X5225000Y6585000D02*
D03*
X5230000Y6490000D02*
D03*
X5240000Y7175000D02*
D03*
X5235000Y7075000D02*
D03*
X5220000Y7535000D02*
D03*
X5230000Y7620000D02*
D03*
X5240000Y8030000D02*
D03*
X5245000Y7970000D02*
D03*
X5230000Y8435000D02*
D03*
X1835000Y5855000D02*
D03*
X2145000Y6145000D02*
D03*
X2150000Y5895000D02*
D03*
X1645000Y7230000D02*
D03*
X1515000Y6940000D02*
D03*
Y7080000D02*
D03*
X1510000Y6990000D02*
D03*
X1650000Y6810000D02*
D03*
X1640000Y7075000D02*
D03*
X1745000Y7155000D02*
D03*
X1935000Y7690000D02*
D03*
X1850000Y7475000D02*
D03*
X1825000Y8285000D02*
D03*
Y8410000D02*
D03*
Y8695000D02*
D03*
X1840000Y8855000D02*
D03*
X1970000Y8825000D02*
D03*
X1955000Y8185000D02*
D03*
X1865000Y8135000D02*
D03*
X2050000Y8260000D02*
D03*
X1845000Y8635000D02*
D03*
X1520000Y8390000D02*
D03*
X1510000Y8470000D02*
D03*
X1520000Y8570000D02*
D03*
X1515000Y8510000D02*
D03*
X4595000Y8075000D02*
D03*
X3730000Y8060000D02*
D03*
X2865000Y8045000D02*
D03*
X3455000Y4535000D02*
D03*
X4020000Y6110000D02*
D03*
X4285000Y6105000D02*
D03*
X4190000Y6045000D02*
D03*
X3495000Y6155000D02*
D03*
X3235000Y6175000D02*
D03*
X3240000Y6130000D02*
D03*
X3325000Y5995000D02*
D03*
X3395000Y5970000D02*
D03*
X3230000Y6280000D02*
D03*
X3175000Y6055000D02*
D03*
X3009419Y5959419D02*
D03*
X3080000Y6055000D02*
D03*
X3009419Y6155581D02*
D03*
X4580000Y4870000D02*
D03*
X4625000Y4925000D02*
D03*
X4485000Y4770000D02*
D03*
X3610000Y4330000D02*
D03*
X3570000Y4375000D02*
D03*
D76*
X3333150Y6136811D02*
D03*
X3376457D02*
D03*
X3333150Y6093504D02*
D03*
X3376457D02*
D03*
%TF.MD5,d5a91a7b8d1f365c81b30977649ae91a*%
M02*
