%TF.GenerationSoftware,Altium Limited,Altium Designer,19.1.5 (86)*%
G04 Layer_Physical_Order=5*
G04 Layer_Color=16440176*
%FSLAX26Y26*%
%MOIN*%
%TF.FileFunction,Copper,L5,Inr,Signal*%
%TF.Part,Single*%
G01*
G75*
%TA.AperFunction,Conductor*%
%ADD53C,0.006000*%
%TA.AperFunction,ComponentPad*%
%ADD56R,0.050000X0.050000*%
%ADD57C,0.050000*%
%ADD58R,0.059055X0.059055*%
%ADD59C,0.059055*%
%ADD60R,0.059055X0.059055*%
%ADD61R,0.100000X0.050000*%
%ADD62O,0.100000X0.050000*%
%ADD63C,0.110236*%
%ADD64C,0.057087*%
%ADD65R,0.057087X0.057087*%
%ADD66C,0.060000*%
%ADD67R,0.139764X0.051181*%
%ADD68R,0.051181X0.139764*%
%ADD69R,0.061024X0.161417*%
%ADD70R,0.051181X0.051181*%
%ADD71C,0.051181*%
%ADD72C,0.127953*%
%ADD73C,0.098425*%
%TA.AperFunction,ViaPad*%
%ADD74C,0.060000*%
%ADD75C,0.020000*%
%ADD76C,0.019685*%
D53*
X4053974Y4761000D02*
X4105159D01*
X4049974Y4765000D02*
X4053974Y4761000D01*
X3995000Y4765000D02*
X4049974D01*
X4105159Y4761000D02*
X4130159Y4736000D01*
X3781000Y5527130D02*
X3987130Y5321000D01*
X4084000D01*
X4235000Y5170000D01*
X3656870Y5670000D02*
X3781000Y5545870D01*
Y5527130D02*
Y5545870D01*
X3786000Y5429224D02*
Y5505159D01*
X3660000Y5631159D02*
X3786000Y5505159D01*
X3774000Y5424253D02*
Y5496000D01*
X3630971Y5639029D02*
X3774000Y5496000D01*
X3955467Y5154533D02*
X4019000Y5091000D01*
X3950497Y5142533D02*
X4014030Y5079000D01*
X3945526Y5130533D02*
X4009059Y5067000D01*
X3940556Y5118533D02*
X4004088Y5055000D01*
X3858686Y5118533D02*
X3940556D01*
X3935585Y5106533D02*
X4006588Y5035529D01*
X3853715Y5106533D02*
X3935585D01*
X4015000Y5130000D02*
X4059000Y5174000D01*
X4296000Y5151000D02*
X4435000Y5290000D01*
X4227130Y5151000D02*
X4296000D01*
X4204130Y5174000D02*
X4227130Y5151000D01*
X4059000Y5174000D02*
X4204130D01*
X3750000Y5354752D02*
X3783000Y5321752D01*
X3681000Y5482130D02*
X3750000Y5413130D01*
Y5354752D02*
Y5413130D01*
X3738000Y5349782D02*
X3771000Y5316782D01*
X3669000Y5477159D02*
X3738000Y5408159D01*
Y5349782D02*
Y5408159D01*
X3726000Y5344811D02*
X3759000Y5311811D01*
X3657000Y5467752D02*
Y5494870D01*
Y5467752D02*
X3726000Y5398752D01*
Y5344811D02*
Y5398752D01*
X4006000Y4799000D02*
X4084130D01*
X4000000Y4805000D02*
X4006000Y4799000D01*
X3974000Y4805870D02*
X3992130Y4824000D01*
X3974000Y4757130D02*
Y4805870D01*
X4019970Y4824000D02*
X4032970Y4811000D01*
X3992130Y4824000D02*
X4019970D01*
X4084130Y4799000D02*
X4117130Y4766000D01*
X4032970Y4811000D02*
X4127130D01*
X4130159Y4736000D02*
X4326000D01*
X4535000Y4945000D01*
X4117130Y4766000D02*
X4337971D01*
X4522000Y4950029D01*
X4127130Y4811000D02*
X4152130Y4786000D01*
X4341000D01*
X4510000Y4955000D01*
X3955000Y4738130D02*
X3974000Y4757130D01*
X3290840Y5753000D02*
X3658000Y5385841D01*
Y5323870D02*
Y5385841D01*
Y5323870D02*
X3684000Y5297870D01*
X3284248Y5741000D02*
X3532251Y5492997D01*
X3669000Y5230000D02*
Y5259130D01*
X3646000Y5282130D02*
X3669000Y5259130D01*
X3646000Y5282130D02*
Y5357130D01*
X3533873Y5492997D02*
X3621000Y5405870D01*
X3532251Y5492997D02*
X3533873D01*
X3284248Y5724029D02*
X3429000Y5579278D01*
Y5409000D02*
Y5579278D01*
X3385000Y5365000D02*
X3429000Y5409000D01*
X3385000Y5365000D02*
Y5365000D01*
X3669000Y5230000D02*
X3839000Y5060000D01*
X3520430Y4866000D02*
X3665000Y5010570D01*
X3511000Y4866000D02*
X3520430D01*
X3425000Y4780000D02*
X3511000Y4866000D01*
X3681000Y5482130D02*
Y5504811D01*
X3762000Y5419283D02*
Y5479870D01*
X3697544Y5339326D02*
Y5393267D01*
X3669000Y5477159D02*
Y5499841D01*
X3300782Y5777000D02*
X3588782Y5489000D01*
X3601811D01*
X3697544Y5393267D01*
X3318782Y5789000D02*
X3457956Y5649826D01*
Y5640174D02*
Y5649826D01*
Y5640174D02*
X3597130Y5501000D01*
X3606782D01*
X3714000Y5393782D01*
X3328189Y5801000D02*
X3582189Y5547000D01*
X3604870D01*
X3657000Y5494870D01*
X3338160Y5813000D02*
X3592160Y5559000D01*
X3609840D01*
X3669000Y5499841D01*
X3642870Y5599000D02*
X3762000Y5479870D01*
X3639788Y5599000D02*
X3642870D01*
X3628788Y5610000D02*
X3639788Y5599000D01*
X3625000Y5610000D02*
X3628788D01*
X3343130Y5825000D02*
X3597130Y5571000D01*
X3614811D01*
X3681000Y5504811D01*
X3075118Y5777000D02*
X3300782D01*
X3080088Y5789000D02*
X3318782D01*
X3085059Y5801000D02*
X3328189D01*
X3660000Y5631159D02*
Y5640000D01*
X3495000Y5770000D02*
X3595000Y5670000D01*
X3656870D01*
X3630971Y5639029D02*
Y5651000D01*
X3095000Y5825000D02*
X3343130D01*
X3090030Y5813000D02*
X3338160D01*
X3955000Y4730000D02*
Y4738130D01*
X3875000Y4765000D02*
Y5068278D01*
X3859130Y4735870D02*
Y4754000D01*
X3856000Y4757130D02*
X3859130Y4754000D01*
X3856000Y4757130D02*
Y5067029D01*
X3839000Y4729130D02*
Y5060000D01*
X3830000Y4701870D02*
Y4708000D01*
X3295811Y5765000D02*
X3634811Y5426000D01*
X3621000Y5382130D02*
Y5405870D01*
Y5382130D02*
X3646000Y5357130D01*
X3634811Y5426000D02*
X3647840D01*
X3685544Y5388296D01*
Y5313296D02*
Y5388296D01*
X3060206Y5724029D02*
X3284248D01*
X3714000Y5339841D02*
Y5393782D01*
X3786381Y5369283D02*
X3855000Y5300663D01*
X3786381Y5369283D02*
Y5428843D01*
X3786000Y5429224D02*
X3786381Y5428843D01*
X3774000Y5424253D02*
X3774381Y5423872D01*
Y5364312D02*
Y5423872D01*
Y5364312D02*
X3807000Y5331693D01*
X3762000Y5419283D02*
X3762381Y5418902D01*
Y5359342D02*
Y5418902D01*
Y5359342D02*
X3795000Y5326722D01*
X3697544Y5339326D02*
X3714000Y5322870D01*
Y5339841D02*
X3726000Y5327841D01*
X3685544Y5313296D02*
X3696000Y5302841D01*
X3581970Y4986971D02*
Y5000000D01*
X3510000Y4915000D02*
X3581970Y4986971D01*
X3591565Y5031565D02*
X3596565D01*
X3475000Y4915000D02*
X3591565Y5031565D01*
X3596565D02*
X3610000Y5045000D01*
X3665000Y5010570D02*
Y5200000D01*
X3587076Y4761000D02*
X3606076Y4780000D01*
X3417130Y4761000D02*
X3587076D01*
X2397000Y5781130D02*
X3417130Y4761000D01*
X2397000Y5781130D02*
Y6018000D01*
X3425160Y4736000D02*
X3792130D01*
X2350000Y5811159D02*
X3425160Y4736000D01*
X2350000Y5811159D02*
Y5953515D01*
X3420189Y4724000D02*
X3771000D01*
X2295000Y5849189D02*
X3420189Y4724000D01*
X2295000Y5849189D02*
Y5920000D01*
X3792130Y4736000D02*
X3828130Y4700000D01*
X3285000Y1605000D02*
X3450000D01*
X2830000Y1150000D02*
X3285000Y1605000D01*
X3839000Y4729130D02*
X3849000Y4719130D01*
Y4695870D02*
Y4719130D01*
X3830000Y4676870D02*
X3849000Y4695870D01*
X3830000Y4670000D02*
Y4676870D01*
X3828130Y4700000D02*
X3830000Y4701870D01*
X3334000Y6226000D02*
X3372870D01*
X3330000Y6230000D02*
X3334000Y6226000D01*
X3295811Y6395000D02*
X3396000Y6294811D01*
Y6232159D02*
Y6294811D01*
X3338840Y6175000D02*
X3396000Y6232159D01*
X3369000Y6249000D02*
Y6287870D01*
X3365000Y6245000D02*
X3369000Y6249000D01*
X3290840Y6383000D02*
X3384000Y6289841D01*
Y6237130D02*
Y6289841D01*
X3372870Y6226000D02*
X3384000Y6237130D01*
X3115000Y6395000D02*
X3295811D01*
X3235000Y6175000D02*
X3338840D01*
X2111870Y8185000D02*
X2201000Y8095870D01*
X2107000Y8240781D02*
X2237000Y8110782D01*
X2119000Y8245752D02*
X2249000Y8115752D01*
X1865000Y8135000D02*
X2141870D01*
X2116840Y8197000D02*
X2213000Y8100841D01*
X2095000Y8235811D02*
X2225000Y8105811D01*
X2189000Y7996000D02*
Y8087870D01*
X2201000Y8000971D02*
Y8095870D01*
X2213000Y8005941D02*
Y8100841D01*
X2225000Y8010912D02*
Y8105811D01*
X2237000Y8015882D02*
Y8110782D01*
X2249000Y8020852D02*
Y8115752D01*
X2141870Y8135000D02*
X2189000Y8087870D01*
X2225000Y8010912D02*
X2284912Y7951000D01*
X2213000Y8005941D02*
X2279941Y7939000D01*
X2189000Y7996000D02*
X2270000Y7915000D01*
X2249000Y8020852D02*
X2294852Y7975000D01*
X2237000Y8015882D02*
X2289882Y7963000D01*
X2201000Y8000971D02*
X2274970Y7927000D01*
X2023000Y8197000D02*
X2116840D01*
X1955000Y8185000D02*
X2111870D01*
X2119000Y8245752D02*
Y8514941D01*
X2107000Y8240781D02*
Y8509970D01*
X2095000Y8235811D02*
Y8505000D01*
X3495000Y5770000D02*
Y6030000D01*
X4180000Y5070000D02*
Y5073788D01*
X4171000Y5082788D02*
X4180000Y5073788D01*
X2830000Y1065000D02*
Y1150000D01*
X3684000Y5239029D02*
X3856000Y5067029D01*
X3070148Y5765000D02*
X3295811D01*
X3065177Y5753000D02*
X3290840D01*
X3060206Y5741000D02*
X3284248D01*
X2410000Y6510000D02*
X3095000Y5825000D01*
X2306000Y6529148D02*
X3070148Y5765000D01*
X2342000Y6544059D02*
X3085059Y5801000D01*
X2355000Y6548029D02*
X3090030Y5813000D01*
X2270000Y6514236D02*
X3060206Y5724029D01*
X2318000Y6534118D02*
X3075118Y5777000D01*
X2282000Y6519207D02*
X3060206Y5741000D01*
X2330000Y6539088D02*
X3080088Y5789000D01*
X2294000Y6524177D02*
X3065177Y5753000D01*
X2318000Y7203000D02*
X2340000Y7225000D01*
X2305000Y7265000D02*
X2306000Y7264000D01*
X2286000Y7257130D02*
X2294000Y7249130D01*
Y6524177D02*
Y7249130D01*
X2286000Y7257130D02*
Y7272870D01*
X2306000Y6529148D02*
Y7264000D01*
X2300000Y7286870D02*
Y7295000D01*
X2235000Y7265000D02*
X2385000Y7415000D01*
X2223000Y7269971D02*
X2430000Y7476971D01*
X2385000Y7415000D02*
X2555000D01*
X2223000Y7203529D02*
Y7269971D01*
X2430000Y7476971D02*
Y7660000D01*
X2235000Y7208500D02*
Y7265000D01*
X2325000Y3325000D02*
X2330000Y3330000D01*
X1968941Y8855000D02*
X2026970Y8796970D01*
X1840000Y8855000D02*
X1968941D01*
X2026970Y8606970D02*
Y8796970D01*
X1970000Y8646970D02*
Y8825000D01*
Y8646970D02*
X2107000Y8509970D01*
X1845000Y8635000D02*
X1965000D01*
X2095000Y8505000D01*
X2026970Y8606970D02*
X2119000Y8514941D01*
X2294852Y7975000D02*
X2589852D01*
X3095000Y7469852D01*
X1900000Y8520000D02*
X1940000Y8480000D01*
Y8280000D02*
Y8480000D01*
Y8280000D02*
X2023000Y8197000D01*
X2289882Y7963000D02*
X2584882D01*
X2284912Y7951000D02*
X2579912D01*
X2270000Y7915000D02*
X2565000D01*
X2274970Y7927000D02*
X2569970D01*
X2279941Y7939000D02*
X2574941D01*
X2584882Y7963000D02*
X3083000Y7464882D01*
X2579912Y7951000D02*
X3071000Y7459912D01*
X2574941Y7939000D02*
X3059000Y7454941D01*
Y6397059D02*
Y7454941D01*
X3035000Y6387118D02*
X3093559Y6328559D01*
X3035000Y6387118D02*
Y7445000D01*
X2565000Y7915000D02*
X3035000Y7445000D01*
X2569970Y7927000D02*
X3047000Y7449971D01*
X3093559Y6276441D02*
X3240000Y6130000D01*
X3093559Y6276441D02*
Y6328559D01*
X3092088Y6347000D02*
X3248000D01*
X3047000Y6392088D02*
X3092088Y6347000D01*
X3047000Y6392088D02*
Y7449971D01*
X3097059Y6359000D02*
X3271000D01*
X3059000Y6397059D02*
X3097059Y6359000D01*
X3102030Y6371000D02*
X3285870D01*
X3071000Y6402029D02*
X3102030Y6371000D01*
X3071000Y6402029D02*
Y7459912D01*
X3107000Y6383000D02*
X3290840D01*
X3083000Y6407000D02*
X3107000Y6383000D01*
X3083000Y6407000D02*
Y7464882D01*
X3095000Y6415000D02*
Y7469852D01*
Y6415000D02*
X3115000Y6395000D01*
X3248000Y6347000D02*
X3320000Y6275000D01*
X3271000Y6359000D02*
X3350000Y6280000D01*
X3285870Y6371000D02*
X3369000Y6287870D01*
X3530000Y5026212D02*
X3540000Y5036212D01*
X3530000Y5000000D02*
Y5026212D01*
X2286000Y7272870D02*
X2300000Y7286870D01*
X2430000Y7660000D02*
X2485000Y7715000D01*
X2490000D01*
X2223000Y7203529D02*
X2270000Y7156529D01*
Y6514236D02*
Y7156529D01*
X2455000Y7840000D02*
X2600000Y7695000D01*
X2335000Y7840000D02*
X2455000D01*
X2600000Y7460000D02*
Y7695000D01*
X2555000Y7415000D02*
X2600000Y7460000D01*
X2235000Y7208500D02*
X2282000Y7161500D01*
X2410000Y6510000D02*
Y6690000D01*
X2355000Y6570000D02*
X2380000Y6595000D01*
X2355000Y6548029D02*
Y6570000D01*
X2342000Y6544059D02*
Y6922000D01*
X2330000Y6539088D02*
Y7005000D01*
X2318000Y6534118D02*
Y7028000D01*
X2282000Y6519207D02*
Y7161500D01*
X2342000Y6922000D02*
X2370000Y6950000D01*
X2330000Y7005000D02*
X2385000Y7060000D01*
Y7090000D01*
X2318000Y7157000D02*
Y7203000D01*
Y7157000D02*
X2385000Y7090000D01*
X2318000Y7028000D02*
X2360000Y7070000D01*
X4171000Y5082788D02*
Y5087841D01*
X4152841Y5106000D02*
X4171000Y5087841D01*
X4067870Y5106000D02*
X4152841D01*
X4159000Y5064130D02*
Y5082870D01*
X4147870Y5094000D02*
X4159000Y5082870D01*
X4078665Y5094000D02*
X4147870D01*
X4076635Y5075000D02*
X4140000D01*
X4006588Y5035529D02*
X4108760D01*
X4127870Y5059000D02*
X4166059Y5020811D01*
X4111000Y5059000D02*
X4127870D01*
X4107000Y5055000D02*
X4111000Y5059000D01*
X4068635Y5067000D02*
X4076635Y5075000D01*
X4004088Y5055000D02*
X4107000D01*
X4182000Y5638000D02*
X4535000Y5285000D01*
X4170000Y5626971D02*
X4522000Y5274971D01*
X4105000Y5675000D02*
X4510000Y5270000D01*
Y4955000D02*
Y5270000D01*
X4105000Y5675000D02*
Y5945643D01*
X4522000Y4950029D02*
Y5274971D01*
X4170000Y5626971D02*
Y5990000D01*
X4535000Y4945000D02*
Y5285000D01*
X4182000Y5638000D02*
Y5936000D01*
X4210000Y5964000D01*
Y6050000D01*
X4240000Y6080000D01*
X4350000D01*
X4400000Y6130000D01*
X4166059Y5020811D02*
X4170000D01*
X4009059Y5067000D02*
X4068635D01*
X4063665Y5079000D02*
X4078665Y5094000D01*
X4014030Y5079000D02*
X4063665D01*
X4019000Y5091000D02*
X4052870D01*
X4067870Y5106000D01*
X4159000Y5064130D02*
X4183130Y5040000D01*
X3775000Y4780000D02*
X3820000Y4735000D01*
X3771000Y4724000D02*
X3795000Y4700000D01*
X3684000Y5239029D02*
Y5297870D01*
X3696000Y5246218D02*
Y5302841D01*
Y5246218D02*
X3700000Y5242218D01*
Y5240000D02*
Y5242218D01*
Y5240000D02*
X3776749Y5163251D01*
X3709000Y5250189D02*
X3783939Y5175251D01*
X3709000Y5250189D02*
Y5293970D01*
X3721000Y5255159D02*
X3788909Y5187251D01*
X3721000Y5255159D02*
Y5289000D01*
X3788909Y5187251D02*
X3789968D01*
X3858686Y5118533D01*
X3783939Y5175251D02*
X3784997D01*
X3853715Y5106533D01*
X3776749Y5163251D02*
X3780027D01*
X3875000Y5068278D01*
X3859130Y4735870D02*
X3860000Y4735000D01*
X3759000Y5235189D02*
X3863656Y5130533D01*
X3759000Y5235189D02*
Y5311811D01*
X3771000Y5240159D02*
X3868627Y5142533D01*
X3771000Y5240159D02*
Y5316782D01*
X3783000Y5245130D02*
X3873597Y5154533D01*
X3783000Y5245130D02*
Y5321752D01*
X3795000Y5260000D02*
X3830000Y5225000D01*
X3863656Y5130533D02*
X3945526D01*
X3868627Y5142533D02*
X3950497D01*
X3873597Y5154533D02*
X3955467D01*
X3721000Y5289000D02*
X3726000Y5294000D01*
X3709000Y5293970D02*
X3714000Y5298970D01*
Y5322870D01*
X3726000Y5294000D02*
Y5327841D01*
X3795000Y5260000D02*
Y5326722D01*
X3807000Y5276339D02*
Y5331693D01*
X3855000Y5300000D02*
Y5300663D01*
X3807000Y5276339D02*
X3833339Y5250000D01*
X3855000D01*
X4183130Y5040000D02*
X4205000D01*
X3855000Y5300000D02*
X3880000Y5275000D01*
X3775000Y4810000D02*
X3788435Y4823435D01*
Y4838435D01*
X3810000Y4860000D01*
X4400000Y6180000D02*
X4425000Y6205000D01*
X4495000D01*
X4400000Y6130000D02*
Y6180000D01*
X3995000Y6090000D02*
Y6200000D01*
Y6090000D02*
X4010000Y6075000D01*
X4085000D01*
X4170000Y5990000D01*
X4105000Y5945643D02*
X4125000Y5965643D01*
Y5980000D01*
X3629000Y5037130D02*
Y5074671D01*
X3581970Y5000000D02*
X3591870D01*
X3629000Y5037130D01*
X3620000Y5083671D02*
X3629000Y5074671D01*
X2330000Y5973515D02*
Y5985000D01*
X2295000Y6020000D02*
X2330000Y5985000D01*
Y5973515D02*
X2350000Y5953515D01*
X2295000Y6120000D02*
X2397000Y6018000D01*
X3606076Y4780000D02*
X3775000D01*
X3620000Y5083671D02*
Y5125000D01*
X2330000Y3330000D02*
X2625000D01*
X2320000D02*
X2325000Y3325000D01*
X1780000Y8570000D02*
X1845000Y8635000D01*
X1520000Y8570000D02*
X1780000D01*
D56*
X1775000Y9205000D02*
D03*
D57*
Y9105000D02*
D03*
Y9005000D02*
D03*
D58*
X5835000Y8825000D02*
D03*
X2810000Y8230000D02*
D03*
X3685000Y8235000D02*
D03*
X4560000Y8253780D02*
D03*
X4025000Y5980000D02*
D03*
X2830000Y3410000D02*
D03*
Y1065000D02*
D03*
X1945000Y3050000D02*
D03*
X1950000Y3640000D02*
D03*
X1940000Y4250000D02*
D03*
X1930000Y5045000D02*
D03*
X1925000Y5655000D02*
D03*
Y6255000D02*
D03*
D59*
X5735000Y8825000D02*
D03*
X2910000Y8230000D02*
D03*
X3010000D02*
D03*
X3785000Y8235000D02*
D03*
X3885000D02*
D03*
X4660000Y8253780D02*
D03*
X4760000D02*
D03*
X2490000Y7615000D02*
D03*
Y7715000D02*
D03*
X4495000Y6305000D02*
D03*
X1985000Y6695000D02*
D03*
Y6795000D02*
D03*
X2320000Y2820000D02*
D03*
Y2920000D02*
D03*
Y3430000D02*
D03*
Y3530000D02*
D03*
X2310000Y4035000D02*
D03*
Y4135000D02*
D03*
X4125000Y5980000D02*
D03*
X2300000Y4820000D02*
D03*
Y4920000D02*
D03*
X2295000Y5430000D02*
D03*
Y5530000D02*
D03*
Y6020000D02*
D03*
Y6120000D02*
D03*
X4655000Y3735000D02*
D03*
X4525000D02*
D03*
X2930000Y3410000D02*
D03*
X3030000D02*
D03*
X3130000D02*
D03*
X3230000D02*
D03*
X3330000D02*
D03*
X3430000D02*
D03*
X3530000D02*
D03*
X3630000D02*
D03*
X3730000D02*
D03*
X3830000D02*
D03*
X3930000D02*
D03*
X4030000D02*
D03*
X4130000D02*
D03*
X4230000D02*
D03*
X4330000D02*
D03*
X4430000D02*
D03*
X4530000D02*
D03*
X4630000D02*
D03*
X4730000D02*
D03*
X3130000Y1065000D02*
D03*
X3030000D02*
D03*
X2930000D02*
D03*
X2045000Y3050000D02*
D03*
X2050000Y3640000D02*
D03*
X2040000Y4250000D02*
D03*
X2030000Y5045000D02*
D03*
X2025000Y5655000D02*
D03*
Y6255000D02*
D03*
X6120000Y9105000D02*
D03*
X2540000Y9095000D02*
D03*
X6120000Y8825000D02*
D03*
X3120000Y4215000D02*
D03*
Y4315000D02*
D03*
Y4415000D02*
D03*
Y4515000D02*
D03*
Y4615000D02*
D03*
X6140000Y1205000D02*
D03*
X5885000Y1210000D02*
D03*
X5600000Y1215000D02*
D03*
D60*
X2490000Y7515000D02*
D03*
X4495000Y6205000D02*
D03*
X1985000Y6595000D02*
D03*
X2320000Y2720000D02*
D03*
Y3330000D02*
D03*
X2310000Y3935000D02*
D03*
X2300000Y4720000D02*
D03*
X2295000Y5330000D02*
D03*
Y5920000D02*
D03*
X4655000Y3635000D02*
D03*
X4525000D02*
D03*
X6120000Y9205000D02*
D03*
X2540000Y8995000D02*
D03*
X6120000Y8925000D02*
D03*
X3120000Y4115000D02*
D03*
X6140000Y1105000D02*
D03*
X5885000Y1110000D02*
D03*
X5600000Y1115000D02*
D03*
D61*
X5570000Y1840000D02*
D03*
Y2290000D02*
D03*
Y2750000D02*
D03*
Y3350000D02*
D03*
X5575000Y3790000D02*
D03*
X5570000Y4250000D02*
D03*
Y4705000D02*
D03*
Y5300000D02*
D03*
Y5745000D02*
D03*
Y6205000D02*
D03*
Y6650000D02*
D03*
Y7235000D02*
D03*
Y7680000D02*
D03*
Y8125000D02*
D03*
Y8580000D02*
D03*
D62*
Y1740000D02*
D03*
Y1640000D02*
D03*
X5870000Y1840000D02*
D03*
Y1740000D02*
D03*
Y1640000D02*
D03*
X5570000Y2190000D02*
D03*
Y2090000D02*
D03*
X5870000Y2290000D02*
D03*
Y2190000D02*
D03*
Y2090000D02*
D03*
X5570000Y2650000D02*
D03*
Y2550000D02*
D03*
X5870000Y2750000D02*
D03*
Y2650000D02*
D03*
Y2550000D02*
D03*
X5570000Y3250000D02*
D03*
Y3150000D02*
D03*
X5870000Y3350000D02*
D03*
Y3250000D02*
D03*
Y3150000D02*
D03*
X5575000Y3690000D02*
D03*
Y3590000D02*
D03*
X5875000Y3790000D02*
D03*
Y3690000D02*
D03*
Y3590000D02*
D03*
X5570000Y4150000D02*
D03*
Y4050000D02*
D03*
X5870000Y4250000D02*
D03*
Y4150000D02*
D03*
Y4050000D02*
D03*
X5570000Y4605000D02*
D03*
Y4505000D02*
D03*
X5870000Y4705000D02*
D03*
Y4605000D02*
D03*
Y4505000D02*
D03*
X5570000Y5200000D02*
D03*
Y5100000D02*
D03*
X5870000Y5300000D02*
D03*
Y5200000D02*
D03*
Y5100000D02*
D03*
X5570000Y5645000D02*
D03*
Y5545000D02*
D03*
X5870000Y5745000D02*
D03*
Y5645000D02*
D03*
Y5545000D02*
D03*
X5570000Y6105000D02*
D03*
Y6005000D02*
D03*
X5870000Y6205000D02*
D03*
Y6105000D02*
D03*
Y6005000D02*
D03*
X5570000Y6550000D02*
D03*
Y6450000D02*
D03*
X5870000Y6650000D02*
D03*
Y6550000D02*
D03*
Y6450000D02*
D03*
X5570000Y7135000D02*
D03*
Y7035000D02*
D03*
X5870000Y7235000D02*
D03*
Y7135000D02*
D03*
Y7035000D02*
D03*
X5570000Y7580000D02*
D03*
Y7480000D02*
D03*
X5870000Y7680000D02*
D03*
Y7580000D02*
D03*
Y7480000D02*
D03*
X5570000Y8025000D02*
D03*
Y7925000D02*
D03*
X5870000Y8125000D02*
D03*
Y8025000D02*
D03*
Y7925000D02*
D03*
X5570000Y8480000D02*
D03*
Y8380000D02*
D03*
X5870000Y8580000D02*
D03*
Y8480000D02*
D03*
Y8380000D02*
D03*
D63*
X1428347Y7436339D02*
D03*
Y7953661D02*
D03*
D64*
X1535039Y7557205D02*
D03*
Y7655630D02*
D03*
Y7734370D02*
D03*
D65*
Y7832795D02*
D03*
D66*
X1223976Y2600000D02*
D03*
Y4251575D02*
D03*
X6771024Y2795000D02*
D03*
Y1143425D02*
D03*
X6770000Y4745000D02*
D03*
Y3093425D02*
D03*
X1223976Y4610000D02*
D03*
Y6261575D02*
D03*
X6771024Y6695000D02*
D03*
Y5043425D02*
D03*
X6780000Y9205000D02*
D03*
Y8931378D02*
D03*
X6771024Y8635000D02*
D03*
Y6983425D02*
D03*
D67*
X1444921Y8966024D02*
D03*
D68*
X1316968Y9155000D02*
D03*
D69*
X1563032D02*
D03*
D70*
X1339921Y8349213D02*
D03*
D71*
X1410000Y8630315D02*
D03*
Y8389370D02*
D03*
X1339921Y8590157D02*
D03*
Y8429528D02*
D03*
X1410000Y8550000D02*
D03*
Y8469685D02*
D03*
X1339921Y8509843D02*
D03*
X1599764Y8759843D02*
D03*
Y8219685D02*
D03*
Y8669685D02*
D03*
Y8309843D02*
D03*
D72*
X1239921Y8239764D02*
D03*
Y8739764D02*
D03*
D73*
X1374961Y8169882D02*
D03*
Y8809646D02*
D03*
D74*
X1145000Y835000D02*
D03*
X6855000Y825000D02*
D03*
X6850000Y9495000D02*
D03*
X1160000D02*
D03*
X1400000Y3055000D02*
D03*
Y3650000D02*
D03*
Y4250000D02*
D03*
Y5060000D02*
D03*
Y5660000D02*
D03*
Y6260000D02*
D03*
X6595000Y1295000D02*
D03*
Y1745000D02*
D03*
Y2195000D02*
D03*
Y2645000D02*
D03*
X6593976Y3245000D02*
D03*
Y3695000D02*
D03*
Y4145000D02*
D03*
Y4595000D02*
D03*
X6595000Y5195000D02*
D03*
Y5645000D02*
D03*
Y6095000D02*
D03*
Y6545000D02*
D03*
Y7135000D02*
D03*
Y7585000D02*
D03*
Y8035000D02*
D03*
Y8485000D02*
D03*
X1395000Y2605000D02*
D03*
X1405000Y3205000D02*
D03*
X1400000Y3800000D02*
D03*
X1390000Y4610000D02*
D03*
X1400000Y5210000D02*
D03*
X1405000Y5810000D02*
D03*
X6625000Y1145000D02*
D03*
X6620000Y1595000D02*
D03*
X6605000Y2045000D02*
D03*
Y2495000D02*
D03*
X6613976Y3095000D02*
D03*
X6608976Y3545000D02*
D03*
X6593976Y3995000D02*
D03*
X6603976Y4445000D02*
D03*
X6630000Y5045000D02*
D03*
X6615000Y5495000D02*
D03*
X6605000Y5945000D02*
D03*
Y6395000D02*
D03*
X6595000Y6985000D02*
D03*
X6605000Y7435000D02*
D03*
X6595000Y7885000D02*
D03*
Y8330000D02*
D03*
X6605000Y9205000D02*
D03*
D75*
X4415000Y4650000D02*
D03*
X4065000Y4780000D02*
D03*
X4470000Y5390000D02*
D03*
X4335000D02*
D03*
X4115000Y5600000D02*
D03*
X4080000Y5620000D02*
D03*
X3395000Y5510000D02*
D03*
X3360000Y5495000D02*
D03*
X3235000Y5275000D02*
D03*
X3185000D02*
D03*
X3290000Y4795000D02*
D03*
X3220000Y4890000D02*
D03*
X3445000Y4690000D02*
D03*
X3500000Y4620000D02*
D03*
X3565000Y4560000D02*
D03*
X3880000Y4650000D02*
D03*
X3850000Y4630000D02*
D03*
X3510000Y5475000D02*
D03*
X3495000Y5450000D02*
D03*
X3475000Y5430000D02*
D03*
X3465000Y4415000D02*
D03*
X4400000Y5025000D02*
D03*
X3935000Y5455000D02*
D03*
X3875000Y5510000D02*
D03*
X3830000Y5540000D02*
D03*
X3855000Y5490000D02*
D03*
X3800000Y5535000D02*
D03*
X3870000Y5465000D02*
D03*
X4010000Y5266000D02*
D03*
X4035000Y5340000D02*
D03*
X4065000D02*
D03*
X4005000Y5240000D02*
D03*
X3909231Y5321000D02*
D03*
X3960000Y5435000D02*
D03*
X4000000Y5210000D02*
D03*
X3995000Y5180000D02*
D03*
X3990000Y5150000D02*
D03*
X4015000Y5130000D02*
D03*
X4065000D02*
D03*
X3970000Y5285000D02*
D03*
X4235000Y5170000D02*
D03*
X4120000Y5003846D02*
D03*
X4105000Y4975000D02*
D03*
Y4945000D02*
D03*
X4030000Y4845000D02*
D03*
X4000000Y4805000D02*
D03*
X3995000Y4765000D02*
D03*
X3360000Y5075000D02*
D03*
X3385000Y5095000D02*
D03*
Y5365000D02*
D03*
X3605000Y5225000D02*
D03*
X3650000D02*
D03*
X3557000Y5198000D02*
D03*
X3635000Y5580000D02*
D03*
X3605000Y5520000D02*
D03*
X3660000Y5640000D02*
D03*
X3605000Y5590000D02*
D03*
X3625000Y5610000D02*
D03*
X3630971Y5651000D02*
D03*
X4095000Y4855000D02*
D03*
X4075000Y4830000D02*
D03*
X3955000Y4765000D02*
D03*
Y4730000D02*
D03*
X3905000Y4760000D02*
D03*
X3875000Y4765000D02*
D03*
X3830000Y4708000D02*
D03*
X4165000Y4895000D02*
D03*
X4135000Y4875000D02*
D03*
X4449747Y5014746D02*
D03*
X3935000Y5309000D02*
D03*
X3730000Y5640000D02*
D03*
X3375000Y5280000D02*
D03*
X3225000Y4860000D02*
D03*
X3370000Y5025000D02*
D03*
X3335000Y5045000D02*
D03*
X3397884Y4995357D02*
D03*
X3510000Y4915000D02*
D03*
X3475000D02*
D03*
X3512559Y4885000D02*
D03*
X3425000Y4780000D02*
D03*
X3480000Y4650000D02*
D03*
X4450000Y5775000D02*
D03*
Y5935000D02*
D03*
X4375000D02*
D03*
Y5775000D02*
D03*
X1940000Y820000D02*
D03*
X1650000Y1460000D02*
D03*
X1945000Y1550000D02*
D03*
X1680000Y1395000D02*
D03*
X3450000Y1605000D02*
D03*
X4485472Y8655000D02*
D03*
X4465472Y8675000D02*
D03*
X4445472Y8655000D02*
D03*
X4425472Y8675000D02*
D03*
X4785000Y8740000D02*
D03*
X3910000Y8720000D02*
D03*
X3550000Y8655000D02*
D03*
X3570000Y8635000D02*
D03*
X3590000Y8655000D02*
D03*
X3610000Y8635000D02*
D03*
X3035000Y8715000D02*
D03*
X2735000Y8630000D02*
D03*
X2715000Y8650000D02*
D03*
X2695000Y8630000D02*
D03*
X1775000Y2575000D02*
D03*
X1880000Y1465000D02*
D03*
X3665000Y5200000D02*
D03*
X3330000Y6230000D02*
D03*
X3365000Y6245000D02*
D03*
X1800000Y5560000D02*
D03*
X2270000Y3480000D02*
D03*
X1405000Y4405000D02*
D03*
X4257500Y4660000D02*
D03*
X3695000Y3870000D02*
D03*
X5345000Y960000D02*
D03*
X1815000Y3835000D02*
D03*
X2170000Y8080000D02*
D03*
X2105000Y8165000D02*
D03*
X1395000Y6665000D02*
D03*
X1275000Y6670000D02*
D03*
X1290000Y4410000D02*
D03*
X4650000Y6985000D02*
D03*
X4760000Y6975000D02*
D03*
X2835000Y5915000D02*
D03*
X2655000Y5945000D02*
D03*
X2815000Y4355000D02*
D03*
X2640000Y4360000D02*
D03*
X3640000Y2575000D02*
D03*
X3595000Y2825000D02*
D03*
X2210000Y2455000D02*
D03*
X2140000Y2570000D02*
D03*
X1660000Y2580000D02*
D03*
X1600000Y6445000D02*
D03*
X1735000Y6455000D02*
D03*
X3360000Y6665000D02*
D03*
X3410000Y6755000D02*
D03*
X2885000Y5790000D02*
D03*
X2710000Y5775000D02*
D03*
X2900000Y4455000D02*
D03*
X2695000Y4440000D02*
D03*
X3170000Y3575000D02*
D03*
X3220000Y3855000D02*
D03*
X3760000Y3610000D02*
D03*
X3810000Y2425000D02*
D03*
X3895000Y2635000D02*
D03*
X1935000Y2450000D02*
D03*
X1905000Y2565000D02*
D03*
X3215000Y6655000D02*
D03*
X3190000Y6830000D02*
D03*
X2665000Y5680000D02*
D03*
X2885000Y5685000D02*
D03*
X2900000Y4580000D02*
D03*
X2645000Y4570000D02*
D03*
X3315000Y3860000D02*
D03*
X3280000Y3470000D02*
D03*
X3740000Y2420000D02*
D03*
X3715000Y2815000D02*
D03*
X2050000Y2440000D02*
D03*
X2060000Y2575000D02*
D03*
X1605000Y4440000D02*
D03*
X1720000D02*
D03*
X1595000Y6555000D02*
D03*
X1720000D02*
D03*
Y7375000D02*
D03*
X1600000D02*
D03*
X4585000Y7630000D02*
D03*
X2940000Y7660000D02*
D03*
X4555000Y6655000D02*
D03*
X2920000Y6675000D02*
D03*
X2910000Y3925000D02*
D03*
X4525000Y4240000D02*
D03*
X4565000Y2155000D02*
D03*
X3105000Y2130000D02*
D03*
X2280000Y1170000D02*
D03*
X1945000D02*
D03*
X3975000Y3855000D02*
D03*
X3460000Y5890000D02*
D03*
X4285000Y6180000D02*
D03*
X4195000Y6270000D02*
D03*
X3410000Y5560000D02*
D03*
X3390000Y4695000D02*
D03*
X4165000Y5555000D02*
D03*
X4135000Y5155000D02*
D03*
X4100000Y5130000D02*
D03*
X4180000Y5115000D02*
D03*
X1800000Y4160000D02*
D03*
X1795000Y2960000D02*
D03*
X2235000Y5955000D02*
D03*
X2240000Y6065000D02*
D03*
X2160000Y6190000D02*
D03*
X1770000Y6215000D02*
D03*
X1880000Y5860000D02*
D03*
X2235000Y5370000D02*
D03*
Y5475000D02*
D03*
X2155000Y5600000D02*
D03*
X1865000Y5240000D02*
D03*
X1785000Y5020000D02*
D03*
X2165000Y4995000D02*
D03*
X2240000Y4855000D02*
D03*
X2235000Y4755000D02*
D03*
X1880000Y4650000D02*
D03*
X2175000Y3960000D02*
D03*
X2265000Y4080000D02*
D03*
X2180000Y4215000D02*
D03*
X1860000Y3855000D02*
D03*
X2260000Y3355000D02*
D03*
X2175000Y3600000D02*
D03*
X1785000D02*
D03*
X1870000Y3240000D02*
D03*
X2255000Y2755000D02*
D03*
X2260000Y2865000D02*
D03*
X2140000Y3010000D02*
D03*
X1875000Y2630000D02*
D03*
X2055000Y8445000D02*
D03*
X2085000Y7720000D02*
D03*
X1965000Y7120000D02*
D03*
X4355000Y6060000D02*
D03*
X3185000Y6300000D02*
D03*
X2075000Y1705000D02*
D03*
X1690000Y1205000D02*
D03*
X1895000Y1085000D02*
D03*
X2220000Y1470000D02*
D03*
X1900000Y1835000D02*
D03*
X1590000Y1830000D02*
D03*
X6005000Y975000D02*
D03*
X5800000Y970000D02*
D03*
X5585000Y985000D02*
D03*
X5355000Y1860000D02*
D03*
X5320000Y2125000D02*
D03*
X5355000Y2310000D02*
D03*
X5320000Y2575000D02*
D03*
X5360000Y2765000D02*
D03*
X5325000Y3180000D02*
D03*
X5360000Y3365000D02*
D03*
X5320000Y3615000D02*
D03*
X5365000Y3810000D02*
D03*
X5325000Y4080000D02*
D03*
X5360000Y4260000D02*
D03*
X5315000Y4535000D02*
D03*
X5355000Y4725000D02*
D03*
X5325000Y5130000D02*
D03*
X5355000Y5330000D02*
D03*
X5320000Y5575000D02*
D03*
X5355000Y5765000D02*
D03*
X5315000Y6035000D02*
D03*
X5355000Y6225000D02*
D03*
X5320000Y6475000D02*
D03*
X5355000Y6665000D02*
D03*
X5320000Y7055000D02*
D03*
X5355000Y7245000D02*
D03*
X5315000Y7505000D02*
D03*
X5355000Y7700000D02*
D03*
X5320000Y7950000D02*
D03*
X5355000Y8135000D02*
D03*
X5325000Y8415000D02*
D03*
X5350000Y8630000D02*
D03*
X5250000Y1580000D02*
D03*
X5935000Y1155000D02*
D03*
X5665000Y1140000D02*
D03*
X5385000Y1150000D02*
D03*
X4545000Y8930000D02*
D03*
X4465000D02*
D03*
X4395000D02*
D03*
Y8855000D02*
D03*
X4465000D02*
D03*
X4545000D02*
D03*
X4630000Y8740000D02*
D03*
X4705000D02*
D03*
X4860000D02*
D03*
X4410000Y8365000D02*
D03*
Y8425000D02*
D03*
Y8485000D02*
D03*
X4480000D02*
D03*
X4550000D02*
D03*
Y8550000D02*
D03*
X4480000D02*
D03*
X4410000D02*
D03*
X4315000Y8530000D02*
D03*
X4260000Y8275000D02*
D03*
X3400000Y8220000D02*
D03*
X3755000Y8720000D02*
D03*
X3835000D02*
D03*
X3985000D02*
D03*
X3605000Y8530000D02*
D03*
X3675000D02*
D03*
Y8465000D02*
D03*
X3535000Y8405000D02*
D03*
X3530000Y8345000D02*
D03*
X3535000Y8465000D02*
D03*
X3605000D02*
D03*
X3535000Y8530000D02*
D03*
X3440000Y8510000D02*
D03*
X3665000Y8830000D02*
D03*
X3525000Y8915000D02*
D03*
X3520000Y8835000D02*
D03*
X3590000D02*
D03*
X3670000Y8910000D02*
D03*
X3590000D02*
D03*
X2795000Y8830000D02*
D03*
X2715000D02*
D03*
X2645000D02*
D03*
X2795000Y8905000D02*
D03*
X2715000D02*
D03*
X2645000D02*
D03*
X2660000Y8460000D02*
D03*
X2730000D02*
D03*
X2800000D02*
D03*
X2660000Y8525000D02*
D03*
X2730000D02*
D03*
X2800000D02*
D03*
X2660000Y8400000D02*
D03*
Y8340000D02*
D03*
X2510000Y8250000D02*
D03*
X2675000Y8650000D02*
D03*
X2565000Y8505000D02*
D03*
X3110000Y8715000D02*
D03*
X2960000D02*
D03*
X2880000D02*
D03*
X3015000Y8135000D02*
D03*
Y8060000D02*
D03*
X3100000D02*
D03*
Y8135000D02*
D03*
Y8210000D02*
D03*
X3180000Y8135000D02*
D03*
X3265000D02*
D03*
X3180000Y8060000D02*
D03*
X3265000D02*
D03*
X3180000Y8210000D02*
D03*
X3265000D02*
D03*
Y5365000D02*
D03*
X3250000Y5845000D02*
D03*
X2027795Y7795000D02*
D03*
X2255000Y7530000D02*
D03*
X5015000Y8230000D02*
D03*
X1513720Y6833721D02*
D03*
X1510610Y7279390D02*
D03*
X2340000Y7225000D02*
D03*
X2305000Y7265000D02*
D03*
X2300000Y7295000D02*
D03*
X1821890Y2636890D02*
D03*
X1853780Y2963780D02*
D03*
X2165000Y2905000D02*
D03*
Y2670000D02*
D03*
X2160000Y3505000D02*
D03*
Y3275000D02*
D03*
X1853780Y3558780D02*
D03*
X1825000Y3245000D02*
D03*
X1853780Y4153780D02*
D03*
X2155000Y3900000D02*
D03*
Y4140000D02*
D03*
X2160000Y4935000D02*
D03*
X2159488Y4659488D02*
D03*
X1853780Y4963780D02*
D03*
Y5566220D02*
D03*
Y6166220D02*
D03*
X1821890Y4641890D02*
D03*
X1818780Y5231221D02*
D03*
X2140000Y5305000D02*
D03*
Y5545000D02*
D03*
X1680000Y1150000D02*
D03*
X2025000Y1605000D02*
D03*
X5240000Y1860000D02*
D03*
Y2315000D02*
D03*
X5235000Y2775000D02*
D03*
Y3375000D02*
D03*
Y3815000D02*
D03*
X5240000Y4275000D02*
D03*
Y4730000D02*
D03*
X5235000Y5320000D02*
D03*
X5240000Y5770000D02*
D03*
Y6230000D02*
D03*
X5230000Y6660000D02*
D03*
X5240000Y7250000D02*
D03*
X5235000Y7690000D02*
D03*
Y8130000D02*
D03*
X5230000Y8585000D02*
D03*
X6020000Y1070000D02*
D03*
X5745000D02*
D03*
X5480000Y1075000D02*
D03*
X4770000Y3755000D02*
D03*
X1995000Y8655000D02*
D03*
X1900000Y8520000D02*
D03*
X3320000Y6275000D02*
D03*
X3350000Y6280000D02*
D03*
X2335000Y7840000D02*
D03*
X2410000Y6690000D02*
D03*
X2380000Y6595000D02*
D03*
X2370000Y6950000D02*
D03*
X2360000Y7070000D02*
D03*
X4510000Y4805000D02*
D03*
X4140000Y5075000D02*
D03*
X4108760Y5035529D02*
D03*
X4435000Y5290000D02*
D03*
X3890000Y5390000D02*
D03*
X4375000Y5475000D02*
D03*
X4355000Y4610000D02*
D03*
X4190000Y4545000D02*
D03*
X4015000Y3755000D02*
D03*
X4270000Y4530000D02*
D03*
X4170000Y5020811D02*
D03*
X4180000Y5070000D02*
D03*
X4130000Y5125000D02*
D03*
X4040000Y5110000D02*
D03*
X3820000Y4735000D02*
D03*
X3795000Y4700000D02*
D03*
X3470000Y6170000D02*
D03*
X3495000Y6030000D02*
D03*
X3830000Y5225000D02*
D03*
X3665000Y5290000D02*
D03*
X3630000Y5265000D02*
D03*
X3860000Y4735000D02*
D03*
X3740000Y5280000D02*
D03*
X4215000Y5080000D02*
D03*
X3325000Y5960000D02*
D03*
X3855000Y5250000D02*
D03*
X3880000Y5275000D02*
D03*
X3635000Y6110000D02*
D03*
X3610000Y6085000D02*
D03*
X3590000Y6060000D02*
D03*
X3470000Y6080000D02*
D03*
X3775000Y4810000D02*
D03*
X3365000Y5985000D02*
D03*
X3510000Y5070000D02*
D03*
X3810000Y4860000D02*
D03*
X3540000Y5040000D02*
D03*
X3690000Y4845000D02*
D03*
X3720000Y4850000D02*
D03*
X3760000Y4855000D02*
D03*
X3800000Y4795000D02*
D03*
X4205000Y5040000D02*
D03*
X3830000Y4670000D02*
D03*
X3995000Y6200000D02*
D03*
X4285000Y6250000D02*
D03*
X3665000Y4830000D02*
D03*
X3590000Y5190000D02*
D03*
X3650000Y4875000D02*
D03*
X3620000Y5125000D02*
D03*
X3610000Y5045000D02*
D03*
X3530000Y5000000D02*
D03*
X3925000Y5280000D02*
D03*
X3805000Y5445000D02*
D03*
X1480000Y1810000D02*
D03*
X2625000Y3330000D02*
D03*
X3435000Y5070000D02*
D03*
X3518883Y5115000D02*
D03*
X3850000Y5385000D02*
D03*
X3855000Y5415000D02*
D03*
X4760000Y8160000D02*
D03*
Y8085000D02*
D03*
X4845000D02*
D03*
Y8160000D02*
D03*
Y8235000D02*
D03*
X4925000Y8160000D02*
D03*
X5010000D02*
D03*
X4925000Y8085000D02*
D03*
X5010000D02*
D03*
X4925000Y8235000D02*
D03*
X4140000Y8215000D02*
D03*
X4055000D02*
D03*
X4140000Y8065000D02*
D03*
X4055000D02*
D03*
X4140000Y8140000D02*
D03*
X4055000D02*
D03*
X3975000Y8215000D02*
D03*
Y8140000D02*
D03*
Y8065000D02*
D03*
X3890000D02*
D03*
Y8140000D02*
D03*
X5225000Y8500000D02*
D03*
X2345000Y8855000D02*
D03*
X5515000Y8770000D02*
D03*
X5340000Y8865000D02*
D03*
X4070000Y3665000D02*
D03*
X2025000Y1760000D02*
D03*
X2340000Y1390000D02*
D03*
X2005000D02*
D03*
X1995000Y1010000D02*
D03*
X1590000Y985000D02*
D03*
X1365000Y1635000D02*
D03*
X6155000Y930000D02*
D03*
X5365000Y855000D02*
D03*
X6175000Y815000D02*
D03*
X5360000Y1420000D02*
D03*
X5395000Y1095000D02*
D03*
X5225000Y1785000D02*
D03*
X5230000Y1695000D02*
D03*
X5225000Y2240000D02*
D03*
Y2125000D02*
D03*
X5235000Y2695000D02*
D03*
X5230000Y2595000D02*
D03*
X5220000Y3300000D02*
D03*
X5225000Y3205000D02*
D03*
X5230000Y3740000D02*
D03*
X5235000Y3645000D02*
D03*
X5225000Y4205000D02*
D03*
Y4100000D02*
D03*
X5230000Y4570000D02*
D03*
X5235000Y4660000D02*
D03*
X5230000Y5245000D02*
D03*
X5235000Y5155000D02*
D03*
X5220000Y5695000D02*
D03*
X5230000Y5595000D02*
D03*
X5220000Y6155000D02*
D03*
X5230000Y6055000D02*
D03*
X5225000Y6585000D02*
D03*
X5230000Y6490000D02*
D03*
X5240000Y7175000D02*
D03*
X5235000Y7075000D02*
D03*
X5220000Y7535000D02*
D03*
X5230000Y7620000D02*
D03*
X5240000Y8030000D02*
D03*
X5245000Y7970000D02*
D03*
X5230000Y8435000D02*
D03*
X1835000Y5855000D02*
D03*
X2145000Y6145000D02*
D03*
X2150000Y5895000D02*
D03*
X1645000Y7230000D02*
D03*
X1515000Y6940000D02*
D03*
Y7080000D02*
D03*
X1510000Y6990000D02*
D03*
X1650000Y6810000D02*
D03*
X1640000Y7075000D02*
D03*
X1745000Y7155000D02*
D03*
X1935000Y7690000D02*
D03*
X1850000Y7475000D02*
D03*
X1825000Y8285000D02*
D03*
Y8410000D02*
D03*
Y8695000D02*
D03*
X1840000Y8855000D02*
D03*
X1970000Y8825000D02*
D03*
X1955000Y8185000D02*
D03*
X1865000Y8135000D02*
D03*
X2050000Y8260000D02*
D03*
X1845000Y8635000D02*
D03*
X1520000Y8390000D02*
D03*
X1510000Y8470000D02*
D03*
X1520000Y8570000D02*
D03*
X1515000Y8510000D02*
D03*
X4595000Y8075000D02*
D03*
X3730000Y8060000D02*
D03*
X2865000Y8045000D02*
D03*
X3455000Y4535000D02*
D03*
X4020000Y6110000D02*
D03*
X4285000Y6105000D02*
D03*
X4190000Y6045000D02*
D03*
X3495000Y6155000D02*
D03*
X3235000Y6175000D02*
D03*
X3240000Y6130000D02*
D03*
X3325000Y5995000D02*
D03*
X3395000Y5970000D02*
D03*
X3230000Y6280000D02*
D03*
X3175000Y6055000D02*
D03*
X3009419Y5959419D02*
D03*
X3080000Y6055000D02*
D03*
X3009419Y6155581D02*
D03*
X4580000Y4870000D02*
D03*
X4625000Y4925000D02*
D03*
X4485000Y4770000D02*
D03*
X3610000Y4330000D02*
D03*
X3570000Y4375000D02*
D03*
D76*
X3333150Y6136811D02*
D03*
X3376457D02*
D03*
X3333150Y6093504D02*
D03*
X3376457D02*
D03*
%TF.MD5,bce02b17a783de33d6fb833a9ffe9d0f*%
M02*
