%TF.GenerationSoftware,Altium Limited,Altium Designer,19.1.5 (86)*%
G04 Layer_Color=32768*
%FSLAX26Y26*%
%MOIN*%
%TF.FileFunction,Other,Mechanical_15*%
%TF.Part,Single*%
G01*
G75*
%TA.AperFunction,NonConductor*%
%ADD98C,0.003937*%
%ADD153C,0.001968*%
D98*
X1995315Y7795000D02*
X2034685D01*
X2015000Y7775315D02*
Y7814685D01*
X1965000Y2820315D02*
Y2859685D01*
X1945315Y2840000D02*
X1984685D01*
X1965000Y3420315D02*
Y3459685D01*
X1945315Y3440000D02*
X1984685D01*
X1965000Y4020315D02*
Y4059685D01*
X1945315Y4040000D02*
X1984685D01*
X1965000Y4820315D02*
Y4859685D01*
X1945315Y4840000D02*
X1984685D01*
X1965000Y5425315D02*
Y5464685D01*
X1945315Y5445000D02*
X1984685D01*
X1965000Y6025315D02*
Y6064685D01*
X1945315Y6045000D02*
X1984685D01*
X1230315Y7060000D02*
X1269685D01*
X1250000Y7040315D02*
Y7079685D01*
X1164134Y1384803D02*
Y1735197D01*
Y1384803D02*
X1305866D01*
Y1735197D01*
X1164134D02*
X1305866D01*
X1485847Y7675315D02*
Y7714685D01*
X1466161Y7695000D02*
X1505532D01*
X1440000Y9135315D02*
Y9174685D01*
X1420315Y9155000D02*
X1459685D01*
X1920866Y1094803D02*
Y1445197D01*
X1779134D02*
X1920866D01*
X1779134Y1094803D02*
Y1445197D01*
Y1094803D02*
X1920866D01*
X2255866D02*
Y1445197D01*
X2114134D02*
X2255866D01*
X2114134Y1094803D02*
Y1445197D01*
Y1094803D02*
X2255866D01*
X1920866Y719803D02*
Y1070197D01*
X1779134D02*
X1920866D01*
X1779134Y719803D02*
Y1070197D01*
Y719803D02*
X1920866D01*
X1585866Y1089803D02*
Y1440197D01*
X1444134D02*
X1585866D01*
X1444134Y1089803D02*
Y1440197D01*
Y1089803D02*
X1585866D01*
X1920866Y1469803D02*
Y1820197D01*
X1779134D02*
X1920866D01*
X1779134Y1469803D02*
Y1820197D01*
Y1469803D02*
X1920866D01*
D153*
X1946102Y7730039D02*
Y7859961D01*
X2083898Y7730039D02*
Y7859961D01*
X1946102D02*
X2083898D01*
X1946102Y7730039D02*
X2083898D01*
X1801614Y2958110D02*
X2128386D01*
X1801614Y2721890D02*
X2128386D01*
X1801614D02*
Y2958110D01*
X2128386Y2721890D02*
Y2958110D01*
X1801614Y3558110D02*
X2128386D01*
X1801614Y3321890D02*
X2128386D01*
X1801614D02*
Y3558110D01*
X2128386Y3321890D02*
Y3558110D01*
X1801614Y4158110D02*
X2128386D01*
X1801614Y3921890D02*
X2128386D01*
X1801614D02*
Y4158110D01*
X2128386Y3921890D02*
Y4158110D01*
X1801614Y4958110D02*
X2128386D01*
X1801614Y4721890D02*
X2128386D01*
X1801614D02*
Y4958110D01*
X2128386Y4721890D02*
Y4958110D01*
X1801614Y5563110D02*
X2128386D01*
X1801614Y5326890D02*
X2128386D01*
X1801614D02*
Y5563110D01*
X2128386Y5326890D02*
Y5563110D01*
X1801614Y6163110D02*
X2128386D01*
X1801614Y5926890D02*
X2128386D01*
X1801614D02*
Y6163110D01*
X2128386Y5926890D02*
Y6163110D01*
X1006398Y6806752D02*
Y7313839D01*
X1488681D01*
Y6806752D02*
Y7313839D01*
X1006398Y6806752D02*
X1488681D01*
X1578740Y7371535D02*
Y8018465D01*
X1019685Y7371535D02*
X1578740D01*
X1019685D02*
Y8018465D01*
Y8018465D02*
X1578740D01*
X1015787Y8936496D02*
Y9336102D01*
X1597480Y8936496D02*
Y9336102D01*
X1015787D02*
X1597480D01*
X1015787Y8936496D02*
X1597480D01*
X1315315Y8489764D02*
X1354685D01*
X1335000Y8470079D02*
Y8509449D01*
X999567Y8883465D02*
X1662559D01*
X999567Y8096063D02*
Y8883465D01*
Y8096063D02*
X1662559D01*
Y8883465D01*
%TF.MD5,6f996609fcff966dc99b971fc8f50147*%
M02*
