%TF.GenerationSoftware,Altium Limited,Altium Designer,19.1.5 (86)*%
G04 Layer_Color=16711935*
%FSLAX26Y26*%
%MOIN*%
%TF.FileFunction,Other,Mechanical_13*%
%TF.Part,Single*%
G01*
G75*
%TA.AperFunction,NonConductor*%
%ADD98C,0.003937*%
D98*
X2027992Y2777008D02*
G03*
X2027992Y2777008I-19685J0D01*
G01*
Y3377008D02*
G03*
X2027992Y3377008I-19685J0D01*
G01*
Y3977008D02*
G03*
X2027992Y3977008I-19685J0D01*
G01*
Y4777008D02*
G03*
X2027992Y4777008I-19685J0D01*
G01*
Y5382008D02*
G03*
X2027992Y5382008I-19685J0D01*
G01*
Y5982008D02*
G03*
X2027992Y5982008I-19685J0D01*
G01*
X1417815Y7096921D02*
G03*
X1413878Y7092984I0J-3937D01*
G01*
X1360728Y7252421D02*
G03*
X1368602Y7260295I0J7874D01*
G01*
X1150886Y6958130D02*
G03*
X1158760Y6950256I7874J0D01*
G01*
X1174508Y7080177D02*
G03*
X1182382Y7088051I0J7874D01*
G01*
X1158760Y6895138D02*
G03*
X1150886Y6887264I0J-7874D01*
G01*
X1024901Y6873287D02*
G03*
X1036712Y6885098I0J11811D01*
G01*
X1413878Y6986685D02*
G03*
X1417815Y6982748I3937J0D01*
G01*
X1111909Y7185886D02*
G03*
X1135531Y7209508I0J23622D01*
G01*
X1337106Y7276043D02*
G03*
X1329232Y7268169I0J-7874D01*
G01*
X1150886Y7001437D02*
G03*
X1158760Y6993563I7874J0D01*
G01*
X1182382Y7103799D02*
G03*
X1174508Y7111673I-7874J0D01*
G01*
X1135531Y7242973D02*
G03*
X1111909Y7266595I-23622J0D01*
G01*
X1174508Y7147106D02*
G03*
X1166634Y7154980I-7874J0D01*
G01*
X1417815Y6887657D02*
G03*
X1437500Y6867972I19685J0D01*
G01*
X1329232Y7260295D02*
G03*
X1337106Y7252421I7874J0D01*
G01*
X1472933Y6856161D02*
G03*
X1461122Y6867972I-11811J0D01*
G01*
X1174508Y6993563D02*
G03*
X1182382Y7001437I0J7874D01*
G01*
X1064665Y7266595D02*
G03*
X1048917Y7250847I0J-15748D01*
G01*
X1192224Y6973878D02*
G03*
X1184350Y6981752I-7874J0D01*
G01*
X1048917Y7209508D02*
G03*
X1072539Y7185886I23622J0D01*
G01*
X1036712Y6885886D02*
G03*
X1032775Y6889823I-3937J0D01*
G01*
X1192224Y7060492D02*
G03*
X1184350Y7068366I-7874J0D01*
G01*
X1453248Y7208917D02*
G03*
X1472933Y7228602I0J19685D01*
G01*
X1158760Y6981752D02*
G03*
X1150886Y6973878I0J-7874D01*
G01*
X1158760Y7025059D02*
G03*
X1150886Y7017185I0J-7874D01*
G01*
Y6914823D02*
G03*
X1158760Y6906949I7874J0D01*
G01*
Y7068366D02*
G03*
X1150886Y7060492I0J-7874D01*
G01*
X1143012Y7131358D02*
G03*
X1150886Y7123484I7874J0D01*
G01*
X1174508Y6863642D02*
G03*
X1182382Y6871516I0J7874D01*
G01*
X1417815Y6990622D02*
G03*
X1413878Y6986685I0J-3937D01*
G01*
X1198523Y7248878D02*
G03*
X1210334Y7237067I11811J0D01*
G01*
X1166634Y7123484D02*
G03*
X1174508Y7131358I0J7874D01*
G01*
X1150886Y7174665D02*
G03*
X1158760Y7166791I7874J0D01*
G01*
X1174508Y6906949D02*
G03*
X1182382Y6914823I0J7874D01*
G01*
Y7017185D02*
G03*
X1174508Y7025059I-7874J0D01*
G01*
X1158760Y6938445D02*
G03*
X1150886Y6930571I0J-7874D01*
G01*
X1182382Y6887264D02*
G03*
X1174508Y6895138I-7874J0D01*
G01*
X1182382Y6930571D02*
G03*
X1174508Y6938445I-7874J0D01*
G01*
X1184350Y7036870D02*
G03*
X1192224Y7044744I0J7874D01*
G01*
X1036712Y6837854D02*
G03*
X1024901Y6849665I-11811J0D01*
G01*
X1174508Y7166791D02*
G03*
X1182382Y7174665I0J7874D01*
G01*
X1368602Y7268169D02*
G03*
X1360728Y7276043I-7874J0D01*
G01*
X1210334Y7268563D02*
G03*
X1198523Y7256752I0J-11811D01*
G01*
X1150886Y6871516D02*
G03*
X1158760Y6863642I7874J0D01*
G01*
X1184350Y6950256D02*
G03*
X1192224Y6958130I0J7874D01*
G01*
X1158760Y7198288D02*
G03*
X1150886Y7190413I0J-7874D01*
G01*
X1413878Y7092984D02*
G03*
X1417815Y7089047I3937J0D01*
G01*
X1222146Y7237067D02*
G03*
X1233957Y7248878I0J11811D01*
G01*
X1182382Y7190413D02*
G03*
X1174508Y7198288I-7874J0D01*
G01*
X1437500Y7208917D02*
G03*
X1417815Y7189232I0J-19685D01*
G01*
X1233957Y7256752D02*
G03*
X1222146Y7268563I-11811J0D01*
G01*
X1158760Y7111673D02*
G03*
X1150886Y7103799I0J-7874D01*
G01*
Y7088051D02*
G03*
X1158760Y7080177I7874J0D01*
G01*
X1150886Y7154980D02*
G03*
X1143012Y7147106I0J-7874D01*
G01*
X1150886Y7044744D02*
G03*
X1158760Y7036870I7874J0D01*
G01*
X1085000Y8814567D02*
G03*
X1113804Y8826049I-42106J147503D01*
G01*
X1146564Y8840590D02*
G03*
X1113804Y8826049I666431J-1545546D01*
G01*
X1024982Y8312500D02*
G03*
X1024989Y8217413I59971J-47539D01*
G01*
Y8762115D02*
G03*
X1024982Y8667028I59964J-47548D01*
G01*
X1277525Y8867291D02*
G03*
X1146564Y8840590I445314J-2518680D01*
G01*
X1277525Y8867291D02*
G03*
X1293873Y8875382I-4153J28950D01*
G01*
Y8104145D02*
G03*
X1277525Y8112237I-20500J-20859D01*
G01*
X1146564Y8138938D02*
G03*
X1277525Y8112237I576276J2491979D01*
G01*
X1113804Y8153479D02*
G03*
X1146564Y8138938I699190J1531005D01*
G01*
X1113804Y8153479D02*
G03*
X1085000Y8164961I-70910J-136022D01*
G01*
X1980551Y7734961D02*
Y7855039D01*
X2049449Y7734961D02*
Y7855039D01*
X1980551D02*
X2049449D01*
X1980551Y7734961D02*
X2049449D01*
X1886260Y2938425D02*
X2043740D01*
X1886260Y2741575D02*
X2043740D01*
X1886260D02*
Y2938425D01*
X2043740Y2741575D02*
Y2938425D01*
X1886260Y3538425D02*
X2043740D01*
X1886260Y3341575D02*
X2043740D01*
X1886260D02*
Y3538425D01*
X2043740Y3341575D02*
Y3538425D01*
X1886260Y4138425D02*
X2043740D01*
X1886260Y3941575D02*
X2043740D01*
X1886260D02*
Y4138425D01*
X2043740Y3941575D02*
Y4138425D01*
X1886260Y4938425D02*
X2043740D01*
X1886260Y4741575D02*
X2043740D01*
X1886260D02*
Y4938425D01*
X2043740Y4741575D02*
Y4938425D01*
X1886260Y5543425D02*
X2043740D01*
X1886260Y5346575D02*
X2043740D01*
X1886260D02*
Y5543425D01*
X2043740Y5346575D02*
Y5543425D01*
X1886260Y6143425D02*
X2043740D01*
X1886260Y5946575D02*
X2043740D01*
X1886260D02*
Y6143425D01*
X2043740Y5946575D02*
Y6143425D01*
X1072539Y7185886D02*
X1111909D01*
X1417815Y6990622D02*
Y7089047D01*
X1441943Y6916004D02*
X1449483D01*
X1158760Y7080177D02*
X1174508D01*
X1455967Y7089232D02*
X1470965D01*
X1192224Y7044744D02*
Y7060492D01*
X1452951Y7145925D02*
X1455967D01*
X1433563Y6886083D02*
X1441943D01*
X1455967Y7059311D02*
X1470965D01*
X1472933Y7228602D02*
Y7286870D01*
X1449483Y6886083D02*
X1452951D01*
X1158760Y6981752D02*
X1184350D01*
X1143012Y7131358D02*
Y7147106D01*
X1433563Y6972697D02*
Y7002618D01*
X1150886Y6871516D02*
Y6887264D01*
X1455967Y7132539D02*
X1470965D01*
X1455967Y6972697D02*
X1470965D01*
X1024114Y6849665D02*
Y6873287D01*
X1452951Y7002618D02*
X1455967D01*
X1433563Y6872697D02*
X1441943D01*
X1150886Y6958130D02*
Y6973878D01*
X1441943Y7145925D02*
X1449483D01*
X1433563Y7089232D02*
X1441943D01*
X1449483Y6872697D02*
X1452951D01*
X1158760Y7036870D02*
X1184350D01*
X1433563Y6929390D02*
X1441943D01*
X1158760Y6950256D02*
X1184350D01*
X1470965Y7089232D02*
Y7102618D01*
X1441943Y6972697D02*
X1449483D01*
X1150886Y7044744D02*
Y7060492D01*
X1433563Y7002618D02*
X1441943D01*
X1024114Y7290807D02*
X1036712D01*
Y7286870D02*
Y7295532D01*
X1174508Y7131358D02*
Y7147106D01*
X1337106Y7276043D02*
X1360728D01*
X1441943Y7059311D02*
X1449483D01*
X1135531Y7209508D02*
Y7242973D01*
X1452951Y7189232D02*
X1455967D01*
X1449483Y7145925D02*
X1452951D01*
X1470965Y7132539D02*
Y7145925D01*
X1437500Y6867972D02*
X1461122D01*
X1182382Y7174665D02*
Y7190413D01*
X1452951Y6886083D02*
X1455967D01*
X1433563Y7145925D02*
Y7175846D01*
X1024114Y7173288D02*
X1032775D01*
X1455967Y6929390D02*
X1470965D01*
X1433563Y6916004D02*
X1441943D01*
X1433563Y7175846D02*
X1441943D01*
X1024114Y7283524D02*
Y7290807D01*
X1233957Y7248878D02*
Y7256752D01*
X1455967Y6916004D02*
X1470965D01*
X1337106Y7252421D02*
X1360728D01*
X1470965Y7002618D02*
Y7016004D01*
X1024114Y6849665D02*
X1024901D01*
X1048917Y7209508D02*
Y7250847D01*
X1150886Y6914823D02*
Y6930571D01*
X1452951Y7102618D02*
X1455967D01*
Y7002618D02*
X1470965D01*
X1433563Y7132539D02*
X1441943D01*
X1198523Y7248878D02*
Y7256752D01*
X1455967Y7045925D02*
X1470965D01*
X1452951Y7132539D02*
X1455967D01*
X1441943Y6886083D02*
X1449483D01*
X1158760Y7025059D02*
X1174508D01*
X1210334Y7237067D02*
X1222146D01*
X1024114Y6889823D02*
Y7172106D01*
X1433563Y7189232D02*
Y7208520D01*
X1150886Y7088051D02*
Y7103799D01*
X1433563Y7045925D02*
X1441943D01*
X1158760Y7166791D02*
X1174508D01*
X1441943Y6959311D02*
X1449483D01*
X1470965Y6872697D02*
Y6886083D01*
X1024114Y6889823D02*
X1032775D01*
X1433563Y7189232D02*
X1441943D01*
X1452951Y6916004D02*
X1455967D01*
X1150886Y7154980D02*
X1166634D01*
X1470965Y7045925D02*
Y7059311D01*
X1441943Y7002618D02*
X1449483D01*
X1210334Y7268563D02*
X1222146D01*
X1441943Y7189232D02*
X1449483D01*
X1024114Y6829783D02*
X1036712D01*
X1449483Y7132539D02*
X1452951D01*
X1024114Y7283524D02*
X1036712D01*
X1182382Y7088051D02*
Y7103799D01*
X1452951Y7016004D02*
X1455967D01*
X1182382Y6871516D02*
Y6887264D01*
X1368602Y7260295D02*
Y7268169D01*
X1158760Y7198288D02*
X1174508D01*
X1433563Y6972697D02*
X1441943D01*
X1449483Y7059311D02*
X1452951D01*
X1441943Y7132539D02*
X1449483D01*
X1158760Y7068366D02*
X1184350D01*
X1470965Y6959311D02*
Y6972697D01*
X1472933Y7286870D02*
Y7295532D01*
X1449483Y7175846D02*
X1452951D01*
X1150886Y7001437D02*
Y7017185D01*
X1455967Y6959311D02*
X1470965D01*
X1452951Y7175846D02*
X1455967D01*
X1433563Y7145925D02*
X1441943D01*
X1433563Y7016004D02*
X1441943D01*
X1449483Y7102618D02*
X1452951D01*
X1036712Y6825059D02*
X1472933D01*
X1024114Y6829783D02*
Y6849665D01*
X1158760Y6906949D02*
X1174508D01*
X1455967Y6872697D02*
X1470965D01*
X1452951Y7089232D02*
X1455967D01*
X1437500Y7208917D02*
X1453248D01*
X1452951Y6929390D02*
X1455967D01*
X1472933Y6825059D02*
Y6833720D01*
X1024114Y7172106D02*
X1025060D01*
X1433563Y6886083D02*
Y6916004D01*
X1182382Y7001437D02*
Y7017185D01*
X1452951Y6972697D02*
X1455967D01*
X1150886Y7174665D02*
Y7190413D01*
X1449483Y6916004D02*
X1452951D01*
X1470965D02*
Y6929390D01*
X1024114Y7173288D02*
Y7283524D01*
X1452951Y6959311D02*
X1455967D01*
Y7145925D02*
X1470965D01*
X1064665Y7266595D02*
X1111909D01*
X1158760Y6938445D02*
X1174508D01*
X1158760Y6863642D02*
X1174508D01*
X1433563Y7059311D02*
Y7089232D01*
X1036712Y6885098D02*
Y6885886D01*
X1433563Y6929390D02*
Y6959311D01*
X1472933Y6833720D02*
Y6856161D01*
X1455967Y7175846D02*
X1470965D01*
X1329232Y7260295D02*
Y7268169D01*
X1433563Y7102618D02*
X1441943D01*
X1455967Y7189232D02*
X1470965D01*
X1449483Y7089232D02*
X1452951D01*
X1449483Y6929390D02*
X1452951D01*
X1441943Y7175846D02*
X1449483D01*
Y7002618D02*
X1452951D01*
Y6872697D02*
X1455967D01*
X1449483Y7189232D02*
X1452951D01*
X1449483Y7016004D02*
X1452951D01*
X1036712Y7283524D02*
Y7286870D01*
Y7295532D02*
X1472933D01*
X1441943Y7045925D02*
X1449483D01*
X1025060Y7172106D02*
Y7173288D01*
X1433563Y6868370D02*
Y6872697D01*
X1449483Y7045925D02*
X1452951D01*
X1024114Y6873287D02*
X1024901D01*
X1452951Y7045925D02*
X1455967D01*
X1158760Y6993563D02*
X1174508D01*
X1455967Y7016004D02*
X1470965D01*
X1150886Y7123484D02*
X1166634D01*
X1441943Y7089232D02*
X1449483D01*
X1441943Y6929390D02*
X1449483D01*
X1433563Y6959311D02*
X1441943D01*
X1433563Y7102618D02*
Y7132539D01*
X1441943Y7102618D02*
X1449483D01*
X1182382Y6914823D02*
Y6930571D01*
X1470965Y7175846D02*
Y7189232D01*
X1449483Y6959311D02*
X1452951D01*
X1417815Y6887657D02*
Y6982748D01*
X1452951Y7059311D02*
X1455967D01*
X1441943Y6872697D02*
X1449483D01*
X1455967Y7102618D02*
X1470965D01*
X1036712Y6825059D02*
Y6833720D01*
X1158760Y7111673D02*
X1174508D01*
X1433563Y7016004D02*
Y7045925D01*
X1028838Y6873963D02*
Y6889823D01*
X1158760Y6895138D02*
X1174508D01*
X1441943Y7016004D02*
X1449483D01*
X1455967Y6886083D02*
X1470965D01*
X1433563Y7059311D02*
X1441943D01*
X1417815Y7096921D02*
Y7189232D01*
X1036712Y6833720D02*
Y6837854D01*
X1449483Y6972697D02*
X1452951D01*
X1192224Y6958130D02*
Y6973878D01*
X1574803Y7436535D02*
Y7953465D01*
X1023622D02*
X1574803D01*
X1023622Y7436535D02*
Y7953465D01*
Y7436535D02*
X1574803D01*
X1590591Y8977835D02*
Y9332165D01*
X1019724D02*
X1590591D01*
X1019724Y8977835D02*
Y9332165D01*
Y8977835D02*
X1590591D01*
X1024961Y8164961D02*
Y8814567D01*
X1645039Y8164961D02*
Y8814567D01*
X1024961D02*
X1645039D01*
X1024961Y8164961D02*
X1645039D01*
%TF.MD5,d18f4421edcd24941ae70d673f01e77b*%
M02*
