%TF.GenerationSoftware,Altium Limited,Altium Designer,19.1.5 (86)*%
G04 Layer_Physical_Order=3*
G04 Layer_Color=16440176*
%FSLAX26Y26*%
%MOIN*%
%TF.FileFunction,Copper,L3,Inr,Signal*%
%TF.Part,Single*%
G01*
G75*
%TA.AperFunction,Conductor*%
%ADD36C,0.010000*%
%TA.AperFunction,ComponentPad*%
%ADD37R,0.059055X0.059055*%
%ADD38C,0.059055*%
%ADD39C,0.060000*%
%TA.AperFunction,ViaPad*%
%ADD40C,0.020000*%
%ADD41C,0.106299*%
G36*
X4717547Y3345000D02*
X4717255Y3344912D01*
X4706979Y3339419D01*
X4697972Y3332028D01*
X4690581Y3323021D01*
X4685088Y3312745D01*
X4681706Y3301595D01*
X4680564Y3290000D01*
X4681706Y3278405D01*
X4685088Y3267255D01*
X4690581Y3256979D01*
X4697972Y3247972D01*
X4706979Y3240581D01*
X4717255Y3235088D01*
X4728405Y3231706D01*
X4740000Y3230564D01*
X4751595Y3231706D01*
X4762745Y3235088D01*
X4773021Y3240581D01*
X4782028Y3247972D01*
X4789419Y3256979D01*
X4794912Y3267255D01*
X4795000Y3267547D01*
X4800000Y3266805D01*
Y1388187D01*
X4795000Y1386934D01*
X4794419Y1388021D01*
X4787028Y1397027D01*
X4778021Y1404419D01*
X4767745Y1409911D01*
X4756595Y1413294D01*
X4745000Y1414436D01*
X4733405Y1413294D01*
X4722255Y1409911D01*
X4711979Y1404419D01*
X4702972Y1397027D01*
X4695581Y1388021D01*
X4690088Y1377745D01*
X4686706Y1366595D01*
X4685564Y1355000D01*
X4686706Y1343405D01*
X4690088Y1332255D01*
X4695581Y1321979D01*
X4702972Y1312973D01*
X4711979Y1305581D01*
X4713066Y1305000D01*
X4711814Y1300000D01*
X3358186D01*
X3356934Y1305000D01*
X3358021Y1305581D01*
X3367028Y1312973D01*
X3374419Y1321979D01*
X3379912Y1332255D01*
X3383294Y1343405D01*
X3384436Y1355000D01*
X3383294Y1366595D01*
X3379912Y1377745D01*
X3374419Y1388021D01*
X3367028Y1397027D01*
X3358021Y1404419D01*
X3347745Y1409911D01*
X3336595Y1413294D01*
X3325000Y1414436D01*
X3313405Y1413294D01*
X3302255Y1409911D01*
X3291979Y1404419D01*
X3282972Y1397027D01*
X3280000Y1393406D01*
X3275000Y1395195D01*
Y3253944D01*
X3280000Y3256309D01*
X3286979Y3250581D01*
X3297255Y3245088D01*
X3308405Y3241706D01*
X3320000Y3240564D01*
X3331595Y3241706D01*
X3342745Y3245088D01*
X3353021Y3250581D01*
X3362028Y3257972D01*
X3369419Y3266979D01*
X3374912Y3277255D01*
X3378294Y3288405D01*
X3379436Y3300000D01*
X3378294Y3311595D01*
X3374912Y3322745D01*
X3369419Y3333021D01*
X3362028Y3342028D01*
X3358405Y3345000D01*
X3360195Y3350000D01*
X3947606D01*
X3949519Y3345381D01*
X3890377Y3286238D01*
X3890000Y3286314D01*
X3883757Y3285072D01*
X3878465Y3281535D01*
X3874928Y3276243D01*
X3873686Y3270000D01*
X3874928Y3263757D01*
X3878465Y3258465D01*
X3883757Y3254928D01*
X3890000Y3253686D01*
X3896243Y3254928D01*
X3901535Y3258465D01*
X3905072Y3263757D01*
X3906314Y3270000D01*
X3906238Y3270377D01*
X3985861Y3350000D01*
X4020785D01*
Y3268001D01*
X4020784Y3268000D01*
X4021638Y3263708D01*
X4024069Y3260069D01*
X4073762Y3210377D01*
X4073686Y3210000D01*
X4074928Y3203757D01*
X4078465Y3198465D01*
X4083757Y3194928D01*
X4090000Y3193686D01*
X4094784Y3194638D01*
X4099784Y3191739D01*
Y3184001D01*
X4099784Y3184000D01*
X4100638Y3179708D01*
X4103069Y3176069D01*
X4238762Y3040377D01*
X4238686Y3040000D01*
X4239928Y3033757D01*
X4243465Y3028465D01*
X4248757Y3024928D01*
X4255000Y3023686D01*
X4261243Y3024928D01*
X4266535Y3028465D01*
X4270072Y3033757D01*
X4271314Y3040000D01*
X4270072Y3046243D01*
X4266535Y3051535D01*
X4261243Y3055072D01*
X4255000Y3056314D01*
X4254623Y3056238D01*
X4122216Y3188646D01*
Y3218698D01*
X4122216Y3218698D01*
X4121362Y3222990D01*
X4118931Y3226629D01*
X4118930Y3226629D01*
X4059215Y3286344D01*
Y3349815D01*
X4064215Y3349923D01*
X4073762Y3340377D01*
X4073686Y3340000D01*
X4074928Y3333757D01*
X4078465Y3328465D01*
X4083757Y3324928D01*
X4090000Y3323686D01*
X4096243Y3324928D01*
X4101535Y3328465D01*
X4105072Y3333757D01*
X4106314Y3340000D01*
X4105319Y3345000D01*
X4108117Y3350000D01*
X4716805D01*
X4717547Y3345000D01*
D02*
G37*
G36*
X4325000Y3400000D02*
X4075215D01*
Y5974354D01*
X4217930Y6117069D01*
X4217931Y6117069D01*
X4220362Y6120708D01*
X4221216Y6125000D01*
X4221216Y6125001D01*
Y6364999D01*
X4221216Y6365000D01*
X4220362Y6369292D01*
X4217931Y6372931D01*
X4217930Y6372931D01*
X4126239Y6464623D01*
X4126314Y6465000D01*
X4125072Y6471243D01*
X4121535Y6476535D01*
X4117479Y6479245D01*
X4115994Y6484831D01*
X4149947Y6518784D01*
X4188251D01*
X4188465Y6518465D01*
X4193757Y6514928D01*
X4200000Y6513686D01*
X4206243Y6514928D01*
X4211535Y6518465D01*
X4215072Y6523757D01*
X4216314Y6530000D01*
X4215072Y6536243D01*
X4211535Y6541535D01*
X4206243Y6545072D01*
X4200000Y6546314D01*
X4193757Y6545072D01*
X4188465Y6541535D01*
X4188251Y6541216D01*
X4145302D01*
X4141010Y6540362D01*
X4137371Y6537931D01*
X4137371Y6537930D01*
X4027069Y6427629D01*
X4024638Y6423990D01*
X4024255Y6422063D01*
X4023465Y6421535D01*
X4019928Y6416243D01*
X4018686Y6410000D01*
X4019928Y6403757D01*
X4023465Y6398465D01*
X4028757Y6394928D01*
X4035000Y6393686D01*
X4041243Y6394928D01*
X4046535Y6398465D01*
X4050072Y6403757D01*
X4051314Y6410000D01*
X4050072Y6416243D01*
X4049004Y6417841D01*
X4090169Y6459006D01*
X4095755Y6457521D01*
X4098465Y6453465D01*
X4103757Y6449928D01*
X4110000Y6448686D01*
X4110377Y6448761D01*
X4198784Y6360354D01*
Y6129646D01*
X4067434Y5998295D01*
X4062009Y5999941D01*
X4061809Y6000948D01*
X4187930Y6127069D01*
X4187931Y6127069D01*
X4190362Y6130708D01*
X4191216Y6135000D01*
X4191216Y6135001D01*
Y6239698D01*
X4191216Y6239698D01*
X4190362Y6243990D01*
X4187931Y6247629D01*
X4161216Y6274344D01*
Y6293251D01*
X4161535Y6293465D01*
X4165072Y6298757D01*
X4166314Y6305000D01*
X4165072Y6311243D01*
X4161535Y6316535D01*
X4156243Y6320072D01*
X4150000Y6321314D01*
X4143757Y6320072D01*
X4138465Y6316535D01*
X4134928Y6311243D01*
X4133686Y6305000D01*
X4134928Y6298757D01*
X4138465Y6293465D01*
X4138784Y6293251D01*
Y6269699D01*
X4138784Y6269698D01*
X4138869Y6269270D01*
X4137196Y6263840D01*
X4130581Y6259419D01*
X4126160Y6252804D01*
X4125603Y6250000D01*
X4145000D01*
Y6245000D01*
X4150000D01*
Y6225603D01*
X4152804Y6226160D01*
X4159419Y6230581D01*
X4160203Y6231753D01*
X4166440Y6232631D01*
X4168784Y6230629D01*
Y6139646D01*
X4047835Y6018696D01*
X4043215Y6020610D01*
Y6057354D01*
X4087930Y6102069D01*
X4087931Y6102069D01*
X4090362Y6105708D01*
X4091216Y6110000D01*
X4091215Y6110001D01*
Y6218251D01*
X4091535Y6218465D01*
X4095072Y6223757D01*
X4096314Y6230000D01*
X4095072Y6236243D01*
X4091535Y6241535D01*
X4091215Y6241749D01*
Y6302752D01*
X4090362Y6307044D01*
X4087931Y6310682D01*
X4087930Y6310683D01*
X3926215Y6472398D01*
Y6550354D01*
X3941978Y6566117D01*
X3943757Y6564928D01*
X3950000Y6563686D01*
X3956243Y6564928D01*
X3961535Y6568465D01*
X3965072Y6573757D01*
X3966314Y6580000D01*
X3965072Y6586243D01*
X3961535Y6591535D01*
X3956243Y6595072D01*
X3950000Y6596314D01*
X3943757Y6595072D01*
X3938465Y6591535D01*
X3937983Y6590814D01*
X3935708Y6590362D01*
X3932069Y6587931D01*
X3932069Y6587930D01*
X3907069Y6562931D01*
X3904638Y6559292D01*
X3903784Y6555000D01*
X3903785Y6554999D01*
Y6467752D01*
X3903784Y6467752D01*
X3904638Y6463460D01*
X3907069Y6459821D01*
X4068785Y6298106D01*
Y6241749D01*
X4068465Y6241535D01*
X4064928Y6236243D01*
X4063686Y6230000D01*
X4064928Y6223757D01*
X4068465Y6218465D01*
X4068785Y6218251D01*
Y6114646D01*
X4041215Y6087077D01*
X4036215Y6089148D01*
Y6263251D01*
X4036535Y6263465D01*
X4040072Y6268757D01*
X4041314Y6275000D01*
X4040072Y6281243D01*
X4036535Y6286535D01*
X4031243Y6290072D01*
X4025000Y6291314D01*
X4018757Y6290072D01*
X4013465Y6286535D01*
X4009928Y6281243D01*
X4008686Y6275000D01*
X4009928Y6268757D01*
X4013465Y6263465D01*
X4013785Y6263251D01*
Y6225147D01*
X4009375Y6222790D01*
X4007804Y6223840D01*
X4005000Y6224397D01*
Y6205000D01*
Y6185603D01*
X4007804Y6186160D01*
X4009375Y6187210D01*
X4013785Y6184853D01*
Y6088646D01*
X4008069Y6082931D01*
X4005638Y6079292D01*
X4004784Y6075000D01*
X4004785Y6074999D01*
Y3400646D01*
X4004139Y3400000D01*
X3750000D01*
Y6830000D01*
X4325000D01*
Y3400000D01*
D02*
G37*
%LPC*%
G36*
X4205000Y3329397D02*
Y3315000D01*
X4219397D01*
X4218840Y3317804D01*
X4214419Y3324419D01*
X4207804Y3328840D01*
X4205000Y3329397D01*
D02*
G37*
G36*
X4195000D02*
X4192196Y3328840D01*
X4185581Y3324419D01*
X4181160Y3317804D01*
X4180603Y3315000D01*
X4195000D01*
Y3329397D01*
D02*
G37*
G36*
X3668718Y3321357D02*
Y3306960D01*
X3683115D01*
X3682557Y3309764D01*
X3678137Y3316379D01*
X3671521Y3320800D01*
X3668718Y3321357D01*
D02*
G37*
G36*
X3658718D02*
X3655914Y3320800D01*
X3649299Y3316379D01*
X3644878Y3309764D01*
X3644321Y3306960D01*
X3658718D01*
Y3321357D01*
D02*
G37*
G36*
X3830000Y3326314D02*
X3823757Y3325072D01*
X3818465Y3321535D01*
X3814928Y3316243D01*
X3813686Y3310000D01*
X3814928Y3303757D01*
X3818465Y3298465D01*
X3823757Y3294928D01*
X3830000Y3293686D01*
X3836243Y3294928D01*
X3841535Y3298465D01*
X3845072Y3303757D01*
X3846314Y3310000D01*
X3845072Y3316243D01*
X3841535Y3321535D01*
X3836243Y3325072D01*
X3830000Y3326314D01*
D02*
G37*
G36*
X4219397Y3305000D02*
X4205000D01*
Y3290603D01*
X4207804Y3291160D01*
X4214419Y3295581D01*
X4218840Y3302196D01*
X4219397Y3305000D01*
D02*
G37*
G36*
X4195000D02*
X4180603D01*
X4181160Y3302196D01*
X4185581Y3295581D01*
X4192196Y3291160D01*
X4195000Y3290603D01*
Y3305000D01*
D02*
G37*
G36*
X3683115Y3296960D02*
X3668718D01*
Y3282563D01*
X3671521Y3283120D01*
X3678137Y3287541D01*
X3682557Y3294157D01*
X3683115Y3296960D01*
D02*
G37*
G36*
X3658718D02*
X3644321D01*
X3644878Y3294157D01*
X3649299Y3287541D01*
X3655914Y3283120D01*
X3658718Y3282563D01*
Y3296960D01*
D02*
G37*
G36*
X3773317Y3261357D02*
Y3246960D01*
X3787714D01*
X3787157Y3249764D01*
X3782736Y3256379D01*
X3776121Y3260800D01*
X3773317Y3261357D01*
D02*
G37*
G36*
X3763317D02*
X3760514Y3260800D01*
X3753898Y3256379D01*
X3749477Y3249764D01*
X3748920Y3246960D01*
X3763317D01*
Y3261357D01*
D02*
G37*
G36*
X3625000Y3271314D02*
X3618757Y3270072D01*
X3613465Y3266535D01*
X3609928Y3261243D01*
X3608686Y3255000D01*
X3609928Y3248757D01*
X3613465Y3243465D01*
X3618757Y3239928D01*
X3625000Y3238686D01*
X3631243Y3239928D01*
X3636535Y3243465D01*
X3640072Y3248757D01*
X3641314Y3255000D01*
X3640072Y3261243D01*
X3636535Y3266535D01*
X3631243Y3270072D01*
X3625000Y3271314D01*
D02*
G37*
G36*
X3677912Y3251357D02*
Y3236960D01*
X3692309D01*
X3691752Y3239764D01*
X3687331Y3246379D01*
X3680716Y3250800D01*
X3677912Y3251357D01*
D02*
G37*
G36*
X3667912D02*
X3665108Y3250800D01*
X3658493Y3246379D01*
X3654072Y3239764D01*
X3653515Y3236960D01*
X3667912D01*
Y3251357D01*
D02*
G37*
G36*
X3593167Y3246357D02*
Y3231960D01*
X3607564D01*
X3607006Y3234764D01*
X3602586Y3241379D01*
X3595970Y3245800D01*
X3593167Y3246357D01*
D02*
G37*
G36*
X3583167D02*
X3580363Y3245800D01*
X3573747Y3241379D01*
X3569327Y3234764D01*
X3568769Y3231960D01*
X3583167D01*
Y3246357D01*
D02*
G37*
G36*
X3787714Y3236960D02*
X3773317D01*
Y3222563D01*
X3776121Y3223120D01*
X3782736Y3227541D01*
X3787157Y3234157D01*
X3787714Y3236960D01*
D02*
G37*
G36*
X3763317D02*
X3748920D01*
X3749477Y3234157D01*
X3753898Y3227541D01*
X3760514Y3223120D01*
X3763317Y3222563D01*
Y3236960D01*
D02*
G37*
G36*
X3692309Y3226960D02*
X3677912D01*
Y3212563D01*
X3680716Y3213120D01*
X3687331Y3217541D01*
X3691752Y3224157D01*
X3692309Y3226960D01*
D02*
G37*
G36*
X3667912D02*
X3653515D01*
X3654072Y3224157D01*
X3658493Y3217541D01*
X3665108Y3213120D01*
X3667912Y3212563D01*
Y3226960D01*
D02*
G37*
G36*
X3607564Y3221960D02*
X3593167D01*
Y3207563D01*
X3595970Y3208120D01*
X3602586Y3212541D01*
X3607006Y3219157D01*
X3607564Y3221960D01*
D02*
G37*
G36*
X3583167D02*
X3568769D01*
X3569327Y3219157D01*
X3573747Y3212541D01*
X3580363Y3208120D01*
X3583167Y3207563D01*
Y3221960D01*
D02*
G37*
G36*
X3650073Y3191357D02*
Y3176960D01*
X3664470D01*
X3663913Y3179764D01*
X3659492Y3186379D01*
X3652877Y3190800D01*
X3650073Y3191357D01*
D02*
G37*
G36*
X3640073D02*
X3637269Y3190800D01*
X3630654Y3186379D01*
X3626233Y3179764D01*
X3625676Y3176960D01*
X3640073D01*
Y3191357D01*
D02*
G37*
G36*
X3535000Y3189397D02*
Y3175000D01*
X3549397D01*
X3548840Y3177804D01*
X3544419Y3184419D01*
X3537804Y3188840D01*
X3535000Y3189397D01*
D02*
G37*
G36*
X3525000D02*
X3522196Y3188840D01*
X3515581Y3184419D01*
X3511160Y3177804D01*
X3510603Y3175000D01*
X3525000D01*
Y3189397D01*
D02*
G37*
G36*
X3836758Y3175371D02*
Y3160973D01*
X3851155D01*
X3850598Y3163777D01*
X3846177Y3170393D01*
X3839562Y3174813D01*
X3836758Y3175371D01*
D02*
G37*
G36*
X3826758D02*
X3823955Y3174813D01*
X3817339Y3170393D01*
X3812919Y3163777D01*
X3812361Y3160973D01*
X3826758D01*
Y3175371D01*
D02*
G37*
G36*
X3664470Y3166960D02*
X3650073D01*
Y3152563D01*
X3652877Y3153120D01*
X3659492Y3157541D01*
X3663913Y3164157D01*
X3664470Y3166960D01*
D02*
G37*
G36*
X3640073D02*
X3625676D01*
X3626233Y3164157D01*
X3630654Y3157541D01*
X3637269Y3153120D01*
X3640073Y3152563D01*
Y3166960D01*
D02*
G37*
G36*
X3549397Y3165000D02*
X3535000D01*
Y3150603D01*
X3537804Y3151160D01*
X3544419Y3155581D01*
X3548840Y3162196D01*
X3549397Y3165000D01*
D02*
G37*
G36*
X3525000D02*
X3510603D01*
X3511160Y3162196D01*
X3515581Y3155581D01*
X3522196Y3151160D01*
X3525000Y3150603D01*
Y3165000D01*
D02*
G37*
G36*
X3851155Y3150973D02*
X3836758D01*
Y3136576D01*
X3839562Y3137134D01*
X3846177Y3141554D01*
X3850598Y3148170D01*
X3851155Y3150973D01*
D02*
G37*
G36*
X3826758D02*
X3812361D01*
X3812919Y3148170D01*
X3817339Y3141554D01*
X3823955Y3137134D01*
X3826758Y3136576D01*
Y3150973D01*
D02*
G37*
G36*
X4240000Y3166314D02*
X4233757Y3165072D01*
X4228465Y3161535D01*
X4224928Y3156243D01*
X4223686Y3150000D01*
X4224928Y3143757D01*
X4228465Y3138465D01*
X4233757Y3134928D01*
X4240000Y3133686D01*
X4246243Y3134928D01*
X4251535Y3138465D01*
X4255072Y3143757D01*
X4256314Y3150000D01*
X4255072Y3156243D01*
X4251535Y3161535D01*
X4246243Y3165072D01*
X4240000Y3166314D01*
D02*
G37*
G36*
X3451758Y3128759D02*
Y3114362D01*
X3466155D01*
X3465598Y3117166D01*
X3461177Y3123781D01*
X3454562Y3128202D01*
X3451758Y3128759D01*
D02*
G37*
G36*
X3441758D02*
X3438955Y3128202D01*
X3432339Y3123781D01*
X3427919Y3117166D01*
X3427361Y3114362D01*
X3441758D01*
Y3128759D01*
D02*
G37*
G36*
X4070000Y3131314D02*
X4063757Y3130072D01*
X4058465Y3126535D01*
X4054928Y3121243D01*
X4053686Y3115000D01*
X4054928Y3108757D01*
X4058465Y3103465D01*
X4063757Y3099928D01*
X4070000Y3098686D01*
X4076243Y3099928D01*
X4081535Y3103465D01*
X4085072Y3108757D01*
X4086314Y3115000D01*
X4085072Y3121243D01*
X4081535Y3126535D01*
X4076243Y3130072D01*
X4070000Y3131314D01*
D02*
G37*
G36*
X4645000Y3104397D02*
Y3090000D01*
X4659397D01*
X4658840Y3092804D01*
X4654419Y3099419D01*
X4647804Y3103840D01*
X4645000Y3104397D01*
D02*
G37*
G36*
X4635000D02*
X4632196Y3103840D01*
X4625581Y3099419D01*
X4621160Y3092804D01*
X4620603Y3090000D01*
X4635000D01*
Y3104397D01*
D02*
G37*
G36*
X3466155Y3104362D02*
X3451758D01*
Y3089965D01*
X3454562Y3090522D01*
X3461177Y3094943D01*
X3465598Y3101558D01*
X3466155Y3104362D01*
D02*
G37*
G36*
X3441758D02*
X3427361D01*
X3427919Y3101558D01*
X3432339Y3094943D01*
X3438955Y3090522D01*
X3441758Y3089965D01*
Y3104362D01*
D02*
G37*
G36*
X3820000Y3121314D02*
X3813757Y3120072D01*
X3808465Y3116535D01*
X3804928Y3111243D01*
X3803686Y3105000D01*
X3804928Y3098757D01*
X3808465Y3093465D01*
X3813757Y3089928D01*
X3820000Y3088686D01*
X3826243Y3089928D01*
X3831535Y3093465D01*
X3835072Y3098757D01*
X3836314Y3105000D01*
X3835072Y3111243D01*
X3831535Y3116535D01*
X3826243Y3120072D01*
X3820000Y3121314D01*
D02*
G37*
G36*
X4659397Y3080000D02*
X4645000D01*
Y3065603D01*
X4647804Y3066160D01*
X4654419Y3070581D01*
X4658840Y3077196D01*
X4659397Y3080000D01*
D02*
G37*
G36*
X4635000D02*
X4620603D01*
X4621160Y3077196D01*
X4625581Y3070581D01*
X4632196Y3066160D01*
X4635000Y3065603D01*
Y3080000D01*
D02*
G37*
G36*
X3528215Y3077182D02*
Y3062784D01*
X3542612D01*
X3542055Y3065588D01*
X3537634Y3072204D01*
X3531019Y3076624D01*
X3528215Y3077182D01*
D02*
G37*
G36*
X3518215D02*
X3515411Y3076624D01*
X3508796Y3072204D01*
X3504375Y3065588D01*
X3503818Y3062784D01*
X3518215D01*
Y3077182D01*
D02*
G37*
G36*
X4165000Y3074397D02*
Y3060000D01*
X4179397D01*
X4178840Y3062804D01*
X4174419Y3069419D01*
X4167804Y3073840D01*
X4165000Y3074397D01*
D02*
G37*
G36*
X4155000D02*
X4152196Y3073840D01*
X4145581Y3069419D01*
X4141160Y3062804D01*
X4140603Y3060000D01*
X4155000D01*
Y3074397D01*
D02*
G37*
G36*
X3542612Y3052784D02*
X3528215D01*
Y3038387D01*
X3531019Y3038945D01*
X3537634Y3043365D01*
X3542055Y3049981D01*
X3542612Y3052784D01*
D02*
G37*
G36*
X3518215D02*
X3503818D01*
X3504375Y3049981D01*
X3508796Y3043365D01*
X3515411Y3038945D01*
X3518215Y3038387D01*
Y3052784D01*
D02*
G37*
G36*
X3411758Y3051357D02*
Y3036960D01*
X3426155D01*
X3425598Y3039764D01*
X3421177Y3046379D01*
X3414562Y3050800D01*
X3411758Y3051357D01*
D02*
G37*
G36*
X3401758D02*
X3398955Y3050800D01*
X3392339Y3046379D01*
X3387919Y3039764D01*
X3387361Y3036960D01*
X3401758D01*
Y3051357D01*
D02*
G37*
G36*
X4179397Y3050000D02*
X4165000D01*
Y3035603D01*
X4167804Y3036160D01*
X4174419Y3040581D01*
X4178840Y3047196D01*
X4179397Y3050000D01*
D02*
G37*
G36*
X4155000D02*
X4140603D01*
X4141160Y3047196D01*
X4145581Y3040581D01*
X4152196Y3036160D01*
X4155000Y3035603D01*
Y3050000D01*
D02*
G37*
G36*
X3426155Y3026960D02*
X3411758D01*
Y3012563D01*
X3414562Y3013120D01*
X3421177Y3017541D01*
X3425598Y3024157D01*
X3426155Y3026960D01*
D02*
G37*
G36*
X3401758D02*
X3387361D01*
X3387919Y3024157D01*
X3392339Y3017541D01*
X3398955Y3013120D01*
X3401758Y3012563D01*
Y3026960D01*
D02*
G37*
G36*
X3321758Y2991357D02*
Y2976960D01*
X3336155D01*
X3335598Y2979764D01*
X3331177Y2986379D01*
X3324562Y2990800D01*
X3321758Y2991357D01*
D02*
G37*
G36*
X3311758D02*
X3308955Y2990800D01*
X3302339Y2986379D01*
X3297919Y2979764D01*
X3297361Y2976960D01*
X3311758D01*
Y2991357D01*
D02*
G37*
G36*
X3336155Y2966960D02*
X3321758D01*
Y2952563D01*
X3324562Y2953120D01*
X3331177Y2957541D01*
X3335598Y2964157D01*
X3336155Y2966960D01*
D02*
G37*
G36*
X3311758D02*
X3297361D01*
X3297919Y2964157D01*
X3302339Y2957541D01*
X3308955Y2953120D01*
X3311758Y2952563D01*
Y2966960D01*
D02*
G37*
G36*
X3421723Y2964780D02*
Y2950383D01*
X3436120D01*
X3435562Y2953187D01*
X3431142Y2959802D01*
X3424526Y2964223D01*
X3421723Y2964780D01*
D02*
G37*
G36*
X3411723D02*
X3408919Y2964223D01*
X3402304Y2959802D01*
X3397883Y2953187D01*
X3397326Y2950383D01*
X3411723D01*
Y2964780D01*
D02*
G37*
G36*
X3436120Y2940383D02*
X3421723D01*
Y2925986D01*
X3424526Y2926544D01*
X3431142Y2930964D01*
X3435562Y2937580D01*
X3436120Y2940383D01*
D02*
G37*
G36*
X3411723D02*
X3397326D01*
X3397883Y2937580D01*
X3402304Y2930964D01*
X3408919Y2926544D01*
X3411723Y2925986D01*
Y2940383D01*
D02*
G37*
G36*
X4100000Y2951314D02*
X4093757Y2950072D01*
X4088465Y2946535D01*
X4084928Y2941243D01*
X4083686Y2935000D01*
X4084928Y2928757D01*
X4088465Y2923465D01*
X4093757Y2919928D01*
X4100000Y2918686D01*
X4106243Y2919928D01*
X4111535Y2923465D01*
X4115072Y2928757D01*
X4116314Y2935000D01*
X4115072Y2941243D01*
X4111535Y2946535D01*
X4106243Y2950072D01*
X4100000Y2951314D01*
D02*
G37*
G36*
X4270000Y2919397D02*
Y2905000D01*
X4284397D01*
X4283840Y2907804D01*
X4279419Y2914419D01*
X4272804Y2918840D01*
X4270000Y2919397D01*
D02*
G37*
G36*
X4260000D02*
X4257196Y2918840D01*
X4250581Y2914419D01*
X4246160Y2907804D01*
X4245603Y2905000D01*
X4260000D01*
Y2919397D01*
D02*
G37*
G36*
X3845000Y2936314D02*
X3838757Y2935072D01*
X3833465Y2931535D01*
X3829928Y2926243D01*
X3828686Y2920000D01*
X3829928Y2913757D01*
X3833465Y2908465D01*
X3838757Y2904928D01*
X3845000Y2903686D01*
X3851243Y2904928D01*
X3856535Y2908465D01*
X3860072Y2913757D01*
X3861314Y2920000D01*
X3860072Y2926243D01*
X3856535Y2931535D01*
X3851243Y2935072D01*
X3845000Y2936314D01*
D02*
G37*
G36*
X3391758Y2906357D02*
Y2891960D01*
X3406155D01*
X3405598Y2894764D01*
X3401177Y2901379D01*
X3394562Y2905800D01*
X3391758Y2906357D01*
D02*
G37*
G36*
X3381758D02*
X3378955Y2905800D01*
X3372339Y2901379D01*
X3367919Y2894764D01*
X3367361Y2891960D01*
X3381758D01*
Y2906357D01*
D02*
G37*
G36*
X4284397Y2895000D02*
X4270000D01*
Y2880603D01*
X4272804Y2881160D01*
X4279419Y2885581D01*
X4283840Y2892196D01*
X4284397Y2895000D01*
D02*
G37*
G36*
X4260000D02*
X4245603D01*
X4246160Y2892196D01*
X4250581Y2885581D01*
X4257196Y2881160D01*
X4260000Y2880603D01*
Y2895000D01*
D02*
G37*
G36*
X3406155Y2881960D02*
X3391758D01*
Y2867563D01*
X3394562Y2868120D01*
X3401177Y2872541D01*
X3405598Y2879157D01*
X3406155Y2881960D01*
D02*
G37*
G36*
X3381758D02*
X3367361D01*
X3367919Y2879157D01*
X3372339Y2872541D01*
X3378955Y2868120D01*
X3381758Y2867563D01*
Y2881960D01*
D02*
G37*
G36*
X3810000Y2896314D02*
X3803757Y2895072D01*
X3798465Y2891535D01*
X3794928Y2886243D01*
X3793686Y2880000D01*
X3794928Y2873757D01*
X3798465Y2868465D01*
X3803757Y2864928D01*
X3810000Y2863686D01*
X3816243Y2864928D01*
X3821535Y2868465D01*
X3825072Y2873757D01*
X3826314Y2880000D01*
X3825072Y2886243D01*
X3821535Y2891535D01*
X3816243Y2895072D01*
X3810000Y2896314D01*
D02*
G37*
G36*
X3975000Y2854397D02*
Y2840000D01*
X3989397D01*
X3988840Y2842804D01*
X3984419Y2849419D01*
X3977804Y2853840D01*
X3975000Y2854397D01*
D02*
G37*
G36*
X3965000D02*
X3962196Y2853840D01*
X3955581Y2849419D01*
X3951160Y2842804D01*
X3950603Y2840000D01*
X3965000D01*
Y2854397D01*
D02*
G37*
G36*
X3765000Y2844397D02*
X3762196Y2843840D01*
X3755581Y2839419D01*
X3755573Y2839409D01*
X3751857Y2837690D01*
X3749375Y2838682D01*
X3746664Y2840493D01*
X3745088Y2840806D01*
X3740421Y2841735D01*
X3734178Y2840493D01*
X3728886Y2836956D01*
X3725349Y2831664D01*
X3724108Y2825421D01*
X3725349Y2819178D01*
X3728886Y2813886D01*
X3734178Y2810349D01*
X3740421Y2809108D01*
X3746664Y2810349D01*
X3748907Y2811848D01*
X3751131Y2810532D01*
X3752157Y2804578D01*
X3749928Y2801243D01*
X3748686Y2795000D01*
X3749928Y2788757D01*
X3753465Y2783465D01*
X3758757Y2779928D01*
X3765000Y2778686D01*
X3771243Y2779928D01*
X3776535Y2783465D01*
X3780072Y2788757D01*
X3781314Y2795000D01*
X3780072Y2801243D01*
X3777414Y2805220D01*
X3777804Y2806160D01*
X3784419Y2810581D01*
X3788840Y2817196D01*
X3789397Y2820000D01*
X3770000D01*
Y2825000D01*
X3765000D01*
Y2844397D01*
D02*
G37*
G36*
X3430000Y2866314D02*
X3423757Y2865072D01*
X3418465Y2861535D01*
X3414928Y2856243D01*
X3413686Y2850000D01*
X3414928Y2843757D01*
X3418465Y2838465D01*
X3423757Y2834928D01*
X3430000Y2833686D01*
X3436243Y2834928D01*
X3441535Y2838465D01*
X3445072Y2843757D01*
X3446314Y2850000D01*
X3445072Y2856243D01*
X3441535Y2861535D01*
X3436243Y2865072D01*
X3430000Y2866314D01*
D02*
G37*
G36*
X3775000Y2844397D02*
Y2830000D01*
X3789397D01*
X3788840Y2832804D01*
X3784419Y2839419D01*
X3777804Y2843840D01*
X3775000Y2844397D01*
D02*
G37*
G36*
X3989397Y2830000D02*
X3975000D01*
Y2815603D01*
X3977804Y2816160D01*
X3984419Y2820581D01*
X3988840Y2827196D01*
X3989397Y2830000D01*
D02*
G37*
G36*
X3965000D02*
X3950603D01*
X3951160Y2827196D01*
X3955581Y2820581D01*
X3962196Y2816160D01*
X3965000Y2815603D01*
Y2830000D01*
D02*
G37*
G36*
X3482008Y2818244D02*
Y2803846D01*
X3496405D01*
X3495848Y2806650D01*
X3491427Y2813266D01*
X3484812Y2817686D01*
X3482008Y2818244D01*
D02*
G37*
G36*
X3472008D02*
X3469204Y2817686D01*
X3462589Y2813266D01*
X3458168Y2806650D01*
X3457611Y2803846D01*
X3472008D01*
Y2818244D01*
D02*
G37*
G36*
X4040000Y2794397D02*
Y2780000D01*
X4054397D01*
X4053840Y2782804D01*
X4049419Y2789419D01*
X4042804Y2793840D01*
X4040000Y2794397D01*
D02*
G37*
G36*
X4030000D02*
X4027196Y2793840D01*
X4020581Y2789419D01*
X4016160Y2782804D01*
X4015603Y2780000D01*
X4030000D01*
Y2794397D01*
D02*
G37*
G36*
X3496405Y2793846D02*
X3482008D01*
Y2779449D01*
X3484812Y2780007D01*
X3491427Y2784427D01*
X3495848Y2791043D01*
X3496405Y2793846D01*
D02*
G37*
G36*
X3472008D02*
X3457611D01*
X3458168Y2791043D01*
X3462589Y2784427D01*
X3469204Y2780007D01*
X3472008Y2779449D01*
Y2793846D01*
D02*
G37*
G36*
X4054397Y2770000D02*
X4040000D01*
Y2755603D01*
X4042804Y2756160D01*
X4049419Y2760581D01*
X4053840Y2767196D01*
X4054397Y2770000D01*
D02*
G37*
G36*
X4030000D02*
X4015603D01*
X4016160Y2767196D01*
X4020581Y2760581D01*
X4027196Y2756160D01*
X4030000Y2755603D01*
Y2770000D01*
D02*
G37*
G36*
X3725000Y2781314D02*
X3718757Y2780072D01*
X3713465Y2776535D01*
X3709928Y2771243D01*
X3708686Y2765000D01*
X3709928Y2758757D01*
X3713465Y2753465D01*
X3718757Y2749928D01*
X3725000Y2748686D01*
X3731243Y2749928D01*
X3736535Y2753465D01*
X3740072Y2758757D01*
X3741314Y2765000D01*
X3740072Y2771243D01*
X3736535Y2776535D01*
X3731243Y2780072D01*
X3725000Y2781314D01*
D02*
G37*
G36*
X4070000Y2766314D02*
X4063757Y2765072D01*
X4058465Y2761535D01*
X4054928Y2756243D01*
X4053686Y2750000D01*
X4054928Y2743757D01*
X4058465Y2738465D01*
X4063757Y2734928D01*
X4070000Y2733686D01*
X4076243Y2734928D01*
X4081535Y2738465D01*
X4085072Y2743757D01*
X4086314Y2750000D01*
X4085072Y2756243D01*
X4081535Y2761535D01*
X4076243Y2765072D01*
X4070000Y2766314D01*
D02*
G37*
G36*
X3365000Y2765834D02*
X3355726Y2764613D01*
X3347083Y2761033D01*
X3339662Y2755338D01*
X3333967Y2747917D01*
X3330387Y2739274D01*
X3329166Y2730000D01*
X3330387Y2720726D01*
X3333967Y2712083D01*
X3339662Y2704662D01*
X3347083Y2698967D01*
X3355726Y2695387D01*
X3365000Y2694166D01*
X3374274Y2695387D01*
X3382917Y2698967D01*
X3390338Y2704662D01*
X3396033Y2712083D01*
X3399613Y2720726D01*
X3400834Y2730000D01*
X3399613Y2739274D01*
X3396033Y2747917D01*
X3390338Y2755338D01*
X3382917Y2761033D01*
X3374274Y2764613D01*
X3365000Y2765834D01*
D02*
G37*
G36*
X3965000Y2659397D02*
X3962196Y2658840D01*
X3955581Y2654419D01*
X3951160Y2647804D01*
X3950603Y2645000D01*
X3965000D01*
Y2659397D01*
D02*
G37*
G36*
X3745000D02*
X3742196Y2658840D01*
X3735581Y2654419D01*
X3731160Y2647804D01*
X3730603Y2645000D01*
X3745000D01*
Y2659397D01*
D02*
G37*
G36*
X3995000Y2676314D02*
X3988757Y2675072D01*
X3983465Y2671535D01*
X3979928Y2666243D01*
X3979332Y2663245D01*
X3978192Y2659960D01*
X3975000Y2659704D01*
Y2640000D01*
Y2620603D01*
X3977804Y2621160D01*
X3984419Y2625581D01*
X3988840Y2632196D01*
X3990297Y2639524D01*
X3990994Y2641057D01*
X3993852Y2643915D01*
X3995000Y2643686D01*
X4001243Y2644928D01*
X4006535Y2648465D01*
X4010072Y2653757D01*
X4011314Y2660000D01*
X4010072Y2666243D01*
X4006535Y2671535D01*
X4001243Y2675072D01*
X3995000Y2676314D01*
D02*
G37*
G36*
X3965000Y2635000D02*
X3950603D01*
X3951160Y2632196D01*
X3955581Y2625581D01*
X3962196Y2621160D01*
X3965000Y2620603D01*
Y2635000D01*
D02*
G37*
G36*
X3745000D02*
X3730603D01*
X3731160Y2632196D01*
X3735581Y2625581D01*
X3742196Y2621160D01*
X3745000Y2620603D01*
Y2635000D01*
D02*
G37*
G36*
X3755000Y2659397D02*
Y2640000D01*
Y2620603D01*
X3757804Y2621160D01*
X3759171Y2622074D01*
X3764726Y2619773D01*
X3764928Y2618757D01*
X3768465Y2613465D01*
X3773757Y2609928D01*
X3780000Y2608686D01*
X3786243Y2609928D01*
X3791535Y2613465D01*
X3795072Y2618757D01*
X3796314Y2625000D01*
X3795072Y2631243D01*
X3791535Y2636535D01*
X3786243Y2640072D01*
X3780000Y2641314D01*
X3775172Y2640353D01*
X3770819Y2642483D01*
X3769718Y2643387D01*
X3768840Y2647804D01*
X3764419Y2654419D01*
X3757804Y2658840D01*
X3755000Y2659397D01*
D02*
G37*
G36*
X3365000Y2665834D02*
X3355726Y2664613D01*
X3347083Y2661033D01*
X3339662Y2655338D01*
X3333967Y2647917D01*
X3330387Y2639274D01*
X3329166Y2630000D01*
X3330387Y2620726D01*
X3333967Y2612083D01*
X3339662Y2604662D01*
X3347083Y2598967D01*
X3355726Y2595387D01*
X3365000Y2594166D01*
X3374274Y2595387D01*
X3382917Y2598967D01*
X3390338Y2604662D01*
X3396033Y2612083D01*
X3399613Y2620726D01*
X3400834Y2630000D01*
X3399613Y2639274D01*
X3396033Y2647917D01*
X3390338Y2655338D01*
X3382917Y2661033D01*
X3374274Y2664613D01*
X3365000Y2665834D01*
D02*
G37*
G36*
X4225000Y2591314D02*
X4218757Y2590072D01*
X4213465Y2586535D01*
X4209928Y2581243D01*
X4208686Y2575000D01*
X4209928Y2568757D01*
X4213465Y2563465D01*
X4218757Y2559928D01*
X4225000Y2558686D01*
X4231243Y2559928D01*
X4236535Y2563465D01*
X4240072Y2568757D01*
X4241314Y2575000D01*
X4240072Y2581243D01*
X4236535Y2586535D01*
X4231243Y2590072D01*
X4225000Y2591314D01*
D02*
G37*
G36*
X4070000Y2551314D02*
X4063757Y2550072D01*
X4058465Y2546535D01*
X4054928Y2541243D01*
X4053686Y2535000D01*
X4054928Y2528757D01*
X4058465Y2523465D01*
X4063757Y2519928D01*
X4070000Y2518686D01*
X4076243Y2519928D01*
X4081535Y2523465D01*
X4085072Y2528757D01*
X4086314Y2535000D01*
X4085072Y2541243D01*
X4081535Y2546535D01*
X4076243Y2550072D01*
X4070000Y2551314D01*
D02*
G37*
G36*
X3920000D02*
X3913757Y2550072D01*
X3908465Y2546535D01*
X3904928Y2541243D01*
X3903686Y2535000D01*
X3904928Y2528757D01*
X3908465Y2523465D01*
X3913757Y2519928D01*
X3920000Y2518686D01*
X3926243Y2519928D01*
X3931535Y2523465D01*
X3935072Y2528757D01*
X3936314Y2535000D01*
X3935072Y2541243D01*
X3931535Y2546535D01*
X3926243Y2550072D01*
X3920000Y2551314D01*
D02*
G37*
G36*
X3400528Y2565528D02*
X3329472D01*
Y2494472D01*
X3400528D01*
Y2565528D01*
D02*
G37*
G36*
X4215000Y2499397D02*
Y2485000D01*
X4229397D01*
X4228840Y2487804D01*
X4224419Y2494419D01*
X4217804Y2498840D01*
X4215000Y2499397D01*
D02*
G37*
G36*
X4205000D02*
X4202196Y2498840D01*
X4195581Y2494419D01*
X4191160Y2487804D01*
X4190603Y2485000D01*
X4205000D01*
Y2499397D01*
D02*
G37*
G36*
X4229397Y2475000D02*
X4215000D01*
Y2460603D01*
X4217804Y2461160D01*
X4224419Y2465581D01*
X4228840Y2472196D01*
X4229397Y2475000D01*
D02*
G37*
G36*
X4205000D02*
X4190603D01*
X4191160Y2472196D01*
X4195581Y2465581D01*
X4202196Y2461160D01*
X4205000Y2460603D01*
Y2475000D01*
D02*
G37*
G36*
X4046575Y2469738D02*
X4040332Y2468497D01*
X4035040Y2464960D01*
X4031503Y2459668D01*
X4030262Y2453425D01*
X4031503Y2447182D01*
X4035040Y2441890D01*
X4040332Y2438353D01*
X4046575Y2437111D01*
X4052818Y2438353D01*
X4058110Y2441890D01*
X4061647Y2447182D01*
X4062889Y2453425D01*
X4061647Y2459668D01*
X4058110Y2464960D01*
X4052818Y2468497D01*
X4046575Y2469738D01*
D02*
G37*
G36*
X4415000Y2424397D02*
Y2410000D01*
X4429397D01*
X4428840Y2412804D01*
X4424419Y2419419D01*
X4417804Y2423840D01*
X4415000Y2424397D01*
D02*
G37*
G36*
X4405000D02*
X4402196Y2423840D01*
X4395581Y2419419D01*
X4391160Y2412804D01*
X4390603Y2410000D01*
X4405000D01*
Y2424397D01*
D02*
G37*
G36*
X3995000Y2431314D02*
X3988757Y2430072D01*
X3983465Y2426535D01*
X3979928Y2421243D01*
X3978686Y2415000D01*
X3979928Y2408757D01*
X3983465Y2403465D01*
X3988757Y2399928D01*
X3995000Y2398686D01*
X4001243Y2399928D01*
X4006535Y2403465D01*
X4010072Y2408757D01*
X4011314Y2415000D01*
X4010072Y2421243D01*
X4006535Y2426535D01*
X4001243Y2430072D01*
X3995000Y2431314D01*
D02*
G37*
G36*
X4429397Y2400000D02*
X4415000D01*
Y2385603D01*
X4417804Y2386160D01*
X4424419Y2390581D01*
X4428840Y2397196D01*
X4429397Y2400000D01*
D02*
G37*
G36*
X4405000D02*
X4390603D01*
X4391160Y2397196D01*
X4395581Y2390581D01*
X4402196Y2386160D01*
X4405000Y2385603D01*
Y2400000D01*
D02*
G37*
G36*
X3700000Y2411314D02*
X3693757Y2410072D01*
X3688465Y2406535D01*
X3684928Y2401243D01*
X3683686Y2395000D01*
X3684773Y2389541D01*
X3683044Y2386849D01*
X3681342Y2385125D01*
X3680000Y2385392D01*
X3672196Y2383840D01*
X3665581Y2379419D01*
X3661160Y2372804D01*
X3660603Y2370000D01*
X3699397D01*
X3698840Y2372804D01*
X3698057Y2373975D01*
X3698959Y2376162D01*
X3700814Y2378848D01*
X3706243Y2379928D01*
X3711535Y2383465D01*
X3715072Y2388757D01*
X3716314Y2395000D01*
X3715072Y2401243D01*
X3711535Y2406535D01*
X3706243Y2410072D01*
X3700000Y2411314D01*
D02*
G37*
G36*
X3875000Y2376314D02*
X3868757Y2375072D01*
X3863465Y2371535D01*
X3860114Y2366521D01*
X3857977Y2366243D01*
X3857023D01*
X3854886Y2366521D01*
X3851535Y2371535D01*
X3846243Y2375072D01*
X3840000Y2376314D01*
X3833757Y2375072D01*
X3828465Y2371535D01*
X3824928Y2366243D01*
X3823686Y2360000D01*
X3824928Y2353757D01*
X3828465Y2348465D01*
X3833757Y2344928D01*
X3840000Y2343686D01*
X3846243Y2344928D01*
X3851535Y2348465D01*
X3854886Y2353479D01*
X3857023Y2353757D01*
X3857977D01*
X3860114Y2353479D01*
X3863465Y2348465D01*
X3868757Y2344928D01*
X3875000Y2343686D01*
X3881243Y2344928D01*
X3886535Y2348465D01*
X3890072Y2353757D01*
X3891314Y2360000D01*
X3890072Y2366243D01*
X3886535Y2371535D01*
X3881243Y2375072D01*
X3875000Y2376314D01*
D02*
G37*
G36*
X3699397Y2360000D02*
X3685000D01*
Y2345603D01*
X3687804Y2346160D01*
X3694419Y2350581D01*
X3698840Y2357196D01*
X3699397Y2360000D01*
D02*
G37*
G36*
X3675000D02*
X3660603D01*
X3661160Y2357196D01*
X3665581Y2350581D01*
X3672196Y2346160D01*
X3675000Y2345603D01*
Y2360000D01*
D02*
G37*
G36*
X3485000Y2366314D02*
X3478757Y2365072D01*
X3473465Y2361535D01*
X3469928Y2356243D01*
X3468686Y2350000D01*
X3469928Y2343757D01*
X3472646Y2339690D01*
X3469797Y2335359D01*
X3465000Y2336314D01*
X3458757Y2335072D01*
X3453465Y2331535D01*
X3449928Y2326243D01*
X3448686Y2320000D01*
X3449928Y2313757D01*
X3453465Y2308465D01*
X3458757Y2304928D01*
X3465000Y2303686D01*
X3471243Y2304928D01*
X3476535Y2308465D01*
X3480072Y2313757D01*
X3481314Y2320000D01*
X3480072Y2326243D01*
X3477354Y2330310D01*
X3480203Y2334641D01*
X3485000Y2333686D01*
X3491243Y2334928D01*
X3496535Y2338465D01*
X3500072Y2343757D01*
X3501314Y2350000D01*
X3500072Y2356243D01*
X3496535Y2361535D01*
X3491243Y2365072D01*
X3485000Y2366314D01*
D02*
G37*
G36*
X4265000Y2405834D02*
X4255725Y2404613D01*
X4247083Y2401033D01*
X4239662Y2395338D01*
X4233967Y2387917D01*
X4230387Y2379274D01*
X4229166Y2370000D01*
X4230387Y2360726D01*
X4233967Y2352083D01*
X4239662Y2344662D01*
X4247083Y2338967D01*
X4255725Y2335387D01*
X4265000Y2334166D01*
X4274275Y2335387D01*
X4282917Y2338967D01*
X4290338Y2344662D01*
X4296033Y2352083D01*
X4299613Y2360726D01*
X4300834Y2370000D01*
X4299613Y2379274D01*
X4296033Y2387917D01*
X4290338Y2395338D01*
X4282917Y2401033D01*
X4274275Y2404613D01*
X4265000Y2405834D01*
D02*
G37*
G36*
X3705000Y2309397D02*
Y2295000D01*
X3719397D01*
X3718840Y2297804D01*
X3714419Y2304419D01*
X3707804Y2308840D01*
X3705000Y2309397D01*
D02*
G37*
G36*
X3695000D02*
X3692196Y2308840D01*
X3685581Y2304419D01*
X3681160Y2297804D01*
X3680603Y2295000D01*
X3695000D01*
Y2309397D01*
D02*
G37*
G36*
X4051707Y2301105D02*
Y2286707D01*
X4066105D01*
X4065547Y2289511D01*
X4061127Y2296127D01*
X4054511Y2300547D01*
X4051707Y2301105D01*
D02*
G37*
G36*
X4041707D02*
X4038904Y2300547D01*
X4032288Y2296127D01*
X4027868Y2289511D01*
X4027310Y2286707D01*
X4041707D01*
Y2301105D01*
D02*
G37*
G36*
X4550000Y2294397D02*
Y2280000D01*
X4564397D01*
X4563840Y2282804D01*
X4559419Y2289419D01*
X4552804Y2293840D01*
X4550000Y2294397D01*
D02*
G37*
G36*
X4540000D02*
X4537196Y2293840D01*
X4530581Y2289419D01*
X4526160Y2282804D01*
X4525603Y2280000D01*
X4540000D01*
Y2294397D01*
D02*
G37*
G36*
X3719397Y2285000D02*
X3705000D01*
Y2270603D01*
X3707804Y2271160D01*
X3714419Y2275581D01*
X3718840Y2282196D01*
X3719397Y2285000D01*
D02*
G37*
G36*
X3695000D02*
X3680603D01*
X3681160Y2282196D01*
X3685581Y2275581D01*
X3692196Y2271160D01*
X3695000Y2270603D01*
Y2285000D01*
D02*
G37*
G36*
X4066105Y2276707D02*
X4051707D01*
Y2262310D01*
X4054511Y2262868D01*
X4061127Y2267288D01*
X4065547Y2273904D01*
X4066105Y2276707D01*
D02*
G37*
G36*
X4041707D02*
X4027310D01*
X4027868Y2273904D01*
X4032288Y2267288D01*
X4038904Y2262868D01*
X4041707Y2262310D01*
Y2276707D01*
D02*
G37*
G36*
X4564397Y2270000D02*
X4550000D01*
Y2255603D01*
X4552804Y2256160D01*
X4559419Y2260581D01*
X4563840Y2267196D01*
X4564397Y2270000D01*
D02*
G37*
G36*
X4540000D02*
X4525603D01*
X4526160Y2267196D01*
X4530581Y2260581D01*
X4537196Y2256160D01*
X4540000Y2255603D01*
Y2270000D01*
D02*
G37*
G36*
X4415000Y2264397D02*
Y2250000D01*
X4429397D01*
X4428840Y2252804D01*
X4424419Y2259419D01*
X4417804Y2263840D01*
X4415000Y2264397D01*
D02*
G37*
G36*
X4405000D02*
X4402196Y2263840D01*
X4395581Y2259419D01*
X4391160Y2252804D01*
X4390603Y2250000D01*
X4405000D01*
Y2264397D01*
D02*
G37*
G36*
X4300528Y2305528D02*
X4229472D01*
Y2234472D01*
X4300528D01*
Y2305528D01*
D02*
G37*
G36*
X4429397Y2240000D02*
X4415000D01*
Y2225603D01*
X4417804Y2226160D01*
X4424419Y2230581D01*
X4428840Y2237196D01*
X4429397Y2240000D01*
D02*
G37*
G36*
X4405000D02*
X4390603D01*
X4391160Y2237196D01*
X4395581Y2230581D01*
X4402196Y2226160D01*
X4405000Y2225603D01*
Y2240000D01*
D02*
G37*
G36*
X4680000Y2201314D02*
X4673757Y2200072D01*
X4668465Y2196535D01*
X4664928Y2191243D01*
X4663686Y2185000D01*
X4664928Y2178757D01*
X4668465Y2173465D01*
X4673757Y2169928D01*
X4680000Y2168686D01*
X4686243Y2169928D01*
X4691535Y2173465D01*
X4695072Y2178757D01*
X4696314Y2185000D01*
X4695072Y2191243D01*
X4691535Y2196535D01*
X4686243Y2200072D01*
X4680000Y2201314D01*
D02*
G37*
G36*
X4765000Y2196314D02*
X4758757Y2195072D01*
X4753465Y2191535D01*
X4749928Y2186243D01*
X4748686Y2180000D01*
X4749928Y2173757D01*
X4753465Y2168465D01*
X4758757Y2164928D01*
X4765000Y2163686D01*
X4771243Y2164928D01*
X4776535Y2168465D01*
X4780072Y2173757D01*
X4781314Y2180000D01*
X4780072Y2186243D01*
X4776535Y2191535D01*
X4771243Y2195072D01*
X4765000Y2196314D01*
D02*
G37*
G36*
X4250000Y2114397D02*
Y2100000D01*
X4264397D01*
X4263840Y2102804D01*
X4259419Y2109419D01*
X4252804Y2113840D01*
X4250000Y2114397D01*
D02*
G37*
G36*
X4240000D02*
X4237196Y2113840D01*
X4230581Y2109419D01*
X4226160Y2102804D01*
X4225603Y2100000D01*
X4240000D01*
Y2114397D01*
D02*
G37*
G36*
X3740000Y2131314D02*
X3733757Y2130072D01*
X3728465Y2126535D01*
X3724928Y2121243D01*
X3723686Y2115000D01*
X3724928Y2108757D01*
X3728465Y2103465D01*
X3733757Y2099928D01*
X3740000Y2098686D01*
X3746243Y2099928D01*
X3751535Y2103465D01*
X3755072Y2108757D01*
X3756314Y2115000D01*
X3755072Y2121243D01*
X3751535Y2126535D01*
X3746243Y2130072D01*
X3740000Y2131314D01*
D02*
G37*
G36*
X3500000Y2155834D02*
X3490726Y2154613D01*
X3482083Y2151033D01*
X3474662Y2145338D01*
X3468967Y2137917D01*
X3465387Y2129274D01*
X3464166Y2120000D01*
X3465387Y2110726D01*
X3468967Y2102083D01*
X3474662Y2094662D01*
X3482083Y2088967D01*
X3490726Y2085387D01*
X3500000Y2084166D01*
X3509274Y2085387D01*
X3517917Y2088967D01*
X3525338Y2094662D01*
X3531033Y2102083D01*
X3534613Y2110726D01*
X3535834Y2120000D01*
X3534613Y2129274D01*
X3531033Y2137917D01*
X3525338Y2145338D01*
X3517917Y2151033D01*
X3509274Y2154613D01*
X3500000Y2155834D01*
D02*
G37*
G36*
X4264397Y2090000D02*
X4250000D01*
Y2075603D01*
X4252804Y2076160D01*
X4259419Y2080581D01*
X4263840Y2087196D01*
X4264397Y2090000D01*
D02*
G37*
G36*
X4240000D02*
X4225603D01*
X4226160Y2087196D01*
X4230581Y2080581D01*
X4237196Y2076160D01*
X4240000Y2075603D01*
Y2090000D01*
D02*
G37*
G36*
X4725000Y2125834D02*
X4715725Y2124613D01*
X4707083Y2121033D01*
X4699662Y2115338D01*
X4693967Y2107917D01*
X4690387Y2099274D01*
X4689166Y2090000D01*
X4690387Y2080726D01*
X4693967Y2072083D01*
X4699662Y2064662D01*
X4707083Y2058967D01*
X4715725Y2055387D01*
X4725000Y2054166D01*
X4734275Y2055387D01*
X4742917Y2058967D01*
X4750338Y2064662D01*
X4756033Y2072083D01*
X4759613Y2080726D01*
X4760834Y2090000D01*
X4759613Y2099274D01*
X4756033Y2107917D01*
X4750338Y2115338D01*
X4742917Y2121033D01*
X4734275Y2124613D01*
X4725000Y2125834D01*
D02*
G37*
G36*
X4595000D02*
X4585725Y2124613D01*
X4577083Y2121033D01*
X4569662Y2115338D01*
X4563967Y2107917D01*
X4560387Y2099274D01*
X4559166Y2090000D01*
X4560387Y2080726D01*
X4563967Y2072083D01*
X4569662Y2064662D01*
X4577083Y2058967D01*
X4585725Y2055387D01*
X4595000Y2054166D01*
X4604275Y2055387D01*
X4612917Y2058967D01*
X4620338Y2064662D01*
X4626033Y2072083D01*
X4629613Y2080726D01*
X4630834Y2090000D01*
X4629613Y2099274D01*
X4626033Y2107917D01*
X4620338Y2115338D01*
X4612917Y2121033D01*
X4604275Y2124613D01*
X4595000Y2125834D01*
D02*
G37*
G36*
X3780000Y2039397D02*
Y2025000D01*
X3794397D01*
X3793840Y2027804D01*
X3789419Y2034419D01*
X3782804Y2038840D01*
X3780000Y2039397D01*
D02*
G37*
G36*
X3770000D02*
X3767196Y2038840D01*
X3760581Y2034419D01*
X3756160Y2027804D01*
X3755603Y2025000D01*
X3770000D01*
Y2039397D01*
D02*
G37*
G36*
X4010000Y2029397D02*
Y2015000D01*
X4024397D01*
X4023840Y2017804D01*
X4019419Y2024419D01*
X4012804Y2028840D01*
X4010000Y2029397D01*
D02*
G37*
G36*
X4000000D02*
X3997196Y2028840D01*
X3990581Y2024419D01*
X3986160Y2017804D01*
X3985603Y2015000D01*
X4000000D01*
Y2029397D01*
D02*
G37*
G36*
X3794397Y2015000D02*
X3780000D01*
Y2000603D01*
X3782804Y2001160D01*
X3789419Y2005581D01*
X3793840Y2012196D01*
X3794397Y2015000D01*
D02*
G37*
G36*
X3770000D02*
X3755603D01*
X3756160Y2012196D01*
X3760581Y2005581D01*
X3767196Y2001160D01*
X3770000Y2000603D01*
Y2015000D01*
D02*
G37*
G36*
X3945000Y2031313D02*
X3938757Y2030072D01*
X3933465Y2026535D01*
X3929928Y2021243D01*
X3928686Y2015000D01*
X3929928Y2008757D01*
X3933465Y2003465D01*
X3938757Y1999928D01*
X3945000Y1998687D01*
X3951243Y1999928D01*
X3956535Y2003465D01*
X3960072Y2008757D01*
X3961314Y2015000D01*
X3960072Y2021243D01*
X3956535Y2026535D01*
X3951243Y2030072D01*
X3945000Y2031313D01*
D02*
G37*
G36*
X4490000Y2009397D02*
Y1995000D01*
X4504397D01*
X4503840Y1997804D01*
X4499419Y2004419D01*
X4492804Y2008840D01*
X4490000Y2009397D01*
D02*
G37*
G36*
X4480000D02*
X4477196Y2008840D01*
X4470581Y2004419D01*
X4466160Y1997804D01*
X4465603Y1995000D01*
X4480000D01*
Y2009397D01*
D02*
G37*
G36*
X4024397Y2005000D02*
X4010000D01*
Y1990603D01*
X4012804Y1991160D01*
X4019419Y1995581D01*
X4023840Y2002196D01*
X4024397Y2005000D01*
D02*
G37*
G36*
X4000000D02*
X3985603D01*
X3986160Y2002196D01*
X3990581Y1995581D01*
X3997196Y1991160D01*
X4000000Y1990603D01*
Y2005000D01*
D02*
G37*
G36*
X3535528Y2055528D02*
X3464472D01*
Y1984473D01*
X3535528D01*
Y2055528D01*
D02*
G37*
G36*
X4504397Y1985000D02*
X4490000D01*
Y1970603D01*
X4492804Y1971160D01*
X4499419Y1975581D01*
X4503840Y1982196D01*
X4504397Y1985000D01*
D02*
G37*
G36*
X4480000D02*
X4465603D01*
X4466160Y1982196D01*
X4470581Y1975581D01*
X4477196Y1971160D01*
X4480000Y1970603D01*
Y1985000D01*
D02*
G37*
G36*
X4630528Y2025527D02*
X4559472D01*
Y1954473D01*
X4630528D01*
Y2025527D01*
D02*
G37*
G36*
X4725000Y2025834D02*
X4715725Y2024613D01*
X4707083Y2021033D01*
X4699662Y2015339D01*
X4693967Y2007917D01*
X4690387Y1999274D01*
X4689166Y1990000D01*
X4690387Y1980726D01*
X4693967Y1972083D01*
X4699662Y1964661D01*
X4707083Y1958967D01*
X4715725Y1955387D01*
X4725000Y1954166D01*
X4734275Y1955387D01*
X4742917Y1958967D01*
X4750338Y1964661D01*
X4756033Y1972083D01*
X4759613Y1980726D01*
X4760834Y1990000D01*
X4759613Y1999274D01*
X4756033Y2007917D01*
X4750338Y2015339D01*
X4742917Y2021033D01*
X4734275Y2024613D01*
X4725000Y2025834D01*
D02*
G37*
G36*
X4300000Y1986313D02*
X4293757Y1985072D01*
X4288465Y1981535D01*
X4284928Y1976243D01*
X4283686Y1970000D01*
X4284928Y1963757D01*
X4288465Y1958465D01*
X4293757Y1954928D01*
X4300000Y1953687D01*
X4306243Y1954928D01*
X4311535Y1958465D01*
X4315072Y1963757D01*
X4316314Y1970000D01*
X4315072Y1976243D01*
X4311535Y1981535D01*
X4306243Y1985072D01*
X4300000Y1986313D01*
D02*
G37*
G36*
X3680000Y1966313D02*
X3673757Y1965072D01*
X3668465Y1961535D01*
X3664928Y1956243D01*
X3663686Y1950000D01*
X3664928Y1943757D01*
X3668465Y1938465D01*
X3673757Y1934928D01*
X3680000Y1933687D01*
X3686243Y1934928D01*
X3691535Y1938465D01*
X3695072Y1943757D01*
X3696314Y1950000D01*
X3695072Y1956243D01*
X3691535Y1961535D01*
X3686243Y1965072D01*
X3680000Y1966313D01*
D02*
G37*
G36*
X4725000Y1925834D02*
X4715725Y1924613D01*
X4707083Y1921033D01*
X4699662Y1915339D01*
X4693967Y1907917D01*
X4690387Y1899274D01*
X4689166Y1890000D01*
X4690387Y1880726D01*
X4693967Y1872083D01*
X4699662Y1864661D01*
X4707083Y1858967D01*
X4715725Y1855387D01*
X4725000Y1854166D01*
X4734275Y1855387D01*
X4742917Y1858967D01*
X4750338Y1864661D01*
X4756033Y1872083D01*
X4759613Y1880726D01*
X4760834Y1890000D01*
X4759613Y1899274D01*
X4756033Y1907917D01*
X4750338Y1915339D01*
X4742917Y1921033D01*
X4734275Y1924613D01*
X4725000Y1925834D01*
D02*
G37*
G36*
X4450000Y1875834D02*
X4440725Y1874613D01*
X4432083Y1871033D01*
X4424662Y1865339D01*
X4418967Y1857917D01*
X4415387Y1849274D01*
X4414166Y1840000D01*
X4415387Y1830726D01*
X4418967Y1822083D01*
X4424662Y1814661D01*
X4432083Y1808967D01*
X4440725Y1805387D01*
X4450000Y1804166D01*
X4459275Y1805387D01*
X4467917Y1808967D01*
X4475338Y1814661D01*
X4481033Y1822083D01*
X4484613Y1830726D01*
X4485834Y1840000D01*
X4484613Y1849274D01*
X4481033Y1857917D01*
X4475338Y1865339D01*
X4467917Y1871033D01*
X4459275Y1874613D01*
X4450000Y1875834D01*
D02*
G37*
G36*
X4310000D02*
X4300725Y1874613D01*
X4292083Y1871033D01*
X4284662Y1865339D01*
X4278967Y1857917D01*
X4275387Y1849274D01*
X4274166Y1840000D01*
X4275387Y1830726D01*
X4278967Y1822083D01*
X4284662Y1814661D01*
X4292083Y1808967D01*
X4300725Y1805387D01*
X4310000Y1804166D01*
X4319275Y1805387D01*
X4327917Y1808967D01*
X4335338Y1814661D01*
X4341033Y1822083D01*
X4344613Y1830726D01*
X4345834Y1840000D01*
X4344613Y1849274D01*
X4341033Y1857917D01*
X4335338Y1865339D01*
X4327917Y1871033D01*
X4319275Y1874613D01*
X4310000Y1875834D01*
D02*
G37*
G36*
X4730000Y1829210D02*
Y1795000D01*
X4764210D01*
X4763510Y1800319D01*
X4759527Y1809934D01*
X4753191Y1818191D01*
X4744934Y1824527D01*
X4735319Y1828510D01*
X4730000Y1829210D01*
D02*
G37*
G36*
X4720000D02*
X4714681Y1828510D01*
X4705066Y1824527D01*
X4696809Y1818191D01*
X4690473Y1809934D01*
X4686490Y1800319D01*
X4685790Y1795000D01*
X4720000D01*
Y1829210D01*
D02*
G37*
G36*
X4764210Y1785000D02*
X4730000D01*
Y1750790D01*
X4735319Y1751490D01*
X4744934Y1755473D01*
X4753191Y1761809D01*
X4759527Y1770066D01*
X4763510Y1779681D01*
X4764210Y1785000D01*
D02*
G37*
G36*
X4720000D02*
X4685790D01*
X4686490Y1779681D01*
X4690473Y1770066D01*
X4696809Y1761809D01*
X4705066Y1755473D01*
X4714681Y1751490D01*
X4720000Y1750790D01*
Y1785000D01*
D02*
G37*
G36*
X3645000Y1739397D02*
Y1725000D01*
X3659397D01*
X3658840Y1727804D01*
X3654419Y1734419D01*
X3647804Y1738840D01*
X3645000Y1739397D01*
D02*
G37*
G36*
X3635000D02*
X3632196Y1738840D01*
X3625581Y1734419D01*
X3621160Y1727804D01*
X3620603Y1725000D01*
X3635000D01*
Y1739397D01*
D02*
G37*
G36*
X3785000Y1741313D02*
X3778757Y1740072D01*
X3773465Y1736535D01*
X3769928Y1731243D01*
X3768686Y1725000D01*
X3769928Y1718757D01*
X3773465Y1713465D01*
X3778757Y1709928D01*
X3785000Y1708687D01*
X3791243Y1709928D01*
X3796535Y1713465D01*
X3800072Y1718757D01*
X3801314Y1725000D01*
X3800072Y1731243D01*
X3796535Y1736535D01*
X3791243Y1740072D01*
X3785000Y1741313D01*
D02*
G37*
G36*
X4485528Y1775527D02*
X4414472D01*
Y1704473D01*
X4485528D01*
Y1775527D01*
D02*
G37*
G36*
X4345528D02*
X4274472D01*
Y1704473D01*
X4345528D01*
Y1775527D01*
D02*
G37*
G36*
X3659397Y1715000D02*
X3645000D01*
Y1700603D01*
X3647804Y1701160D01*
X3654419Y1705581D01*
X3658840Y1712196D01*
X3659397Y1715000D01*
D02*
G37*
G36*
X3635000D02*
X3620603D01*
X3621160Y1712196D01*
X3625581Y1705581D01*
X3632196Y1701160D01*
X3635000Y1700603D01*
Y1715000D01*
D02*
G37*
G36*
X4545000Y1709397D02*
Y1695000D01*
X4559397D01*
X4558840Y1697804D01*
X4554419Y1704419D01*
X4547804Y1708840D01*
X4545000Y1709397D01*
D02*
G37*
G36*
X4535000D02*
X4532196Y1708840D01*
X4525581Y1704419D01*
X4521160Y1697804D01*
X4520603Y1695000D01*
X4535000D01*
Y1709397D01*
D02*
G37*
G36*
X4559397Y1685000D02*
X4545000D01*
Y1670603D01*
X4547804Y1671160D01*
X4554419Y1675581D01*
X4558840Y1682196D01*
X4559397Y1685000D01*
D02*
G37*
G36*
X4535000D02*
X4520603D01*
X4521160Y1682196D01*
X4525581Y1675581D01*
X4532196Y1671160D01*
X4535000Y1670603D01*
Y1685000D01*
D02*
G37*
G36*
X4725000Y1725834D02*
X4715725Y1724613D01*
X4707083Y1721033D01*
X4699662Y1715339D01*
X4693967Y1707917D01*
X4690387Y1699274D01*
X4689166Y1690000D01*
X4690387Y1680726D01*
X4693967Y1672083D01*
X4699662Y1664661D01*
X4707083Y1658967D01*
X4715725Y1655387D01*
X4725000Y1654166D01*
X4734275Y1655387D01*
X4742917Y1658967D01*
X4750338Y1664661D01*
X4756033Y1672083D01*
X4759613Y1680726D01*
X4760834Y1690000D01*
X4759613Y1699274D01*
X4756033Y1707917D01*
X4750338Y1715339D01*
X4742917Y1721033D01*
X4734275Y1724613D01*
X4725000Y1725834D01*
D02*
G37*
G36*
X4760528Y1625527D02*
X4689472D01*
Y1554473D01*
X4760528D01*
Y1625527D01*
D02*
G37*
G36*
X4305000Y1554397D02*
Y1540000D01*
X4319397D01*
X4318840Y1542804D01*
X4314419Y1549419D01*
X4307804Y1553840D01*
X4305000Y1554397D01*
D02*
G37*
G36*
X4295000D02*
X4292196Y1553840D01*
X4285581Y1549419D01*
X4281160Y1542804D01*
X4280603Y1540000D01*
X4295000D01*
Y1554397D01*
D02*
G37*
G36*
X4319397Y1530000D02*
X4305000D01*
Y1515603D01*
X4307804Y1516160D01*
X4314419Y1520581D01*
X4318840Y1527196D01*
X4319397Y1530000D01*
D02*
G37*
G36*
X4295000D02*
X4280603D01*
X4281160Y1527196D01*
X4285581Y1520581D01*
X4292196Y1516160D01*
X4295000Y1515603D01*
Y1530000D01*
D02*
G37*
G36*
X3505000Y1509397D02*
Y1495000D01*
X3519397D01*
X3518840Y1497804D01*
X3514419Y1504419D01*
X3507804Y1508840D01*
X3505000Y1509397D01*
D02*
G37*
G36*
X3495000D02*
X3492196Y1508840D01*
X3485581Y1504419D01*
X3481160Y1497804D01*
X3480603Y1495000D01*
X3495000D01*
Y1509397D01*
D02*
G37*
G36*
X4100787Y1566311D02*
X4091390Y1565073D01*
X4082632Y1561446D01*
X4075112Y1555676D01*
X4069341Y1548155D01*
X4065714Y1539398D01*
X4064477Y1530000D01*
X4065714Y1520602D01*
X4069341Y1511845D01*
X4075112Y1504324D01*
X4082632Y1498554D01*
X4091390Y1494927D01*
X4100787Y1493689D01*
X4110185Y1494927D01*
X4118943Y1498554D01*
X4126463Y1504324D01*
X4132233Y1511845D01*
X4135861Y1520602D01*
X4137098Y1530000D01*
X4135861Y1539398D01*
X4132233Y1548155D01*
X4126463Y1555676D01*
X4118943Y1561446D01*
X4110185Y1565073D01*
X4100787Y1566311D01*
D02*
G37*
G36*
X3650000D02*
X3640602Y1565073D01*
X3631845Y1561446D01*
X3624325Y1555676D01*
X3618554Y1548155D01*
X3614927Y1539398D01*
X3613689Y1530000D01*
X3614927Y1520602D01*
X3618554Y1511845D01*
X3624325Y1504324D01*
X3631845Y1498554D01*
X3640602Y1494927D01*
X3650000Y1493689D01*
X3659398Y1494927D01*
X3668155Y1498554D01*
X3675675Y1504324D01*
X3681446Y1511845D01*
X3685073Y1520602D01*
X3686311Y1530000D01*
X3685073Y1539398D01*
X3681446Y1548155D01*
X3675675Y1555676D01*
X3668155Y1561446D01*
X3659398Y1565073D01*
X3650000Y1566311D01*
D02*
G37*
G36*
X3519397Y1485000D02*
X3505000D01*
Y1470603D01*
X3507804Y1471160D01*
X3514419Y1475581D01*
X3518840Y1482196D01*
X3519397Y1485000D01*
D02*
G37*
G36*
X3495000D02*
X3480603D01*
X3481160Y1482196D01*
X3485581Y1475581D01*
X3492196Y1471160D01*
X3495000Y1470603D01*
Y1485000D01*
D02*
G37*
G36*
X4160000Y6621314D02*
X4153757Y6620072D01*
X4148465Y6616535D01*
X4144928Y6611243D01*
X4143686Y6605000D01*
X4144928Y6598757D01*
X4148465Y6593465D01*
X4153757Y6589928D01*
X4160000Y6588686D01*
X4166243Y6589928D01*
X4171535Y6593465D01*
X4175072Y6598757D01*
X4176314Y6605000D01*
X4175072Y6611243D01*
X4171535Y6616535D01*
X4166243Y6620072D01*
X4160000Y6621314D01*
D02*
G37*
G36*
X3960000Y6504397D02*
Y6490000D01*
X3974397D01*
X3973840Y6492804D01*
X3969419Y6499419D01*
X3962804Y6503840D01*
X3960000Y6504397D01*
D02*
G37*
G36*
X3950000D02*
X3947196Y6503840D01*
X3940581Y6499419D01*
X3936160Y6492804D01*
X3935603Y6490000D01*
X3950000D01*
Y6504397D01*
D02*
G37*
G36*
X4185000Y6499397D02*
Y6485000D01*
X4199397D01*
X4198840Y6487804D01*
X4194419Y6494419D01*
X4187804Y6498840D01*
X4185000Y6499397D01*
D02*
G37*
G36*
X4175000D02*
X4172196Y6498840D01*
X4165581Y6494419D01*
X4161160Y6487804D01*
X4160603Y6485000D01*
X4175000D01*
Y6499397D01*
D02*
G37*
G36*
X3974397Y6480000D02*
X3960000D01*
Y6465603D01*
X3962804Y6466160D01*
X3969419Y6470581D01*
X3973840Y6477196D01*
X3974397Y6480000D01*
D02*
G37*
G36*
X3950000D02*
X3935603D01*
X3936160Y6477196D01*
X3940581Y6470581D01*
X3947196Y6466160D01*
X3950000Y6465603D01*
Y6480000D01*
D02*
G37*
G36*
X4199397Y6475000D02*
X4185000D01*
Y6460603D01*
X4187804Y6461160D01*
X4194419Y6465581D01*
X4198840Y6472196D01*
X4199397Y6475000D01*
D02*
G37*
G36*
X4175000D02*
X4160603D01*
X4161160Y6472196D01*
X4165581Y6465581D01*
X4172196Y6461160D01*
X4175000Y6460603D01*
Y6475000D01*
D02*
G37*
G36*
X4125000Y6414397D02*
Y6400000D01*
X4139397D01*
X4138840Y6402804D01*
X4134419Y6409419D01*
X4127804Y6413840D01*
X4125000Y6414397D01*
D02*
G37*
G36*
X4115000D02*
X4112196Y6413840D01*
X4105581Y6409419D01*
X4101160Y6402804D01*
X4100603Y6400000D01*
X4115000D01*
Y6414397D01*
D02*
G37*
G36*
X4139397Y6390000D02*
X4125000D01*
Y6375603D01*
X4127804Y6376160D01*
X4134419Y6380581D01*
X4138840Y6387196D01*
X4139397Y6390000D01*
D02*
G37*
G36*
X4115000D02*
X4100603D01*
X4101160Y6387196D01*
X4105581Y6380581D01*
X4112196Y6376160D01*
X4115000Y6375603D01*
Y6390000D01*
D02*
G37*
G36*
X3960000Y6331314D02*
X3953757Y6330072D01*
X3948465Y6326535D01*
X3944928Y6321243D01*
X3943686Y6315000D01*
X3944928Y6308757D01*
X3948465Y6303465D01*
X3953757Y6299928D01*
X3960000Y6298686D01*
X3966243Y6299928D01*
X3971535Y6303465D01*
X3975072Y6308757D01*
X3976314Y6315000D01*
X3975072Y6321243D01*
X3971535Y6326535D01*
X3966243Y6330072D01*
X3960000Y6331314D01*
D02*
G37*
G36*
X4140000Y6240000D02*
X4125603D01*
X4126160Y6237196D01*
X4130581Y6230581D01*
X4137196Y6226160D01*
X4140000Y6225603D01*
Y6240000D01*
D02*
G37*
G36*
X3995000Y6224397D02*
X3992196Y6223840D01*
X3985581Y6219419D01*
X3981160Y6212804D01*
X3980603Y6210000D01*
X3995000D01*
Y6224397D01*
D02*
G37*
G36*
Y6200000D02*
X3980603D01*
X3981160Y6197196D01*
X3985581Y6190581D01*
X3992196Y6186160D01*
X3995000Y6185603D01*
Y6200000D01*
D02*
G37*
G36*
X4205000Y3474397D02*
Y3460000D01*
X4219397D01*
X4218840Y3462804D01*
X4214419Y3469419D01*
X4207804Y3473840D01*
X4205000Y3474397D01*
D02*
G37*
G36*
X4195000D02*
X4192196Y3473840D01*
X4185581Y3469419D01*
X4181160Y3462804D01*
X4180603Y3460000D01*
X4195000D01*
Y3474397D01*
D02*
G37*
G36*
X4219397Y3450000D02*
X4205000D01*
Y3435603D01*
X4207804Y3436160D01*
X4214419Y3440581D01*
X4218840Y3447196D01*
X4219397Y3450000D01*
D02*
G37*
G36*
X4195000D02*
X4180603D01*
X4181160Y3447196D01*
X4185581Y3440581D01*
X4192196Y3436160D01*
X4195000Y3435603D01*
Y3450000D01*
D02*
G37*
G36*
X3830312Y3465814D02*
X3824070Y3464572D01*
X3818777Y3461036D01*
X3815241Y3455744D01*
X3813999Y3449501D01*
X3815241Y3443258D01*
X3818777Y3437965D01*
X3824070Y3434429D01*
X3830312Y3433187D01*
X3836555Y3434429D01*
X3841848Y3437965D01*
X3845384Y3443258D01*
X3846626Y3449501D01*
X3845384Y3455744D01*
X3841848Y3461036D01*
X3836555Y3464572D01*
X3830312Y3465814D01*
D02*
G37*
%LPD*%
D36*
X4064000Y3366000D02*
Y5979000D01*
X4048000Y3281698D02*
Y6003000D01*
X4032000Y3268000D02*
Y6062000D01*
X4016000Y3396000D02*
Y6075000D01*
X4111000Y3184000D02*
Y3218698D01*
X4032000Y3268000D02*
X4090000Y3210000D01*
X4064000Y3366000D02*
X4090000Y3340000D01*
X3890000Y3270000D02*
X4016000Y3396000D01*
X4048000Y3281698D02*
X4111000Y3218698D01*
X4064000Y5979000D02*
X4210000Y6125000D01*
X4200000Y6530000D02*
X4201000Y6529000D01*
X4111000Y3184000D02*
X4255000Y3040000D01*
X4048000Y6003000D02*
X4180000Y6135000D01*
X4032000Y6062000D02*
X4080000Y6110000D01*
X4016000Y6075000D02*
X4025000Y6084000D01*
Y6275000D01*
X4080000Y6110000D02*
Y6230000D01*
X4180000Y6135000D02*
Y6239698D01*
X4150000Y6269698D02*
X4180000Y6239698D01*
X4150000Y6269698D02*
Y6305000D01*
X4035000Y6410000D02*
Y6419698D01*
X4145302Y6530000D02*
X4200000D01*
X4035000Y6419698D02*
X4145302Y6530000D01*
X4210000Y6125000D02*
Y6365000D01*
X4110000Y6465000D02*
X4210000Y6365000D01*
X3940000Y6580000D02*
X3950000D01*
X3915000Y6555000D02*
X3940000Y6580000D01*
X3915000Y6467752D02*
Y6555000D01*
Y6467752D02*
X4080000Y6302752D01*
Y6230000D02*
Y6302752D01*
X3365000Y2630000D02*
X3366000Y2629000D01*
D37*
X4265000Y2270000D02*
D03*
X4595000Y1990000D02*
D03*
X4450000Y1740000D02*
D03*
X4310000D02*
D03*
X3365000Y2530000D02*
D03*
X3500000Y2020000D02*
D03*
X4725000Y1590000D02*
D03*
D38*
X4265000Y2370000D02*
D03*
X4595000Y2090000D02*
D03*
X4450000Y1840000D02*
D03*
X4310000D02*
D03*
X3365000Y2630000D02*
D03*
Y2730000D02*
D03*
X3500000Y2120000D02*
D03*
X4725000Y1690000D02*
D03*
Y1790000D02*
D03*
Y1890000D02*
D03*
Y1990000D02*
D03*
Y2090000D02*
D03*
D39*
X3650000Y1530000D02*
D03*
X4100787D02*
D03*
D40*
X3810000Y2880000D02*
D03*
X3750000Y2640000D02*
D03*
X3465000Y2320000D02*
D03*
X3485000Y2350000D02*
D03*
X3920000Y2535000D02*
D03*
X3840000Y2360000D02*
D03*
X3700000Y2395000D02*
D03*
X4070000Y2535000D02*
D03*
X3995000Y2415000D02*
D03*
X4046575Y2453425D02*
D03*
X4210000Y2480000D02*
D03*
X3945000Y2015000D02*
D03*
X3740000Y2115000D02*
D03*
X4035000Y2775000D02*
D03*
X4200000Y3455000D02*
D03*
Y3310000D02*
D03*
X3830312Y3449501D02*
D03*
X3780000Y2625000D02*
D03*
X3970000Y2640000D02*
D03*
X3995000Y2660000D02*
D03*
X4070000Y2750000D02*
D03*
X3845000Y2920000D02*
D03*
X3740421Y2825421D02*
D03*
X3625000Y3255000D02*
D03*
X3820000Y3105000D02*
D03*
X3430000Y2850000D02*
D03*
X3785000Y1725000D02*
D03*
X3640000Y1720000D02*
D03*
X4090000Y3340000D02*
D03*
Y3210000D02*
D03*
X4255000Y3040000D02*
D03*
X4145000Y6245000D02*
D03*
X4035000Y6410000D02*
D03*
X4150000Y6305000D02*
D03*
X3960000Y6315000D02*
D03*
X4080000Y6230000D02*
D03*
X4110000Y6465000D02*
D03*
X4160000Y6605000D02*
D03*
X3950000Y6580000D02*
D03*
X4200000Y6530000D02*
D03*
X4070000Y3115000D02*
D03*
X4046707Y2281707D02*
D03*
X3725000Y2765000D02*
D03*
X3765000Y2795000D02*
D03*
X3770000Y2825000D02*
D03*
X3970000Y2835000D02*
D03*
X4765000Y2180000D02*
D03*
X4680000Y2185000D02*
D03*
X3830000Y3310000D02*
D03*
X3890000Y3270000D02*
D03*
X4640000Y3085000D02*
D03*
X4265000Y2900000D02*
D03*
X4160000Y3055000D02*
D03*
X4240000Y3150000D02*
D03*
X4100000Y2935000D02*
D03*
X3875000Y2360000D02*
D03*
X3680000Y2365000D02*
D03*
X3700000Y2290000D02*
D03*
X4225000Y2575000D02*
D03*
X4410000Y2405000D02*
D03*
Y2245000D02*
D03*
X4545000Y2275000D02*
D03*
X4300000Y1970000D02*
D03*
X4245000Y2095000D02*
D03*
X4485000Y1990000D02*
D03*
X3775000Y2020000D02*
D03*
X4540000Y1690000D02*
D03*
X4300000Y1535000D02*
D03*
X3680000Y1950000D02*
D03*
X4005000Y2010000D02*
D03*
X3500000Y1490000D02*
D03*
X3955000Y6485000D02*
D03*
X4180000Y6480000D02*
D03*
X4000000Y6205000D02*
D03*
X4025000Y6275000D02*
D03*
X4120000Y6395000D02*
D03*
X3831758Y3155973D02*
D03*
X3663718Y3301960D02*
D03*
X3768317Y3241960D02*
D03*
X3672912Y3231960D02*
D03*
X3645073Y3171960D02*
D03*
X3588167Y3226960D02*
D03*
X3530000Y3170000D02*
D03*
X3477008Y2798846D02*
D03*
X3386758Y2886960D02*
D03*
X3523215Y3057784D02*
D03*
X3446758Y3109362D02*
D03*
X3406758Y3031960D02*
D03*
X3416723Y2945383D02*
D03*
X3316758Y2971960D02*
D03*
D41*
X4740000Y3290000D02*
D03*
X3325000Y1355000D02*
D03*
X4745000D02*
D03*
X3320000Y3300000D02*
D03*
%TF.MD5,27318fdcf8e1767c4dfc61731c8d5be1*%
M02*
