%TF.GenerationSoftware,Altium Limited,Altium Designer,19.1.5 (86)*%
G04 Layer_Color=32768*
%FSLAX26Y26*%
%MOIN*%
%TF.FileFunction,Other,Mechanical_15*%
%TF.Part,Single*%
G01*
G75*
%TA.AperFunction,NonConductor*%
%ADD47C,0.003937*%
%ADD50C,0.007874*%
%ADD79C,0.001968*%
D47*
X3855315Y2190000D02*
X3894685D01*
X3875000Y2170315D02*
Y2209685D01*
X3525866Y1544134D02*
Y1894527D01*
X3384134D02*
X3525866D01*
X3384134Y1544134D02*
Y1894527D01*
Y1544134D02*
X3525866D01*
D50*
X3694997Y6870000D02*
X4374999D01*
X3250000Y1275000D02*
X4825000D01*
X3250000D02*
Y3375000D01*
X4825000Y1275000D02*
Y3375000D01*
X4375000D02*
Y3420000D01*
X3696960Y3375000D02*
Y3426960D01*
X4375000Y3375000D02*
X4825000D01*
X3250000D02*
X3696960D01*
X3694997Y6870000D02*
X3696960Y3426960D01*
X4374999Y6870000D02*
X4375000Y3420000D01*
D79*
X3756890Y2026614D02*
Y2353386D01*
X3993110Y2026614D02*
Y2353386D01*
X3756890Y2026614D02*
X3993110D01*
X3756890Y2353386D02*
X3993110D01*
X4037480Y6247520D02*
X4132756D01*
X4037480D02*
Y6342795D01*
X4132756D01*
Y6247520D02*
Y6342795D01*
%TF.MD5,05ec8fb2fa81ed594d72e4ca54c0027a*%
M02*
