%TF.GenerationSoftware,Altium Limited,Altium Designer,19.1.5 (86)*%
G04 Layer_Color=255*
%FSLAX26Y26*%
%MOIN*%
%TF.FileFunction,Pads,Top*%
%TF.Part,Single*%
G01*
G75*
%TA.AperFunction,SMDPad,CuDef*%
G04:AMPARAMS|DCode=10|XSize=35.433mil|YSize=33.465mil|CornerRadius=0mil|HoleSize=0mil|Usage=FLASHONLY|Rotation=45.000|XOffset=0mil|YOffset=0mil|HoleType=Round|Shape=Rectangle|*
%AMROTATEDRECTD10*
4,1,4,-0.000696,-0.024359,-0.024359,-0.000696,0.000696,0.024359,0.024359,0.000696,-0.000696,-0.024359,0.0*
%
%ADD10ROTATEDRECTD10*%

%ADD11P,0.038974X4X90.0*%
%ADD12P,0.035634X4X270.0*%
G04:AMPARAMS|DCode=13|XSize=35.433mil|YSize=33.465mil|CornerRadius=0mil|HoleSize=0mil|Usage=FLASHONLY|Rotation=135.000|XOffset=0mil|YOffset=0mil|HoleType=Round|Shape=Rectangle|*
%AMROTATEDRECTD13*
4,1,4,0.024359,-0.000696,0.000696,-0.024359,-0.024359,0.000696,-0.000696,0.024359,0.024359,-0.000696,0.0*
%
%ADD13ROTATEDRECTD13*%

G04:AMPARAMS|DCode=14|XSize=33.465mil|YSize=25.591mil|CornerRadius=0mil|HoleSize=0mil|Usage=FLASHONLY|Rotation=45.000|XOffset=0mil|YOffset=0mil|HoleType=Round|Shape=Rectangle|*
%AMROTATEDRECTD14*
4,1,4,-0.002784,-0.020879,-0.020879,-0.002784,0.002784,0.020879,0.020879,0.002784,-0.002784,-0.020879,0.0*
%
%ADD14ROTATEDRECTD14*%

%ADD15R,0.035433X0.033465*%
G04:AMPARAMS|DCode=16|XSize=11.811mil|YSize=55.118mil|CornerRadius=0mil|HoleSize=0mil|Usage=FLASHONLY|Rotation=225.000|XOffset=0mil|YOffset=0mil|HoleType=Round|Shape=Rectangle|*
%AMROTATEDRECTD16*
4,1,4,-0.015311,0.023663,0.023663,-0.015311,0.015311,-0.023663,-0.023663,0.015311,-0.015311,0.023663,0.0*
%
%ADD16ROTATEDRECTD16*%

G04:AMPARAMS|DCode=17|XSize=11.811mil|YSize=55.118mil|CornerRadius=0mil|HoleSize=0mil|Usage=FLASHONLY|Rotation=135.000|XOffset=0mil|YOffset=0mil|HoleType=Round|Shape=Rectangle|*
%AMROTATEDRECTD17*
4,1,4,0.023663,0.015311,-0.015311,-0.023663,-0.023663,-0.015311,0.015311,0.023663,0.023663,0.015311,0.0*
%
%ADD17ROTATEDRECTD17*%

%ADD18R,0.033465X0.035433*%
%ADD19R,0.025197X0.025197*%
%ADD20R,0.017716X0.011811*%
%ADD21R,0.035039X0.062992*%
%ADD22R,0.043307X0.023622*%
%ADD23O,0.025591X0.064961*%
%ADD24R,0.013780X0.014961*%
%ADD25R,0.050394X0.094488*%
%ADD26R,0.039370X0.015748*%
%ADD27R,0.055118X0.086614*%
%ADD28R,0.078740X0.098425*%
%ADD29R,0.015748X0.025591*%
%ADD30R,0.049213X0.070866*%
%ADD31O,0.062992X0.157480*%
%ADD32R,0.062992X0.157480*%
%ADD33R,0.025197X0.025197*%
%ADD34R,0.041339X0.051181*%
%TA.AperFunction,ComponentPad*%
%ADD37R,0.059055X0.059055*%
%ADD38C,0.059055*%
%ADD39C,0.060000*%
D10*
X3738425Y3181575D02*
D03*
X3781575Y3138425D02*
D03*
X3693425Y3141575D02*
D03*
X3736575Y3098425D02*
D03*
X3568425Y3006575D02*
D03*
X3611575Y2963425D02*
D03*
X4123150Y2441850D02*
D03*
X4080000Y2485000D02*
D03*
X4123425Y2531575D02*
D03*
X4166575Y2488425D02*
D03*
D11*
X3490201Y2914799D02*
D03*
X3525000Y2949597D02*
D03*
Y2880000D02*
D03*
X3559798Y2914799D02*
D03*
D12*
X3482806Y2852194D02*
D03*
X3457194Y2877806D02*
D03*
D13*
X3563425Y3098425D02*
D03*
X3606575Y3141575D02*
D03*
X4163425Y2868425D02*
D03*
X4206575Y2911575D02*
D03*
X4063425Y2968425D02*
D03*
X4106575Y3011575D02*
D03*
X3676575Y2516575D02*
D03*
X3633425Y2473425D02*
D03*
D14*
X3695000Y3050000D02*
D03*
X3657418Y3012418D02*
D03*
X3649066Y3095934D02*
D03*
X3611483Y3058352D02*
D03*
D15*
X4105000Y2330512D02*
D03*
Y2269488D02*
D03*
X4115000Y2014488D02*
D03*
Y2075512D02*
D03*
X3705000Y2080000D02*
D03*
Y2018976D02*
D03*
X3610000Y2080512D02*
D03*
Y2019488D02*
D03*
D16*
X3930879Y2471282D02*
D03*
X3944799Y2485202D02*
D03*
X3958718Y2499121D02*
D03*
X3972637Y2513040D02*
D03*
X3986557Y2526960D02*
D03*
X4000476Y2540879D02*
D03*
X4014396Y2554799D02*
D03*
X4028315Y2568718D02*
D03*
X4042235Y2582638D02*
D03*
X4056154Y2596557D02*
D03*
X4070073Y2610476D02*
D03*
X4083993Y2624396D02*
D03*
X4097912Y2638315D02*
D03*
X4111832Y2652235D02*
D03*
X4125751Y2666154D02*
D03*
X4139671Y2680073D02*
D03*
X3822308Y2997436D02*
D03*
X3808388Y2983517D02*
D03*
X3794469Y2969598D02*
D03*
X3780549Y2955678D02*
D03*
X3766630Y2941759D02*
D03*
X3752711Y2927839D02*
D03*
X3738791Y2913920D02*
D03*
X3724872Y2900000D02*
D03*
X3710952Y2886081D02*
D03*
X3697033Y2872162D02*
D03*
X3683113Y2858242D02*
D03*
X3669194Y2844323D02*
D03*
X3655275Y2830403D02*
D03*
X3641355Y2816484D02*
D03*
X3627436Y2802564D02*
D03*
X3613516Y2788645D02*
D03*
D17*
X4139671D02*
D03*
X4125751Y2802564D02*
D03*
X4111832Y2816484D02*
D03*
X4097912Y2830403D02*
D03*
X4083993Y2844323D02*
D03*
X4070073Y2858242D02*
D03*
X4056154Y2872162D02*
D03*
X4042235Y2886081D02*
D03*
X4028315Y2900000D02*
D03*
X4014396Y2913920D02*
D03*
X4000476Y2927839D02*
D03*
X3986557Y2941759D02*
D03*
X3972637Y2955678D02*
D03*
X3958718Y2969598D02*
D03*
X3944799Y2983517D02*
D03*
X3930879Y2997436D02*
D03*
X3613516Y2680073D02*
D03*
X3627436Y2666154D02*
D03*
X3641355Y2652235D02*
D03*
X3655275Y2638315D02*
D03*
X3669194Y2624396D02*
D03*
X3683113Y2610476D02*
D03*
X3697033Y2596557D02*
D03*
X3710952Y2582638D02*
D03*
X3724872Y2568718D02*
D03*
X3738791Y2554799D02*
D03*
X3752711Y2540879D02*
D03*
X3766630Y2526960D02*
D03*
X3780549Y2513040D02*
D03*
X3794469Y2499121D02*
D03*
X3808388Y2485202D02*
D03*
X3822308Y2471282D02*
D03*
D18*
X4320512Y2985000D02*
D03*
X4259488D02*
D03*
X4130000Y3110000D02*
D03*
X4191024D02*
D03*
X4280512Y2625000D02*
D03*
X4219488D02*
D03*
X3744488Y2380000D02*
D03*
X3805512D02*
D03*
X3990512D02*
D03*
X3929488D02*
D03*
X4191024Y3240000D02*
D03*
X4130000D02*
D03*
X4191024Y3175000D02*
D03*
X4130000D02*
D03*
X3501024Y2395000D02*
D03*
X3440000D02*
D03*
X3500512Y2280000D02*
D03*
X3439488D02*
D03*
X3632480Y2395000D02*
D03*
X3571457D02*
D03*
X3630000Y2280000D02*
D03*
X3568976D02*
D03*
D19*
X4165000Y6516890D02*
D03*
Y6553110D02*
D03*
X4365000Y2351890D02*
D03*
Y2388110D02*
D03*
Y2303110D02*
D03*
Y2266890D02*
D03*
X4555000Y2353110D02*
D03*
Y2316890D02*
D03*
X4490000Y2093110D02*
D03*
Y2056890D02*
D03*
X4230000Y2016890D02*
D03*
Y2053110D02*
D03*
X4040000Y2078110D02*
D03*
Y2041890D02*
D03*
X3990000Y6278110D02*
D03*
Y6241890D02*
D03*
X4045000Y2358110D02*
D03*
Y2321890D02*
D03*
D20*
X4421614Y2350591D02*
D03*
Y2325000D02*
D03*
Y2299410D02*
D03*
X4498386Y2350591D02*
D03*
Y2325000D02*
D03*
Y2299410D02*
D03*
D21*
X4460000Y2325000D02*
D03*
D22*
X4308819Y2092402D02*
D03*
Y2055000D02*
D03*
Y2017599D02*
D03*
X4411181D02*
D03*
Y2092402D02*
D03*
D23*
X3800000Y2078780D02*
D03*
X3850000D02*
D03*
X3900000D02*
D03*
X3950000D02*
D03*
X3800000Y2301220D02*
D03*
X3850000D02*
D03*
X3900000D02*
D03*
X3950000D02*
D03*
D24*
X4055000Y6305000D02*
D03*
Y6285315D02*
D03*
X4065433Y6265039D02*
D03*
X4085118D02*
D03*
X4104803D02*
D03*
X4115236Y6285315D02*
D03*
Y6305000D02*
D03*
X4104803Y6325276D02*
D03*
X4085118D02*
D03*
X4065433D02*
D03*
D25*
X4050000Y6555000D02*
D03*
D26*
X4102756Y6515630D02*
D03*
Y6555000D02*
D03*
Y6594370D02*
D03*
X3997244Y6515630D02*
D03*
Y6555000D02*
D03*
Y6594370D02*
D03*
D27*
X3950000Y3185000D02*
D03*
X4045000D02*
D03*
X4610000Y3180000D02*
D03*
X3320000Y3124252D02*
D03*
X4600000Y1750000D02*
D03*
X3460000Y1375000D02*
D03*
D28*
X3455000Y1615000D02*
D03*
Y1823661D02*
D03*
D29*
X4285315Y1574567D02*
D03*
X4324685D02*
D03*
D30*
X4305000Y1629685D02*
D03*
D31*
X3650787Y1835118D02*
D03*
X3800787D02*
D03*
X3950787D02*
D03*
D32*
X4100787D02*
D03*
D33*
X4411890Y1950000D02*
D03*
X4448110D02*
D03*
X4041890Y6375000D02*
D03*
X4078110D02*
D03*
D34*
X4494449Y1560000D02*
D03*
X4425551D02*
D03*
X4494449Y1640000D02*
D03*
X4425551D02*
D03*
D37*
X4265000Y2270000D02*
D03*
X4595000Y1990000D02*
D03*
X4450000Y1740000D02*
D03*
X4310000D02*
D03*
X3365000Y2530000D02*
D03*
X3500000Y2020000D02*
D03*
X4725000Y1590000D02*
D03*
D38*
X4265000Y2370000D02*
D03*
X4595000Y2090000D02*
D03*
X4450000Y1840000D02*
D03*
X4310000D02*
D03*
X3365000Y2630000D02*
D03*
Y2730000D02*
D03*
X3500000Y2120000D02*
D03*
X4725000Y1690000D02*
D03*
Y1790000D02*
D03*
Y1890000D02*
D03*
Y1990000D02*
D03*
Y2090000D02*
D03*
D39*
X3650000Y1530000D02*
D03*
X4100787D02*
D03*
%TF.MD5,e3efe928a19908696d18504e9407046d*%
M02*
