%TF.GenerationSoftware,Altium Limited,Altium Designer,19.1.5 (86)*%
G04 Layer_Color=128*
%FSLAX26Y26*%
%MOIN*%
%TF.FileFunction,Drillmap*%
%TF.Part,Single*%
G01*
G75*
%TA.AperFunction,NonConductor*%
%ADD51C,0.005000*%
D51*
X4247283Y2270000D02*
X4282717D01*
X4265000Y2252284D02*
Y2287716D01*
X4247283Y2370000D02*
X4282717D01*
X4265000Y2352284D02*
Y2387716D01*
X4577283Y1990000D02*
X4612717D01*
X4595000Y1972284D02*
Y2007716D01*
X4577283Y2090000D02*
X4612717D01*
X4595000Y2072284D02*
Y2107716D01*
X4432283Y1740000D02*
X4467717D01*
X4450000Y1722284D02*
Y1757716D01*
X4432283Y1840000D02*
X4467717D01*
X4450000Y1822284D02*
Y1857716D01*
X4292283Y1740000D02*
X4327717D01*
X4310000Y1722284D02*
Y1757716D01*
X4292283Y1840000D02*
X4327717D01*
X4310000Y1822284D02*
Y1857716D01*
X3347284Y2530000D02*
X3382716D01*
X3365000Y2512284D02*
Y2547716D01*
X3347284Y2630000D02*
X3382716D01*
X3365000Y2612284D02*
Y2647716D01*
X3347284Y2730000D02*
X3382716D01*
X3365000Y2712284D02*
Y2747716D01*
X3482284Y2020000D02*
X3517716D01*
X3500000Y2002284D02*
Y2037716D01*
X3482284Y2120000D02*
X3517716D01*
X3500000Y2102284D02*
Y2137716D01*
X4707283Y1590000D02*
X4742717D01*
X4725000Y1572284D02*
Y1607716D01*
X4707283Y1690000D02*
X4742717D01*
X4725000Y1672284D02*
Y1707716D01*
X4707283Y1790000D02*
X4742717D01*
X4725000Y1772284D02*
Y1807716D01*
X4707283Y1890000D02*
X4742717D01*
X4725000Y1872284D02*
Y1907716D01*
X4707283Y1990000D02*
X4742717D01*
X4725000Y1972284D02*
Y2007716D01*
X4707283Y2090000D02*
X4742717D01*
X4725000Y2072284D02*
Y2107716D01*
X3628347Y1530000D02*
X3671653D01*
X3650000Y1508347D02*
Y1551653D01*
X4079134Y1530000D02*
X4122441D01*
X4100787Y1508347D02*
Y1551653D01*
X3805000Y2880000D02*
X3815000D01*
X3810000Y2875000D02*
Y2885000D01*
X3745000Y2640000D02*
X3755000D01*
X3750000Y2635000D02*
Y2645000D01*
X3460000Y2320000D02*
X3470000D01*
X3465000Y2315000D02*
Y2325000D01*
X3480000Y2350000D02*
X3490000D01*
X3485000Y2345000D02*
Y2355000D01*
X3915000Y2535000D02*
X3925000D01*
X3920000Y2530000D02*
Y2540000D01*
X3835000Y2360000D02*
X3845000D01*
X3840000Y2355000D02*
Y2365000D01*
X3695000Y2395000D02*
X3705000D01*
X3700000Y2390000D02*
Y2400000D01*
X4065000Y2535000D02*
X4075000D01*
X4070000Y2530000D02*
Y2540000D01*
X3990000Y2415000D02*
X4000000D01*
X3995000Y2410000D02*
Y2420000D01*
X4041575Y2453425D02*
X4051575D01*
X4046575Y2448425D02*
Y2458425D01*
X4205000Y2480000D02*
X4215000D01*
X4210000Y2475000D02*
Y2485000D01*
X3940000Y2015000D02*
X3950000D01*
X3945000Y2010000D02*
Y2020000D01*
X3735000Y2115000D02*
X3745000D01*
X3740000Y2110000D02*
Y2120000D01*
X4030000Y2775000D02*
X4040000D01*
X4035000Y2770000D02*
Y2780000D01*
X4195000Y3455000D02*
X4205000D01*
X4200000Y3450000D02*
Y3460000D01*
X4195000Y3310000D02*
X4205000D01*
X4200000Y3305000D02*
Y3315000D01*
X3825312Y3449501D02*
X3835312D01*
X3830312Y3444501D02*
Y3454501D01*
X3775000Y2625000D02*
X3785000D01*
X3780000Y2620000D02*
Y2630000D01*
X3965000Y2640000D02*
X3975000D01*
X3970000Y2635000D02*
Y2645000D01*
X3990000Y2660000D02*
X4000000D01*
X3995000Y2655000D02*
Y2665000D01*
X4065000Y2750000D02*
X4075000D01*
X4070000Y2745000D02*
Y2755000D01*
X3840000Y2920000D02*
X3850000D01*
X3845000Y2915000D02*
Y2925000D01*
X3735421Y2825421D02*
X3745421D01*
X3740421Y2820421D02*
Y2830421D01*
X3620000Y3255000D02*
X3630000D01*
X3625000Y3250000D02*
Y3260000D01*
X3815000Y3105000D02*
X3825000D01*
X3820000Y3100000D02*
Y3110000D01*
X3425000Y2850000D02*
X3435000D01*
X3430000Y2845000D02*
Y2855000D01*
X3780000Y1725000D02*
X3790000D01*
X3785000Y1720000D02*
Y1730000D01*
X3635000Y1720000D02*
X3645000D01*
X3640000Y1715000D02*
Y1725000D01*
X4085000Y3340000D02*
X4095000D01*
X4090000Y3335000D02*
Y3345000D01*
X4085000Y3210000D02*
X4095000D01*
X4090000Y3205000D02*
Y3215000D01*
X4250000Y3040000D02*
X4260000D01*
X4255000Y3035000D02*
Y3045000D01*
X4140000Y6245000D02*
X4150000D01*
X4145000Y6240000D02*
Y6250000D01*
X4030000Y6410000D02*
X4040000D01*
X4035000Y6405000D02*
Y6415000D01*
X4145000Y6305000D02*
X4155000D01*
X4150000Y6300000D02*
Y6310000D01*
X3955000Y6315000D02*
X3965000D01*
X3960000Y6310000D02*
Y6320000D01*
X4075000Y6230000D02*
X4085000D01*
X4080000Y6225000D02*
Y6235000D01*
X4105000Y6465000D02*
X4115000D01*
X4110000Y6460000D02*
Y6470000D01*
X4155000Y6605000D02*
X4165000D01*
X4160000Y6600000D02*
Y6610000D01*
X3945000Y6580000D02*
X3955000D01*
X3950000Y6575000D02*
Y6585000D01*
X4195000Y6530000D02*
X4205000D01*
X4200000Y6525000D02*
Y6535000D01*
X4065000Y3115000D02*
X4075000D01*
X4070000Y3110000D02*
Y3120000D01*
X4041707Y2281707D02*
X4051707D01*
X4046707Y2276707D02*
Y2286707D01*
X3720000Y2765000D02*
X3730000D01*
X3725000Y2760000D02*
Y2770000D01*
X3760000Y2795000D02*
X3770000D01*
X3765000Y2790000D02*
Y2800000D01*
Y2825000D02*
X3775000D01*
X3770000Y2820000D02*
Y2830000D01*
X3965000Y2835000D02*
X3975000D01*
X3970000Y2830000D02*
Y2840000D01*
X4760000Y2180000D02*
X4770000D01*
X4765000Y2175000D02*
Y2185000D01*
X4675000D02*
X4685000D01*
X4680000Y2180000D02*
Y2190000D01*
X3825000Y3310000D02*
X3835000D01*
X3830000Y3305000D02*
Y3315000D01*
X3885000Y3270000D02*
X3895000D01*
X3890000Y3265000D02*
Y3275000D01*
X4635000Y3085000D02*
X4645000D01*
X4640000Y3080000D02*
Y3090000D01*
X4260000Y2900000D02*
X4270000D01*
X4265000Y2895000D02*
Y2905000D01*
X4155000Y3055000D02*
X4165000D01*
X4160000Y3050000D02*
Y3060000D01*
X4235000Y3150000D02*
X4245000D01*
X4240000Y3145000D02*
Y3155000D01*
X4095000Y2935000D02*
X4105000D01*
X4100000Y2930000D02*
Y2940000D01*
X3870000Y2360000D02*
X3880000D01*
X3875000Y2355000D02*
Y2365000D01*
X3675000D02*
X3685000D01*
X3680000Y2360000D02*
Y2370000D01*
X3695000Y2290000D02*
X3705000D01*
X3700000Y2285000D02*
Y2295000D01*
X4220000Y2575000D02*
X4230000D01*
X4225000Y2570000D02*
Y2580000D01*
X4405000Y2405000D02*
X4415000D01*
X4410000Y2400000D02*
Y2410000D01*
X4405000Y2245000D02*
X4415000D01*
X4410000Y2240000D02*
Y2250000D01*
X4540000Y2275000D02*
X4550000D01*
X4545000Y2270000D02*
Y2280000D01*
X4295000Y1970000D02*
X4305000D01*
X4300000Y1965000D02*
Y1975000D01*
X4240000Y2095000D02*
X4250000D01*
X4245000Y2090000D02*
Y2100000D01*
X4480000Y1990000D02*
X4490000D01*
X4485000Y1985000D02*
Y1995000D01*
X3770000Y2020000D02*
X3780000D01*
X3775000Y2015000D02*
Y2025000D01*
X4535000Y1690000D02*
X4545000D01*
X4540000Y1685000D02*
Y1695000D01*
X4295000Y1535000D02*
X4305000D01*
X4300000Y1530000D02*
Y1540000D01*
X3675000Y1950000D02*
X3685000D01*
X3680000Y1945000D02*
Y1955000D01*
X4000000Y2010000D02*
X4010000D01*
X4005000Y2005000D02*
Y2015000D01*
X3495000Y1490000D02*
X3505000D01*
X3500000Y1485000D02*
Y1495000D01*
X3950000Y6485000D02*
X3960000D01*
X3955000Y6480000D02*
Y6490000D01*
X4175000Y6480000D02*
X4185000D01*
X4180000Y6475000D02*
Y6485000D01*
X3995000Y6205000D02*
X4005000D01*
X4000000Y6200000D02*
Y6210000D01*
X4020000Y6275000D02*
X4030000D01*
X4025000Y6270000D02*
Y6280000D01*
X4115000Y6395000D02*
X4125000D01*
X4120000Y6390000D02*
Y6400000D01*
X3826758Y3155973D02*
X3836758D01*
X3831758Y3150973D02*
Y3160973D01*
X3658718Y3301960D02*
X3668718D01*
X3663718Y3296960D02*
Y3306960D01*
X3763317Y3241960D02*
X3773317D01*
X3768317Y3236960D02*
Y3246960D01*
X3667912Y3231960D02*
X3677912D01*
X3672912Y3226960D02*
Y3236960D01*
X3640073Y3171960D02*
X3650073D01*
X3645073Y3166960D02*
Y3176960D01*
X3583167Y3226960D02*
X3593167D01*
X3588167Y3221960D02*
Y3231960D01*
X3525000Y3170000D02*
X3535000D01*
X3530000Y3165000D02*
Y3175000D01*
X3472008Y2798846D02*
X3482008D01*
X3477008Y2793846D02*
Y2803846D01*
X3381758Y2886960D02*
X3391758D01*
X3386758Y2881960D02*
Y2891960D01*
X3518215Y3057784D02*
X3528215D01*
X3523215Y3052784D02*
Y3062784D01*
X3441758Y3109362D02*
X3451758D01*
X3446758Y3104362D02*
Y3114362D01*
X3401758Y3031960D02*
X3411758D01*
X3406758Y3026960D02*
Y3036960D01*
X3411723Y2945383D02*
X3421723D01*
X3416723Y2940383D02*
Y2950383D01*
X3311758Y2971960D02*
X3321758D01*
X3316758Y2966960D02*
Y2976960D01*
X4686850Y3290000D02*
X4793150D01*
X4740000Y3236850D02*
Y3343150D01*
X3271850Y1355000D02*
X3378150D01*
X3325000Y1301850D02*
Y1408150D01*
X4691850Y1355000D02*
X4798150D01*
X4745000Y1301850D02*
Y1408150D01*
X3266850Y3300000D02*
X3373150D01*
X3320000Y3246850D02*
Y3353150D01*
%TF.MD5,9519f59fb688cd08ab96ca2ffc475be2*%
M02*
