%TF.GenerationSoftware,Altium Limited,Altium Designer,19.1.5 (86)*%
G04 Layer_Color=16711935*
%FSLAX26Y26*%
%MOIN*%
%TF.FileFunction,Soldermask,Bot*%
%TF.Part,Single*%
G01*
G75*
%TA.AperFunction,ComponentPad*%
%ADD42R,0.067055X0.067055*%
%ADD43C,0.067055*%
%ADD44C,0.068000*%
%TA.AperFunction,ViaPad*%
%ADD45C,0.028000*%
%ADD46C,0.114299*%
D42*
X4265000Y2270000D02*
D03*
X4595000Y1990000D02*
D03*
X4450000Y1740000D02*
D03*
X4310000D02*
D03*
X3365000Y2530000D02*
D03*
X3500000Y2020000D02*
D03*
X4725000Y1590000D02*
D03*
D43*
X4265000Y2370000D02*
D03*
X4595000Y2090000D02*
D03*
X4450000Y1840000D02*
D03*
X4310000D02*
D03*
X3365000Y2630000D02*
D03*
Y2730000D02*
D03*
X3500000Y2120000D02*
D03*
X4725000Y1690000D02*
D03*
Y1790000D02*
D03*
Y1890000D02*
D03*
Y1990000D02*
D03*
Y2090000D02*
D03*
D44*
X3650000Y1530000D02*
D03*
X4100787D02*
D03*
D45*
X3810000Y2880000D02*
D03*
X3750000Y2640000D02*
D03*
X3465000Y2320000D02*
D03*
X3485000Y2350000D02*
D03*
X3920000Y2535000D02*
D03*
X3840000Y2360000D02*
D03*
X3700000Y2395000D02*
D03*
X4070000Y2535000D02*
D03*
X3995000Y2415000D02*
D03*
X4046575Y2453425D02*
D03*
X4210000Y2480000D02*
D03*
X3945000Y2015000D02*
D03*
X3740000Y2115000D02*
D03*
X4035000Y2775000D02*
D03*
X4200000Y3455000D02*
D03*
Y3310000D02*
D03*
X3830312Y3449501D02*
D03*
X3780000Y2625000D02*
D03*
X3970000Y2640000D02*
D03*
X3995000Y2660000D02*
D03*
X4070000Y2750000D02*
D03*
X3845000Y2920000D02*
D03*
X3740421Y2825421D02*
D03*
X3625000Y3255000D02*
D03*
X3820000Y3105000D02*
D03*
X3430000Y2850000D02*
D03*
X3785000Y1725000D02*
D03*
X3640000Y1720000D02*
D03*
X4090000Y3340000D02*
D03*
Y3210000D02*
D03*
X4255000Y3040000D02*
D03*
X4145000Y6245000D02*
D03*
X4035000Y6410000D02*
D03*
X4150000Y6305000D02*
D03*
X3960000Y6315000D02*
D03*
X4080000Y6230000D02*
D03*
X4110000Y6465000D02*
D03*
X4160000Y6605000D02*
D03*
X3950000Y6580000D02*
D03*
X4200000Y6530000D02*
D03*
X4070000Y3115000D02*
D03*
X4046707Y2281707D02*
D03*
X3725000Y2765000D02*
D03*
X3765000Y2795000D02*
D03*
X3770000Y2825000D02*
D03*
X3970000Y2835000D02*
D03*
X4765000Y2180000D02*
D03*
X4680000Y2185000D02*
D03*
X3830000Y3310000D02*
D03*
X3890000Y3270000D02*
D03*
X4640000Y3085000D02*
D03*
X4265000Y2900000D02*
D03*
X4160000Y3055000D02*
D03*
X4240000Y3150000D02*
D03*
X4100000Y2935000D02*
D03*
X3875000Y2360000D02*
D03*
X3680000Y2365000D02*
D03*
X3700000Y2290000D02*
D03*
X4225000Y2575000D02*
D03*
X4410000Y2405000D02*
D03*
Y2245000D02*
D03*
X4545000Y2275000D02*
D03*
X4300000Y1970000D02*
D03*
X4245000Y2095000D02*
D03*
X4485000Y1990000D02*
D03*
X3775000Y2020000D02*
D03*
X4540000Y1690000D02*
D03*
X4300000Y1535000D02*
D03*
X3680000Y1950000D02*
D03*
X4005000Y2010000D02*
D03*
X3500000Y1490000D02*
D03*
X3955000Y6485000D02*
D03*
X4180000Y6480000D02*
D03*
X4000000Y6205000D02*
D03*
X4025000Y6275000D02*
D03*
X4120000Y6395000D02*
D03*
X3831758Y3155973D02*
D03*
X3663718Y3301960D02*
D03*
X3768317Y3241960D02*
D03*
X3672912Y3231960D02*
D03*
X3645073Y3171960D02*
D03*
X3588167Y3226960D02*
D03*
X3530000Y3170000D02*
D03*
X3477008Y2798846D02*
D03*
X3386758Y2886960D02*
D03*
X3523215Y3057784D02*
D03*
X3446758Y3109362D02*
D03*
X3406758Y3031960D02*
D03*
X3416723Y2945383D02*
D03*
X3316758Y2971960D02*
D03*
D46*
X4740000Y3290000D02*
D03*
X3325000Y1355000D02*
D03*
X4745000D02*
D03*
X3320000Y3300000D02*
D03*
%TF.MD5,2bc7ef52c823b4eaa1f258b43355c2b0*%
M02*
