%TF.GenerationSoftware,Altium Limited,Altium Designer,19.1.5 (86)*%
G04 Layer_Color=32896*
%FSLAX26Y26*%
%MOIN*%
%TF.FileFunction,Other,Top_Courtyard*%
%TF.Part,Single*%
G01*
G75*
%TA.AperFunction,NonConductor*%
%ADD47C,0.003937*%
%ADD50C,0.007874*%
%ADD51C,0.005000*%
%ADD79C,0.001968*%
D47*
X3747472Y3172528D02*
X3772528Y3147472D01*
X3747472D02*
X3772528Y3172528D01*
X3702472Y3132528D02*
X3727528Y3107472D01*
X3702472D02*
X3727528Y3132528D01*
X3577472Y2997528D02*
X3602528Y2972472D01*
X3577472D02*
X3602528Y2997528D01*
X3511081Y2900879D02*
X3538919Y2928718D01*
X3511081D02*
X3538919Y2900879D01*
X3461648Y2873352D02*
X3478352Y2856648D01*
X3461648D02*
X3478352Y2873352D01*
X3572472Y3107472D02*
X3597528Y3132528D01*
X3572472D02*
X3597528Y3107472D01*
X3639322Y3040256D02*
X3667161Y3068095D01*
X3639322D02*
X3667161Y3040256D01*
X4105000Y2282284D02*
Y2317716D01*
X4087283Y2300000D02*
X4122717D01*
X3862674Y2748279D02*
X3890513Y2720440D01*
X3862674D02*
X3890513Y2748279D01*
X4272283Y2985000D02*
X4307717D01*
X4290000Y2967284D02*
Y3002717D01*
X4165000Y6523189D02*
Y6546811D01*
X4153189Y6535000D02*
X4176811D01*
X4440315Y2325000D02*
X4479685D01*
X4460000Y2305315D02*
Y2344685D01*
X4340315Y2055000D02*
X4379685D01*
X4360000Y2035315D02*
Y2074685D01*
X4050000Y6535315D02*
Y6574685D01*
X4030315Y6555000D02*
X4069685D01*
X3435315Y1719331D02*
X3474685D01*
X3455000Y1699646D02*
Y1739016D01*
X4160512Y3092284D02*
Y3127717D01*
X4142795Y3110000D02*
X4178228D01*
X4097283Y2045000D02*
X4132717D01*
X4115000Y2027284D02*
Y2062716D01*
X4250000Y2607283D02*
Y2642716D01*
X4232283Y2625000D02*
X4267717D01*
X3775000Y2362284D02*
Y2397717D01*
X3757284Y2380000D02*
X3792716D01*
X3960000Y2362283D02*
Y2397716D01*
X3942284Y2380000D02*
X3977716D01*
X3687284Y2049488D02*
X3722717D01*
X3705000Y2031772D02*
Y2067205D01*
X3592284Y2050000D02*
X3627717D01*
X3610000Y2032284D02*
Y2067716D01*
X4160512Y3222283D02*
Y3257716D01*
X4142795Y3240000D02*
X4178228D01*
X4160512Y3157283D02*
Y3192716D01*
X4142795Y3175000D02*
X4178228D01*
X4089048Y2450897D02*
X4114103Y2475952D01*
X4089048D02*
X4114103Y2450897D01*
X3470512Y2377283D02*
Y2412716D01*
X3452795Y2395000D02*
X3488228D01*
X3470000Y2262283D02*
Y2297716D01*
X3452284Y2280000D02*
X3487716D01*
X4285315Y1610000D02*
X4324685D01*
X4305000Y1590315D02*
Y1629685D01*
X3601968Y2377283D02*
Y2412716D01*
X3584252Y2395000D02*
X3619685D01*
X3599488Y2262283D02*
Y2297716D01*
X3581772Y2280000D02*
X3617205D01*
X4353189Y2370000D02*
X4376811D01*
X4365000Y2358189D02*
Y2381811D01*
X4353189Y2285000D02*
X4376811D01*
X4365000Y2273189D02*
Y2296811D01*
X4430000Y1938189D02*
Y1961811D01*
X4418189Y1950000D02*
X4441811D01*
X4543189Y2335000D02*
X4566811D01*
X4555000Y2323189D02*
Y2346811D01*
X4478189Y2075000D02*
X4501811D01*
X4490000Y2063189D02*
Y2086811D01*
X4218189Y2035000D02*
X4241811D01*
X4230000Y2023189D02*
Y2046811D01*
X4440315Y1560000D02*
X4479685D01*
X4460000Y1540315D02*
Y1579685D01*
X4440315Y1640000D02*
X4479685D01*
X4460000Y1620315D02*
Y1659685D01*
X4028189Y2060000D02*
X4051811D01*
X4040000Y2048189D02*
Y2071811D01*
X4060000Y6363189D02*
Y6386811D01*
X4048189Y6375000D02*
X4071811D01*
X3978189Y6260000D02*
X4001811D01*
X3990000Y6248189D02*
Y6271811D01*
X4033189Y2340000D02*
X4056811D01*
X4045000Y2328189D02*
Y2351811D01*
X4172472Y2902528D02*
X4197528Y2877472D01*
X4172472D02*
X4197528Y2902528D01*
X4072472Y3002528D02*
X4097528Y2977472D01*
X4072472D02*
X4097528Y3002528D01*
X4132472Y2497472D02*
X4157528Y2522528D01*
X4132472D02*
X4157528Y2497472D01*
X3642472Y2507528D02*
X3667528Y2482472D01*
X3642472D02*
X3667528Y2507528D01*
D50*
X4030000Y6306968D02*
G03*
X4030000Y6306968I-3937J0D01*
G01*
D02*
G03*
X4030000Y6306968I-3937J0D01*
G01*
D51*
X4044567Y6254606D02*
X4125669D01*
X4044567D02*
Y6335709D01*
X4125669D01*
Y6254606D02*
Y6335709D01*
X4044567Y6254606D02*
X4125669D01*
X4044567D02*
Y6335709D01*
X4125669D01*
Y6254606D02*
Y6335709D01*
D79*
X3700146Y3180879D02*
X3739121Y3219854D01*
X3780879Y3100146D02*
X3819854Y3139121D01*
X3739121Y3219854D02*
X3819854Y3139121D01*
X3700146Y3180879D02*
X3780879Y3100146D01*
X3655146Y3140879D02*
X3694121Y3179854D01*
X3735879Y3060146D02*
X3774854Y3099121D01*
X3694121Y3179854D02*
X3774854Y3099121D01*
X3655146Y3140879D02*
X3735879Y3060146D01*
X3530146Y3005879D02*
X3569121Y3044854D01*
X3610879Y2925146D02*
X3649854Y2964121D01*
X3569121Y3044854D02*
X3649854Y2964121D01*
X3530146Y3005879D02*
X3610879Y2925146D01*
X3448443Y2907839D02*
X3518040Y2838242D01*
X3531960Y2991356D02*
X3601557Y2921758D01*
X3448443Y2907839D02*
X3531960Y2991356D01*
X3518040Y2838242D02*
X3601557Y2921758D01*
X3482528Y2824634D02*
X3510366Y2852473D01*
X3429634Y2877528D02*
X3457472Y2905366D01*
X3429634Y2877528D02*
X3482528Y2824634D01*
X3457472Y2905366D02*
X3510366Y2852473D01*
X3525146Y3099121D02*
X3564121Y3060146D01*
X3605879Y3179854D02*
X3644854Y3140879D01*
X3525146Y3099121D02*
X3605879Y3179854D01*
X3564121Y3060146D02*
X3644854Y3140879D01*
X3575293Y3061136D02*
X3660201Y2976227D01*
X3646282Y3132125D02*
X3731191Y3047216D01*
X3660201Y2976227D02*
X3731191Y3047216D01*
X3575293Y3061136D02*
X3646282Y3132125D01*
X4077441Y2357087D02*
X4132559D01*
X4077441Y2242913D02*
X4132559D01*
Y2357087D01*
X4077441Y2242913D02*
Y2357087D01*
X3876593Y2364102D02*
X4246850Y2734359D01*
X3506337D02*
X3876593Y3104616D01*
X3506337Y2734359D02*
X3876593Y2364102D01*
Y3104616D02*
X4246850Y2734359D01*
X4347087Y2957441D02*
Y3012559D01*
X4232913Y2957441D02*
Y3012559D01*
Y2957441D02*
X4347087D01*
X4232913Y3012559D02*
X4347087D01*
X4145315Y6497599D02*
X4184685D01*
X4145315Y6572402D02*
X4184685D01*
X4145315Y6497599D02*
Y6572402D01*
X4184685Y6497599D02*
Y6572402D01*
X4396811Y2273819D02*
Y2376181D01*
X4523189Y2273819D02*
Y2376181D01*
X4396811D02*
X4523189D01*
X4396811Y2273819D02*
X4523189D01*
X4277323Y1984134D02*
Y2125866D01*
X4442677Y1984134D02*
Y2125866D01*
X4277323D02*
X4442677D01*
X4277323Y1984134D02*
X4442677D01*
X3967126Y6484134D02*
X4132874D01*
X3967126Y6625866D02*
X4132874D01*
Y6484134D02*
Y6625866D01*
X3967126Y6484134D02*
Y6625866D01*
X3403819Y1544134D02*
Y1894527D01*
X3506181Y1544134D02*
Y1894527D01*
X3403819Y1544134D02*
X3506181D01*
X3403819Y1894527D02*
X3506181D01*
X4103425Y3137559D02*
X4217598D01*
X4103425Y3082441D02*
X4217598D01*
X4103425D02*
Y3137559D01*
X4217598Y3082441D02*
Y3137559D01*
X4087441Y1987913D02*
Y2102087D01*
X4142559Y1987913D02*
Y2102087D01*
X4087441Y1987913D02*
X4142559D01*
X4087441Y2102087D02*
X4142559D01*
X4192913Y2597441D02*
X4307087D01*
X4192913Y2652559D02*
X4307087D01*
Y2597441D02*
Y2652559D01*
X4192913Y2597441D02*
Y2652559D01*
X3717913Y2407559D02*
X3832087D01*
X3717913Y2352441D02*
X3832087D01*
X3717913D02*
Y2407559D01*
X3832087Y2352441D02*
Y2407559D01*
X3902913Y2352441D02*
X4017087D01*
X3902913Y2407559D02*
X4017087D01*
Y2352441D02*
Y2407559D01*
X3902913Y2352441D02*
Y2407559D01*
X3732559Y1992402D02*
Y2106575D01*
X3677441Y1992402D02*
Y2106575D01*
X3732559D01*
X3677441Y1992402D02*
X3732559D01*
X3637559Y1992913D02*
Y2107087D01*
X3582441Y1992913D02*
Y2107087D01*
X3637559D01*
X3582441Y1992913D02*
X3637559D01*
X4103425Y3212441D02*
X4217598D01*
X4103425Y3267559D02*
X4217598D01*
Y3212441D02*
Y3267559D01*
X4103425Y3212441D02*
Y3267559D01*
Y3147441D02*
X4217598D01*
X4103425Y3202559D02*
X4217598D01*
Y3147441D02*
Y3202559D01*
X4103425Y3147441D02*
Y3202559D01*
X4041722Y2484304D02*
X4122454Y2403571D01*
X4080696Y2523278D02*
X4161429Y2442546D01*
X4122454Y2403571D02*
X4161429Y2442546D01*
X4041722Y2484304D02*
X4080696Y2523278D01*
X3413425Y2367441D02*
X3527598D01*
X3413425Y2422559D02*
X3527598D01*
Y2367441D02*
Y2422559D01*
X3413425Y2367441D02*
Y2422559D01*
X3412913Y2252441D02*
X3527087D01*
X3412913Y2307559D02*
X3527087D01*
Y2252441D02*
Y2307559D01*
X3412913Y2252441D02*
Y2307559D01*
X4345945Y1559213D02*
Y1660787D01*
X4264055Y1559213D02*
Y1660787D01*
X4345945D01*
X4264055Y1559213D02*
X4345945D01*
X3544882Y2367441D02*
X3659055D01*
X3544882Y2422559D02*
X3659055D01*
Y2367441D02*
Y2422559D01*
X3544882Y2367441D02*
Y2422559D01*
X3542402Y2252441D02*
X3656575D01*
X3542402Y2307559D02*
X3656575D01*
Y2252441D02*
Y2307559D01*
X3542402Y2252441D02*
Y2307559D01*
X4345315Y2332598D02*
Y2407401D01*
X4384685Y2332598D02*
Y2407401D01*
X4345315Y2332598D02*
X4384685D01*
X4345315Y2407401D02*
X4384685D01*
X4384685Y2247599D02*
Y2322402D01*
X4345315Y2247599D02*
Y2322402D01*
X4384685D01*
X4345315Y2247599D02*
X4384685D01*
X4392598Y1969685D02*
X4467401D01*
X4392598Y1930315D02*
X4467401D01*
X4392598D02*
Y1969685D01*
X4467401Y1930315D02*
Y1969685D01*
X4574685Y2297599D02*
Y2372402D01*
X4535315Y2297599D02*
Y2372402D01*
X4574685D01*
X4535315Y2297599D02*
X4574685D01*
X4509685Y2037599D02*
Y2112402D01*
X4470315Y2037599D02*
Y2112402D01*
X4509685D01*
X4470315Y2037599D02*
X4509685D01*
X4210315Y1997598D02*
Y2072401D01*
X4249685Y1997598D02*
Y2072401D01*
X4210315Y1997598D02*
X4249685D01*
X4210315Y2072401D02*
X4249685D01*
X4524961Y1524567D02*
Y1595433D01*
X4395039Y1524567D02*
Y1595433D01*
Y1524567D02*
X4524961D01*
X4395039Y1595433D02*
X4524961D01*
Y1604567D02*
Y1675433D01*
X4395039Y1604567D02*
Y1675433D01*
Y1604567D02*
X4524961D01*
X4395039Y1675433D02*
X4524961D01*
X4059685Y2022599D02*
Y2097402D01*
X4020315Y2022599D02*
Y2097402D01*
X4059685D01*
X4020315Y2022599D02*
X4059685D01*
X4022598Y6394685D02*
X4097401D01*
X4022598Y6355315D02*
X4097401D01*
X4022598D02*
Y6394685D01*
X4097401Y6355315D02*
Y6394685D01*
X4009685Y6222599D02*
Y6297402D01*
X3970315Y6222599D02*
Y6297402D01*
X4009685D01*
X3970315Y6222599D02*
X4009685D01*
X4064685Y2302599D02*
Y2377402D01*
X4025315Y2302599D02*
Y2377402D01*
X4064685D01*
X4025315Y2302599D02*
X4064685D01*
X4125146Y2869121D02*
X4205879Y2949854D01*
X4164121Y2830146D02*
X4244854Y2910879D01*
X4125146Y2869121D02*
X4164121Y2830146D01*
X4205879Y2949854D02*
X4244854Y2910879D01*
X4025146Y2969121D02*
X4105879Y3049854D01*
X4064121Y2930146D02*
X4144854Y3010879D01*
X4025146Y2969121D02*
X4064121Y2930146D01*
X4105879Y3049854D02*
X4144854Y3010879D01*
X4124121Y2569854D02*
X4204854Y2489121D01*
X4085146Y2530879D02*
X4165879Y2450146D01*
X4085146Y2530879D02*
X4124121Y2569854D01*
X4165879Y2450146D02*
X4204854Y2489121D01*
X3634121Y2435146D02*
X3714854Y2515879D01*
X3595146Y2474121D02*
X3675879Y2554854D01*
X3714854Y2515879D01*
X3595146Y2474121D02*
X3634121Y2435146D01*
%TF.MD5,ed1fb0eeea7ef9b3366ecd9140dcde42*%
M02*
