%TF.GenerationSoftware,Altium Limited,Altium Designer,19.1.5 (86)*%
G04 Layer_Color=8388736*
%FSLAX26Y26*%
%MOIN*%
%TF.FileFunction,Other,Top_Assembly*%
%TF.Part,Single*%
G01*
G75*
%TA.AperFunction,NonConductor*%
%ADD47C,0.003937*%
D47*
X3896278Y2506081D02*
G03*
X3896278Y2506081I-19685J0D01*
G01*
X4465905Y2334843D02*
G03*
X4465905Y2334843I-15748J0D01*
G01*
X4044095Y6580591D02*
G03*
X4044095Y6580591I-19685J0D01*
G01*
X3723809Y3171135D02*
X3748864Y3196191D01*
X3771135Y3123809D02*
X3796191Y3148864D01*
X3748864Y3196191D02*
X3796191Y3148864D01*
X3723809Y3171135D02*
X3771135Y3123809D01*
X3678809Y3131135D02*
X3703864Y3156191D01*
X3726135Y3083809D02*
X3751191Y3108864D01*
X3703864Y3156191D02*
X3751191Y3108864D01*
X3678809Y3131135D02*
X3726135Y3083809D01*
X3553809Y2996135D02*
X3578864Y3021191D01*
X3601135Y2948809D02*
X3626191Y2973864D01*
X3578864Y3021191D02*
X3626191Y2973864D01*
X3553809Y2996135D02*
X3601135Y2948809D01*
X3462363Y2907839D02*
X3518040Y2852161D01*
X3531960Y2977436D02*
X3587637Y2921758D01*
X3462363Y2907839D02*
X3531960Y2977436D01*
X3518040Y2852161D02*
X3587637Y2921758D01*
X3476960Y2841337D02*
X3493663Y2858040D01*
X3446337Y2871960D02*
X3463040Y2888663D01*
X3446337Y2871960D02*
X3476960Y2841337D01*
X3463040Y2888663D02*
X3493663Y2858040D01*
X3548809Y3108864D02*
X3573865Y3083809D01*
X3596136Y3156191D02*
X3621191Y3131135D01*
X3548809Y3108864D02*
X3596136Y3156191D01*
X3573865Y3083809D02*
X3621191Y3131135D01*
X3589212Y3061136D02*
X3660201Y2990146D01*
X3646282Y3118205D02*
X3717271Y3047216D01*
X3660201Y2990146D02*
X3717271Y3047216D01*
X3589212Y3061136D02*
X3646282Y3118205D01*
X4087283Y2333465D02*
X4122717D01*
X4087283Y2266535D02*
X4122717D01*
Y2333465D01*
X4087283Y2266535D02*
Y2333465D01*
X3876593Y2455971D02*
X4154982Y2734359D01*
X3598205D02*
X3876593Y3012748D01*
X3598205Y2734359D02*
X3876593Y2455971D01*
Y3012748D02*
X4154982Y2734359D01*
X4323465Y2967284D02*
Y3002717D01*
X4256535Y2967284D02*
Y3002717D01*
Y2967284D02*
X4323465D01*
X4256535Y3002717D02*
X4323465D01*
X4153189Y6513346D02*
X4176811D01*
X4153189Y6556654D02*
X4176811D01*
X4153189Y6513346D02*
Y6556654D01*
X4176811Y6513346D02*
Y6556654D01*
X4418661Y2283662D02*
Y2366339D01*
X4501339Y2283662D02*
Y2366339D01*
X4418661D02*
X4501339D01*
X4418661Y2283662D02*
X4501339D01*
X4325551Y1994961D02*
Y2115039D01*
X4394449Y1994961D02*
Y2115039D01*
X4325551D02*
X4394449D01*
X4325551Y1994961D02*
X4394449D01*
X3988976Y6493976D02*
X4111024D01*
X3988976Y6616024D02*
X4111024D01*
Y6493976D02*
Y6616024D01*
X3988976Y6493976D02*
Y6616024D01*
X3413661Y1569724D02*
Y1868937D01*
X3496339Y1569724D02*
Y1868937D01*
X3413661Y1569724D02*
X3496339D01*
X3413661Y1868937D02*
X3496339D01*
X4127047Y3127717D02*
X4193976D01*
X4127047Y3092284D02*
X4193976D01*
X4127047D02*
Y3127717D01*
X4193976Y3092284D02*
Y3127717D01*
X4097283Y2011535D02*
Y2078465D01*
X4132717Y2011535D02*
Y2078465D01*
X4097283Y2011535D02*
X4132717D01*
X4097283Y2078465D02*
X4132717D01*
X4216535Y2607283D02*
X4283465D01*
X4216535Y2642716D02*
X4283465D01*
Y2607283D02*
Y2642716D01*
X4216535Y2607283D02*
Y2642716D01*
X3741535Y2397717D02*
X3808465D01*
X3741535Y2362284D02*
X3808465D01*
X3741535D02*
Y2397717D01*
X3808465Y2362284D02*
Y2397717D01*
X3926535Y2362283D02*
X3993465D01*
X3926535Y2397716D02*
X3993465D01*
Y2362283D02*
Y2397716D01*
X3926535Y2362283D02*
Y2397716D01*
X3722717Y2016024D02*
Y2082953D01*
X3687284Y2016024D02*
Y2082953D01*
X3722717D01*
X3687284Y2016024D02*
X3722717D01*
X3627717Y2016535D02*
Y2083465D01*
X3592284Y2016535D02*
Y2083465D01*
X3627717D01*
X3592284Y2016535D02*
X3627717D01*
X4127047Y3222283D02*
X4193976D01*
X4127047Y3257716D02*
X4193976D01*
Y3222283D02*
Y3257716D01*
X4127047Y3222283D02*
Y3257716D01*
Y3157283D02*
X4193976D01*
X4127047Y3192716D02*
X4193976D01*
Y3157283D02*
Y3192716D01*
X4127047Y3157283D02*
Y3192716D01*
X4065385Y2474560D02*
X4112711Y2427234D01*
X4090439Y2499615D02*
X4137766Y2452289D01*
X4112711Y2427234D02*
X4137766Y2452289D01*
X4065385Y2474560D02*
X4090439Y2499615D01*
X3437047Y2377283D02*
X3503976D01*
X3437047Y2412716D02*
X3503976D01*
Y2377283D02*
Y2412716D01*
X3437047Y2377283D02*
Y2412716D01*
X3436535Y2262283D02*
X3503465D01*
X3436535Y2297716D02*
X3503465D01*
Y2262283D02*
Y2297716D01*
X3436535Y2262283D02*
Y2297716D01*
X4336102Y1569055D02*
Y1650945D01*
X4273898Y1569055D02*
Y1650945D01*
X4336102D01*
X4273898Y1569055D02*
X4336102D01*
X3568504Y2377283D02*
X3635433D01*
X3568504Y2412716D02*
X3635433D01*
Y2377283D02*
Y2412716D01*
X3568504Y2377283D02*
Y2412716D01*
X3566024Y2262283D02*
X3632953D01*
X3566024Y2297716D02*
X3632953D01*
Y2262283D02*
Y2297716D01*
X3566024Y2262283D02*
Y2297716D01*
X4353189Y2348346D02*
Y2391653D01*
X4376811Y2348346D02*
Y2391653D01*
X4353189Y2348346D02*
X4376811D01*
X4353189Y2391653D02*
X4376811D01*
Y2263347D02*
Y2306654D01*
X4353189Y2263347D02*
Y2306654D01*
X4376811D01*
X4353189Y2263347D02*
X4376811D01*
X4408346Y1961811D02*
X4451654D01*
X4408346Y1938189D02*
X4451654D01*
X4408346D02*
Y1961811D01*
X4451654Y1938189D02*
Y1961811D01*
X4566811Y2313347D02*
Y2356654D01*
X4543189Y2313347D02*
Y2356654D01*
X4566811D01*
X4543189Y2313347D02*
X4566811D01*
X4501811Y2053347D02*
Y2096654D01*
X4478189Y2053347D02*
Y2096654D01*
X4501811D01*
X4478189Y2053347D02*
X4501811D01*
X4218189Y2013346D02*
Y2056653D01*
X4241811Y2013346D02*
Y2056653D01*
X4218189Y2013346D02*
X4241811D01*
X4218189Y2056653D02*
X4241811D01*
X4501339Y1534409D02*
Y1585591D01*
X4418661Y1534409D02*
Y1585591D01*
Y1534409D02*
X4501339D01*
X4418661Y1585591D02*
X4501339D01*
Y1614409D02*
Y1665591D01*
X4418661Y1614409D02*
Y1665591D01*
Y1614409D02*
X4501339D01*
X4418661Y1665591D02*
X4501339D01*
X4051811Y2038347D02*
Y2081654D01*
X4028189Y2038347D02*
Y2081654D01*
X4051811D01*
X4028189Y2038347D02*
X4051811D01*
X4038346Y6386811D02*
X4081653D01*
X4038346Y6363189D02*
X4081653D01*
X4038346D02*
Y6386811D01*
X4081653Y6363189D02*
Y6386811D01*
X4001811Y6238346D02*
Y6281654D01*
X3978189Y6238346D02*
Y6281654D01*
X4001811D01*
X3978189Y6238346D02*
X4001811D01*
X4056811Y2318347D02*
Y2361654D01*
X4033189Y2318347D02*
Y2361654D01*
X4056811D01*
X4033189Y2318347D02*
X4056811D01*
X4148809Y2878865D02*
X4196136Y2926191D01*
X4173864Y2853809D02*
X4221190Y2901136D01*
X4148809Y2878865D02*
X4173864Y2853809D01*
X4196136Y2926191D02*
X4221190Y2901136D01*
X4048809Y2978865D02*
X4096136Y3026191D01*
X4073864Y2953809D02*
X4121190Y3001136D01*
X4048809Y2978865D02*
X4073864Y2953809D01*
X4096136Y3026191D02*
X4121190Y3001136D01*
X4133864Y2546191D02*
X4181191Y2498865D01*
X4108810Y2521136D02*
X4156136Y2473809D01*
X4108810Y2521136D02*
X4133864Y2546191D01*
X4156136Y2473809D02*
X4181191Y2498865D01*
X3643865Y2458809D02*
X3691191Y2506135D01*
X3618809Y2483864D02*
X3666136Y2531191D01*
X3691191Y2506135D01*
X3618809Y2483864D02*
X3643865Y2458809D01*
%TF.MD5,cbfc694febf84d48397261d933152e90*%
M02*
