%TF.GenerationSoftware,Altium Limited,Altium Designer,19.1.5 (86)*%
G04 Layer_Physical_Order=2*
G04 Layer_Color=36540*
%FSLAX26Y26*%
%MOIN*%
%TF.FileFunction,Copper,L2,Inr,Signal*%
%TF.Part,Single*%
G01*
G75*
%TA.AperFunction,Conductor*%
%ADD36C,0.010000*%
%TA.AperFunction,ComponentPad*%
%ADD37R,0.059055X0.059055*%
%ADD38C,0.059055*%
%ADD39C,0.060000*%
%TA.AperFunction,ViaPad*%
%ADD40C,0.020000*%
%ADD41C,0.106299*%
G36*
X4325000Y3400000D02*
X3750000D01*
Y6830000D01*
X4325000D01*
Y3400000D01*
D02*
G37*
G36*
X4805000Y1378195D02*
X4800000Y1377453D01*
X4799912Y1377745D01*
X4794419Y1388021D01*
X4787028Y1397027D01*
X4778021Y1404419D01*
X4767745Y1409911D01*
X4756595Y1413294D01*
X4745000Y1414436D01*
X4733405Y1413294D01*
X4722255Y1409911D01*
X4711979Y1404419D01*
X4702972Y1397027D01*
X4695581Y1388021D01*
X4690088Y1377745D01*
X4686706Y1366595D01*
X4685564Y1355000D01*
X4686706Y1343405D01*
X4690088Y1332255D01*
X4695581Y1321979D01*
X4702972Y1312973D01*
X4711979Y1305581D01*
X4713066Y1305000D01*
X4711814Y1300000D01*
X4003968D01*
X4000000Y1305000D01*
Y1918677D01*
X4000000Y1922799D01*
X4003505Y1925000D01*
X4004537D01*
X4680000D01*
Y2146243D01*
X4675000Y2151243D01*
X4051535D01*
Y2266354D01*
X4052950Y2266636D01*
X4058243Y2270172D01*
X4061779Y2275465D01*
X4063021Y2281707D01*
X4061779Y2287950D01*
X4058243Y2293243D01*
X4052950Y2296779D01*
X4051535Y2297061D01*
Y2438098D01*
X4052818Y2438353D01*
X4058110Y2441890D01*
X4061647Y2447182D01*
X4062889Y2453425D01*
X4061647Y2459668D01*
X4058110Y2464960D01*
X4052818Y2468497D01*
X4046575Y2469738D01*
X4040332Y2468497D01*
X4035040Y2464960D01*
X4031725Y2460000D01*
X3625000D01*
Y1925000D01*
X3995569D01*
X3999537Y1920000D01*
Y1306323D01*
X3999537Y1302201D01*
X3996032Y1300000D01*
X3995000D01*
X3358186D01*
X3356934Y1305000D01*
X3358021Y1305581D01*
X3367028Y1312973D01*
X3374419Y1321979D01*
X3379912Y1332255D01*
X3383294Y1343405D01*
X3384436Y1355000D01*
X3383294Y1366595D01*
X3379912Y1377745D01*
X3374419Y1388021D01*
X3367028Y1397027D01*
X3358021Y1404419D01*
X3347745Y1409911D01*
X3336595Y1413294D01*
X3325000Y1414436D01*
X3313405Y1413294D01*
X3302255Y1409911D01*
X3291979Y1404419D01*
X3282972Y1397027D01*
X3280000Y1393406D01*
X3275000Y1395195D01*
Y3253944D01*
X3280000Y3256309D01*
X3286979Y3250581D01*
X3297255Y3245088D01*
X3308405Y3241706D01*
X3320000Y3240564D01*
X3331595Y3241706D01*
X3342745Y3245088D01*
X3353021Y3250581D01*
X3362028Y3257972D01*
X3369419Y3266979D01*
X3374912Y3277255D01*
X3378294Y3288405D01*
X3379436Y3300000D01*
X3378294Y3311595D01*
X3374912Y3322745D01*
X3369419Y3333021D01*
X3362028Y3342028D01*
X3358405Y3345000D01*
X3360195Y3350000D01*
X4071883D01*
X4074681Y3345000D01*
X4073686Y3340000D01*
X4074928Y3333757D01*
X4078465Y3328465D01*
X4078785Y3328251D01*
Y3279798D01*
X4078784Y3279798D01*
X4079638Y3275506D01*
X4082069Y3271867D01*
X4099784Y3254152D01*
Y3228261D01*
X4094784Y3225362D01*
X4090000Y3226314D01*
X4083757Y3225072D01*
X4078465Y3221535D01*
X4074928Y3216243D01*
X4073686Y3210000D01*
X4074928Y3203757D01*
X4078465Y3198465D01*
X4083757Y3194928D01*
X4090000Y3193686D01*
X4094784Y3194638D01*
X4099784Y3191739D01*
Y3160646D01*
X4070377Y3131238D01*
X4070000Y3131314D01*
X4063757Y3130072D01*
X4058465Y3126535D01*
X4054928Y3121243D01*
X4053686Y3115000D01*
X4054928Y3108757D01*
X4058465Y3103465D01*
X4063757Y3099928D01*
X4070000Y3098686D01*
X4076243Y3099928D01*
X4081535Y3103465D01*
X4085072Y3108757D01*
X4086314Y3115000D01*
X4086238Y3115377D01*
X4118930Y3148069D01*
X4118931Y3148069D01*
X4121362Y3151708D01*
X4122216Y3156000D01*
X4122216Y3156001D01*
Y3258797D01*
X4122216Y3258798D01*
X4121362Y3263090D01*
X4118931Y3266728D01*
X4118930Y3266729D01*
X4101216Y3284443D01*
Y3328251D01*
X4101535Y3328465D01*
X4105072Y3333757D01*
X4106314Y3340000D01*
X4105319Y3345000D01*
X4108117Y3350000D01*
X4716805D01*
X4717547Y3345000D01*
X4717255Y3344912D01*
X4706979Y3339419D01*
X4697972Y3332028D01*
X4690581Y3323021D01*
X4685088Y3312745D01*
X4681706Y3301595D01*
X4680564Y3290000D01*
X4681706Y3278405D01*
X4685088Y3267255D01*
X4690581Y3256979D01*
X4697972Y3247972D01*
X4706979Y3240581D01*
X4717255Y3235088D01*
X4728405Y3231706D01*
X4740000Y3230564D01*
X4751595Y3231706D01*
X4762745Y3235088D01*
X4773021Y3240581D01*
X4782028Y3247972D01*
X4789419Y3256979D01*
X4794912Y3267255D01*
X4798294Y3278405D01*
X4799436Y3290000D01*
X4798294Y3301595D01*
X4794912Y3312745D01*
X4789419Y3323021D01*
X4782028Y3332028D01*
X4773021Y3339419D01*
X4762745Y3344912D01*
X4762453Y3345000D01*
X4763195Y3350000D01*
X4805000D01*
Y1378195D01*
D02*
G37*
G36*
X3975719Y2420583D02*
X3975603Y2420000D01*
X3995000D01*
Y2415000D01*
X4000000D01*
Y2395603D01*
X4002804Y2396160D01*
X4006177Y2398414D01*
X4011177Y2395742D01*
X4011177Y2119269D01*
X4567230Y2119269D01*
X4568841Y2114269D01*
X4563967Y2107917D01*
X4560387Y2099274D01*
X4559166Y2090000D01*
X4560387Y2080726D01*
X4563967Y2072083D01*
X4569662Y2064662D01*
X4577083Y2058967D01*
X4585725Y2055387D01*
X4595000Y2054166D01*
X4604275Y2055387D01*
X4612917Y2058967D01*
X4620338Y2064662D01*
X4626033Y2072083D01*
X4629613Y2080726D01*
X4630834Y2090000D01*
X4629613Y2099274D01*
X4626033Y2107917D01*
X4621159Y2114269D01*
X4622770Y2119269D01*
X4659863D01*
Y1939269D01*
X3697376Y1939269D01*
X3695460Y1942854D01*
X3695173Y1944269D01*
X3696314Y1950000D01*
X3695072Y1956243D01*
X3691535Y1961535D01*
X3686243Y1965072D01*
X3680000Y1966313D01*
X3673757Y1965072D01*
X3668465Y1961535D01*
X3664928Y1956243D01*
X3663686Y1950000D01*
X3664827Y1944269D01*
X3664540Y1942854D01*
X3662624Y1939269D01*
X3654863D01*
Y2119269D01*
X3661177D01*
X3661177Y2355371D01*
X3666177Y2356888D01*
X3668465Y2353465D01*
X3673757Y2349928D01*
X3680000Y2348686D01*
X3686243Y2349928D01*
X3691535Y2353465D01*
X3695072Y2358757D01*
X3696314Y2365000D01*
X3695227Y2370459D01*
X3696956Y2373151D01*
X3698658Y2374875D01*
X3700000Y2374608D01*
X3707804Y2376160D01*
X3714419Y2380581D01*
X3718840Y2387196D01*
X3719397Y2390000D01*
X3680603D01*
X3681160Y2387196D01*
X3681943Y2386025D01*
X3681041Y2383838D01*
X3679186Y2381152D01*
X3673757Y2380072D01*
X3668465Y2376535D01*
X3666177Y2373112D01*
X3661177Y2374629D01*
Y2425583D01*
X3972462D01*
X3975719Y2420583D01*
D02*
G37*
%LPC*%
G36*
X4160000Y6621314D02*
X4153757Y6620072D01*
X4148465Y6616535D01*
X4148251Y6616216D01*
X3940001D01*
X3940000Y6616216D01*
X3935708Y6615362D01*
X3932069Y6612931D01*
X3932069Y6612930D01*
X3882069Y6562931D01*
X3879638Y6559292D01*
X3878784Y6555000D01*
X3878785Y6554999D01*
Y6440001D01*
X3878784Y6440000D01*
X3879638Y6435708D01*
X3882069Y6432069D01*
X4013785Y6300354D01*
Y6286749D01*
X4013465Y6286535D01*
X4009928Y6281243D01*
X4008686Y6275000D01*
X4009928Y6268757D01*
X4013465Y6263465D01*
X4018757Y6259928D01*
X4025000Y6258686D01*
X4031243Y6259928D01*
X4036535Y6263465D01*
X4040072Y6268757D01*
X4041314Y6275000D01*
X4040072Y6281243D01*
X4036535Y6286535D01*
X4036215Y6286749D01*
Y6305000D01*
X4035362Y6309292D01*
X4032931Y6312931D01*
X4032930Y6312931D01*
X3901215Y6444646D01*
Y6550354D01*
X3928966Y6578104D01*
X3934391Y6576459D01*
X3934928Y6573757D01*
X3938465Y6568465D01*
X3943757Y6564928D01*
X3950000Y6563686D01*
X3956243Y6564928D01*
X3961535Y6568465D01*
X3965072Y6573757D01*
X3966314Y6580000D01*
X3965072Y6586243D01*
X3963374Y6588784D01*
X3966046Y6593784D01*
X4148251D01*
X4148465Y6593465D01*
X4153757Y6589928D01*
X4160000Y6588686D01*
X4166243Y6589928D01*
X4171535Y6593465D01*
X4175072Y6598757D01*
X4176314Y6605000D01*
X4175072Y6611243D01*
X4171535Y6616535D01*
X4166243Y6620072D01*
X4160000Y6621314D01*
D02*
G37*
G36*
X4205000Y6549397D02*
Y6535000D01*
X4219397D01*
X4218840Y6537804D01*
X4214419Y6544419D01*
X4207804Y6548840D01*
X4205000Y6549397D01*
D02*
G37*
G36*
X4195000D02*
X4192196Y6548840D01*
X4185581Y6544419D01*
X4181160Y6537804D01*
X4180603Y6535000D01*
X4195000D01*
Y6549397D01*
D02*
G37*
G36*
X4219397Y6525000D02*
X4205000D01*
Y6510603D01*
X4207804Y6511160D01*
X4214419Y6515581D01*
X4218840Y6522196D01*
X4219397Y6525000D01*
D02*
G37*
G36*
X4195000D02*
X4180603D01*
X4181160Y6522196D01*
X4185581Y6515581D01*
X4192196Y6511160D01*
X4195000Y6510603D01*
Y6525000D01*
D02*
G37*
G36*
X3955000Y6501314D02*
X3948757Y6500072D01*
X3943465Y6496535D01*
X3939928Y6491243D01*
X3938686Y6485000D01*
X3939928Y6478757D01*
X3943465Y6473465D01*
X3948757Y6469928D01*
X3955000Y6468686D01*
X3955377Y6468761D01*
X3992069Y6432070D01*
X3992069Y6432069D01*
X3995708Y6429638D01*
X4000000Y6428784D01*
X4000001Y6428784D01*
X4018799D01*
X4020157Y6423784D01*
X4016160Y6417804D01*
X4015603Y6415000D01*
X4054397D01*
X4053840Y6417804D01*
X4049843Y6423784D01*
X4051201Y6428784D01*
X4070354D01*
X4103762Y6395377D01*
X4103686Y6395000D01*
X4104928Y6388757D01*
X4108465Y6383465D01*
X4108784Y6383251D01*
Y6270001D01*
X4108784Y6270000D01*
X4109638Y6265708D01*
X4112069Y6262069D01*
X4125760Y6248379D01*
Y6241621D01*
X4100658Y6216519D01*
X4095656Y6216945D01*
X4093374Y6221216D01*
X4095072Y6223757D01*
X4096314Y6230000D01*
X4095072Y6236243D01*
X4091535Y6241535D01*
X4086243Y6245072D01*
X4080000Y6246314D01*
X4073757Y6245072D01*
X4068465Y6241535D01*
X4064928Y6236243D01*
X4063686Y6230000D01*
X4064928Y6223757D01*
X4066626Y6221216D01*
X4063954Y6216216D01*
X4011749D01*
X4011535Y6216535D01*
X4006243Y6220072D01*
X4000000Y6221314D01*
X3993757Y6220072D01*
X3988465Y6216535D01*
X3984928Y6211243D01*
X3983686Y6205000D01*
X3984928Y6198757D01*
X3988465Y6193465D01*
X3993757Y6189928D01*
X4000000Y6188686D01*
X4006243Y6189928D01*
X4011535Y6193465D01*
X4011749Y6193784D01*
X4104999D01*
X4105000Y6193784D01*
X4109292Y6194638D01*
X4112931Y6197069D01*
X4144623Y6228762D01*
X4145000Y6228686D01*
X4151243Y6229928D01*
X4156535Y6233465D01*
X4160072Y6238757D01*
X4161314Y6245000D01*
X4160072Y6251243D01*
X4156535Y6256535D01*
X4151243Y6260072D01*
X4145000Y6261314D01*
X4144623Y6261238D01*
X4131216Y6274646D01*
Y6295314D01*
X4136216Y6296831D01*
X4138465Y6293465D01*
X4143757Y6289928D01*
X4150000Y6288686D01*
X4156243Y6289928D01*
X4161535Y6293465D01*
X4165072Y6298757D01*
X4166314Y6305000D01*
X4165072Y6311243D01*
X4161535Y6316535D01*
X4156243Y6320072D01*
X4150000Y6321314D01*
X4143757Y6320072D01*
X4138465Y6316535D01*
X4136216Y6313169D01*
X4131216Y6314686D01*
Y6383251D01*
X4131535Y6383465D01*
X4135072Y6388757D01*
X4136314Y6395000D01*
X4135072Y6401243D01*
X4131535Y6406535D01*
X4131216Y6406749D01*
Y6415354D01*
X4179623Y6463762D01*
X4180000Y6463686D01*
X4186243Y6464928D01*
X4191535Y6468465D01*
X4195072Y6473757D01*
X4196314Y6480000D01*
X4195072Y6486243D01*
X4191535Y6491535D01*
X4186243Y6495072D01*
X4180000Y6496314D01*
X4173757Y6495072D01*
X4168465Y6491535D01*
X4164928Y6486243D01*
X4163686Y6480000D01*
X4163762Y6479623D01*
X4112069Y6427931D01*
X4111241Y6426691D01*
X4105200Y6425661D01*
X4082931Y6447931D01*
X4079292Y6450362D01*
X4075000Y6451216D01*
X4074999Y6451216D01*
X4004646D01*
X3971238Y6484623D01*
X3971314Y6485000D01*
X3970072Y6491243D01*
X3966535Y6496535D01*
X3961243Y6500072D01*
X3955000Y6501314D01*
D02*
G37*
G36*
X4110000Y6481314D02*
X4103757Y6480072D01*
X4098465Y6476535D01*
X4094928Y6471243D01*
X4093686Y6465000D01*
X4094928Y6458757D01*
X4098465Y6453465D01*
X4103757Y6449928D01*
X4110000Y6448686D01*
X4116243Y6449928D01*
X4121535Y6453465D01*
X4125072Y6458757D01*
X4126314Y6465000D01*
X4125072Y6471243D01*
X4121535Y6476535D01*
X4116243Y6480072D01*
X4110000Y6481314D01*
D02*
G37*
G36*
X4054397Y6405000D02*
X4040000D01*
Y6390603D01*
X4042804Y6391160D01*
X4049419Y6395581D01*
X4053840Y6402196D01*
X4054397Y6405000D01*
D02*
G37*
G36*
X4030000D02*
X4015603D01*
X4016160Y6402196D01*
X4020581Y6395581D01*
X4027196Y6391160D01*
X4030000Y6390603D01*
Y6405000D01*
D02*
G37*
G36*
X3965000Y6334397D02*
Y6320000D01*
X3979397D01*
X3978840Y6322804D01*
X3974419Y6329419D01*
X3967804Y6333840D01*
X3965000Y6334397D01*
D02*
G37*
G36*
X3955000D02*
X3952196Y6333840D01*
X3945581Y6329419D01*
X3941160Y6322804D01*
X3940603Y6320000D01*
X3955000D01*
Y6334397D01*
D02*
G37*
G36*
X3979397Y6310000D02*
X3965000D01*
Y6295603D01*
X3967804Y6296160D01*
X3974419Y6300581D01*
X3978840Y6307196D01*
X3979397Y6310000D01*
D02*
G37*
G36*
X3955000D02*
X3940603D01*
X3941160Y6307196D01*
X3945581Y6300581D01*
X3952196Y6296160D01*
X3955000Y6295603D01*
Y6310000D01*
D02*
G37*
G36*
X3835312Y3468898D02*
Y3454501D01*
X3849710D01*
X3849152Y3457304D01*
X3844732Y3463920D01*
X3838116Y3468340D01*
X3835312Y3468898D01*
D02*
G37*
G36*
X3825312D02*
X3822509Y3468340D01*
X3815893Y3463920D01*
X3811473Y3457304D01*
X3810915Y3454501D01*
X3825312D01*
Y3468898D01*
D02*
G37*
G36*
X4200000Y3471314D02*
X4193757Y3470072D01*
X4188465Y3466535D01*
X4184928Y3461243D01*
X4183686Y3455000D01*
X4184928Y3448757D01*
X4188465Y3443465D01*
X4193757Y3439928D01*
X4200000Y3438686D01*
X4206243Y3439928D01*
X4211535Y3443465D01*
X4215072Y3448757D01*
X4216314Y3455000D01*
X4215072Y3461243D01*
X4211535Y3466535D01*
X4206243Y3470072D01*
X4200000Y3471314D01*
D02*
G37*
G36*
X3849710Y3444501D02*
X3835312D01*
Y3430103D01*
X3838116Y3430661D01*
X3844732Y3435081D01*
X3849152Y3441697D01*
X3849710Y3444501D01*
D02*
G37*
G36*
X3825312D02*
X3810915D01*
X3811473Y3441697D01*
X3815893Y3435081D01*
X3822509Y3430661D01*
X3825312Y3430103D01*
Y3444501D01*
D02*
G37*
G36*
X3835000Y3329397D02*
Y3315000D01*
X3849397D01*
X3848840Y3317804D01*
X3844419Y3324419D01*
X3837804Y3328840D01*
X3835000Y3329397D01*
D02*
G37*
G36*
X3825000D02*
X3822196Y3328840D01*
X3815581Y3324419D01*
X3811160Y3317804D01*
X3810603Y3315000D01*
X3825000D01*
Y3329397D01*
D02*
G37*
G36*
X4200000Y3326314D02*
X4193757Y3325072D01*
X4188465Y3321535D01*
X4184928Y3316243D01*
X4183686Y3310000D01*
X4184928Y3303757D01*
X4188465Y3298465D01*
X4193757Y3294928D01*
X4200000Y3293686D01*
X4206243Y3294928D01*
X4211535Y3298465D01*
X4215072Y3303757D01*
X4216314Y3310000D01*
X4215072Y3316243D01*
X4211535Y3321535D01*
X4206243Y3325072D01*
X4200000Y3326314D01*
D02*
G37*
G36*
X3849397Y3305000D02*
X3835000D01*
Y3290603D01*
X3837804Y3291160D01*
X3844419Y3295581D01*
X3848840Y3302196D01*
X3849397Y3305000D01*
D02*
G37*
G36*
X3825000D02*
X3810603D01*
X3811160Y3302196D01*
X3815581Y3295581D01*
X3822196Y3291160D01*
X3825000Y3290603D01*
Y3305000D01*
D02*
G37*
G36*
X3663718Y3318274D02*
X3657475Y3317032D01*
X3652182Y3313495D01*
X3648646Y3308203D01*
X3647404Y3301960D01*
X3648646Y3295717D01*
X3652182Y3290425D01*
X3657475Y3286888D01*
X3663718Y3285647D01*
X3669961Y3286888D01*
X3675253Y3290425D01*
X3678790Y3295717D01*
X3680031Y3301960D01*
X3678790Y3308203D01*
X3675253Y3313495D01*
X3669961Y3317032D01*
X3663718Y3318274D01*
D02*
G37*
G36*
X3630000Y3274397D02*
Y3260000D01*
X3644397D01*
X3643840Y3262804D01*
X3639419Y3269419D01*
X3632804Y3273840D01*
X3630000Y3274397D01*
D02*
G37*
G36*
X3620000D02*
X3617196Y3273840D01*
X3610581Y3269419D01*
X3606160Y3262804D01*
X3605603Y3260000D01*
X3620000D01*
Y3274397D01*
D02*
G37*
G36*
X3890000Y3286314D02*
X3883757Y3285072D01*
X3878465Y3281535D01*
X3874928Y3276243D01*
X3873686Y3270000D01*
X3874928Y3263757D01*
X3878465Y3258465D01*
X3883757Y3254928D01*
X3890000Y3253686D01*
X3896243Y3254928D01*
X3901535Y3258465D01*
X3905072Y3263757D01*
X3906314Y3270000D01*
X3905072Y3276243D01*
X3901535Y3281535D01*
X3896243Y3285072D01*
X3890000Y3286314D01*
D02*
G37*
G36*
X3644397Y3250000D02*
X3630000D01*
Y3235603D01*
X3632804Y3236160D01*
X3639419Y3240581D01*
X3643840Y3247196D01*
X3644397Y3250000D01*
D02*
G37*
G36*
X3620000D02*
X3605603D01*
X3606160Y3247196D01*
X3610581Y3240581D01*
X3617196Y3236160D01*
X3620000Y3235603D01*
Y3250000D01*
D02*
G37*
G36*
X3768317Y3258274D02*
X3762074Y3257032D01*
X3756782Y3253495D01*
X3753245Y3248203D01*
X3752004Y3241960D01*
X3753245Y3235717D01*
X3756782Y3230425D01*
X3762074Y3226888D01*
X3768317Y3225647D01*
X3774560Y3226888D01*
X3779852Y3230425D01*
X3783389Y3235717D01*
X3784631Y3241960D01*
X3783389Y3248203D01*
X3779852Y3253495D01*
X3774560Y3257032D01*
X3768317Y3258274D01*
D02*
G37*
G36*
X3672912Y3248274D02*
X3666669Y3247032D01*
X3661377Y3243495D01*
X3657840Y3238203D01*
X3656599Y3231960D01*
X3657840Y3225717D01*
X3661377Y3220425D01*
X3666669Y3216888D01*
X3672912Y3215647D01*
X3679155Y3216888D01*
X3684447Y3220425D01*
X3687984Y3225717D01*
X3689226Y3231960D01*
X3687984Y3238203D01*
X3684447Y3243495D01*
X3679155Y3247032D01*
X3672912Y3248274D01*
D02*
G37*
G36*
X3588167Y3243274D02*
X3581924Y3242032D01*
X3576631Y3238495D01*
X3573095Y3233203D01*
X3571853Y3226960D01*
X3573095Y3220717D01*
X3576631Y3215425D01*
X3581924Y3211888D01*
X3588167Y3210647D01*
X3594410Y3211888D01*
X3599702Y3215425D01*
X3603238Y3220717D01*
X3604480Y3226960D01*
X3603238Y3233203D01*
X3599702Y3238495D01*
X3594410Y3242032D01*
X3588167Y3243274D01*
D02*
G37*
G36*
X3645073Y3188274D02*
X3638830Y3187032D01*
X3633538Y3183495D01*
X3630001Y3178203D01*
X3628760Y3171960D01*
X3630001Y3165717D01*
X3633538Y3160425D01*
X3638830Y3156888D01*
X3645073Y3155647D01*
X3651316Y3156888D01*
X3656608Y3160425D01*
X3660145Y3165717D01*
X3661387Y3171960D01*
X3660145Y3178203D01*
X3656608Y3183495D01*
X3651316Y3187032D01*
X3645073Y3188274D01*
D02*
G37*
G36*
X4245000Y3169397D02*
Y3155000D01*
X4259397D01*
X4258840Y3157804D01*
X4254419Y3164419D01*
X4247804Y3168840D01*
X4245000Y3169397D01*
D02*
G37*
G36*
X4235000D02*
X4232196Y3168840D01*
X4225581Y3164419D01*
X4221160Y3157804D01*
X4220603Y3155000D01*
X4235000D01*
Y3169397D01*
D02*
G37*
G36*
X3530000Y3186314D02*
X3523757Y3185072D01*
X3518465Y3181535D01*
X3514928Y3176243D01*
X3513686Y3170000D01*
X3514928Y3163757D01*
X3518465Y3158465D01*
X3523757Y3154928D01*
X3530000Y3153686D01*
X3536243Y3154928D01*
X3541535Y3158465D01*
X3545072Y3163757D01*
X3546314Y3170000D01*
X3545072Y3176243D01*
X3541535Y3181535D01*
X3536243Y3185072D01*
X3530000Y3186314D01*
D02*
G37*
G36*
X3831758Y3172287D02*
X3825515Y3171045D01*
X3820223Y3167509D01*
X3816686Y3162216D01*
X3815445Y3155973D01*
X3816686Y3149731D01*
X3820223Y3144438D01*
X3825515Y3140902D01*
X3831758Y3139660D01*
X3838001Y3140902D01*
X3843294Y3144438D01*
X3846830Y3149731D01*
X3848072Y3155973D01*
X3846830Y3162216D01*
X3843294Y3167509D01*
X3838001Y3171045D01*
X3831758Y3172287D01*
D02*
G37*
G36*
X4259397Y3145000D02*
X4245000D01*
Y3130603D01*
X4247804Y3131160D01*
X4254419Y3135581D01*
X4258840Y3142196D01*
X4259397Y3145000D01*
D02*
G37*
G36*
X4235000D02*
X4220603D01*
X4221160Y3142196D01*
X4225581Y3135581D01*
X4232196Y3131160D01*
X4235000Y3130603D01*
Y3145000D01*
D02*
G37*
G36*
X3825000Y3124397D02*
Y3110000D01*
X3839397D01*
X3838840Y3112804D01*
X3834419Y3119419D01*
X3827804Y3123840D01*
X3825000Y3124397D01*
D02*
G37*
G36*
X3815000D02*
X3812196Y3123840D01*
X3805581Y3119419D01*
X3801160Y3112804D01*
X3800603Y3110000D01*
X3815000D01*
Y3124397D01*
D02*
G37*
G36*
X3446758Y3125675D02*
X3440515Y3124434D01*
X3435223Y3120897D01*
X3431686Y3115605D01*
X3430445Y3109362D01*
X3431686Y3103119D01*
X3435223Y3097827D01*
X3440515Y3094290D01*
X3446758Y3093048D01*
X3453001Y3094290D01*
X3458294Y3097827D01*
X3461830Y3103119D01*
X3463072Y3109362D01*
X3461830Y3115605D01*
X3458294Y3120897D01*
X3453001Y3124434D01*
X3446758Y3125675D01*
D02*
G37*
G36*
X3839397Y3100000D02*
X3825000D01*
Y3085603D01*
X3827804Y3086160D01*
X3834419Y3090581D01*
X3838840Y3097196D01*
X3839397Y3100000D01*
D02*
G37*
G36*
X3815000D02*
X3800603D01*
X3801160Y3097196D01*
X3805581Y3090581D01*
X3812196Y3086160D01*
X3815000Y3085603D01*
Y3100000D01*
D02*
G37*
G36*
X4640000Y3101314D02*
X4633757Y3100072D01*
X4628465Y3096535D01*
X4624928Y3091243D01*
X4623686Y3085000D01*
X4624928Y3078757D01*
X4628465Y3073465D01*
X4633757Y3069928D01*
X4640000Y3068686D01*
X4646243Y3069928D01*
X4651535Y3073465D01*
X4655072Y3078757D01*
X4656314Y3085000D01*
X4655072Y3091243D01*
X4651535Y3096535D01*
X4646243Y3100072D01*
X4640000Y3101314D01*
D02*
G37*
G36*
X3523215Y3074098D02*
X3516972Y3072856D01*
X3511680Y3069320D01*
X3508143Y3064027D01*
X3506901Y3057784D01*
X3508143Y3051541D01*
X3511680Y3046249D01*
X3516972Y3042713D01*
X3523215Y3041471D01*
X3529458Y3042713D01*
X3534750Y3046249D01*
X3538287Y3051541D01*
X3539528Y3057784D01*
X3538287Y3064027D01*
X3534750Y3069320D01*
X3529458Y3072856D01*
X3523215Y3074098D01*
D02*
G37*
G36*
X4160000Y3071314D02*
X4153757Y3070072D01*
X4148465Y3066535D01*
X4144928Y3061243D01*
X4143686Y3055000D01*
X4144928Y3048757D01*
X4148465Y3043465D01*
X4153757Y3039928D01*
X4160000Y3038686D01*
X4166243Y3039928D01*
X4171535Y3043465D01*
X4175072Y3048757D01*
X4176314Y3055000D01*
X4175072Y3061243D01*
X4171535Y3066535D01*
X4166243Y3070072D01*
X4160000Y3071314D01*
D02*
G37*
G36*
X4255000Y3056314D02*
X4248757Y3055072D01*
X4243465Y3051535D01*
X4239928Y3046243D01*
X4238686Y3040000D01*
X4239928Y3033757D01*
X4243465Y3028465D01*
X4248757Y3024928D01*
X4255000Y3023686D01*
X4261243Y3024928D01*
X4266535Y3028465D01*
X4270072Y3033757D01*
X4271314Y3040000D01*
X4270072Y3046243D01*
X4266535Y3051535D01*
X4261243Y3055072D01*
X4255000Y3056314D01*
D02*
G37*
G36*
X3406758Y3048274D02*
X3400515Y3047032D01*
X3395223Y3043495D01*
X3391686Y3038203D01*
X3390445Y3031960D01*
X3391686Y3025717D01*
X3395223Y3020425D01*
X3400515Y3016888D01*
X3406758Y3015647D01*
X3413001Y3016888D01*
X3418294Y3020425D01*
X3421830Y3025717D01*
X3423072Y3031960D01*
X3421830Y3038203D01*
X3418294Y3043495D01*
X3413001Y3047032D01*
X3406758Y3048274D01*
D02*
G37*
G36*
X3316758Y2988274D02*
X3310515Y2987032D01*
X3305223Y2983495D01*
X3301686Y2978203D01*
X3300445Y2971960D01*
X3301686Y2965717D01*
X3305223Y2960425D01*
X3310515Y2956888D01*
X3316758Y2955647D01*
X3323001Y2956888D01*
X3328294Y2960425D01*
X3331830Y2965717D01*
X3333072Y2971960D01*
X3331830Y2978203D01*
X3328294Y2983495D01*
X3323001Y2987032D01*
X3316758Y2988274D01*
D02*
G37*
G36*
X4105000Y2954397D02*
Y2940000D01*
X4119397D01*
X4118840Y2942804D01*
X4114419Y2949419D01*
X4107804Y2953840D01*
X4105000Y2954397D01*
D02*
G37*
G36*
X4095000D02*
X4092196Y2953840D01*
X4085581Y2949419D01*
X4081160Y2942804D01*
X4080603Y2940000D01*
X4095000D01*
Y2954397D01*
D02*
G37*
G36*
X3416723Y2961697D02*
X3410480Y2960455D01*
X3405188Y2956919D01*
X3401651Y2951626D01*
X3400409Y2945383D01*
X3401651Y2939140D01*
X3405188Y2933848D01*
X3410480Y2930311D01*
X3416723Y2929070D01*
X3422966Y2930311D01*
X3428258Y2933848D01*
X3431795Y2939140D01*
X3433036Y2945383D01*
X3431795Y2951626D01*
X3428258Y2956919D01*
X3422966Y2960455D01*
X3416723Y2961697D01*
D02*
G37*
G36*
X3850000Y2939397D02*
Y2925000D01*
X3864397D01*
X3863840Y2927804D01*
X3859419Y2934419D01*
X3852804Y2938840D01*
X3850000Y2939397D01*
D02*
G37*
G36*
X3840000D02*
X3837196Y2938840D01*
X3830581Y2934419D01*
X3826160Y2927804D01*
X3825603Y2925000D01*
X3840000D01*
Y2939397D01*
D02*
G37*
G36*
X4119397Y2930000D02*
X4105000D01*
Y2915603D01*
X4107804Y2916160D01*
X4114419Y2920581D01*
X4118840Y2927196D01*
X4119397Y2930000D01*
D02*
G37*
G36*
X4095000D02*
X4080603D01*
X4081160Y2927196D01*
X4085581Y2920581D01*
X4092196Y2916160D01*
X4095000Y2915603D01*
Y2930000D01*
D02*
G37*
G36*
X3864397Y2915000D02*
X3850000D01*
Y2900603D01*
X3852804Y2901160D01*
X3859419Y2905581D01*
X3863840Y2912196D01*
X3864397Y2915000D01*
D02*
G37*
G36*
X3840000D02*
X3825603D01*
X3826160Y2912196D01*
X3830581Y2905581D01*
X3837196Y2901160D01*
X3840000Y2900603D01*
Y2915000D01*
D02*
G37*
G36*
X3815000Y2899397D02*
Y2885000D01*
X3829397D01*
X3828840Y2887804D01*
X3824419Y2894419D01*
X3817804Y2898840D01*
X3815000Y2899397D01*
D02*
G37*
G36*
X3805000D02*
X3802196Y2898840D01*
X3795581Y2894419D01*
X3791160Y2887804D01*
X3790603Y2885000D01*
X3805000D01*
Y2899397D01*
D02*
G37*
G36*
X4265000Y2916314D02*
X4258757Y2915072D01*
X4253465Y2911535D01*
X4249928Y2906243D01*
X4248686Y2900000D01*
X4249928Y2893757D01*
X4253465Y2888465D01*
X4258757Y2884928D01*
X4265000Y2883686D01*
X4271243Y2884928D01*
X4276535Y2888465D01*
X4280072Y2893757D01*
X4281314Y2900000D01*
X4280072Y2906243D01*
X4276535Y2911535D01*
X4271243Y2915072D01*
X4265000Y2916314D01*
D02*
G37*
G36*
X3386758Y2903274D02*
X3380515Y2902032D01*
X3375223Y2898495D01*
X3371686Y2893203D01*
X3370445Y2886960D01*
X3371686Y2880717D01*
X3375223Y2875425D01*
X3380515Y2871888D01*
X3386758Y2870647D01*
X3393001Y2871888D01*
X3398294Y2875425D01*
X3401830Y2880717D01*
X3403072Y2886960D01*
X3401830Y2893203D01*
X3398294Y2898495D01*
X3393001Y2902032D01*
X3386758Y2903274D01*
D02*
G37*
G36*
X3829397Y2875000D02*
X3815000D01*
Y2860603D01*
X3817804Y2861160D01*
X3824419Y2865581D01*
X3828840Y2872196D01*
X3829397Y2875000D01*
D02*
G37*
G36*
X3805000D02*
X3790603D01*
X3791160Y2872196D01*
X3795581Y2865581D01*
X3802196Y2861160D01*
X3805000Y2860603D01*
Y2875000D01*
D02*
G37*
G36*
X3435000Y2869397D02*
Y2855000D01*
X3449397D01*
X3448840Y2857804D01*
X3444419Y2864419D01*
X3437804Y2868840D01*
X3435000Y2869397D01*
D02*
G37*
G36*
X3425000D02*
X3422196Y2868840D01*
X3415581Y2864419D01*
X3411160Y2857804D01*
X3410603Y2855000D01*
X3425000D01*
Y2869397D01*
D02*
G37*
G36*
X3449397Y2845000D02*
X3435000D01*
Y2830603D01*
X3437804Y2831160D01*
X3444419Y2835581D01*
X3448840Y2842196D01*
X3449397Y2845000D01*
D02*
G37*
G36*
X3425000D02*
X3410603D01*
X3411160Y2842196D01*
X3415581Y2835581D01*
X3422196Y2831160D01*
X3425000Y2830603D01*
Y2845000D01*
D02*
G37*
G36*
X3735421Y2844818D02*
X3732617Y2844261D01*
X3726002Y2839840D01*
X3721581Y2833225D01*
X3721024Y2830421D01*
X3735421D01*
Y2844818D01*
D02*
G37*
G36*
X3970000Y2851314D02*
X3963757Y2850072D01*
X3958465Y2846535D01*
X3954928Y2841243D01*
X3953686Y2835000D01*
X3954928Y2828757D01*
X3958465Y2823465D01*
X3963757Y2819928D01*
X3970000Y2818686D01*
X3976243Y2819928D01*
X3981535Y2823465D01*
X3985072Y2828757D01*
X3986314Y2835000D01*
X3985072Y2841243D01*
X3981535Y2846535D01*
X3976243Y2850072D01*
X3970000Y2851314D01*
D02*
G37*
G36*
X3735421Y2820421D02*
X3721024D01*
X3721581Y2817617D01*
X3726002Y2811002D01*
X3732617Y2806581D01*
X3735421Y2806024D01*
Y2820421D01*
D02*
G37*
G36*
X3477008Y2815160D02*
X3470765Y2813918D01*
X3465473Y2810382D01*
X3461936Y2805089D01*
X3460695Y2798846D01*
X3461936Y2792604D01*
X3465473Y2787311D01*
X3470765Y2783775D01*
X3477008Y2782533D01*
X3483251Y2783775D01*
X3488543Y2787311D01*
X3492080Y2792604D01*
X3493322Y2798846D01*
X3492080Y2805089D01*
X3488543Y2810382D01*
X3483251Y2813918D01*
X3477008Y2815160D01*
D02*
G37*
G36*
X3745421Y2844818D02*
Y2825421D01*
Y2806024D01*
X3747368Y2806411D01*
X3749508Y2804370D01*
X3750674Y2802359D01*
X3749928Y2801243D01*
X3748686Y2795000D01*
X3749928Y2788757D01*
X3753465Y2783465D01*
X3758757Y2779928D01*
X3765000Y2778686D01*
X3771243Y2779928D01*
X3776535Y2783465D01*
X3780072Y2788757D01*
X3781314Y2795000D01*
X3780072Y2801243D01*
X3777444Y2805175D01*
X3776874Y2807431D01*
X3778350Y2811336D01*
X3781535Y2813465D01*
X3785072Y2818757D01*
X3786314Y2825000D01*
X3785072Y2831243D01*
X3781535Y2836535D01*
X3776243Y2840072D01*
X3770000Y2841314D01*
X3763757Y2840072D01*
X3758465Y2836535D01*
X3757048D01*
X3754840Y2839840D01*
X3748225Y2844261D01*
X3745421Y2844818D01*
D02*
G37*
G36*
X4035000Y2791314D02*
X4028757Y2790072D01*
X4023465Y2786535D01*
X4019928Y2781243D01*
X4018686Y2775000D01*
X4019928Y2768757D01*
X4023465Y2763465D01*
X4028757Y2759928D01*
X4035000Y2758686D01*
X4041243Y2759928D01*
X4046535Y2763465D01*
X4050072Y2768757D01*
X4051314Y2775000D01*
X4050072Y2781243D01*
X4046535Y2786535D01*
X4041243Y2790072D01*
X4035000Y2791314D01*
D02*
G37*
G36*
X4075000Y2769397D02*
Y2755000D01*
X4089397D01*
X4088840Y2757804D01*
X4084419Y2764419D01*
X4077804Y2768840D01*
X4075000Y2769397D01*
D02*
G37*
G36*
X4065000D02*
X4062196Y2768840D01*
X4055581Y2764419D01*
X4051160Y2757804D01*
X4050603Y2755000D01*
X4065000D01*
Y2769397D01*
D02*
G37*
G36*
X3725000Y2781314D02*
X3718757Y2780072D01*
X3713465Y2776535D01*
X3709928Y2771243D01*
X3708686Y2765000D01*
X3709928Y2758757D01*
X3713465Y2753465D01*
X3718757Y2749928D01*
X3725000Y2748686D01*
X3731243Y2749928D01*
X3736535Y2753465D01*
X3740072Y2758757D01*
X3741314Y2765000D01*
X3740072Y2771243D01*
X3736535Y2776535D01*
X3731243Y2780072D01*
X3725000Y2781314D01*
D02*
G37*
G36*
X4089397Y2745000D02*
X4075000D01*
Y2730603D01*
X4077804Y2731160D01*
X4084419Y2735581D01*
X4088840Y2742196D01*
X4089397Y2745000D01*
D02*
G37*
G36*
X4065000D02*
X4050603D01*
X4051160Y2742196D01*
X4055581Y2735581D01*
X4062196Y2731160D01*
X4065000Y2730603D01*
Y2745000D01*
D02*
G37*
G36*
X3365000Y2765834D02*
X3355726Y2764613D01*
X3347083Y2761033D01*
X3339662Y2755338D01*
X3333967Y2747917D01*
X3330387Y2739274D01*
X3329166Y2730000D01*
X3330387Y2720726D01*
X3333967Y2712083D01*
X3339662Y2704662D01*
X3347083Y2698967D01*
X3355726Y2695387D01*
X3365000Y2694166D01*
X3374274Y2695387D01*
X3382917Y2698967D01*
X3390338Y2704662D01*
X3396033Y2712083D01*
X3399613Y2720726D01*
X3400834Y2730000D01*
X3399613Y2739274D01*
X3396033Y2747917D01*
X3390338Y2755338D01*
X3382917Y2761033D01*
X3374274Y2764613D01*
X3365000Y2765834D01*
D02*
G37*
G36*
X4000000Y2679397D02*
Y2665000D01*
X4014397D01*
X4013840Y2667804D01*
X4009419Y2674419D01*
X4002804Y2678840D01*
X4000000Y2679397D01*
D02*
G37*
G36*
X3990000D02*
X3987196Y2678840D01*
X3980581Y2674419D01*
X3976160Y2667804D01*
X3974703Y2660476D01*
X3974006Y2658943D01*
X3971148Y2656085D01*
X3970000Y2656314D01*
X3963757Y2655072D01*
X3958465Y2651535D01*
X3954928Y2646243D01*
X3953686Y2640000D01*
X3954928Y2633757D01*
X3958465Y2628465D01*
X3963757Y2624928D01*
X3970000Y2623686D01*
X3976243Y2624928D01*
X3981535Y2628465D01*
X3985072Y2633757D01*
X3985668Y2636755D01*
X3986808Y2640040D01*
X3990000Y2640296D01*
Y2660000D01*
Y2679397D01*
D02*
G37*
G36*
X4014397Y2655000D02*
X4000000D01*
Y2640603D01*
X4002804Y2641160D01*
X4009419Y2645581D01*
X4013840Y2652196D01*
X4014397Y2655000D01*
D02*
G37*
G36*
X3785000Y2644397D02*
Y2630000D01*
X3799397D01*
X3798840Y2632804D01*
X3794419Y2639419D01*
X3787804Y2643840D01*
X3785000Y2644397D01*
D02*
G37*
G36*
X3799397Y2620000D02*
X3785000D01*
Y2605603D01*
X3787804Y2606160D01*
X3794419Y2610581D01*
X3798840Y2617196D01*
X3799397Y2620000D01*
D02*
G37*
G36*
X3750000Y2656314D02*
X3743757Y2655072D01*
X3738465Y2651535D01*
X3734928Y2646243D01*
X3733686Y2640000D01*
X3734928Y2633757D01*
X3738465Y2628465D01*
X3743757Y2624928D01*
X3750000Y2623686D01*
X3754828Y2624647D01*
X3759181Y2622517D01*
X3760282Y2621613D01*
X3761160Y2617196D01*
X3765581Y2610581D01*
X3772196Y2606160D01*
X3775000Y2605603D01*
Y2625000D01*
Y2644397D01*
X3772196Y2643840D01*
X3770829Y2642926D01*
X3765274Y2645227D01*
X3765072Y2646243D01*
X3761535Y2651535D01*
X3756243Y2655072D01*
X3750000Y2656314D01*
D02*
G37*
G36*
X3365000Y2665834D02*
X3355726Y2664613D01*
X3347083Y2661033D01*
X3339662Y2655338D01*
X3333967Y2647917D01*
X3330387Y2639274D01*
X3329166Y2630000D01*
X3330387Y2620726D01*
X3333967Y2612083D01*
X3339662Y2604662D01*
X3347083Y2598967D01*
X3355726Y2595387D01*
X3365000Y2594166D01*
X3374274Y2595387D01*
X3382917Y2598967D01*
X3390338Y2604662D01*
X3396033Y2612083D01*
X3399613Y2620726D01*
X3400834Y2630000D01*
X3399613Y2639274D01*
X3396033Y2647917D01*
X3390338Y2655338D01*
X3382917Y2661033D01*
X3374274Y2664613D01*
X3365000Y2665834D01*
D02*
G37*
G36*
X4225000Y2591314D02*
X4218757Y2590072D01*
X4213465Y2586535D01*
X4209928Y2581243D01*
X4208686Y2575000D01*
X4209928Y2568757D01*
X4213465Y2563465D01*
X4218757Y2559928D01*
X4225000Y2558686D01*
X4231243Y2559928D01*
X4236535Y2563465D01*
X4240072Y2568757D01*
X4241314Y2575000D01*
X4240072Y2581243D01*
X4236535Y2586535D01*
X4231243Y2590072D01*
X4225000Y2591314D01*
D02*
G37*
G36*
X4070000Y2551314D02*
X4063757Y2550072D01*
X4058465Y2546535D01*
X4054928Y2541243D01*
X4053686Y2535000D01*
X4054928Y2528757D01*
X4058465Y2523465D01*
X4063757Y2519928D01*
X4070000Y2518686D01*
X4076243Y2519928D01*
X4081535Y2523465D01*
X4085072Y2528757D01*
X4086314Y2535000D01*
X4085072Y2541243D01*
X4081535Y2546535D01*
X4076243Y2550072D01*
X4070000Y2551314D01*
D02*
G37*
G36*
X3920000D02*
X3913757Y2550072D01*
X3908465Y2546535D01*
X3904928Y2541243D01*
X3903686Y2535000D01*
X3904928Y2528757D01*
X3908465Y2523465D01*
X3913757Y2519928D01*
X3920000Y2518686D01*
X3926243Y2519928D01*
X3931535Y2523465D01*
X3935072Y2528757D01*
X3936314Y2535000D01*
X3935072Y2541243D01*
X3931535Y2546535D01*
X3926243Y2550072D01*
X3920000Y2551314D01*
D02*
G37*
G36*
X3400528Y2565528D02*
X3329472D01*
Y2494472D01*
X3400528D01*
Y2565528D01*
D02*
G37*
G36*
X4210000Y2496314D02*
X4203757Y2495072D01*
X4198465Y2491535D01*
X4194928Y2486243D01*
X4193686Y2480000D01*
X4194928Y2473757D01*
X4198465Y2468465D01*
X4203757Y2464928D01*
X4210000Y2463686D01*
X4216243Y2464928D01*
X4221535Y2468465D01*
X4225072Y2473757D01*
X4226314Y2480000D01*
X4225072Y2486243D01*
X4221535Y2491535D01*
X4216243Y2495072D01*
X4210000Y2496314D01*
D02*
G37*
G36*
X4410000Y2421314D02*
X4403757Y2420072D01*
X4398465Y2416535D01*
X4394928Y2411243D01*
X4393686Y2405000D01*
X4394928Y2398757D01*
X4398465Y2393465D01*
X4403757Y2389928D01*
X4410000Y2388686D01*
X4416243Y2389928D01*
X4421535Y2393465D01*
X4425072Y2398757D01*
X4426314Y2405000D01*
X4425072Y2411243D01*
X4421535Y2416535D01*
X4416243Y2420072D01*
X4410000Y2421314D01*
D02*
G37*
G36*
X3485000Y2366314D02*
X3478757Y2365072D01*
X3473465Y2361535D01*
X3469928Y2356243D01*
X3468686Y2350000D01*
X3469928Y2343757D01*
X3472646Y2339690D01*
X3469797Y2335359D01*
X3465000Y2336314D01*
X3458757Y2335072D01*
X3453465Y2331535D01*
X3449928Y2326243D01*
X3448686Y2320000D01*
X3449928Y2313757D01*
X3453465Y2308465D01*
X3458757Y2304928D01*
X3465000Y2303686D01*
X3471243Y2304928D01*
X3476535Y2308465D01*
X3480072Y2313757D01*
X3481314Y2320000D01*
X3480072Y2326243D01*
X3477354Y2330310D01*
X3480203Y2334641D01*
X3485000Y2333686D01*
X3491243Y2334928D01*
X3496535Y2338465D01*
X3500072Y2343757D01*
X3501314Y2350000D01*
X3500072Y2356243D01*
X3496535Y2361535D01*
X3491243Y2365072D01*
X3485000Y2366314D01*
D02*
G37*
G36*
X4265000Y2405834D02*
X4255725Y2404613D01*
X4247083Y2401033D01*
X4239662Y2395338D01*
X4233967Y2387917D01*
X4230387Y2379274D01*
X4229166Y2370000D01*
X4230387Y2360726D01*
X4233967Y2352083D01*
X4239662Y2344662D01*
X4247083Y2338967D01*
X4255725Y2335387D01*
X4265000Y2334166D01*
X4274275Y2335387D01*
X4282917Y2338967D01*
X4290338Y2344662D01*
X4296033Y2352083D01*
X4299613Y2360726D01*
X4300834Y2370000D01*
X4299613Y2379274D01*
X4296033Y2387917D01*
X4290338Y2395338D01*
X4282917Y2401033D01*
X4274275Y2404613D01*
X4265000Y2405834D01*
D02*
G37*
G36*
X4304528Y2309528D02*
X4270000D01*
Y2275000D01*
X4304528D01*
Y2309528D01*
D02*
G37*
G36*
X4260000D02*
X4225472D01*
Y2275000D01*
X4260000D01*
Y2309528D01*
D02*
G37*
G36*
X4545000Y2291314D02*
X4538757Y2290072D01*
X4533465Y2286535D01*
X4529928Y2281243D01*
X4528686Y2275000D01*
X4529928Y2268757D01*
X4533465Y2263465D01*
X4538757Y2259928D01*
X4545000Y2258686D01*
X4551243Y2259928D01*
X4556535Y2263465D01*
X4560072Y2268757D01*
X4561314Y2275000D01*
X4560072Y2281243D01*
X4556535Y2286535D01*
X4551243Y2290072D01*
X4545000Y2291314D01*
D02*
G37*
G36*
X4304528Y2265000D02*
X4270000D01*
Y2230472D01*
X4304528D01*
Y2265000D01*
D02*
G37*
G36*
X4260000D02*
X4225472D01*
Y2230472D01*
X4260000D01*
Y2265000D01*
D02*
G37*
G36*
X4410000Y2261314D02*
X4403757Y2260072D01*
X4398465Y2256535D01*
X4394928Y2251243D01*
X4393686Y2245000D01*
X4394928Y2238757D01*
X4398465Y2233465D01*
X4403757Y2229928D01*
X4410000Y2228686D01*
X4416243Y2229928D01*
X4421535Y2233465D01*
X4425072Y2238757D01*
X4426314Y2245000D01*
X4425072Y2251243D01*
X4421535Y2256535D01*
X4416243Y2260072D01*
X4410000Y2261314D01*
D02*
G37*
G36*
X4680000Y2201314D02*
X4673757Y2200072D01*
X4668465Y2196535D01*
X4664928Y2191243D01*
X4663686Y2185000D01*
X4664928Y2178757D01*
X4668465Y2173465D01*
X4673757Y2169928D01*
X4680000Y2168686D01*
X4686243Y2169928D01*
X4691535Y2173465D01*
X4695072Y2178757D01*
X4696314Y2185000D01*
X4695072Y2191243D01*
X4691535Y2196535D01*
X4686243Y2200072D01*
X4680000Y2201314D01*
D02*
G37*
G36*
X4765000Y2196314D02*
X4758757Y2195072D01*
X4753465Y2191535D01*
X4749928Y2186243D01*
X4748686Y2180000D01*
X4749928Y2173757D01*
X4753465Y2168465D01*
X4758757Y2164928D01*
X4765000Y2163686D01*
X4771243Y2164928D01*
X4776535Y2168465D01*
X4780072Y2173757D01*
X4781314Y2180000D01*
X4780072Y2186243D01*
X4776535Y2191535D01*
X4771243Y2195072D01*
X4765000Y2196314D01*
D02*
G37*
G36*
X3500000Y2155834D02*
X3490726Y2154613D01*
X3482083Y2151033D01*
X3474662Y2145338D01*
X3468967Y2137917D01*
X3465387Y2129274D01*
X3464166Y2120000D01*
X3465387Y2110726D01*
X3468967Y2102083D01*
X3474662Y2094662D01*
X3482083Y2088967D01*
X3490726Y2085387D01*
X3500000Y2084166D01*
X3509274Y2085387D01*
X3517917Y2088967D01*
X3525338Y2094662D01*
X3531033Y2102083D01*
X3534613Y2110726D01*
X3535834Y2120000D01*
X3534613Y2129274D01*
X3531033Y2137917D01*
X3525338Y2145338D01*
X3517917Y2151033D01*
X3509274Y2154613D01*
X3500000Y2155834D01*
D02*
G37*
G36*
X4725000Y2125834D02*
X4715725Y2124613D01*
X4707083Y2121033D01*
X4699662Y2115338D01*
X4693967Y2107917D01*
X4690387Y2099274D01*
X4689166Y2090000D01*
X4690387Y2080726D01*
X4693967Y2072083D01*
X4699662Y2064662D01*
X4707083Y2058967D01*
X4715725Y2055387D01*
X4725000Y2054166D01*
X4734275Y2055387D01*
X4742917Y2058967D01*
X4750338Y2064662D01*
X4756033Y2072083D01*
X4759613Y2080726D01*
X4760834Y2090000D01*
X4759613Y2099274D01*
X4756033Y2107917D01*
X4750338Y2115338D01*
X4742917Y2121033D01*
X4734275Y2124613D01*
X4725000Y2125834D01*
D02*
G37*
G36*
X3535528Y2055528D02*
X3464472D01*
Y1984473D01*
X3535528D01*
Y2055528D01*
D02*
G37*
G36*
X4725000Y2025834D02*
X4715725Y2024613D01*
X4707083Y2021033D01*
X4699662Y2015339D01*
X4693967Y2007917D01*
X4690387Y1999274D01*
X4689166Y1990000D01*
X4690387Y1980726D01*
X4693967Y1972083D01*
X4699662Y1964661D01*
X4707083Y1958967D01*
X4715725Y1955387D01*
X4725000Y1954166D01*
X4734275Y1955387D01*
X4742917Y1958967D01*
X4750338Y1964661D01*
X4756033Y1972083D01*
X4759613Y1980726D01*
X4760834Y1990000D01*
X4759613Y1999274D01*
X4756033Y2007917D01*
X4750338Y2015339D01*
X4742917Y2021033D01*
X4734275Y2024613D01*
X4725000Y2025834D01*
D02*
G37*
G36*
Y1925834D02*
X4715725Y1924613D01*
X4707083Y1921033D01*
X4699662Y1915339D01*
X4693967Y1907917D01*
X4690387Y1899274D01*
X4689166Y1890000D01*
X4690387Y1880726D01*
X4693967Y1872083D01*
X4699662Y1864661D01*
X4707083Y1858967D01*
X4715725Y1855387D01*
X4725000Y1854166D01*
X4734275Y1855387D01*
X4742917Y1858967D01*
X4750338Y1864661D01*
X4756033Y1872083D01*
X4759613Y1880726D01*
X4760834Y1890000D01*
X4759613Y1899274D01*
X4756033Y1907917D01*
X4750338Y1915339D01*
X4742917Y1921033D01*
X4734275Y1924613D01*
X4725000Y1925834D01*
D02*
G37*
G36*
X4450000Y1875834D02*
X4440725Y1874613D01*
X4432083Y1871033D01*
X4424662Y1865339D01*
X4418967Y1857917D01*
X4415387Y1849274D01*
X4414166Y1840000D01*
X4415387Y1830726D01*
X4418967Y1822083D01*
X4424662Y1814661D01*
X4432083Y1808967D01*
X4440725Y1805387D01*
X4450000Y1804166D01*
X4459275Y1805387D01*
X4467917Y1808967D01*
X4475338Y1814661D01*
X4481033Y1822083D01*
X4484613Y1830726D01*
X4485834Y1840000D01*
X4484613Y1849274D01*
X4481033Y1857917D01*
X4475338Y1865339D01*
X4467917Y1871033D01*
X4459275Y1874613D01*
X4450000Y1875834D01*
D02*
G37*
G36*
X4310000D02*
X4300725Y1874613D01*
X4292083Y1871033D01*
X4284662Y1865339D01*
X4278967Y1857917D01*
X4275387Y1849274D01*
X4274166Y1840000D01*
X4275387Y1830726D01*
X4278967Y1822083D01*
X4284662Y1814661D01*
X4292083Y1808967D01*
X4300725Y1805387D01*
X4310000Y1804166D01*
X4319275Y1805387D01*
X4327917Y1808967D01*
X4335338Y1814661D01*
X4341033Y1822083D01*
X4344613Y1830726D01*
X4345834Y1840000D01*
X4344613Y1849274D01*
X4341033Y1857917D01*
X4335338Y1865339D01*
X4327917Y1871033D01*
X4319275Y1874613D01*
X4310000Y1875834D01*
D02*
G37*
G36*
X4725000Y1825834D02*
X4715725Y1824613D01*
X4707083Y1821033D01*
X4699662Y1815339D01*
X4693967Y1807917D01*
X4690387Y1799274D01*
X4689166Y1790000D01*
X4690387Y1780726D01*
X4693967Y1772083D01*
X4699662Y1764661D01*
X4707083Y1758967D01*
X4715725Y1755387D01*
X4725000Y1754166D01*
X4734275Y1755387D01*
X4742917Y1758967D01*
X4750338Y1764661D01*
X4756033Y1772083D01*
X4759613Y1780726D01*
X4760834Y1790000D01*
X4759613Y1799274D01*
X4756033Y1807917D01*
X4750338Y1815339D01*
X4742917Y1821033D01*
X4734275Y1824613D01*
X4725000Y1825834D01*
D02*
G37*
G36*
X3785000Y1741313D02*
X3778757Y1740072D01*
X3773465Y1736535D01*
X3769928Y1731243D01*
X3768686Y1725000D01*
X3769928Y1718757D01*
X3773465Y1713465D01*
X3778757Y1709928D01*
X3785000Y1708687D01*
X3791243Y1709928D01*
X3796535Y1713465D01*
X3800072Y1718757D01*
X3801314Y1725000D01*
X3800072Y1731243D01*
X3796535Y1736535D01*
X3791243Y1740072D01*
X3785000Y1741313D01*
D02*
G37*
G36*
X4485528Y1775527D02*
X4414472D01*
Y1704473D01*
X4485528D01*
Y1775527D01*
D02*
G37*
G36*
X4345528D02*
X4274472D01*
Y1704473D01*
X4345528D01*
Y1775527D01*
D02*
G37*
G36*
X3640000Y1736313D02*
X3633757Y1735072D01*
X3628465Y1731535D01*
X3624928Y1726243D01*
X3623686Y1720000D01*
X3624928Y1713757D01*
X3628465Y1708465D01*
X3633757Y1704928D01*
X3640000Y1703687D01*
X3646243Y1704928D01*
X3651535Y1708465D01*
X3655072Y1713757D01*
X3656314Y1720000D01*
X3655072Y1726243D01*
X3651535Y1731535D01*
X3646243Y1735072D01*
X3640000Y1736313D01*
D02*
G37*
G36*
X4730000Y1729210D02*
Y1695000D01*
X4764210D01*
X4763510Y1700319D01*
X4759527Y1709934D01*
X4753191Y1718191D01*
X4744934Y1724527D01*
X4735319Y1728510D01*
X4730000Y1729210D01*
D02*
G37*
G36*
X4720000D02*
X4714681Y1728510D01*
X4705066Y1724527D01*
X4696809Y1718191D01*
X4690473Y1709934D01*
X4686490Y1700319D01*
X4685790Y1695000D01*
X4720000D01*
Y1729210D01*
D02*
G37*
G36*
X4540000Y1706313D02*
X4533757Y1705072D01*
X4528465Y1701535D01*
X4524928Y1696243D01*
X4523686Y1690000D01*
X4524928Y1683757D01*
X4528465Y1678465D01*
X4533757Y1674928D01*
X4540000Y1673687D01*
X4546243Y1674928D01*
X4551535Y1678465D01*
X4555072Y1683757D01*
X4556314Y1690000D01*
X4555072Y1696243D01*
X4551535Y1701535D01*
X4546243Y1705072D01*
X4540000Y1706313D01*
D02*
G37*
G36*
X4764210Y1685000D02*
X4730000D01*
Y1650790D01*
X4735319Y1651490D01*
X4744934Y1655473D01*
X4753191Y1661809D01*
X4759527Y1670066D01*
X4763510Y1679681D01*
X4764210Y1685000D01*
D02*
G37*
G36*
X4720000D02*
X4685790D01*
X4686490Y1679681D01*
X4690473Y1670066D01*
X4696809Y1661809D01*
X4705066Y1655473D01*
X4714681Y1651490D01*
X4720000Y1650790D01*
Y1685000D01*
D02*
G37*
G36*
X4760528Y1625527D02*
X4689472D01*
Y1554473D01*
X4760528D01*
Y1625527D01*
D02*
G37*
G36*
X4300000Y1551313D02*
X4293757Y1550072D01*
X4288465Y1546535D01*
X4284928Y1541243D01*
X4283686Y1535000D01*
X4284928Y1528757D01*
X4288465Y1523465D01*
X4293757Y1519928D01*
X4300000Y1518687D01*
X4306243Y1519928D01*
X4311535Y1523465D01*
X4315072Y1528757D01*
X4316314Y1535000D01*
X4315072Y1541243D01*
X4311535Y1546535D01*
X4306243Y1550072D01*
X4300000Y1551313D01*
D02*
G37*
G36*
X4100787Y1566311D02*
X4091390Y1565073D01*
X4082632Y1561446D01*
X4075112Y1555676D01*
X4069341Y1548155D01*
X4065714Y1539398D01*
X4064477Y1530000D01*
X4065714Y1520602D01*
X4069341Y1511845D01*
X4075112Y1504324D01*
X4082632Y1498554D01*
X4091390Y1494927D01*
X4100787Y1493689D01*
X4110185Y1494927D01*
X4118943Y1498554D01*
X4126463Y1504324D01*
X4132233Y1511845D01*
X4135861Y1520602D01*
X4137098Y1530000D01*
X4135861Y1539398D01*
X4132233Y1548155D01*
X4126463Y1555676D01*
X4118943Y1561446D01*
X4110185Y1565073D01*
X4100787Y1566311D01*
D02*
G37*
G36*
X3650000D02*
X3640602Y1565073D01*
X3631845Y1561446D01*
X3624325Y1555676D01*
X3618554Y1548155D01*
X3614927Y1539398D01*
X3613689Y1530000D01*
X3614927Y1520602D01*
X3618554Y1511845D01*
X3624325Y1504324D01*
X3631845Y1498554D01*
X3640602Y1494927D01*
X3650000Y1493689D01*
X3659398Y1494927D01*
X3668155Y1498554D01*
X3675675Y1504324D01*
X3681446Y1511845D01*
X3685073Y1520602D01*
X3686311Y1530000D01*
X3685073Y1539398D01*
X3681446Y1548155D01*
X3675675Y1555676D01*
X3668155Y1561446D01*
X3659398Y1565073D01*
X3650000Y1566311D01*
D02*
G37*
G36*
X3500000Y1506313D02*
X3493757Y1505072D01*
X3488465Y1501535D01*
X3484928Y1496243D01*
X3483686Y1490000D01*
X3484928Y1483757D01*
X3488465Y1478465D01*
X3493757Y1474928D01*
X3500000Y1473687D01*
X3506243Y1474928D01*
X3511535Y1478465D01*
X3515072Y1483757D01*
X3516314Y1490000D01*
X3515072Y1496243D01*
X3511535Y1501535D01*
X3506243Y1505072D01*
X3500000Y1506313D01*
D02*
G37*
G36*
X3705000Y2414397D02*
Y2400000D01*
X3719397D01*
X3718840Y2402804D01*
X3714419Y2409419D01*
X3707804Y2413840D01*
X3705000Y2414397D01*
D02*
G37*
G36*
X3695000D02*
X3692196Y2413840D01*
X3685581Y2409419D01*
X3681160Y2402804D01*
X3680603Y2400000D01*
X3695000D01*
Y2414397D01*
D02*
G37*
G36*
X3990000Y2410000D02*
X3975603D01*
X3976160Y2407196D01*
X3980581Y2400581D01*
X3987196Y2396160D01*
X3990000Y2395603D01*
Y2410000D01*
D02*
G37*
G36*
X3875000Y2376314D02*
X3868757Y2375072D01*
X3863465Y2371535D01*
X3860114Y2366521D01*
X3857977Y2366243D01*
X3857023D01*
X3854886Y2366521D01*
X3851535Y2371535D01*
X3846243Y2375072D01*
X3840000Y2376314D01*
X3833757Y2375072D01*
X3828465Y2371535D01*
X3824928Y2366243D01*
X3823686Y2360000D01*
X3824928Y2353757D01*
X3828465Y2348465D01*
X3833757Y2344928D01*
X3840000Y2343686D01*
X3846243Y2344928D01*
X3851535Y2348465D01*
X3854886Y2353479D01*
X3857023Y2353757D01*
X3857977D01*
X3860114Y2353479D01*
X3863465Y2348465D01*
X3868757Y2344928D01*
X3875000Y2343686D01*
X3881243Y2344928D01*
X3886535Y2348465D01*
X3890072Y2353757D01*
X3891314Y2360000D01*
X3890072Y2366243D01*
X3886535Y2371535D01*
X3881243Y2375072D01*
X3875000Y2376314D01*
D02*
G37*
G36*
X3700000Y2306314D02*
X3693757Y2305072D01*
X3688465Y2301535D01*
X3684928Y2296243D01*
X3683686Y2290000D01*
X3684928Y2283757D01*
X3688465Y2278465D01*
X3693757Y2274928D01*
X3700000Y2273686D01*
X3706243Y2274928D01*
X3711535Y2278465D01*
X3715072Y2283757D01*
X3716314Y2290000D01*
X3715072Y2296243D01*
X3711535Y2301535D01*
X3706243Y2305072D01*
X3700000Y2306314D01*
D02*
G37*
G36*
X3745000Y2134397D02*
Y2115000D01*
Y2095603D01*
X3747804Y2096160D01*
X3754419Y2100581D01*
X3758840Y2107196D01*
X3760392Y2115000D01*
X3760311Y2115404D01*
X3760459Y2115583D01*
X3760276D01*
X3758840Y2122804D01*
X3754419Y2129419D01*
X3747804Y2133840D01*
X3745000Y2134397D01*
D02*
G37*
G36*
X3735000D02*
X3732196Y2133840D01*
X3725581Y2129419D01*
X3721160Y2122804D01*
X3719724Y2115583D01*
X3719541D01*
X3719689Y2115404D01*
X3719608Y2115000D01*
X3721160Y2107196D01*
X3725581Y2100581D01*
X3732196Y2096160D01*
X3735000Y2095603D01*
Y2115000D01*
Y2134397D01*
D02*
G37*
G36*
X4245000Y2111314D02*
X4238757Y2110072D01*
X4233465Y2106535D01*
X4229928Y2101243D01*
X4228686Y2095000D01*
X4229928Y2088757D01*
X4233465Y2083465D01*
X4238757Y2079928D01*
X4245000Y2078686D01*
X4251243Y2079928D01*
X4256535Y2083465D01*
X4260072Y2088757D01*
X4261314Y2095000D01*
X4260072Y2101243D01*
X4256535Y2106535D01*
X4251243Y2110072D01*
X4245000Y2111314D01*
D02*
G37*
G36*
X3950000Y2034397D02*
Y2020000D01*
X3964397D01*
X3963840Y2022804D01*
X3959419Y2029419D01*
X3952804Y2033840D01*
X3950000Y2034397D01*
D02*
G37*
G36*
X3940000D02*
X3937196Y2033840D01*
X3930581Y2029419D01*
X3926160Y2022804D01*
X3925603Y2020000D01*
X3940000D01*
Y2034397D01*
D02*
G37*
G36*
X3775000Y2036313D02*
X3768757Y2035072D01*
X3763465Y2031535D01*
X3759928Y2026243D01*
X3758686Y2020000D01*
X3759928Y2013757D01*
X3763465Y2008465D01*
X3768757Y2004928D01*
X3775000Y2003687D01*
X3781243Y2004928D01*
X3786535Y2008465D01*
X3790072Y2013757D01*
X3791314Y2020000D01*
X3790072Y2026243D01*
X3786535Y2031535D01*
X3781243Y2035072D01*
X3775000Y2036313D01*
D02*
G37*
G36*
X3964397Y2010000D02*
X3950000D01*
Y1995603D01*
X3952804Y1996160D01*
X3959419Y2000581D01*
X3963840Y2007196D01*
X3964397Y2010000D01*
D02*
G37*
G36*
X3940000D02*
X3925603D01*
X3926160Y2007196D01*
X3930581Y2000581D01*
X3937196Y1996160D01*
X3940000Y1995603D01*
Y2010000D01*
D02*
G37*
G36*
X4634528Y2029527D02*
X4600000D01*
Y1995000D01*
X4634528D01*
Y2029527D01*
D02*
G37*
G36*
X4590000D02*
X4555472D01*
Y1995000D01*
X4590000D01*
Y2029527D01*
D02*
G37*
G36*
X4005000Y2026313D02*
X3998757Y2025072D01*
X3993465Y2021535D01*
X3989928Y2016243D01*
X3988686Y2010000D01*
X3989928Y2003757D01*
X3993465Y1998465D01*
X3998757Y1994928D01*
X4005000Y1993687D01*
X4011243Y1994928D01*
X4016535Y1998465D01*
X4020072Y2003757D01*
X4021314Y2010000D01*
X4020072Y2016243D01*
X4016535Y2021535D01*
X4011243Y2025072D01*
X4005000Y2026313D01*
D02*
G37*
G36*
X4485000Y2006313D02*
X4478757Y2005072D01*
X4473465Y2001535D01*
X4469928Y1996243D01*
X4468686Y1990000D01*
X4469928Y1983757D01*
X4473465Y1978465D01*
X4478757Y1974928D01*
X4485000Y1973687D01*
X4491243Y1974928D01*
X4496535Y1978465D01*
X4500072Y1983757D01*
X4501314Y1990000D01*
X4500072Y1996243D01*
X4496535Y2001535D01*
X4491243Y2005072D01*
X4485000Y2006313D01*
D02*
G37*
G36*
X4300000Y1986313D02*
X4293757Y1985072D01*
X4288465Y1981535D01*
X4284928Y1976243D01*
X4283686Y1970000D01*
X4284928Y1963757D01*
X4288465Y1958465D01*
X4293757Y1954928D01*
X4300000Y1953687D01*
X4306243Y1954928D01*
X4311535Y1958465D01*
X4315072Y1963757D01*
X4316314Y1970000D01*
X4315072Y1976243D01*
X4311535Y1981535D01*
X4306243Y1985072D01*
X4300000Y1986313D01*
D02*
G37*
G36*
X4634528Y1985000D02*
X4600000D01*
Y1950473D01*
X4634528D01*
Y1985000D01*
D02*
G37*
G36*
X4590000D02*
X4555472D01*
Y1950473D01*
X4590000D01*
Y1985000D01*
D02*
G37*
%LPD*%
D36*
X4070000Y3115000D02*
X4111000Y3156000D01*
Y3258798D01*
X4090000Y3279798D02*
X4111000Y3258798D01*
X4090000Y3279798D02*
Y3340000D01*
X4075000Y6440000D02*
X4120000Y6395000D01*
X4000000Y6440000D02*
X4075000D01*
X3955000Y6485000D02*
X4000000Y6440000D01*
X3940000Y6605000D02*
X4160000D01*
X3890000Y6555000D02*
X3940000Y6605000D01*
X3890000Y6440000D02*
Y6555000D01*
Y6440000D02*
X4025000Y6305000D01*
X4000000Y6205000D02*
X4105000D01*
X4145000Y6245000D01*
X4120000Y6270000D02*
X4145000Y6245000D01*
X4120000Y6270000D02*
Y6395000D01*
X4025000Y6275000D02*
Y6305000D01*
X4120000Y6420000D02*
X4180000Y6480000D01*
X4120000Y6395000D02*
Y6420000D01*
D37*
X4265000Y2270000D02*
D03*
X4595000Y1990000D02*
D03*
X4450000Y1740000D02*
D03*
X4310000D02*
D03*
X3365000Y2530000D02*
D03*
X3500000Y2020000D02*
D03*
X4725000Y1590000D02*
D03*
D38*
X4265000Y2370000D02*
D03*
X4595000Y2090000D02*
D03*
X4450000Y1840000D02*
D03*
X4310000D02*
D03*
X3365000Y2630000D02*
D03*
Y2730000D02*
D03*
X3500000Y2120000D02*
D03*
X4725000Y1690000D02*
D03*
Y1790000D02*
D03*
Y1890000D02*
D03*
Y1990000D02*
D03*
Y2090000D02*
D03*
D39*
X3650000Y1530000D02*
D03*
X4100787D02*
D03*
D40*
X3810000Y2880000D02*
D03*
X3750000Y2640000D02*
D03*
X3465000Y2320000D02*
D03*
X3485000Y2350000D02*
D03*
X3920000Y2535000D02*
D03*
X3840000Y2360000D02*
D03*
X3700000Y2395000D02*
D03*
X4070000Y2535000D02*
D03*
X3995000Y2415000D02*
D03*
X4046575Y2453425D02*
D03*
X4210000Y2480000D02*
D03*
X3945000Y2015000D02*
D03*
X3740000Y2115000D02*
D03*
X4035000Y2775000D02*
D03*
X4200000Y3455000D02*
D03*
Y3310000D02*
D03*
X3830312Y3449501D02*
D03*
X3780000Y2625000D02*
D03*
X3970000Y2640000D02*
D03*
X3995000Y2660000D02*
D03*
X4070000Y2750000D02*
D03*
X3845000Y2920000D02*
D03*
X3740421Y2825421D02*
D03*
X3625000Y3255000D02*
D03*
X3820000Y3105000D02*
D03*
X3430000Y2850000D02*
D03*
X3785000Y1725000D02*
D03*
X3640000Y1720000D02*
D03*
X4090000Y3340000D02*
D03*
Y3210000D02*
D03*
X4255000Y3040000D02*
D03*
X4145000Y6245000D02*
D03*
X4035000Y6410000D02*
D03*
X4150000Y6305000D02*
D03*
X3960000Y6315000D02*
D03*
X4080000Y6230000D02*
D03*
X4110000Y6465000D02*
D03*
X4160000Y6605000D02*
D03*
X3950000Y6580000D02*
D03*
X4200000Y6530000D02*
D03*
X4070000Y3115000D02*
D03*
X4046707Y2281707D02*
D03*
X3725000Y2765000D02*
D03*
X3765000Y2795000D02*
D03*
X3770000Y2825000D02*
D03*
X3970000Y2835000D02*
D03*
X4765000Y2180000D02*
D03*
X4680000Y2185000D02*
D03*
X3830000Y3310000D02*
D03*
X3890000Y3270000D02*
D03*
X4640000Y3085000D02*
D03*
X4265000Y2900000D02*
D03*
X4160000Y3055000D02*
D03*
X4240000Y3150000D02*
D03*
X4100000Y2935000D02*
D03*
X3875000Y2360000D02*
D03*
X3680000Y2365000D02*
D03*
X3700000Y2290000D02*
D03*
X4225000Y2575000D02*
D03*
X4410000Y2405000D02*
D03*
Y2245000D02*
D03*
X4545000Y2275000D02*
D03*
X4300000Y1970000D02*
D03*
X4245000Y2095000D02*
D03*
X4485000Y1990000D02*
D03*
X3775000Y2020000D02*
D03*
X4540000Y1690000D02*
D03*
X4300000Y1535000D02*
D03*
X3680000Y1950000D02*
D03*
X4005000Y2010000D02*
D03*
X3500000Y1490000D02*
D03*
X3955000Y6485000D02*
D03*
X4180000Y6480000D02*
D03*
X4000000Y6205000D02*
D03*
X4025000Y6275000D02*
D03*
X4120000Y6395000D02*
D03*
X3831758Y3155973D02*
D03*
X3663718Y3301960D02*
D03*
X3768317Y3241960D02*
D03*
X3672912Y3231960D02*
D03*
X3645073Y3171960D02*
D03*
X3588167Y3226960D02*
D03*
X3530000Y3170000D02*
D03*
X3477008Y2798846D02*
D03*
X3386758Y2886960D02*
D03*
X3523215Y3057784D02*
D03*
X3446758Y3109362D02*
D03*
X3406758Y3031960D02*
D03*
X3416723Y2945383D02*
D03*
X3316758Y2971960D02*
D03*
D41*
X4740000Y3290000D02*
D03*
X3325000Y1355000D02*
D03*
X4745000D02*
D03*
X3320000Y3300000D02*
D03*
%TF.MD5,f30f097995c76e546cb891a8a9e289cb*%
M02*
